<?xml version="1.0" standalone="no"?>
<!DOCTYPE svg PUBLIC "-//W3C//DTD SVG 1.1//EN" "http://www.w3.org/Graphics/SVG/1.1/DTD/svg11.dtd" >
<svg xmlns="http://www.w3.org/2000/svg">
<metadata>
Created by FontPrep 20130207 at Mon May  5 10:31:23 2014
 By eli ben yosef
Digitized data copyright (c) 2010-2012 Google Corporation.
</metadata>
<defs>
<font id="b1ab0ef94cc22d4ccdc85bb22236276b" horiz-adv-x='1024' >
  <font-face 
    font-family="Arimo-BoldItalic"
    font-weight="700"
    font-style="italic"
    font-stretch="normal"
    units-per-em="2048"
    panose-1="2 11 7 4 2 2 2 9 2 4"
    ascent="1638"
    descent="-410"
    x-height="1082"
    cap-height="1409"
    bbox="-977 -771 2780 2109"
    underline-thickness="215"
    underline-position="-110"
    slope="-12"
    unicode-range="U+0020-FFFC"
  />
<missing-glyph horiz-adv-x="1536" 
d="M281 1333v-1257h973v1257h-973zM205 1409h1125v-1409h-1125v1409z" />
    <glyph glyph-name=".notdef" horiz-adv-x="1536" 
d="M281 1333v-1257h973v1257h-973zM205 1409h1125v-1409h-1125v1409z" />
    <glyph glyph-name=".null" 
 />
    <glyph glyph-name="nonmarkingreturn" horiz-adv-x="569" 
 />
    <glyph glyph-name="space" unicode=" " horiz-adv-x="569" 
 />
    <glyph glyph-name="space" unicode="&#xa0;" horiz-adv-x="569" 
 />
    <glyph glyph-name="exclam" unicode="!" horiz-adv-x="682" 
d="M79 0l52 270h288l-52 -270h-288zM423 426h-230l160 983h294z" />
    <glyph glyph-name="quotedbl" unicode="&#x22;" horiz-adv-x="971" 
d="M438 898h-219l72 511h273zM864 898h-219l72 511h275z" />
    <glyph glyph-name="numbersign" unicode="#" horiz-adv-x="1139" 
d="M479 862l-72 -332h309l70 332h-307zM1085 530v-149h-246l-82 -381h-156l80 381h-307l-80 -381h-153l79 381h-155v149h188l70 332h-207v148h238l84 385h153l-82 -385h307l84 385h156l-84 -385h164v-148h-197l-69 -332h215z" />
    <glyph glyph-name="dollar" unicode="$" horiz-adv-x="1139" 
d="M412 1006q0 -49 32.5 -81.5t121.5 -61.5l67 331q-99 0 -160 -53t-61 -135zM810 410q0 80 -44 120.5t-139 62.5l-73 -362q115 0 185.5 49.5t70.5 129.5zM1080 474q0 -431 -564 -453l-33 -173h-112l32 175q-176 0 -289 93.5t-125 249.5l262 42q14 -177 194 -177l73 388
q-180 45 -277 140t-97 223t62.5 219t186.5 142t279 51l24 126l110 -4l-27 -130q162 0 263.5 -79t114.5 -218l-261 -57q-14 77 -54.5 117.5t-100.5 40.5l-67 -353q209 -50 307.5 -138.5t98.5 -224.5z" />
    <glyph glyph-name="percent" unicode="%" horiz-adv-x="1821" 
d="M486 0h-197l1086 1409h199zM1454 731q-78 0 -123 -60t-71 -184.5t-26 -198.5q0 -142 86 -142q79 0 127.5 64.5t74.5 195.5q28 109 28 186q0 139 -96 139zM1455 882q150 0 229.5 -79.5t79.5 -228.5q0 -82 -26 -178q-56 -263 -187 -337t-235 -74q-142 0 -218.5 84
t-76.5 233q0 89 24 174q84 406 410 406zM545 1270q-78 0 -123 -60t-71 -184.5t-26 -198.5q0 -142 86 -142q79 0 127.5 64.5t74.5 195.5q28 109 28 186q0 139 -96 139zM546 1421q150 0 229.5 -79.5t79.5 -228.5q0 -82 -26 -178q-56 -263 -187 -337t-235 -74q-142 0 -218.5 84
t-76.5 233q0 89 24 174q84 406 410 406z" />
    <glyph glyph-name="ampersand" unicode="&#x26;" horiz-adv-x="1479" 
d="M980 1146q0 101 -138 101q-72 0 -123.5 -55.5t-51.5 -143.5t20 -152q142 54 217.5 101.5t75.5 148.5zM482 170q138 0 243 79q-124 164 -200 382q-124 -56 -172.5 -122t-48.5 -150t52 -136.5t126 -52.5zM440 1037q0 172 114.5 276t293.5 104t267.5 -67.5t88.5 -189.5
q0 -170 -131 -259.5t-337 -173.5q43 -119 81 -190t91 -142q133 142 234 365l187 -83q-45 -104 -120 -217.5t-158 -198.5q75 -64 184 -64q63 0 111 16l-39 -203q-66 -22 -139 -22q-174 0 -305 117q-71 -55 -152 -90t-264 -35q-184 0 -291 96.5t-107 277.5q0 309 426 457
q-35 112 -35 226z" />
    <glyph glyph-name="quotesingle" unicode="'" horiz-adv-x="487" 
d="M417 898h-219l73 511h272z" />
    <glyph glyph-name="parenleft" unicode="(" horiz-adv-x="682" 
d="M350 280q0 -399 147 -705h-275q-148 316 -148 700q0 763 519 1209h281q-524 -500 -524 -1204z" />
    <glyph glyph-name="parenright" unicode=")" horiz-adv-x="682" 
d="M345 809q0 170 -40 351t-109 324h265q161 -320 161 -693t-134 -684t-387 -532h-281q525 513 525 1234z" />
    <glyph glyph-name="asterisk" unicode="*" horiz-adv-x="797" 
d="M574 1135l235 104l68 -197l-250 -61l186 -213l-184 -121l-146 252l-149 -252l-186 123l190 211l-250 61l68 197l239 -104l-18 274h215z" />
    <glyph glyph-name="plus" unicode="+" horiz-adv-x="1196" 
d="M750 569v-408h-226v408h-399v224h399v408h226v-408h402v-224h-402z" />
    <glyph glyph-name="comma" unicode="," horiz-adv-x="569" 
d="M165 -317h-185q166 166 195 317h-129l59 305h289l-47 -239q-45 -232 -182 -383z" />
    <glyph glyph-name="hyphen" unicode="-" horiz-adv-x="682" 
d="M56 409l47 244h520l-47 -244h-520z" />
    <glyph glyph-name="hyphen" unicode="&#xad;" horiz-adv-x="682" 
d="M56 409l47 244h520l-47 -244h-520z" />
    <glyph glyph-name="period" unicode="." horiz-adv-x="569" 
d="M46 0l59 305h289l-59 -305h-289z" />
    <glyph glyph-name="slash" unicode="/" horiz-adv-x="569" 
d="M-76 -41l587 1525h238l-583 -1525h-242z" />
    <glyph glyph-name="zero" unicode="0" horiz-adv-x="1139" 
d="M497 201q117 0 187.5 107.5t116 346.5t45.5 322q0 233 -152 233q-86 0 -139.5 -47t-91 -151.5t-71.5 -309t-34 -287.5q0 -214 139 -214zM724 1430q395 0 395 -466q0 -115 -38 -299q-144 -685 -603 -685q-200 0 -296.5 117.5t-96.5 356.5q0 139 91 557.5t548 418.5z" />
    <glyph glyph-name="one" unicode="1" horiz-adv-x="1139" 
d="M33 0l43 231h349l179 921l-381 -214l47 242l396 229h270l-230 -1178h323l-44 -231h-952z" />
    <glyph glyph-name="two" unicode="2" horiz-adv-x="1139" 
d="M687 1430q210 0 320.5 -87.5t110.5 -267.5t-127 -302.5t-287 -230.5t-238.5 -176.5t-122.5 -134.5h654l-44 -231h-985l37 195q86 149 207.5 252.5t285.5 218.5t247.5 198.5t83.5 198.5q0 143 -162 143q-88 0 -142 -44t-81 -140l-266 59q103 349 509 349z" />
    <glyph glyph-name="three" unicode="3" horiz-adv-x="1139" 
d="M535 829q149 0 222.5 58t73.5 164q0 72 -38.5 113.5t-118.5 41.5q-186 0 -237 -184l-267 52q102 356 515 356q203 0 317 -91t114 -250t-97 -254t-264 -110l-1 -4q135 -21 205.5 -100t70.5 -203t-65 -225.5t-183 -157t-271 -55.5q-226 0 -352.5 93t-142.5 270l282 38
q11 -90 62.5 -132.5t159.5 -42.5t166.5 56t58.5 154q0 186 -220 186h-107l44 227h73z" />
    <glyph glyph-name="four" unicode="4" horiz-adv-x="1139" 
d="M800 1206q-46 -78 -117 -170l-424 -540h389l102 524q18 90 50 186zM874 286l-54 -286h-268l54 286h-640l41 207l717 916h370l-178 -913h188l-42 -210h-188z" />
    <glyph glyph-name="five" unicode="5" horiz-adv-x="1139" 
d="M701 934q160 0 261.5 -113t101.5 -289t-70.5 -298t-202.5 -188t-318 -66t-305.5 88.5t-147.5 260.5l283 45q18 -93 65.5 -130.5t157.5 -37.5t181 76.5t71 192.5t-49.5 174t-139.5 58q-123 0 -202 -91h-274l203 793h847l-43 -231h-594l-87 -334q102 90 262 90z" />
    <glyph glyph-name="six" unicode="6" horiz-adv-x="1139" 
d="M369 416q0 -92 49 -154t148 -62t162.5 82t63.5 198q0 220 -178 220q-67 0 -124 -34t-89 -96t-32 -154zM725 907q164 0 258.5 -100.5t94.5 -262.5t-70 -290t-194.5 -201t-280.5 -73q-210 0 -324 133t-114 388t83.5 472.5t233 337t331.5 119.5t285.5 -83.5t121.5 -240.5
l-266 -41q-27 143 -148 143t-206 -115t-124 -347q53 72 134.5 116.5t184.5 44.5z" />
    <glyph glyph-name="seven" unicode="7" horiz-adv-x="1139" 
d="M188 1409h1031l-44 -223l-162 -194q-259 -306 -374 -523t-167 -469h-298q88 455 339 745.5t380 432.5h-750z" />
    <glyph glyph-name="eight" unicode="8" horiz-adv-x="1139" 
d="M317 390q0 -212 209 -212q102 0 168 72t66 180t-53 159t-157 51t-168.5 -71t-64.5 -179zM476 1020q0 -180 178 -180q88 0 142.5 59.5t54.5 164.5q0 168 -172 168q-95 0 -149 -55.5t-54 -156.5zM199 1052q0 177 137.5 277t353.5 100t331 -91.5t115 -239.5t-85.5 -241.5
t-230.5 -113.5l-1 -4q111 -33 170.5 -114t59.5 -193q0 -208 -148.5 -330t-388.5 -122t-362.5 100.5t-122.5 263.5t94.5 261t264.5 132v4q-187 83 -187 311z" />
    <glyph glyph-name="nine" unicode="9" horiz-adv-x="1139" 
d="M855 1009q0 87 -50 144t-127 57q-114 0 -180 -84t-66 -226q0 -85 48 -137.5t146 -52.5t163.5 80t65.5 219zM500 503q-161 0 -257 107.5t-96 269.5t71 286.5t196.5 194t277.5 69.5q200 0 319 -128.5t119 -344.5q0 -172 -48.5 -364.5t-179.5 -402.5t-423 -210
q-182 0 -293 86t-138 245l274 48q29 -157 176 -157q233 0 319 451q-65 -77 -139 -113.5t-178 -36.5z" />
    <glyph glyph-name="colon" unicode=":" horiz-adv-x="682" 
d="M89 0l55 281h288l-55 -281h-288zM235 752l55 282h288l-55 -282h-288z" />
    <glyph glyph-name="semicolon" unicode=";" horiz-adv-x="682" 
d="M207 -317h-184q166 166 195 317h-129l55 281h288l-42 -215q-45 -234 -183 -383zM235 752l55 282h288l-55 -282h-288z" />
    <glyph glyph-name="semicolon" unicode="&#x37e;" horiz-adv-x="682" 
d="M207 -317h-184q166 166 195 317h-129l55 281h288l-42 -215q-45 -234 -183 -383zM235 752l55 282h288l-55 -282h-288z" />
    <glyph glyph-name="less" unicode="&#x3c;" horiz-adv-x="1196" 
d="M124 516v322l1027 391v-228l-833 -325l833 -324v-227z" />
    <glyph glyph-name="equal" unicode="=" horiz-adv-x="1196" 
d="M123 291v221h1027v-221h-1027zM123 842v223h1027v-223h-1027z" />
    <glyph glyph-name="greater" unicode="&#x3e;" horiz-adv-x="1196" 
d="M124 125v227l832 324l-832 325v228l1027 -391v-322z" />
    <glyph glyph-name="question" unicode="?" horiz-adv-x="1251" 
d="M309 0l52 270h289l-52 -270h-289zM745 1430q214 0 339 -94t125 -260t-105.5 -260t-262.5 -181q-78 -51 -121 -92t-54 -117h-267q26 144 99.5 214.5t167.5 128.5q166 103 213 156.5t47 122.5q0 70 -48 111.5t-149 41.5q-227 0 -279 -193l-266 40q117 382 561 382z" />
    <glyph glyph-name="at" unicode="@" horiz-adv-x="1997" 
d="M1264 768q0 78 -59.5 138t-153.5 60t-168.5 -62.5t-116 -177t-41.5 -232.5q0 -250 197 -249q139 0 214 121.5t101.5 222.5t26.5 179zM150 516q0 258 126.5 487t349 355t482.5 126t438 -90.5t271.5 -255.5t93.5 -365t-63.5 -350t-175.5 -234.5t-223 -84.5q-210 0 -210 172
q0 37 6 67h-6q-50 -105 -148.5 -172t-201.5 -67q-157 0 -243.5 102t-86.5 274t64.5 315t179 224.5t256.5 81.5q195 0 264 -174h6l39 152h156l-117 -506q-37 -172 -37 -231t23.5 -80t54.5 -21q80 0 153 69.5t115.5 185.5t42.5 274t-76.5 292.5t-220.5 207.5t-360 73
t-398.5 -105t-287 -303.5t-104.5 -418.5t79.5 -367.5t223.5 -223t338 -75.5q294 0 589 155l62 -122q-313 -177 -658 -177q-236 0 -415.5 95.5t-280 276t-100.5 438.5z" />
    <glyph glyph-name="A" unicode="A" horiz-adv-x="1479" 
d="M876 1192q-21 -64 -98 -212l-212 -398h395l-67 452q-18 135 -18 158zM1039 0l-55 360h-537l-195 -360h-294l787 1409h348l238 -1409h-292z" />
    <glyph glyph-name="B" unicode="B" horiz-adv-x="1479" 
d="M1072 437q0 186 -290 186h-330l-79 -404h328q209 0 290 50.5t81 167.5zM788 841q175 0 248.5 46t73.5 138.5t-57 128.5t-191 36h-301l-67 -349h294zM894 1409q251 0 380 -82.5t129 -231.5q0 -290 -324 -357q136 -23 212.5 -105.5t76.5 -201.5q0 -211 -156.5 -321
t-470.5 -110h-705l274 1409h584z" />
    <glyph glyph-name="C" unicode="C" horiz-adv-x="1479" 
d="M401 573q0 -173 85.5 -267.5t244.5 -94.5q266 0 418 258l227 -117q-210 -372 -665 -372q-191 0 -329.5 72t-210 205.5t-71.5 311.5q0 252 105 450.5t293.5 304.5t423.5 106q478 0 581 -392l-274 -71q-29 107 -111 169t-200 62q-242 0 -379.5 -168t-137.5 -457z" />
    <glyph glyph-name="D" unicode="D" horiz-adv-x="1479" 
d="M605 228q160 0 283.5 68.5t190 197.5t66.5 309t-105.5 279t-303.5 99h-176l-185 -953h230zM734 1409q333 0 510 -155t177 -447q0 -236 -99 -417t-287 -285.5t-421 -104.5h-578l274 1409h424z" />
    <glyph glyph-name="E" unicode="E" horiz-adv-x="1366" 
d="M36 0l273 1409h1108l-44 -228h-813l-69 -354h752l-44 -228h-752l-72 -371h854l-45 -228h-1148z" />
    <glyph glyph-name="F" unicode="F" horiz-adv-x="1251" 
d="M560 1181l-85 -436h668l-44 -228h-668l-101 -517h-294l273 1409h986l-44 -228h-691z" />
    <glyph glyph-name="G" unicode="G" horiz-adv-x="1593" 
d="M1248 961q-61 237 -338 237q-143 0 -263 -75t-184 -213t-64 -317t95.5 -280.5t269.5 -101.5q227 0 384 96l46 228h-342l39 208h614l-105 -568q-156 -107 -312 -150.5t-348 -43.5q-300 0 -470 158.5t-170 426t104.5 461.5t296 298.5t430.5 104.5t392.5 -103t206.5 -288z
" />
    <glyph glyph-name="H" unicode="H" horiz-adv-x="1479" 
d="M956 0l118 604h-626l-118 -604h-294l273 1409h295l-109 -561h626l109 561h284l-274 -1409h-284z" />
    <glyph glyph-name="I" unicode="I" horiz-adv-x="569" 
d="M36 0l273 1409h295l-274 -1409h-294z" />
    <glyph glyph-name="J" unicode="J" horiz-adv-x="1139" 
d="M493 -20q-203 0 -316.5 96t-151.5 303l267 58q46 -226 207 -226q102 0 152 92q24 44 42 137l143 738h-281l44 231h575l-193 -986q-45 -231 -165 -337t-323 -106z" />
    <glyph glyph-name="K" unicode="K" horiz-adv-x="1479" 
d="M995 0l-355 640l-211 -123l-101 -517h-292l273 1409h295l-130 -639l760 639h369l-747 -616l465 -793h-326z" />
    <glyph glyph-name="L" unicode="L" horiz-adv-x="1251" 
d="M36 0l273 1409h295l-229 -1181h756l-45 -228h-1050z" />
    <glyph glyph-name="M" unicode="M" horiz-adv-x="1706" 
d="M1206 0l172 884q26 130 74 322l-69 -151q-79 -174 -114 -239l-412 -816h-210l-94 819q-31 291 -40 387q-28 -244 -43 -319l-172 -887h-262l274 1409h395l88 -788l25 -276q36 80 67 145t464 919h393l-274 -1409h-262z" />
    <glyph glyph-name="N" unicode="N" horiz-adv-x="1479" 
d="M884 0l-374 1131q-23 -162 -38 -239l-174 -892h-262l274 1409h350l377 -1141l12 82q11 83 29 174l174 885h262l-274 -1409h-356z" />
    <glyph glyph-name="O" unicode="O" horiz-adv-x="1593" 
d="M916 1197q-164 0 -278 -75t-176 -226t-62 -325t90 -266.5t251 -92.5t275 75t176.5 223t62.5 320.5t-87.5 269.5t-251.5 97zM928 1430q293 0 462 -155.5t169 -413t-105.5 -461t-294.5 -312t-407 -108.5t-360.5 72t-217 206.5t-74.5 342t105.5 411t292.5 311t430 107.5z
" />
    <glyph glyph-name="P" unicode="P" horiz-adv-x="1366" 
d="M760 723q310 0 310 233q0 224 -248 224h-262l-89 -457h289zM850 1409q246 0 382.5 -112t136.5 -323.5t-153.5 -344.5t-410.5 -133h-377l-98 -496h-294l273 1409h541z" />
    <glyph glyph-name="Q" unicode="Q" horiz-adv-x="1593" 
d="M916 1197q-164 0 -278 -75t-176 -226t-62 -325t90 -266.5t251 -92.5t275 75t176.5 223t62.5 320.5t-87.5 269.5t-251.5 97zM928 1430q293 0 462 -155.5t169 -412.5q-1 -257 -111 -471q-110 -213 -328 -323q-108 -54 -238 -76q19 -98 64.5 -142t130 -44t154.5 14l-45 -195
q-72 -25 -169 -25q-197 0 -303.5 94t-129.5 297q-232 37 -358 192t-126 390t105.5 438.5t292.5 311t430 107.5z" />
    <glyph glyph-name="R" unicode="R" horiz-adv-x="1479" 
d="M872 764q146 0 220 58q74 60 74 160q0 198 -242 198h-364l-81 -416h393zM961 1409q322 0 445 -189q59 -91 59 -214q0 -165 -108.5 -280t-294.5 -143l274 -583h-326l-230 534h-346l-103 -534h-295l274 1409h651z" />
    <glyph glyph-name="S" unicode="S" horiz-adv-x="1366" 
d="M627.5 -20q-294.5 0 -434.5 94.5t-168 290.5l289 49q21 -111 93.5 -162t212.5 -51q345 0 345 199q0 80 -60 126.5t-241 93.5q-182 47 -270 100q-182 109 -181 317q0 177 157 285t405.5 108t392.5 -86.5t177 -252.5l-288 -67q-22 90 -95.5 143.5t-194.5 53.5t-192 -46.5
t-71 -130.5t102 -134q50 -24 204 -66q154 -44 229 -82q215 -109 215 -332t-166 -336.5t-460.5 -113.5z" />
    <glyph glyph-name="T" unicode="T" horiz-adv-x="1251" 
d="M895 1181l-230 -1181h-295l230 1181h-455l44 228h1206l-44 -228h-456z" />
    <glyph glyph-name="U" unicode="U" horiz-adv-x="1479" 
d="M706.5 211q146.5 0 232 76t119.5 254l168 868h295l-171 -879q-55 -281 -220 -415.5t-443.5 -134.5t-423 117.5t-144.5 333.5q0 98 23 204l148 774h295l-153 -810q-18 -87 -18 -181t73 -150.5t219.5 -56.5z" />
    <glyph glyph-name="V" unicode="V" horiz-adv-x="1366" 
d="M737 0h-339l-227 1409h305l114 -905q16 -147 22 -266q47 106 75.5 167t513.5 1004h308z" />
    <glyph glyph-name="W" unicode="W" horiz-adv-x="1933" 
d="M1319 248q73 196 469 1161h291l-638 -1409h-350l-27 812l-4 220l-1 84q-60 -160 -91.5 -239t-373.5 -877h-355l-89 1409h280l36 -815q7 -168 7 -346l133 329l355 832h316z" />
    <glyph glyph-name="X" unicode="X" horiz-adv-x="1366" 
d="M220 1409h309l224 -471l402 471h313l-600 -677l367 -732h-307l-253 532l-455 -532h-314l652 736z" />
    <glyph glyph-name="Y" unicode="Y" horiz-adv-x="1366" 
d="M724 0h-294l112 578l-370 831h292l259 -605l474 605h323l-684 -831z" />
    <glyph glyph-name="Z" unicode="Z" horiz-adv-x="1251" 
d="M1082 0h-1130l40 209l927 969h-663l45 231h1014l-40 -205l-930 -973h782z" />
    <glyph glyph-name="bracketleft" unicode="[" horiz-adv-x="682" 
d="M-54 -425l370 1909h542l-37 -190h-276l-297 -1528h276l-37 -191h-541z" />
    <glyph glyph-name="backslash" unicode="\" horiz-adv-x="569" 
d="M289 -41l-178 1526h238l183 -1526h-243z" />
    <glyph glyph-name="bracketright" unicode="]" horiz-adv-x="682" 
d="M-174 -425l37 191h277l297 1528h-278l37 190h542l-371 -1909h-541z" />
    <glyph glyph-name="asciicircum" unicode="^" horiz-adv-x="1196" 
d="M962 514l-326 752l-324 -752h-227l391 895h322l393 -895h-229z" />
    <glyph glyph-name="underscore" unicode="_" horiz-adv-x="1139" 
d="M-120 -250v78h1177v-78h-1177z" />
    <glyph glyph-name="grave" unicode="`" horiz-adv-x="682" 
d="M596 1183l-307 276l8 43h258l195 -288l-6 -31h-148z" />
    <glyph glyph-name="a" unicode="a" horiz-adv-x="1139" 
d="M297 332q0 -156 154 -156q75 0 143 64.5t95 170.5l22 92h-162q-117 -2 -184.5 -48t-67.5 -123zM170 808q70 294 476 294q202 0 298.5 -73t96.5 -222q0 -37 -24 -157l-71 -353q-8 -45 -8 -72q0 -65 79 -65q30 0 62 7l-14 -155q-58 -22 -165.5 -22t-161.5 42t-54 111
q0 37 5 64h-6q-84 -130 -166 -178.5t-211 -48.5t-212.5 83.5t-83.5 214.5q0 185 127.5 279.5t413.5 99.5l191 3q21 95 21 131q0 128 -127 128q-94 0 -140 -36.5t-63 -105.5z" />
    <glyph glyph-name="b" unicode="b" horiz-adv-x="1251" 
d="M735 907q-126 0 -201.5 -88t-109.5 -265q-17 -93 -17 -153q0 -107 53 -167.5t151 -60.5t155 62.5t95 212t38 250.5t-35.5 155t-128.5 54zM669 -20q-246 0 -313 198h-2l-28 -111l-20 -67h-271q10 29 49 223l246 1261h281l-84 -427q-28 -144 -32 -144h4q56 84 145.5 136.5
t210.5 52.5q159 0 248 -94.5t89 -259.5v-14q0 -188 -62 -379.5t-174.5 -283t-286.5 -91.5z" />
    <glyph glyph-name="c" unicode="c" horiz-adv-x="1139" 
d="M536 173q158 0 223 208l271 -50q-107 -351 -510 -351q-220 0 -338.5 112.5t-118.5 310t79 368.5t210.5 251t324 80t305.5 -95.5t127 -265.5l-284 -23q-11 191 -167 191q-107 0 -167.5 -73.5t-109.5 -260.5q-23 -115 -23 -168q0 -234 178 -234z" />
    <glyph glyph-name="d" unicode="d" horiz-adv-x="1251" 
d="M842 700q0 210 -188 210q-196 0 -265 -271q-34 -133 -34 -246q0 -221 158.5 -221t239.5 140q41 72 65 180t24 208zM375.5 -21q-137.5 0 -227.5 102t-90 283t64 364q131 374 458 374q256 0 314 -198h5q6 57 26 162l84 418h277l-238 -1253q-20 -112 -29 -231h-281
q0 63 15 160h-4q-71 -93 -153.5 -137t-220 -44z" />
    <glyph glyph-name="e" unicode="e" horiz-adv-x="1139" 
d="M638 924q-88 0 -153.5 -66.5t-93.5 -194.5h431l3 56q0 205 -187 205zM351 387q0 -219 184 -219q147 0 213 169l245 -74q-75 -159 -186 -221t-307.5 -62t-316.5 115.5t-120 322.5t72 362.5t204.5 238.5t324 83t305 -107.5t113.5 -303.5q0 -99 -24 -215h-700q-7 -38 -7 -89
z" />
    <glyph glyph-name="f" unicode="f" horiz-adv-x="682" 
d="M708 1296q-54 0 -84 -32t-43 -97l-16 -85h213l-37 -190h-213l-174 -892h-280l174 892h-158l37 190h158l22 113q30 155 124.5 222t266.5 67q73 0 155 -17l-36 -181q-55 10 -109 10z" />
    <glyph glyph-name="g" unicode="g" horiz-adv-x="1251" 
d="M846 676q0 114 -52 173.5t-137 59.5t-134.5 -32t-84 -103.5t-57 -188t-22.5 -189.5q0 -199 173 -199q89 0 162 67t112.5 182.5t39.5 229.5zM458.5 -425q-226.5 0 -333.5 69t-132 214l283 30q27 -127 188 -127q110 0 171 59t88 181t38 200h-2q-63 -89 -111 -128
q-99 -81 -248.5 -81t-242 100t-92.5 282.5t63.5 367t175 272t282.5 87.5q118 0 203 -56t112 -152h2q35 168 48 189h265l-49 -229l-165 -843q-47 -233 -182 -334t-361.5 -101z" />
    <glyph glyph-name="h" unicode="h" horiz-adv-x="1251" 
d="M859 1101q152 0 229 -73t77 -211q0 -74 -21 -164l-127 -653h-279l118 595q26 124 26 165q0 129 -152 129q-101 0 -187 -82t-108 -201l-118 -606h-282l286 1484h280l-79 -405l-39 -182h3q147 204 373 204z" />
    <glyph glyph-name="i" unicode="i" horiz-adv-x="569" 
d="M35 0l210 1082h281l-211 -1082h-280zM282 1277l41 207h281l-41 -207h-281z" />
    <glyph glyph-name="j" unicode="j" horiz-adv-x="569" 
d="M-54 -425q-95 0 -166 19l36 188l58 -4q67 0 98.5 34.5t49.5 127.5l223 1142h281l-236 -1210q-29 -144 -116.5 -220.5t-227.5 -76.5zM283 1277l40 207h281l-40 -207h-281z" />
    <glyph glyph-name="k" unicode="k" horiz-adv-x="1139" 
d="M728 0l-188 497l-140 -75l-85 -422h-280l288 1484h281l-167 -850l465 448h322l-473 -422l275 -660h-298z" />
    <glyph glyph-name="l" unicode="l" horiz-adv-x="569" 
d="M35 0l288 1484h281l-289 -1484h-280z" />
    <glyph glyph-name="m" unicode="m" horiz-adv-x="1821" 
d="M512 1082q0 -21 -28 -185h3q77 116 151.5 160t187.5 44t185 -59.5t86 -172.5q80 125 162.5 178.5t206 53.5t197 -73t73.5 -211q0 -64 -21 -164l-128 -653h-279l122 627q18 90 18 139v5q-3 121 -126 121q-91 0 -158 -77t-93 -208l-119 -607h-279l123 635q17 91 17 136
q0 121 -126 121q-88 0 -156.5 -75.5t-95.5 -212.5l-118 -604h-282l166 851q20 95 39 231h272z" />
    <glyph glyph-name="n" unicode="n" horiz-adv-x="1251" 
d="M859 1101q152 0 229 -73t77 -211q0 -74 -21 -164l-127 -653h-279l118 595q26 124 26 165q0 129 -152 129q-101 0 -187 -82t-108 -201l-118 -606h-282l166 851q16 79 38 231h268q0 -9 -9.5 -84t-14.5 -101h3q147 204 373 204z" />
    <glyph glyph-name="o" unicode="o" horiz-adv-x="1251" 
d="M683 909q-114 0 -181.5 -60t-105.5 -182.5t-38 -235.5q0 -259 208 -259q112 0 178 56q132 114 147 434q0 247 -208 247zM1185 679q0 -203 -81.5 -364t-231 -248t-352.5 -87t-330 117.5t-127 320t79.5 357.5t226.5 240.5t358.5 85.5t334.5 -109.5t123 -312.5z" />
    <glyph glyph-name="p" unicode="p" horiz-adv-x="1251" 
d="M662 -20q-246 0 -313 198h-2q-7 -62 -32 -188l-80 -415h-280l243 1258l20 110l19 139h275q0 -14 -7.5 -77.5t-15.5 -91.5h4q72 100 154.5 144.5t200.5 44.5q159 0 248 -94.5t89 -278t-62 -375t-174.5 -283t-286.5 -91.5zM728 907q-126 0 -201.5 -88t-109.5 -265
q-17 -93 -17 -153q0 -107 53 -167.5t151.5 -60.5t157.5 64t93 206t34 249.5t-38.5 161t-122.5 53.5z" />
    <glyph glyph-name="q" unicode="q" horiz-adv-x="1251" 
d="M356 386q0 -214 162 -214q127 0 202 88.5t107 266.5q16 88 16 153q0 230 -174 230q-110 0 -176 -64.5t-101.5 -200.5t-35.5 -259zM394 -21q-152 0 -243.5 98t-91.5 282.5t64 367.5t180 279t261.5 96t216.5 -45.5t112 -153.5h5q25 123 47 179h270q-17 -56 -297 -1507h-281
l85 432l36 156h-4q-75 -98 -159.5 -141t-200.5 -43z" />
    <glyph glyph-name="r" unicode="r" horiz-adv-x="797" 
d="M730 868q-244 0 -313 -354l-101 -514h-281l161 830q24 120 42 252h268l-22 -172l-8 -49h4q73 134 144 187.5t163 53.5q47 0 103 -14l-46 -235q-69 15 -114 15z" />
    <glyph glyph-name="s" unicode="s" horiz-adv-x="1139" 
d="M517 166q222 0 222 136q0 52 -41.5 79.5t-211.5 65t-251.5 117t-81.5 205.5q0 160 125.5 245t345 85t320.5 -70.5t125 -217.5l-251 -29q-17 69 -66 100t-134 31q-205 0 -205 -120q0 -60 77 -93q37 -16 198.5 -53t236.5 -113t75 -200q0 -174 -128.5 -264t-352 -90
t-339.5 71t-157 220l251 36q21 -75 77 -108t166 -33z" />
    <glyph glyph-name="t" unicode="t" horiz-adv-x="682" 
d="M365.5 -16q-113.5 0 -181.5 58.5t-68 166.5q0 71 16 157l102 526h-148l37 190h162l137 254h176l-48 -254h202l-35 -190h-205l-104 -535q-11 -56 -11 -95.5t23.5 -62t59.5 -22.5t112 13l-32 -182q-81 -24 -194.5 -24z" />
    <glyph glyph-name="u" unicode="u" horiz-adv-x="1251" 
d="M368 322q0 -129 152 -129q101 0 186.5 81t108.5 202l118 606h282l-166 -851q-16 -79 -38 -231h-268q0 9 9.5 84t14.5 101h-3q-76 -107 -166.5 -155.5t-224.5 -48.5t-211 73t-77 211q0 80 21 164l127 653h279l-118 -595q-26 -123 -26 -165z" />
    <glyph glyph-name="v" unicode="v" horiz-adv-x="1139" 
d="M622 0h-336l-176 1082h289l71 -605q4 -30 13 -138t9 -131q61 143 122 266l316 608h302z" />
    <glyph glyph-name="w" unicode="w" horiz-adv-x="1593" 
d="M1207 0h-297l-43 660l-5 230q-53 -142 -95 -232l-302 -658h-297l-69 1082h258l14 -696v-131l79 191l294 636h301l42 -636l5 -191l344 827h266z" />
    <glyph glyph-name="x" unicode="x" horiz-adv-x="1139" 
d="M724 0l-186 383l-327 -383h-301l508 562l-279 520h292l173 -347l296 347h308l-483 -525l294 -557h-295z" />
    <glyph glyph-name="y" unicode="y" horiz-adv-x="1139" 
d="M86 -425q-95 0 -171 18l38 196q41 -9 103 -9q129 0 240 196l28 48l-212 1058h291l71 -497q6 -31 21.5 -178t13.5 -156l156 330l259 501h300l-654 -1139q-107 -167 -174.5 -235t-141 -100.5t-168.5 -32.5z" />
    <glyph glyph-name="z" unicode="z" horiz-adv-x="1024" 
d="M-10 0l38 199l613 680h-440l40 203h769l-39 -201l-610 -676h527l-40 -205h-858z" />
    <glyph glyph-name="braceleft" unicode="{" horiz-adv-x="797" 
d="M406 -129q0 -105 122 -105h80l-37 -191h-183q-119 0 -187.5 60.5t-68.5 162.5q0 44 11 101l61 308q7 35 7 68q0 154 -192 158l38 192q231 4 274 227l67 338q29 146 112.5 220t237.5 74h194l-37 -190h-76q-82 0 -125 -46.5t-65 -158.5l-60 -310q-19 -94 -89 -160.5
t-167 -86.5l-1 -4q74 -19 118.5 -69.5t44.5 -125.5q0 -29 -5 -52l-65 -334q-9 -42 -9 -76z" />
    <glyph glyph-name="bar" unicode="|" horiz-adv-x="573" 
d="M191 -425v1909h262v-1909h-262z" />
    <glyph glyph-name="braceright" unicode="}" horiz-adv-x="797" 
d="M381 1189q0 105 -122 105h-80l37 191h183q119 0 187.5 -60.5t68.5 -162.5q0 -46 -11 -101l-61 -308q-7 -33 -7 -68q0 -154 192 -158l-38 -192q-230 -4 -274 -228l-67 -337q-31 -152 -115.5 -223.5t-234.5 -71.5h-194l37 190h76q82 0 125 46.5t65 158.5l60 310
q19 95 89 161.5t167 86.5l1 3q-75 19 -119 70.5t-44 125.5q0 29 5 52l65 333q9 45 9 77z" />
    <glyph glyph-name="asciitilde" unicode="~" horiz-adv-x="1196" 
d="M373 631q-128 0 -255 -88v213q113 84 271 84q80 0 156.5 -22t180.5 -58t182 -37q134 0 248 92v-219q-64 -44 -123 -62t-139 -18t-152.5 21t-177.5 57t-191 37z" />
    <glyph glyph-name="exclamdown" unicode="&#xa1;" horiz-adv-x="682" 
d="M20 -327l222 981h230l-158 -981h-294zM247 812l53 270h288l-53 -270h-288z" />
    <glyph glyph-name="cent" unicode="&#xa2;" horiz-adv-x="1139" 
d="M549 328q158 0 223 208l271 -50q-101 -328 -459 -350l-32 -167h-162l32 174q-165 26 -255.5 134t-90.5 283q0 105 18 179q113 494 544 516l31 154h162l-32 -161q142 -23 227 -116t96 -236l-284 -23q-11 191 -167 191q-107 0 -167.5 -73.5t-109.5 -260.5
q-23 -115 -23 -168q0 -234 178 -234z" />
    <glyph glyph-name="sterling" unicode="&#xa3;" horiz-adv-x="1139" 
d="M663 0h-714l39 205q189 76 229 276l25 123h-187l32 170h178l51 260q39 207 149.5 301.5t296.5 94.5t290.5 -79.5t121.5 -220.5l-245 -48q-15 84 -57 120.5t-116 36.5t-116 -46t-62 -151l-53 -268h286l-33 -170h-286l-27 -126q-42 -195 -232 -268h408q95 0 154.5 45
t83.5 147l225 -39q-42 -179 -156 -271t-285 -92z" />
    <glyph glyph-name="currency" unicode="&#xa4;" horiz-adv-x="1139" 
d="M375 686q0 -86 61 -147.5t147 -61.5t147.5 61.5t61.5 147.5t-61 147.5t-147 61.5t-147.5 -61.5t-61.5 -147.5zM149 684q0 120 60 221l-133 133l157 156l131 -133q101 59 221 59t218 -59l135 135l158 -158l-136 -135q60 -99 60 -218t-58 -218l134 -133l-158 -160l-133 135
q-99 -59 -221 -59t-220 57l-135 -137l-157 158l135 137q-58 99 -58 219z" />
    <glyph glyph-name="yen" unicode="&#xa5;" horiz-adv-x="1139" 
d="M797 691h276l-28 -146h-338l-32 -162h338l-28 -147h-338l-46 -236h-272l46 236h-336l28 147h337l32 162h-337l28 146h276l-224 718h284l154 -596l390 596h294z" />
    <glyph glyph-name="brokenbar" unicode="&#xa6;" horiz-adv-x="573" 
d="M192 -425v749h262v-749h-262zM192 736v748h262v-748h-262z" />
    <glyph glyph-name="section" unicode="&#xa7;" horiz-adv-x="1139" 
d="M830 598q0 69 -54.5 108.5t-204.5 73.5q-103 -6 -164 -45t-61 -112t68 -107t186 -62q230 19 230 144zM221 1100q0 327 497 327q204 0 313.5 -70t116.5 -204l-244 -25q-23 129 -207 129q-228 0 -228 -133q0 -71 72 -103t181 -58q357 -82 357 -295q0 -112 -58 -185
t-191 -115q132 -73 132 -226q0 -182 -138.5 -276.5t-378.5 -94.5t-354 69.5t-133 218.5l244 37q14 -83 72 -119t179 -36t192 40t71 120t-72 113t-228 69q-321 71 -321 302q0 209 271 276q-145 80 -145 239z" />
    <glyph glyph-name="dieresis" unicode="&#xa8;" horiz-adv-x="682" 
d="M135 1199l42 219h214l-43 -219h-213zM568 1199l43 219h217l-43 -219h-217z" />
    <glyph glyph-name="copyright" unicode="&#xa9;" horiz-adv-x="1509" 
d="M798 426q138 0 196 143l160 -47q-58 -125 -145 -181t-211 -56q-193 0 -298.5 111.5t-105.5 313.5t102 308t293 106q259 0 353 -229l-156 -41q-55 129 -192 129q-220 0 -220 -274q0 -135 59 -209t165 -74zM1396 707q0 163 -82 303.5t-224 222.5t-302 82t-300 -78
t-225.5 -219.5t-85.5 -307.5t81.5 -308t222 -224t304.5 -82t306 82t223.5 224t81.5 305zM1508 708q0 -194 -96.5 -362.5t-265 -265t-363.5 -96.5t-364.5 100.5t-263 267t-93.5 357.5t97 359t265 265t362 97t362 -97.5t264 -264t96 -360.5z" />
    <glyph glyph-name="ordfeminine" unicode="&#xaa;" horiz-adv-x="758" 
d="M298 916q0 -100 96 -100q45 0 89 41t62 112l16 60l-98 -2q-77 -2 -121 -30.5t-44 -80.5zM512 1299q-108 0 -132 -91l-171 19q20 88 94.5 139.5t210.5 51.5t198.5 -46.5t62.5 -144.5q0 -24 -63 -332l-5 -47q0 -43 52 -43q17 0 41 6l-10 -102q-35 -12 -106 -12
q-142 0 -142 98l3 41h-3q-56 -87 -109 -117t-135 -30t-138 54t-56 156t83 164t270 65l123 2l5 26q9 36 9 61q0 82 -82 82z" />
    <glyph glyph-name="guillemotleft" unicode="&#xab;" horiz-adv-x="1139" 
d="M264 139l-192 361l14 71l323 367h239l-6 -41l-329 -366l188 -353l-5 -39h-232zM722 139l-192 361l14 71l323 367h239l-6 -41l-329 -366l188 -353l-5 -39h-232z" />
    <glyph glyph-name="logicalnot" unicode="&#xac;" horiz-adv-x="1196" 
d="M878 141v428h-803v224h1027v-652h-224z" />
    <glyph glyph-name="registered" unicode="&#xae;" horiz-adv-x="1509" 
d="M935 868q0 118 -144 117h-133v-246h144q66 0 99.5 35.5t33.5 93.5zM658 610v-313h-178v815h330q153 0 229 -64t76 -168q0 -191 -174 -247l213 -336h-201l-178 313h-117zM1396 707q0 163 -82 303.5t-224 222.5t-302 82t-300 -78t-225.5 -219.5t-85.5 -307.5t81.5 -308
t222 -224t304.5 -82t306 82t223.5 224t81.5 305zM1508 708q0 -194 -96.5 -362.5t-265 -265t-363.5 -96.5t-364.5 100.5t-263 267t-93.5 357.5t97 359t265 265t362 97t362 -97.5t264 -264t96 -360.5z" />
    <glyph glyph-name="overscore" unicode="&#xaf;" horiz-adv-x="1131" 
d="M1148 1452h-1165v94h1165v-94z" />
    <glyph glyph-name="degree" unicode="&#xb0;" horiz-adv-x="819" 
d="M672 1110q0 70 -47 118t-117 48t-117.5 -48.5t-47.5 -117.5t48.5 -118.5t116.5 -49.5t116 49t48 119zM830 1110q0 -130 -93.5 -222.5t-226.5 -92.5t-227 91t-94 224q0 86 42.5 159t116 114.5t161.5 41.5q135 0 228 -92.5t93 -222.5z" />
    <glyph glyph-name="plusminus" unicode="&#xb1;" horiz-adv-x="1124" 
d="M87 0v223h1027v-223h-1027zM712 707v-341h-224v341h-401v223h401v340h224v-340h402v-223h-402z" />
    <glyph glyph-name="twosuperior" unicode="&#xb2;" horiz-adv-x="682" 
d="M542 1220q0 40 -22 59.5t-57 19.5q-88 0 -114 -97l-162 34q31 99 100 144.5t188 45.5t185 -50.5t66 -123.5t-25 -117.5t-67.5 -82.5t-167 -104.5t-155.5 -108.5h349l-25 -143h-564l24 120q40 63 104 115t174 114q169 92 169 175z" />
    <glyph glyph-name="threesuperior" unicode="&#xb3;" horiz-adv-x="682" 
d="M496 915q0 85 -111 85h-68l24 126h60q62 0 100 25t38 70q-1 83 -87 83t-111 -94l-163 24q26 98 96 145t195 47q257 0 257 -179q0 -71 -50.5 -122t-132.5 -58l-1 -2q64 -12 103 -50.5t39 -101.5q0 -101 -85 -163t-230 -62q-246 0 -273 197l181 25q17 -99 108 -99
q46 0 78.5 26.5t32.5 77.5z" />
    <glyph glyph-name="acute" unicode="&#xb4;" horiz-adv-x="682" 
d="M255 1183l6 31l247 288h277l-8 -43l-376 -276h-146z" />
    <glyph glyph-name="mu1" unicode="&#xb5;" horiz-adv-x="1180" 
d="M479 -20q-118 0 -151 90h-6l-16 -115l-73 -380h-280l291 1507h281l-118 -605q-11 -59 -13 -119q0 -165 125 -165q81 0 141 80t86 231l112 578h281l-147 -757q-9 -45 -9 -65q0 -69 50 -69q23 0 46 7l-16 -193q-106 -25 -191 -25t-123.5 32.5t-38.5 109.5v21l2 21h-4
q-42 -87 -95 -135.5t-134 -48.5z" />
    <glyph glyph-name="paragraph" unicode="&#xb6;" horiz-adv-x="1139" 
d="M975 1266v-1530h-156v1530h-195v-1530h-155v958q-169 0 -266 92t-97 262t98.5 265.5t272.5 95.5h629v-143h-131z" />
    <glyph glyph-name="middot" unicode="&#xb7;" horiz-adv-x="682" 
d="M189 531l59 305h288l-59 -305h-288z" />
    <glyph glyph-name="cedilla" unicode="&#xb8;" horiz-adv-x="682" 
d="M194 -425q-50 0 -106 6l29 117q43 -7 103 -7q134 0 134 77q0 63 -110 63h-25l-28 -2l98 171h141l-48 -83q70 -1 113.5 -33.5t43.5 -98.5q0 -97 -84 -153.5t-261 -56.5z" />
    <glyph glyph-name="onesuperior" unicode="&#xb9;" horiz-adv-x="682" 
d="M98 693l23 121h184l91 468l-194 -108l24 122l202 117h175l-116 -599h170l-23 -121h-536z" />
    <glyph glyph-name="ordmasculine" unicode="&#xba;" horiz-adv-x="748" 
d="M501 1280q-145 0 -170 -120.5t-25 -172.5q0 -161 123 -161q82 0 133 62t63 240q0 152 -124 152zM828 1142q0 -203 -116.5 -328t-302.5 -125q-142 0 -224.5 78.5t-82.5 212.5q0 197 114 317.5t283 120.5t249 -73.5t80 -202.5z" />
    <glyph glyph-name="guillemotright" unicode="&#xbb;" horiz-adv-x="1139" 
d="M880 938l192 -361l-14 -71l-323 -367h-239l6 41l329 366l-188 353l5 39h232zM422 938l192 -361l-14 -71l-323 -367h-239l6 41l329 366l-188 353l5 39h232z" />
    <glyph glyph-name="onequarter" unicode="&#xbc;" horiz-adv-x="1708" 
d="M98 693l23 121h184l91 468l-194 -108l24 122l202 117h175l-116 -599h170l-23 -121h-536zM429 0h-197l1086 1409h199zM1063 284h202l62 299l-17 -22q-37 -52 -69 -86zM1420 141l-27 -140h-183l27 140h-347l28 148l395 432h219l-84 -437h103l-28 -143h-103z" />
    <glyph glyph-name="onehalf" unicode="&#xbd;" horiz-adv-x="1708" 
d="M98 693l23 121h184l91 468l-194 -108l24 122l202 117h175l-116 -599h170l-23 -121h-536zM429 0h-197l1086 1409h199zM1420 525q0 39 -22 59t-57 20q-88 0 -114 -97l-162 34q31 99 100 145t188 45t185 -51t66 -123t-25 -117t-63 -80q-46 -42 -171 -107q-125 -66 -156 -109
h349l-25 -143h-564l24 120q40 63 104 115t174 114q169 92 169 175z" />
    <glyph glyph-name="threequarters" unicode="&#xbe;" horiz-adv-x="1708" 
d="M510 915q0 85 -111 85h-68l24 126h60q62 0 100 25t38 70q-1 83 -87 83t-111 -94l-163 24q26 98 96 145t195 47q257 0 257 -179q0 -71 -50 -122t-133 -58l-1 -2q64 -13 103 -51t39 -101q0 -101 -85 -163t-230 -62q-246 0 -273 197l181 25q17 -99 108 -99q47 1 79 27t32 77
zM429 0h-197l1086 1409h199zM1063 284h202l62 299l-17 -22q-37 -52 -69 -86zM1420 141l-27 -140h-183l27 140h-347l28 148l395 432h219l-84 -437h103l-28 -143h-103z" />
    <glyph glyph-name="questiondown" unicode="&#xbf;" horiz-adv-x="1251" 
d="M926 1082l-52 -270h-289l52 270h289zM490 -348q-214 0 -339 94t-125 260t105.5 260t262.5 181q83 55 124.5 95.5t50.5 113.5h267q-26 -144 -99 -214.5t-167 -128.5q-166 -103 -213.5 -156.5t-47.5 -122.5q0 -70 48 -111.5t149 -41.5q227 0 279 193l266 -40
q-117 -382 -561 -382z" />
    <glyph glyph-name="Agrave" unicode="&#xc0;" horiz-adv-x="1479" 
d="M876 1192q-21 -64 -98 -212l-212 -398h395l-67 452q-18 135 -18 158zM1039 0l-55 360h-537l-195 -360h-294l787 1409h348l238 -1409h-292zM954 1530l-304 235l9 43h238l203 -247l-7 -31h-139z" />
    <glyph glyph-name="Aacute" unicode="&#xc1;" horiz-adv-x="1479" 
d="M876 1192q-21 -64 -98 -212l-212 -398h395l-67 452q-18 135 -18 158zM1039 0l-55 360h-537l-195 -360h-294l787 1409h348l238 -1409h-292zM764 1530l7 31l270 247h267l-9 -43l-386 -235h-149z" />
    <glyph glyph-name="Acircumflex" unicode="&#xc2;" horiz-adv-x="1479" 
d="M876 1192q-21 -64 -98 -212l-212 -398h395l-67 452q-18 135 -18 158zM1039 0l-55 360h-537l-195 -360h-294l787 1409h348l238 -1409h-292zM1288 1559l-5 -29h-149l-174 151h-4l-240 -151h-169l5 29l311 276h229z" />
    <glyph glyph-name="Atilde" unicode="&#xc3;" horiz-adv-x="1479" 
d="M876 1192q-21 -64 -98 -212l-212 -398h395l-67 452q-18 135 -18 158zM1039 0l-55 360h-537l-195 -360h-294l787 1409h348l238 -1409h-292zM1067 1530q-65 0 -163 62q-38 24 -71.5 42.5t-69.5 18.5t-63.5 -25.5t-52.5 -97.5h-136q39 158 108.5 225.5t155.5 67.5
q86 1 182 -61q37 -24 70 -43t69 -19q72 0 116 123h135q-39 -158 -108.5 -225.5t-171.5 -67.5z" />
    <glyph glyph-name="Adieresis" unicode="&#xc4;" horiz-adv-x="1479" 
d="M876 1192q-21 -64 -98 -212l-212 -398h395l-67 452q-18 135 -18 158zM1039 0l-55 360h-537l-195 -360h-294l787 1409h348l238 -1409h-292zM607 1530l42 219h214l-43 -219h-213zM1040 1530l43 219h217l-43 -219h-217z" />
    <glyph glyph-name="Aring" unicode="&#xc5;" horiz-adv-x="1479" 
d="M876 1192q-21 -64 -98 -212l-212 -398h395l-67 452q-18 135 -18 158zM1180 1536.5q0 -106.5 -78 -182.5l229 -1354h-292l-55 360h-537l-195 -360h-294l770 1378q-56 68 -56 166.5t74.5 173t179.5 74.5t179.5 -74.5t74.5 -181zM1053 1536.5q0 52.5 -36.5 89.5t-89 37
t-89.5 -36t-37 -90.5t37 -90.5t89 -36t89 37t37 89.5z" />
    <glyph glyph-name="AE" unicode="&#xc6;" horiz-adv-x="2048" 
d="M1068 1192h-61l-136 -209l-269 -401h348zM837 0l70 360h-450l-242 -360h-312l965 1409h1231l-45 -227h-701l-69 -355h639l-43 -221h-639l-73 -379h742l-44 -227h-1029z" />
    <glyph glyph-name="Ccedilla" unicode="&#xc7;" horiz-adv-x="1479" 
d="M382 573q0 -173 85.5 -267.5t244.5 -94.5q266 0 418 258l227 -117q-192 -340 -588 -369l-38 -66q70 -1 113.5 -33.5t43.5 -98.5q0 -97 -84 -153.5t-261 -56.5q-50 0 -106 6l29 117q42 -7 102 -7q134 0 135 77q0 63 -110 63h-25l-28 -2l88 153q-151 10 -277.5 76
t-198 199.5t-71.5 311.5q0 252 105 450.5t293.5 304.5t423.5 106q478 0 581 -392l-274 -71q-29 107 -111 169t-200 62q-242 0 -379.5 -168t-137.5 -457z" />
    <glyph glyph-name="Egrave" unicode="&#xc8;" horiz-adv-x="1366" 
d="M36 0l273 1409h1108l-44 -228h-813l-69 -354h752l-44 -228h-752l-72 -371h854l-45 -228h-1148zM860 1530l-304 235l9 43h238l203 -247l-7 -31h-139z" />
    <glyph glyph-name="Eacute" unicode="&#xc9;" horiz-adv-x="1366" 
d="M36 0l273 1409h1108l-44 -228h-813l-69 -354h752l-44 -228h-752l-72 -371h854l-45 -228h-1148zM714 1530l7 31l270 247h267l-9 -43l-386 -235h-149z" />
    <glyph glyph-name="Ecircumflex" unicode="&#xca;" horiz-adv-x="1366" 
d="M36 0l273 1409h1108l-44 -228h-813l-69 -354h752l-44 -228h-752l-72 -371h854l-45 -228h-1148zM1254 1559l-5 -29h-149l-174 151h-4l-240 -151h-169l5 29l311 276h229z" />
    <glyph glyph-name="Edieresis" unicode="&#xcb;" horiz-adv-x="1366" 
d="M36 0l273 1409h1108l-44 -228h-813l-69 -354h752l-44 -228h-752l-72 -371h854l-45 -228h-1148zM562 1530l42 219h214l-43 -219h-213zM995 1530l43 219h217l-43 -219h-217z" />
    <glyph glyph-name="Igrave" unicode="&#xcc;" horiz-adv-x="569" 
d="M36 0l273 1409h295l-274 -1409h-294zM482 1530l-304 235l9 43h238l203 -247l-7 -31h-139z" />
    <glyph glyph-name="Iacute" unicode="&#xcd;" horiz-adv-x="569" 
d="M36 0l273 1409h295l-274 -1409h-294zM326 1530l7 31l270 247h267l-9 -43l-386 -235h-149z" />
    <glyph glyph-name="Icircumflex" unicode="&#xce;" horiz-adv-x="569" 
d="M36 0l273 1409h295l-274 -1409h-294zM846 1559l-5 -29h-149l-174 151h-4l-240 -151h-169l5 29l311 276h229z" />
    <glyph glyph-name="Idieresis" unicode="&#xcf;" horiz-adv-x="569" 
d="M36 0l273 1409h295l-274 -1409h-294zM151 1530l42 219h214l-43 -219h-213zM584 1530l43 219h217l-43 -219h-217z" />
    <glyph glyph-name="Eth" unicode="&#xd0;" horiz-adv-x="1479" 
d="M605 228q160 0 283.5 68.5t190 197.5t66.5 309t-105.5 279t-303.5 99h-176l-72 -368h357l-44 -219h-355l-71 -366h230zM734 1409q333 0 510 -155t177 -447q0 -236 -99 -417t-287 -285.5t-421 -104.5h-578l115 594h-128l42 219h129l116 596h424z" />
    <glyph glyph-name="Ntilde" unicode="&#xd1;" horiz-adv-x="1479" 
d="M884 0l-374 1131q-23 -162 -38 -239l-174 -892h-262l274 1409h350l377 -1141l12 82q11 83 29 174l174 885h262l-274 -1409h-356zM1100 1530q-64 0 -162 62q-38 24 -72 42.5t-70 18.5t-63.5 -25.5t-52.5 -97.5h-136q39 158 108.5 225.5t155.5 67.5q86 1 182 -61
q37 -24 70 -43t69 -19q72 0 116 123h135q-39 -158 -108.5 -225.5t-171.5 -67.5z" />
    <glyph glyph-name="Ograve" unicode="&#xd2;" horiz-adv-x="1593" 
d="M916 1197q-164 0 -278 -75t-176 -226t-62 -325t90 -266.5t251 -92.5t275 75t176.5 223t62.5 320.5t-87.5 269.5t-251.5 97zM928 1430q293 0 462 -155.5t169 -413t-105.5 -461t-294.5 -312t-407 -108.5t-360.5 72t-217 206.5t-74.5 342t105.5 411t292.5 311t430 107.5z
M988 1530l-304 235l9 43h238l203 -247l-7 -31h-139z" />
    <glyph glyph-name="Oacute" unicode="&#xd3;" horiz-adv-x="1593" 
d="M916 1197q-164 0 -278 -75t-176 -226t-62 -325t90 -266.5t251 -92.5t275 75t176.5 223t62.5 320.5t-87.5 269.5t-251.5 97zM928 1430q293 0 462 -155.5t169 -413t-105.5 -461t-294.5 -312t-407 -108.5t-360.5 72t-217 206.5t-74.5 342t105.5 411t292.5 311t430 107.5z
M857 1530l7 31l270 247h267l-9 -43l-386 -235h-149z" />
    <glyph glyph-name="Ocircumflex" unicode="&#xd4;" horiz-adv-x="1593" 
d="M916 1197q-164 0 -278 -75t-176 -226t-62 -325t90 -266.5t251 -92.5t275 75t176.5 223t62.5 320.5t-87.5 269.5t-251.5 97zM928 1430q293 0 462 -155.5t169 -413t-105.5 -461t-294.5 -312t-407 -108.5t-360.5 72t-217 206.5t-74.5 342t105.5 411t292.5 311t430 107.5z
M1317 1559l-5 -29h-149l-174 151h-4l-240 -151h-169l5 29l311 276h229z" />
    <glyph glyph-name="Otilde" unicode="&#xd5;" horiz-adv-x="1593" 
d="M916 1197q-164 0 -278 -75t-176 -226t-62 -325t90 -266.5t251 -92.5t275 75t176.5 223t62.5 320.5t-87.5 269.5t-251.5 97zM928 1430q293 0 462 -155.5t169 -413t-105.5 -461t-294.5 -312t-407 -108.5t-360.5 72t-217 206.5t-74.5 342t105.5 411t292.5 311t430 107.5z
M1136 1530q-64 0 -162 62q-38 24 -72 42.5t-70 18.5t-63.5 -25.5t-52.5 -97.5h-136q39 158 108.5 225.5t155.5 67.5q86 1 182 -61q37 -24 70 -43t69 -19q72 0 116 123h135q-39 -158 -108.5 -225.5t-171.5 -67.5z" />
    <glyph glyph-name="Odieresis" unicode="&#xd6;" horiz-adv-x="1593" 
d="M916 1197q-164 0 -278 -75t-176 -226t-62 -325t90 -266.5t251 -92.5t275 75t176.5 223t62.5 320.5t-87.5 269.5t-251.5 97zM928 1430q293 0 462 -155.5t169 -413t-105.5 -461t-294.5 -312t-407 -108.5t-360.5 72t-217 206.5t-74.5 342t105.5 411t292.5 311t430 107.5z
M649 1530l42 219h214l-43 -219h-213zM1082 1530l43 219h217l-43 -219h-217z" />
    <glyph glyph-name="multiply" unicode="&#xd7;" horiz-adv-x="1196" 
d="M126 326l356 358l-352 352l158 156l352 -350l352 352l158 -158l-352 -354l352 -350l-158 -160l-352 354l-356 -358z" />
    <glyph glyph-name="Oslash" unicode="&#xd8;" horiz-adv-x="1593" 
d="M1255 827q0 100 -29 175l-688 -738q79 -52 221.5 -52t256.5 75t176.5 223t62.5 317zM901.5 1197q-149.5 0 -263.5 -75t-176 -226t-62 -293.5t39 -223.5l699 748q-87 70 -236.5 70zM925 1430q240 0 399 -104l131 140h203l-223 -239q124 -148 124 -385.5t-105.5 -441
t-294.5 -312t-421.5 -108.5t-380.5 91l-115 -124h-207l205 220q-140 158 -140 399.5t105.5 445t292.5 311t427 107.5z" />
    <glyph glyph-name="Ugrave" unicode="&#xd9;" horiz-adv-x="1479" 
d="M706.5 211q146.5 0 232 76t119.5 254l168 868h295l-171 -879q-55 -281 -220 -415.5t-443.5 -134.5t-423 117.5t-144.5 333.5q0 98 23 204l148 774h295l-153 -810q-18 -87 -18 -181t73 -150.5t219.5 -56.5zM927 1530l-304 235l9 43h238l203 -247l-7 -31h-139z" />
    <glyph glyph-name="Uacute" unicode="&#xda;" horiz-adv-x="1479" 
d="M706.5 211q146.5 0 232 76t119.5 254l168 868h295l-171 -879q-55 -281 -220 -415.5t-443.5 -134.5t-423 117.5t-144.5 333.5q0 98 23 204l148 774h295l-153 -810q-18 -87 -18 -181t73 -150.5t219.5 -56.5zM789 1530l7 31l270 247h267l-9 -43l-386 -235h-149z" />
    <glyph glyph-name="Ucircumflex" unicode="&#xdb;" horiz-adv-x="1479" 
d="M706.5 211q146.5 0 232 76t119.5 254l168 868h295l-171 -879q-55 -281 -220 -415.5t-443.5 -134.5t-423 117.5t-144.5 333.5q0 98 23 204l148 774h295l-153 -810q-18 -87 -18 -181t73 -150.5t219.5 -56.5zM1290 1559l-5 -29h-149l-174 151h-4l-240 -151h-169l5 29
l311 276h229z" />
    <glyph glyph-name="Udieresis" unicode="&#xdc;" horiz-adv-x="1479" 
d="M706.5 211q146.5 0 232 76t119.5 254l168 868h295l-171 -879q-55 -281 -220 -415.5t-443.5 -134.5t-423 117.5t-144.5 333.5q0 98 23 204l148 774h295l-153 -810q-18 -87 -18 -181t73 -150.5t219.5 -56.5zM600 1530l42 219h214l-43 -219h-213zM1033 1530l43 219h217
l-43 -219h-217z" />
    <glyph glyph-name="Yacute" unicode="&#xdd;" horiz-adv-x="1366" 
d="M724 0h-294l112 578l-370 831h292l259 -605l474 605h323l-684 -831zM716 1530l7 31l270 247h267l-9 -43l-386 -235h-149z" />
    <glyph glyph-name="Thorn" unicode="&#xde;" horiz-adv-x="1366" 
d="M717 498q310 0 310 233q0 224 -248 224h-262l-89 -457h289zM807 1184q246 0 382.5 -112t136.5 -323.5t-153.5 -344.5t-410.5 -133h-378l-53 -271h-295l274 1409h295l-44 -225h246z" />
    <glyph glyph-name="germandbls" unicode="&#xdf;" horiz-adv-x="1251" 
d="M710 166q90 0 131.5 42t41.5 103.5t-28 101t-93 87t-94.5 99t-29.5 119.5t34.5 122.5t112.5 113t112 107.5t34 105q0 116 -143 115q-116 0 -182.5 -64t-92.5 -196l-197 -1021h-281l200 1027q50 237 188.5 347t373.5 110q181 0 285.5 -77t104.5 -211q0 -165 -143 -272
q-86 -64 -115 -96t-29 -70.5t27 -71t99 -85.5q126 -94 126 -258.5t-110.5 -263.5t-303 -99t-310.5 57l68 186q124 -57 214 -57z" />
    <glyph glyph-name="agrave" unicode="&#xe0;" horiz-adv-x="1139" 
d="M297 332q0 -156 154 -156q75 0 143 64.5t95 170.5l22 92h-162q-117 -2 -184.5 -48t-67.5 -123zM170 808q70 294 476 294q202 0 298.5 -73t96.5 -222q0 -37 -24 -157l-71 -353q-8 -45 -8 -72q0 -65 79 -65q30 0 62 7l-14 -155q-58 -22 -165.5 -22t-161.5 42t-54 111
q0 37 5 64h-6q-84 -130 -166 -178.5t-211 -48.5t-212.5 83.5t-83.5 214.5q0 185 127.5 279.5t413.5 99.5l191 3q21 95 21 131q0 128 -127 128q-94 0 -140 -36.5t-63 -105.5zM700 1183l-307 276l8 43h258l195 -288l-6 -31h-148z" />
    <glyph glyph-name="aacute" unicode="&#xe1;" horiz-adv-x="1139" 
d="M297 332q0 -156 154 -156q75 0 143 64.5t95 170.5l22 92h-162q-117 -2 -184.5 -48t-67.5 -123zM170 808q70 294 476 294q202 0 298.5 -73t96.5 -222q0 -37 -24 -157l-71 -353q-8 -45 -8 -72q0 -65 79 -65q30 0 62 7l-14 -155q-58 -22 -165.5 -22t-161.5 42t-54 111
q0 37 5 64h-6q-84 -130 -166 -178.5t-211 -48.5t-212.5 83.5t-83.5 214.5q0 185 127.5 279.5t413.5 99.5l191 3q21 95 21 131q0 128 -127 128q-94 0 -140 -36.5t-63 -105.5zM542 1183l6 31l247 288h277l-8 -43l-376 -276h-146z" />
    <glyph glyph-name="acircumflex" unicode="&#xe2;" horiz-adv-x="1139" 
d="M297 332q0 -156 154 -156q75 0 143 64.5t95 170.5l22 92h-162q-117 -2 -184.5 -48t-67.5 -123zM170 808q70 294 476 294q202 0 298.5 -73t96.5 -222q0 -37 -24 -157l-71 -353q-8 -45 -8 -72q0 -65 79 -65q30 0 62 7l-14 -155q-58 -22 -165.5 -22t-161.5 42t-54 111
q0 37 5 64h-6q-84 -130 -166 -178.5t-211 -48.5t-212.5 83.5t-83.5 214.5q0 185 127.5 279.5t413.5 99.5l191 3q21 95 21 131q0 128 -127 128q-94 0 -140 -36.5t-63 -105.5zM1049 1211l-5 -28h-150l-166 192h-4l-248 -192h-169l5 28l320 318h229z" />
    <glyph glyph-name="atilde" unicode="&#xe3;" horiz-adv-x="1139" 
d="M297 332q0 -156 154 -156q75 0 143 64.5t95 170.5l22 92h-162q-117 -2 -184.5 -48t-67.5 -123zM170 808q70 294 476 294q202 0 298.5 -73t96.5 -222q0 -37 -24 -157l-71 -353q-8 -45 -8 -72q0 -65 79 -65q30 0 62 7l-14 -155q-58 -22 -165.5 -22t-161.5 42t-54 111
q0 37 5 64h-6q-84 -130 -166 -178.5t-211 -48.5t-212.5 83.5t-83.5 214.5q0 185 127.5 279.5t413.5 99.5l191 3q21 95 21 131q0 128 -127 128q-94 0 -140 -36.5t-63 -105.5zM828 1183q-64 -1 -162 61q-38 24 -72 43t-70 19t-63.5 -25.5t-52.5 -97.5h-136q39 158 108.5 225.5
t155 67.5t182.5 -62q37 -24 70 -42.5t69 -18.5q72 0 116 123h135q-39 -158 -108.5 -225.5t-171.5 -67.5z" />
    <glyph glyph-name="adieresis" unicode="&#xe4;" horiz-adv-x="1139" 
d="M297 332q0 -156 154 -156q75 0 143 64.5t95 170.5l22 92h-162q-117 -2 -184.5 -48t-67.5 -123zM170 808q70 294 476 294q202 0 298.5 -73t96.5 -222q0 -37 -24 -157l-71 -353q-8 -45 -8 -72q0 -65 79 -65q30 0 62 7l-14 -155q-58 -22 -165.5 -22t-161.5 42t-54 111
q0 37 5 64h-6q-84 -130 -166 -178.5t-211 -48.5t-212.5 83.5t-83.5 214.5q0 185 127.5 279.5t413.5 99.5l191 3q21 95 21 131q0 128 -127 128q-94 0 -140 -36.5t-63 -105.5zM351 1199l42 219h214l-43 -219h-213zM784 1199l43 219h217l-43 -219h-217z" />
    <glyph glyph-name="aring" unicode="&#xe5;" horiz-adv-x="1139" 
d="M297 332q0 -156 154 -156q75 0 143 64.5t95 170.5l22 92h-162q-117 -2 -184.5 -48t-67.5 -123zM170 808q70 294 476 294q202 0 298.5 -73t96.5 -222q0 -37 -24 -157l-71 -353q-8 -45 -8 -72q0 -65 79 -65q30 0 62 7l-14 -155q-58 -22 -165.5 -22t-161.5 42t-54 111
q0 37 5 64h-6q-84 -130 -166 -178.5t-211 -48.5t-212.5 83.5t-83.5 214.5q0 185 127.5 279.5t413.5 99.5l191 3q21 95 21 131q0 128 -127 128q-94 0 -140 -36.5t-63 -105.5zM834 1429.5q0 52.5 -36.5 89.5t-89 37t-89.5 -36t-37 -90.5t37 -90.5t89 -36t89 37t37 89.5z
M961 1431q0 -105 -73.5 -179.5t-180.5 -74.5t-180.5 74.5t-73.5 179.5t74.5 179.5t179.5 74.5t179.5 -74.5t74.5 -179.5z" />
    <glyph glyph-name="ae" unicode="&#xe6;" horiz-adv-x="1821" 
d="M1307 924q-88 0 -153.5 -66.5t-93.5 -194.5h431l3 56q0 205 -187 205zM582 500q-113 0 -177 -46t-64 -124q0 -154 134 -154q83 0 151 64.5t95 170.5l22 89h-161zM202 808q70 294 476 294q202 0 295 -113q140 113 345.5 113t319 -107.5t113.5 -303.5q0 -99 -24 -215h-700
q-7 -38 -7 -89q0 -219 184 -219q147 0 213 169l245 -74q-75 -159 -186 -221t-291 -62q-297 0 -394 219q-95 -151 -249 -197q-74 -22 -203.5 -22t-213 83.5t-83.5 214.5q0 382 541 382h191q21 95 21 131q0 128 -127 128q-94 0 -140 -36.5t-63 -105.5z" />
    <glyph glyph-name="ccedilla" unicode="&#xe7;" horiz-adv-x="1139" 
d="M536 173q158 0 223 208l271 -50q-94 -308 -417 -346l-39 -68q70 -1 113.5 -33.5t43.5 -98.5q0 -97 -84 -153.5t-261 -56.5q-50 0 -106 6l29 117q43 -7 103 -7q134 0 134 77q0 63 -110 63h-25l-28 -2l87 153q-184 12 -295.5 117.5t-111.5 303t79 368.5t210.5 251t324 80
t305.5 -95.5t127 -265.5l-284 -23q-11 191 -167 191q-107 0 -167.5 -73.5t-109.5 -260.5q-23 -115 -23 -168q0 -234 178 -234z" />
    <glyph glyph-name="egrave" unicode="&#xe8;" horiz-adv-x="1139" 
d="M638 924q-88 0 -153.5 -66.5t-93.5 -194.5h431l3 56q0 205 -187 205zM351 387q0 -219 184 -219q147 0 213 169l245 -74q-75 -159 -186 -221t-307.5 -62t-316.5 115.5t-120 322.5t72 362.5t204.5 238.5t324 83t305 -107.5t113.5 -303.5q0 -99 -24 -215h-700q-7 -38 -7 -89
zM715 1183l-307 276l8 43h258l195 -288l-6 -31h-148z" />
    <glyph glyph-name="eacute" unicode="&#xe9;" horiz-adv-x="1139" 
d="M638 924q-88 0 -153.5 -66.5t-93.5 -194.5h431l3 56q0 205 -187 205zM351 387q0 -219 184 -219q147 0 213 169l245 -74q-75 -159 -186 -221t-307.5 -62t-316.5 115.5t-120 322.5t72 362.5t204.5 238.5t324 83t305 -107.5t113.5 -303.5q0 -99 -24 -215h-700q-7 -38 -7 -89
zM524 1183l6 31l247 288h277l-8 -43l-376 -276h-146z" />
    <glyph glyph-name="ecircumflex" unicode="&#xea;" horiz-adv-x="1139" 
d="M638 924q-88 0 -153.5 -66.5t-93.5 -194.5h431l3 56q0 205 -187 205zM351 387q0 -219 184 -219q147 0 213 169l245 -74q-75 -159 -186 -221t-307.5 -62t-316.5 115.5t-120 322.5t72 362.5t204.5 238.5t324 83t305 -107.5t113.5 -303.5q0 -99 -24 -215h-700q-7 -38 -7 -89
zM1049 1211l-5 -28h-150l-166 192h-4l-248 -192h-169l5 28l320 318h229z" />
    <glyph glyph-name="edieresis" unicode="&#xeb;" horiz-adv-x="1139" 
d="M638 924q-88 0 -153.5 -66.5t-93.5 -194.5h431l3 56q0 205 -187 205zM351 387q0 -219 184 -219q147 0 213 169l245 -74q-75 -159 -186 -221t-307.5 -62t-316.5 115.5t-120 322.5t72 362.5t204.5 238.5t324 83t305 -107.5t113.5 -303.5q0 -99 -24 -215h-700q-7 -38 -7 -89
zM362 1199l42 219h214l-43 -219h-213zM795 1199l43 219h217l-43 -219h-217z" />
    <glyph glyph-name="igrave" unicode="&#xec;" horiz-adv-x="569" 
d="M35 0l210 1082h281l-211 -1082h-280zM405 1183l-307 276l8 43h258l195 -288l-6 -31h-148z" />
    <glyph glyph-name="iacute" unicode="&#xed;" horiz-adv-x="569" 
d="M35 0l210 1082h281l-211 -1082h-280zM258 1183l6 31l247 288h277l-8 -43l-376 -276h-146z" />
    <glyph glyph-name="icircumflex" unicode="&#xee;" horiz-adv-x="569" 
d="M35 0l210 1082h281l-211 -1082h-280zM769 1211l-5 -28h-150l-166 192h-4l-248 -192h-169l5 28l320 318h229z" />
    <glyph glyph-name="idieresis" unicode="&#xef;" horiz-adv-x="569" 
d="M35 0l210 1082h281l-211 -1082h-280zM81 1199l42 219h214l-43 -219h-213zM514 1199l43 219h217l-43 -219h-217z" />
    <glyph glyph-name="eth" unicode="&#xf0;" horiz-adv-x="1251" 
d="M658 787q-138 0 -222 -108t-84 -284q0 -102 55 -162.5t145 -60.5t162.5 57.5t113 158t40.5 202.5q0 198 -210 197zM1172 728q0 -354 -171 -551t-474 -197q-219 0 -344 115.5t-125 314.5q0 258 159 413.5t432 155.5q61 0 128 -18.5t104 -44.5q-32 140 -125 264l-277 -111
l33 179l149 57q-124 121 -222 179h293q72 -38 141 -94l295 109l-32 -176l-145 -54q95 -123 138 -251.5t43 -289.5z" />
    <glyph glyph-name="ntilde" unicode="&#xf1;" horiz-adv-x="1251" 
d="M859 1101q152 0 229 -73t77 -211q0 -74 -21 -164l-127 -653h-279l118 595q26 124 26 165q0 129 -152 129q-101 0 -187 -82t-108 -201l-118 -606h-282l166 851q16 79 38 231h268q0 -9 -9.5 -84t-14.5 -101h3q147 204 373 204zM919 1183q-65 -1 -163 61q-38 24 -71.5 43
t-69.5 19t-63.5 -25.5t-52.5 -97.5h-136q39 158 108.5 225.5t155 67.5t182.5 -62q37 -24 70 -42.5t69 -18.5q72 0 116 123h135q-39 -158 -108.5 -225.5t-171.5 -67.5z" />
    <glyph glyph-name="ograve" unicode="&#xf2;" horiz-adv-x="1251" 
d="M683 909q-114 0 -181.5 -60t-105.5 -182.5t-38 -235.5q0 -259 208 -259q112 0 178 56q132 114 147 434q0 247 -208 247zM1185 679q0 -203 -81.5 -364t-231 -248t-352.5 -87t-330 117.5t-127 320t79.5 357.5t226.5 240.5t358.5 85.5t334.5 -109.5t123 -312.5zM739 1183
l-307 276l8 43h258l195 -288l-6 -31h-148z" />
    <glyph glyph-name="oacute" unicode="&#xf3;" horiz-adv-x="1251" 
d="M683 909q-114 0 -181.5 -60t-105.5 -182.5t-38 -235.5q0 -259 208 -259q112 0 178 56q132 114 147 434q0 247 -208 247zM1185 679q0 -203 -81.5 -364t-231 -248t-352.5 -87t-330 117.5t-127 320t79.5 357.5t226.5 240.5t358.5 85.5t334.5 -109.5t123 -312.5zM619 1183
l6 31l247 288h277l-8 -43l-376 -276h-146z" />
    <glyph glyph-name="ocircumflex" unicode="&#xf4;" horiz-adv-x="1251" 
d="M683 909q-114 0 -181.5 -60t-105.5 -182.5t-38 -235.5q0 -259 208 -259q112 0 178 56q132 114 147 434q0 247 -208 247zM1185 679q0 -203 -81.5 -364t-231 -248t-352.5 -87t-330 117.5t-127 320t79.5 357.5t226.5 240.5t358.5 85.5t334.5 -109.5t123 -312.5zM1102 1211
l-5 -28h-150l-166 192h-4l-248 -192h-169l5 28l320 318h229z" />
    <glyph glyph-name="otilde" unicode="&#xf5;" horiz-adv-x="1251" 
d="M683 909q-114 0 -181.5 -60t-105.5 -182.5t-38 -235.5q0 -259 208 -259q112 0 178 56q132 114 147 434q0 247 -208 247zM1185 679q0 -203 -81.5 -364t-231 -248t-352.5 -87t-330 117.5t-127 320t79.5 357.5t226.5 240.5t358.5 85.5t334.5 -109.5t123 -312.5zM892 1183
q-64 -1 -162 61q-38 24 -72 43t-70 19t-63.5 -25.5t-52.5 -97.5h-136q39 158 108.5 225.5t155 67.5t182.5 -62q37 -24 70 -42.5t69 -18.5q72 0 116 123h135q-39 -158 -108.5 -225.5t-171.5 -67.5z" />
    <glyph glyph-name="odieresis" unicode="&#xf6;" horiz-adv-x="1251" 
d="M683 909q-114 0 -181.5 -60t-105.5 -182.5t-38 -235.5q0 -259 208 -259q112 0 178 56q132 114 147 434q0 247 -208 247zM1185 679q0 -203 -81.5 -364t-231 -248t-352.5 -87t-330 117.5t-127 320t79.5 357.5t226.5 240.5t358.5 85.5t334.5 -109.5t123 -312.5zM425 1199
l42 219h214l-43 -219h-213zM858 1199l43 219h217l-43 -219h-217z" />
    <glyph glyph-name="divide" unicode="&#xf7;" horiz-adv-x="1124" 
d="M462 170v233h238v-233h-238zM69 569v224h1027v-224h-1027zM462 961v233h238v-233h-238z" />
    <glyph glyph-name="oslash" unicode="&#xf8;" horiz-adv-x="1251" 
d="M585 172q93 0 159 56q132 114 147 434q0 32 -4 60l-444 -516q49 -34 142 -34zM358 462.5q0 -81.5 8 -124.5l455 527q-50 44 -151 44t-168.5 -60t-105.5 -182.5t-38 -204zM63 424q0 196 79.5 351t226.5 240.5t320.5 85.5t287.5 -54l60 69h189l-134 -156q93 -105 93 -294.5
t-81.5 -350.5t-231 -248t-312.5 -87t-269 49l-58 -67h-191l131 152q-110 114 -110 310z" />
    <glyph glyph-name="ugrave" unicode="&#xf9;" horiz-adv-x="1251" 
d="M368 322q0 -129 152 -129q101 0 186.5 81t108.5 202l118 606h282l-166 -851q-16 -79 -38 -231h-268q0 9 9.5 84t14.5 101h-3q-76 -107 -166.5 -155.5t-224.5 -48.5t-211 73t-77 211q0 80 21 164l127 653h279l-118 -595q-26 -123 -26 -165zM733 1183l-307 276l8 43h258
l195 -288l-6 -31h-148z" />
    <glyph glyph-name="uacute" unicode="&#xfa;" horiz-adv-x="1251" 
d="M368 322q0 -129 152 -129q101 0 186.5 81t108.5 202l118 606h282l-166 -851q-16 -79 -38 -231h-268q0 9 9.5 84t14.5 101h-3q-76 -107 -166.5 -155.5t-224.5 -48.5t-211 73t-77 211q0 80 21 164l127 653h279l-118 -595q-26 -123 -26 -165zM604 1183l6 31l247 288h277
l-8 -43l-376 -276h-146z" />
    <glyph glyph-name="ucircumflex" unicode="&#xfb;" horiz-adv-x="1251" 
d="M368 322q0 -129 152 -129q101 0 186.5 81t108.5 202l118 606h282l-166 -851q-16 -79 -38 -231h-268q0 9 9.5 84t14.5 101h-3q-76 -107 -166.5 -155.5t-224.5 -48.5t-211 73t-77 211q0 80 21 164l127 653h279l-118 -595q-26 -123 -26 -165zM1111 1211l-5 -28h-150
l-166 192h-4l-248 -192h-169l5 28l320 318h229z" />
    <glyph glyph-name="udieresis" unicode="&#xfc;" horiz-adv-x="1251" 
d="M368 322q0 -129 152 -129q101 0 186.5 81t108.5 202l118 606h282l-166 -851q-16 -79 -38 -231h-268q0 9 9.5 84t14.5 101h-3q-76 -107 -166.5 -155.5t-224.5 -48.5t-211 73t-77 211q0 80 21 164l127 653h279l-118 -595q-26 -123 -26 -165zM420 1199l42 219h214l-43 -219
h-213zM853 1199l43 219h217l-43 -219h-217z" />
    <glyph glyph-name="yacute" unicode="&#xfd;" horiz-adv-x="1139" 
d="M86 -425q-95 0 -171 18l38 196q41 -9 103 -9q129 0 240 196l28 48l-212 1058h291l71 -497q6 -31 21.5 -178t13.5 -156l156 330l259 501h300l-654 -1139q-107 -167 -174.5 -235t-141 -100.5t-168.5 -32.5zM527 1183l6 31l247 288h277l-8 -43l-376 -276h-146z" />
    <glyph glyph-name="thorn" unicode="&#xfe;" horiz-adv-x="1251" 
d="M662 -20q-246 0 -313 198h-2l-14 -90l-99 -513h-280l369 1909h281l-83 -427q-18 -92 -34 -144h6q72 100 154.5 144.5t200.5 44.5q159 0 248 -94.5t89 -278t-62 -375t-174.5 -283t-286.5 -91.5zM728 907q-126 0 -201.5 -88t-109.5 -265q-17 -93 -17 -153q0 -107 53 -167.5
t151.5 -60.5t157.5 64t93 206t34 249.5t-38.5 161t-122.5 53.5z" />
    <glyph glyph-name="ydieresis" unicode="&#xff;" horiz-adv-x="1139" 
d="M104 -425q-95 0 -171 18l38 196q41 -9 103 -9q129 0 240 196l28 48l-212 1058h291l71 -497q6 -31 21.5 -178t13.5 -156l156 330l259 501h300l-654 -1139q-107 -167 -174.5 -235t-141 -100.5t-168.5 -32.5zM374 1196l42 219h214l-43 -219h-213zM807 1196l43 219h217
l-43 -219h-217z" />
    <glyph glyph-name="Amacron" unicode="&#x100;" horiz-adv-x="1479" 
d="M876 1192q-21 -64 -98 -212l-212 -398h395l-67 452q-18 135 -18 158zM1039 0l-55 360h-537l-195 -360h-294l787 1409h348l238 -1409h-292zM1216 1537h-586l33 168h590z" />
    <glyph glyph-name="amacron" unicode="&#x101;" horiz-adv-x="1139" 
d="M297 332q0 -156 154 -156q75 0 143 64.5t95 170.5l22 92h-162q-117 -2 -184.5 -48t-67.5 -123zM170 808q70 294 476 294q202 0 298.5 -73t96.5 -222q0 -37 -24 -157l-71 -353q-8 -45 -8 -72q0 -65 79 -65q30 0 62 7l-14 -155q-58 -22 -165.5 -22t-161.5 42t-54 111
q0 37 5 64h-6q-84 -130 -166 -178.5t-211 -48.5t-212.5 83.5t-83.5 214.5q0 185 127.5 279.5t413.5 99.5l191 3q21 95 21 131q0 128 -127 128q-94 0 -140 -36.5t-63 -105.5zM971 1203h-586l33 168h590z" />
    <glyph glyph-name="Abreve" unicode="&#x102;" horiz-adv-x="1479" 
d="M876 1192q-21 -64 -98 -212l-212 -398h395l-67 452q-18 135 -18 158zM1039 0l-55 360h-537l-195 -360h-294l787 1409h348l238 -1409h-292zM1321 1823q-83 -303 -387 -303q-152 0 -237.5 81t-85.5 222h165q0 -75 45.5 -119.5t124.5 -44.5q161 0 211 164h164z" />
    <glyph glyph-name="abreve" unicode="&#x103;" horiz-adv-x="1139" 
d="M297 332q0 -156 154 -156q75 0 143 64.5t95 170.5l22 92h-162q-117 -2 -184.5 -48t-67.5 -123zM170 808q70 294 476 294q202 0 298.5 -73t96.5 -222q0 -37 -24 -157l-71 -353q-8 -45 -8 -72q0 -65 79 -65q30 0 62 7l-14 -155q-58 -22 -165.5 -22t-161.5 42t-54 111
q0 37 5 64h-6q-84 -130 -166 -178.5t-211 -48.5t-212.5 83.5t-83.5 214.5q0 185 127.5 279.5t413.5 99.5l191 3q21 95 21 131q0 128 -127 128q-94 0 -140 -36.5t-63 -105.5zM558 1506q0 -74 45.5 -120t121 -46t133 43.5t81.5 122.5h164q-85 -323 -387 -323
q-150 0 -236.5 78.5t-86.5 206.5l2 38h163z" />
    <glyph glyph-name="Aogonek" unicode="&#x104;" horiz-adv-x="1479" 
d="M876 1192q-21 -64 -98 -212l-212 -398h395l-67 452q-18 135 -18 158zM895 -235q0 138 146 235h-2l-55 360h-537l-195 -360h-294l787 1409h348l238 -1409h-122q-42 -33 -79 -89t-37 -111q0 -76 79 -76q49 0 102 23l-19 -127q-79 -34 -164.5 -34t-140.5 48t-55 131z" />
    <glyph glyph-name="aogonek" unicode="&#x105;" horiz-adv-x="1139" 
d="M297 332q0 -156 154 -156q75 0 143 64.5t95 170.5l22 92h-162q-117 -2 -184.5 -48t-67.5 -123zM170 808q70 294 476 294q202 0 298.5 -73t96.5 -222q0 -37 -24 -157l-71 -353q-8 -45 -8 -72q0 -65 79 -65q30 0 62 7l-14 -155q-51 -19 -141 -22q-43 -34 -80.5 -90
t-37.5 -111q0 -76 79 -76q49 0 102 23l-19 -127q-79 -34 -164.5 -34t-140.5 48t-55 131q0 153 175 253q-99 38 -99 136q0 37 5 64h-6q-84 -130 -166 -178.5t-211 -48.5t-212.5 83.5t-83.5 214.5q0 185 127.5 279.5t413.5 99.5l191 3q21 95 21 131q0 128 -127 128
q-94 0 -140 -36.5t-63 -105.5z" />
    <glyph glyph-name="Cacute" unicode="&#x106;" horiz-adv-x="1479" 
d="M401 573q0 -173 85.5 -267.5t244.5 -94.5q266 0 418 258l227 -117q-210 -372 -665 -372q-191 0 -329.5 72t-210 205.5t-71.5 311.5q0 252 105 450.5t293.5 304.5t423.5 106q478 0 581 -392l-274 -71q-29 107 -111 169t-200 62q-242 0 -379.5 -168t-137.5 -457zM842 1530
l7 31l270 247h267l-9 -43l-386 -235h-149z" />
    <glyph glyph-name="cacute" unicode="&#x107;" horiz-adv-x="1139" 
d="M536 173q158 0 223 208l271 -50q-107 -351 -510 -351q-220 0 -338.5 112.5t-118.5 310t79 368.5t210.5 251t324 80t305.5 -95.5t127 -265.5l-284 -23q-11 191 -167 191q-107 0 -167.5 -73.5t-109.5 -260.5q-23 -115 -23 -168q0 -234 178 -234zM603 1183l6 31l247 288h277
l-8 -43l-376 -276h-146z" />
    <glyph glyph-name="Ccircumflex" unicode="&#x108;" horiz-adv-x="1479" 
d="M401 573q0 -173 85.5 -267.5t244.5 -94.5q266 0 418 258l227 -117q-210 -372 -665 -372q-191 0 -329.5 72t-210 205.5t-71.5 311.5q0 252 105 450.5t293.5 304.5t423.5 106q478 0 581 -392l-274 -71q-29 107 -111 169t-200 62q-242 0 -379.5 -168t-137.5 -457zM1339 1559
l-5 -29h-149l-174 151h-4l-240 -151h-169l5 29l311 276h229z" />
    <glyph glyph-name="ccircumflex" unicode="&#x109;" horiz-adv-x="1139" 
d="M536 173q158 0 223 208l271 -50q-107 -351 -510 -351q-220 0 -338.5 112.5t-118.5 310t79 368.5t210.5 251t324 80t305.5 -95.5t127 -265.5l-284 -23q-11 191 -167 191q-107 0 -167.5 -73.5t-109.5 -260.5q-23 -115 -23 -168q0 -234 178 -234zM1048 1211l-5 -28h-150
l-166 192h-4l-248 -192h-169l5 28l320 318h229z" />
    <glyph glyph-name="Cdotaccent" unicode="&#x10a;" horiz-adv-x="1479" 
d="M401 573q0 -173 85.5 -267.5t244.5 -94.5q266 0 418 258l227 -117q-210 -372 -665 -372q-191 0 -329.5 72t-210 205.5t-71.5 311.5q0 252 105 450.5t293.5 304.5t423.5 106q478 0 581 -392l-274 -71q-29 107 -111 169t-200 62q-242 0 -379.5 -168t-137.5 -457zM776 1540
l41 207h281l-41 -207h-281z" />
    <glyph glyph-name="cdotaccent" unicode="&#x10b;" horiz-adv-x="1139" 
d="M536 173q158 0 223 208l271 -50q-107 -351 -510 -351q-220 0 -338.5 112.5t-118.5 310t79 368.5t210.5 251t324 80t305.5 -95.5t127 -265.5l-284 -23q-11 191 -167 191q-107 0 -167.5 -73.5t-109.5 -260.5q-23 -115 -23 -168q0 -234 178 -234zM570 1277l41 207h281
l-41 -207h-281z" />
    <glyph glyph-name="Ccaron" unicode="&#x10c;" horiz-adv-x="1479" 
d="M401 573q0 -173 85.5 -267.5t244.5 -94.5q266 0 418 258l227 -117q-210 -372 -665 -372q-191 0 -329.5 72t-210 205.5t-71.5 311.5q0 252 105 450.5t293.5 304.5t423.5 106q478 0 581 -392l-274 -71q-29 107 -111 169t-200 62q-242 0 -379.5 -168t-137.5 -457zM1049 1530
h-229l-204 276l5 29h150l182 -152h4l232 152h169l-6 -29z" />
    <glyph glyph-name="ccaron" unicode="&#x10d;" horiz-adv-x="1139" 
d="M536 173q158 0 223 208l271 -50q-107 -351 -510 -351q-220 0 -338.5 112.5t-118.5 310t79 368.5t210.5 251t324 80t305.5 -95.5t127 -265.5l-284 -23q-11 191 -167 191q-107 0 -167.5 -73.5t-109.5 -260.5q-23 -115 -23 -168q0 -234 178 -234zM804 1183h-229l-197 317
l6 29h150l174 -193h4l240 193h169l-6 -29z" />
    <glyph glyph-name="Dcaron" unicode="&#x10e;" horiz-adv-x="1479" 
d="M605 228q160 0 283.5 68.5t190 197.5t66.5 309t-105.5 279t-303.5 99h-176l-185 -953h230zM734 1409q333 0 510 -155t177 -447q0 -236 -99 -417t-287 -285.5t-421 -104.5h-578l274 1409h424zM942 1530h-229l-204 276l5 29h150l182 -152h4l232 152h169l-6 -29z" />
    <glyph glyph-name="dcaron" unicode="&#x10f;" horiz-adv-x="1515" 
d="M842 700q0 210 -188 210q-196 0 -265 -271q-34 -133 -34 -246q0 -221 158.5 -221t239.5 140q41 72 65 180t24 208zM375.5 -21q-137.5 0 -227.5 102t-90 283t64 364q131 374 458 374q256 0 314 -198h5q6 57 26 162l84 418h277l-238 -1253q-20 -112 -29 -231h-281
q0 63 15 160h-4q-71 -93 -153.5 -137t-220 -44zM1491 1087h-137q114 101 131 190h-108l40 207h245l-28 -146q-15 -70 -45 -126.5t-98 -124.5z" />
    <glyph glyph-name="Dcroat" unicode="&#x110;" horiz-adv-x="1479" 
d="M605 228q160 0 283.5 68.5t190 197.5t66.5 309t-105.5 279t-303.5 99h-176l-72 -368h357l-44 -219h-355l-71 -366h230zM734 1409q333 0 510 -155t177 -447q0 -236 -99 -417t-287 -285.5t-421 -104.5h-578l115 594h-128l42 219h129l116 596h424z" />
    <glyph glyph-name="dcroat" unicode="&#x111;" horiz-adv-x="1251" 
d="M515 172q207 0 283 251q38 126 38 237q0 214 -189 214t-258 -257q-34 -128 -34 -235q0 -210 160 -210zM571 1061q257 0 316 -190h6q6 71 29 182l25 122h-289l33 170h290l28 139h277l-27 -139h132l-33 -170h-131l-179 -944q-20 -112 -29 -231h-281q0 63 15 160h-4
q-71 -93 -153.5 -137t-220 -44t-227.5 98t-90 271.5t63 350t177.5 269.5t272.5 93z" />
    <glyph glyph-name="Emacron" unicode="&#x112;" horiz-adv-x="1366" 
d="M36 0l273 1409h1108l-44 -228h-813l-69 -354h752l-44 -228h-752l-72 -371h854l-45 -228h-1148zM1176 1537h-586l33 168h590z" />
    <glyph glyph-name="emacron" unicode="&#x113;" horiz-adv-x="1139" 
d="M638 924q-88 0 -153.5 -66.5t-93.5 -194.5h431l3 56q0 205 -187 205zM351 387q0 -219 184 -219q147 0 213 169l245 -74q-75 -159 -186 -221t-307.5 -62t-316.5 115.5t-120 322.5t72 362.5t204.5 238.5t324 83t305 -107.5t113.5 -303.5q0 -99 -24 -215h-700q-7 -38 -7 -89
zM967 1203h-586l33 168h590z" />
    <glyph glyph-name="Ebreve" unicode="&#x114;" horiz-adv-x="1366" 
d="M36 0l273 1409h1108l-44 -228h-813l-69 -354h752l-44 -228h-752l-72 -371h854l-45 -228h-1148zM1273 1823q-83 -303 -387 -303q-152 0 -237.5 81t-85.5 222h165q0 -75 45.5 -119.5t124.5 -44.5q161 0 211 164h164z" />
    <glyph glyph-name="ebreve" unicode="&#x115;" horiz-adv-x="1139" 
d="M638 924q-88 0 -153.5 -66.5t-93.5 -194.5h431l3 56q0 205 -187 205zM351 387q0 -219 184 -219q147 0 213 169l245 -74q-75 -159 -186 -221t-307.5 -62t-316.5 115.5t-120 322.5t72 362.5t204.5 238.5t324 83t305 -107.5t113.5 -303.5q0 -99 -24 -215h-700q-7 -38 -7 -89
zM546 1506q0 -74 45.5 -120t121 -46t133 43.5t81.5 122.5h164q-85 -323 -387 -323q-150 0 -236.5 78.5t-86.5 206.5l2 38h163z" />
    <glyph glyph-name="Edotaccent" unicode="&#x116;" horiz-adv-x="1366" 
d="M36 0l273 1409h1108l-44 -228h-813l-69 -354h752l-44 -228h-752l-72 -371h854l-45 -228h-1148zM734 1547l41 207h281l-41 -207h-281z" />
    <glyph glyph-name="edotaccent" unicode="&#x117;" horiz-adv-x="1139" 
d="M638 924q-88 0 -153.5 -66.5t-93.5 -194.5h431l3 56q0 205 -187 205zM351 387q0 -219 184 -219q147 0 213 169l245 -74q-75 -159 -186 -221t-307.5 -62t-316.5 115.5t-120 322.5t72 362.5t204.5 238.5t324 83t305 -107.5t113.5 -303.5q0 -99 -24 -215h-700q-7 -38 -7 -89
zM551 1277l41 207h281l-41 -207h-281z" />
    <glyph glyph-name="Eogonek" unicode="&#x118;" horiz-adv-x="1366" 
d="M687 -246q0 147 163 246h-814l273 1409h1108l-44 -228h-813l-69 -354h752l-44 -228h-752l-72 -371h854l-45 -228h-168q-51 -36 -91 -96t-40 -115q0 -76 79 -76q49 0 102 23l-19 -127q-79 -34 -164.5 -34t-140.5 48t-55 131z" />
    <glyph glyph-name="eogonek" unicode="&#x119;" horiz-adv-x="1139" 
d="M638 924q-88 0 -153.5 -66.5t-93.5 -194.5h431l3 56q0 205 -187 205zM441 -225q0 116 106 205h-31q-213 0 -333 115.5t-120 322.5t72 362.5t204.5 238.5t324 83t305 -107.5t113.5 -303.5q0 -99 -24 -215h-700q-7 -38 -7 -89q0 -219 184 -219q147 0 213 169l245 -74
q-82 -173 -210 -233q-60 -38 -102 -101.5t-42 -118.5q0 -76 79 -76q49 0 102 23l-19 -127q-79 -34 -164.5 -34t-140.5 48t-55 131z" />
    <glyph glyph-name="Ecaron" unicode="&#x11a;" horiz-adv-x="1366" 
d="M36 0l273 1409h1108l-44 -228h-813l-69 -354h752l-44 -228h-752l-72 -371h854l-45 -228h-1148zM971 1530h-229l-204 276l5 29h150l182 -152h4l232 152h169l-6 -29z" />
    <glyph glyph-name="ecaron" unicode="&#x11b;" horiz-adv-x="1139" 
d="M638 924q-88 0 -153.5 -66.5t-93.5 -194.5h431l3 56q0 205 -187 205zM351 387q0 -219 184 -219q147 0 213 169l245 -74q-75 -159 -186 -221t-307.5 -62t-316.5 115.5t-120 322.5t72 362.5t204.5 238.5t324 83t305 -107.5t113.5 -303.5q0 -99 -24 -215h-700q-7 -38 -7 -89
zM789 1183h-229l-197 317l6 29h150l174 -193h4l240 193h169l-6 -29z" />
    <glyph glyph-name="Gcircumflex" unicode="&#x11c;" horiz-adv-x="1593" 
d="M1248 961q-61 237 -338 237q-143 0 -263 -75t-184 -213t-64 -317t95.5 -280.5t269.5 -101.5q227 0 384 96l46 228h-342l39 208h614l-105 -568q-156 -107 -312 -150.5t-348 -43.5q-300 0 -470 158.5t-170 426t104.5 461.5t296 298.5t430.5 104.5t392.5 -103t206.5 -288z
M1329 1559l-5 -29h-149l-174 151h-4l-240 -151h-169l5 29l311 276h229z" />
    <glyph glyph-name="gcircumflex" unicode="&#x11d;" horiz-adv-x="1251" 
d="M846 676q0 114 -52 173.5t-137 59.5t-134.5 -32t-84 -103.5t-57 -188t-22.5 -189.5q0 -199 173 -199q89 0 162 67t112.5 182.5t39.5 229.5zM458.5 -425q-226.5 0 -333.5 69t-132 214l283 30q27 -127 188 -127q110 0 171 59t88 181t38 200h-2q-63 -89 -111 -128
q-99 -81 -248.5 -81t-242 100t-92.5 282.5t63.5 367t175 272t282.5 87.5q118 0 203 -56t112 -152h2q35 168 48 189h265l-49 -229l-165 -843q-47 -233 -182 -334t-361.5 -101zM1079 1211l-5 -28h-150l-166 192h-4l-248 -192h-169l5 28l320 318h229z" />
    <glyph glyph-name="Gbreve" unicode="&#x11e;" horiz-adv-x="1593" 
d="M1248 961q-61 237 -338 237q-143 0 -263 -75t-184 -213t-64 -317t95.5 -280.5t269.5 -101.5q227 0 384 96l46 228h-342l39 208h614l-105 -568q-156 -107 -312 -150.5t-348 -43.5q-300 0 -470 158.5t-170 426t104.5 461.5t296 298.5t430.5 104.5t392.5 -103t206.5 -288z
M1378 1823q-84 -303 -388 -303q-152 0 -237 81t-85 222h165q0 -75 45.5 -119.5t124.5 -44.5q161 0 211 164h164z" />
    <glyph glyph-name="gbreve" unicode="&#x11f;" horiz-adv-x="1251" 
d="M846 676q0 114 -52 173.5t-137 59.5t-134.5 -32t-84 -103.5t-57 -188t-22.5 -189.5q0 -199 173 -199q89 0 162 67t112.5 182.5t39.5 229.5zM458.5 -425q-226.5 0 -333.5 69t-132 214l283 30q27 -127 188 -127q110 0 171 59t88 181t38 200h-2q-63 -89 -111 -128
q-99 -81 -248.5 -81t-242 100t-92.5 282.5t63.5 367t175 272t282.5 87.5q118 0 203 -56t112 -152h2q35 168 48 189h265l-49 -229l-165 -843q-47 -233 -182 -334t-361.5 -101zM567 1506q0 -74 45.5 -120t121 -46t133 43.5t81.5 122.5h164q-85 -323 -387 -323
q-150 0 -236.5 78.5t-86.5 206.5l2 38h163z" />
    <glyph glyph-name="Gdotaccent" unicode="&#x120;" horiz-adv-x="1593" 
d="M1248 961q-61 237 -338 237q-143 0 -263 -75t-184 -213t-64 -317t95.5 -280.5t269.5 -101.5q227 0 384 96l46 228h-342l39 208h614l-105 -568q-156 -107 -312 -150.5t-348 -43.5q-300 0 -470 158.5t-170 426t104.5 461.5t296 298.5t430.5 104.5t392.5 -103t206.5 -288z
M813 1547l41 207h281l-41 -207h-281z" />
    <glyph glyph-name="gdotaccent" unicode="&#x121;" horiz-adv-x="1251" 
d="M846 676q0 114 -52 173.5t-137 59.5t-134.5 -32t-84 -103.5t-57 -188t-22.5 -189.5q0 -199 173 -199q89 0 162 67t112.5 182.5t39.5 229.5zM458.5 -425q-226.5 0 -333.5 69t-132 214l283 30q27 -127 188 -127q110 0 171 59t88 181t38 200h-2q-63 -89 -111 -128
q-99 -81 -248.5 -81t-242 100t-92.5 282.5t63.5 367t175 272t282.5 87.5q118 0 203 -56t112 -152h2q35 168 48 189h265l-49 -229l-165 -843q-47 -233 -182 -334t-361.5 -101zM596 1277l41 207h281l-41 -207h-281z" />
    <glyph glyph-name="Gcommaaccent" unicode="&#x122;" horiz-adv-x="1593" 
d="M1248 961q-61 237 -338 237q-143 0 -263 -75t-184 -213t-64 -317t95.5 -280.5t269.5 -101.5q227 0 384 96l46 228h-342l39 208h614l-105 -568q-156 -107 -312 -150.5t-348 -43.5q-300 0 -470 158.5t-170 426t104.5 461.5t296 298.5t430.5 104.5t392.5 -103t206.5 -288z
M735 -455h-137q112 100 127 170h-108l40 207h245l-24 -126q-14 -70 -45 -127t-98 -124z" />
    <glyph glyph-name="gcommaaccent" unicode="&#x123;" horiz-adv-x="1251" 
d="M846 676q0 114 -52 173.5t-137 59.5t-134.5 -32t-84 -103.5t-57 -188t-22.5 -189.5q0 -199 173 -199q89 0 162 67t112.5 182.5t39.5 229.5zM458.5 -425q-226.5 0 -333.5 69t-132 214l283 30q27 -127 188 -127q110 0 171 59t88 181t38 200h-2q-63 -89 -111 -128
q-99 -81 -248.5 -81t-242 100t-92.5 282.5t63.5 367t175 272t282.5 87.5q118 0 203 -56t112 -152h2q35 168 48 189h265l-49 -229l-165 -843q-47 -233 -182 -334t-361.5 -101zM743 1609h147q-114 -101 -131 -190h108l-40 -207h-245l28 146q30 152 133 251z" />
    <glyph glyph-name="Hcircumflex" unicode="&#x124;" horiz-adv-x="1479" 
d="M956 0l118 604h-626l-118 -604h-294l273 1409h295l-109 -561h626l109 561h284l-274 -1409h-284zM1310 1559l-5 -29h-149l-174 151h-4l-240 -151h-169l5 29l311 276h229z" />
    <glyph glyph-name="hcircumflex" unicode="&#x125;" horiz-adv-x="1251" 
d="M859 1101q152 0 229 -73t77 -211q0 -74 -21 -164l-127 -653h-279l118 595q26 124 26 165q0 129 -152 129q-101 0 -187 -82t-108 -201l-118 -606h-282l286 1484h280l-79 -405l-39 -182h3q147 204 373 204zM1198 1638l-5 -29h-149l-174 151h-4l-240 -151h-169l5 29l311 276
h229z" />
    <glyph glyph-name="Hbar" unicode="&#x126;" horiz-adv-x="1479" 
d="M1121 848l38 197h-626l-38 -197h626zM956 0l118 604h-626l-118 -604h-294l202 1045h-123l33 170h123l38 194h295l-38 -194h626l38 194h284l-38 -194h123l-33 -170h-123l-203 -1045h-284z" />
    <glyph glyph-name="hbar" unicode="&#x127;" horiz-adv-x="1251" 
d="M851 1061q152 0 229 -73t77 -211q0 -74 -21 -164l-119 -613h-279l110 555q26 124 26 165q0 129 -152 129q-101 0 -187 -82t-108 -201l-110 -566h-282l226 1175h-137l33 170h137l27 139h280l-27 -139h313l-33 -170h-314q-35 -183 -65 -318h3q147 204 373 204z" />
    <glyph glyph-name="Itilde" unicode="&#x128;" horiz-adv-x="569" 
d="M36 0l273 1409h295l-274 -1409h-294zM625 1529q-65 -1 -163 61q-38 24 -71.5 43t-69.5 19t-63.5 -25.5t-52.5 -97.5h-136q39 158 108.5 225.5t155.5 67.5t182 -62q37 -24 70 -42.5t69 -18.5q72 0 116 123h135q-39 -158 -108.5 -225.5t-171.5 -67.5z" />
    <glyph glyph-name="itilde" unicode="&#x129;" horiz-adv-x="569" 
d="M35 0l210 1082h281l-211 -1082h-280zM541 1183q-65 -1 -163 61q-38 24 -71.5 43t-69.5 19t-63.5 -25.5t-52.5 -97.5h-136q39 158 108.5 225.5t155.5 67.5t182 -62q37 -24 70 -42.5t69 -18.5q72 0 116 123h135q-39 -158 -108.5 -225.5t-171.5 -67.5z" />
    <glyph glyph-name="Imacron" unicode="&#x12a;" horiz-adv-x="569" 
d="M36 0l273 1409h295l-274 -1409h-294zM756 1537h-586l33 168h590z" />
    <glyph glyph-name="imacron" unicode="&#x12b;" horiz-adv-x="569" 
d="M35 0l210 1082h281l-211 -1082h-280zM697 1203h-586l33 168h590z" />
    <glyph glyph-name="Ibreve" unicode="&#x12c;" horiz-adv-x="569" 
d="M36 0l273 1409h295l-274 -1409h-294zM867 1823q-83 -303 -387 -303q-152 0 -237.5 81t-85.5 222h165q0 -75 45.5 -119.5t124.5 -44.5q161 0 211 164h164z" />
    <glyph glyph-name="ibreve" unicode="&#x12d;" horiz-adv-x="569" 
d="M35 0l210 1082h281l-211 -1082h-280zM263 1506q0 -74 45.5 -120t121 -46t133 43.5t81.5 122.5h164q-85 -323 -387 -323q-150 0 -236.5 78.5t-86.5 206.5l2 38h163z" />
    <glyph glyph-name="Iogonek" unicode="&#x12e;" horiz-adv-x="569" 
d="M-23 -246q0 147 163 246h-104l273 1409h295l-274 -1409h-24q-51 -36 -91 -96t-40 -115q0 -76 79 -76q49 0 102 23l-19 -127q-79 -34 -164.5 -34t-140.5 48t-55 131z" />
    <glyph glyph-name="iogonek" unicode="&#x12f;" horiz-adv-x="569" 
d="M-37 -246q0 147 163 246h-91l210 1082h281l-211 -1082h-23q-51 -36 -91 -96t-40 -115q0 -76 79 -76q49 0 102 23l-19 -127q-79 -34 -164.5 -34t-140.5 48t-55 131zM282 1277l41 207h281l-41 -207h-281z" />
    <glyph glyph-name="Idotaccent" unicode="&#x130;" horiz-adv-x="569" 
d="M36 0l273 1409h295l-274 -1409h-294zM339 1547l41 207h281l-41 -207h-281z" />
    <glyph glyph-name="dotlessi" unicode="&#x131;" horiz-adv-x="569" 
d="M35 0l210 1082h281l-211 -1082h-280z" />
    <glyph glyph-name="IJ" unicode="&#x132;" horiz-adv-x="1602" 
d="M36 0l273 1409h295l-274 -1409h-294zM957 -20q-203 0 -316.5 96t-151.5 303l267 58q46 -226 207 -226q102 0 152 92q24 44 42 137l143 738h-281l44 231h575l-193 -986q-45 -231 -165 -337t-323 -106z" />
    <glyph glyph-name="ij" unicode="&#x133;" horiz-adv-x="1139" 
d="M35 0l210 1082h281l-211 -1082h-280zM282 1277l41 207h281l-41 -207h-281zM515 -425q-95 0 -166 19l36 188l58 -4q67 0 98.5 34.5t49.5 127.5l223 1142h281l-236 -1210q-29 -144 -116.5 -220.5t-227.5 -76.5zM852 1277l40 207h281l-40 -207h-281z" />
    <glyph glyph-name="Jcircumflex" unicode="&#x134;" horiz-adv-x="1139" 
d="M493 -20q-203 0 -316.5 96t-151.5 303l267 58q46 -226 207 -226q102 0 152 92q24 44 42 137l143 738h-281l44 231h575l-193 -986q-45 -231 -165 -337t-323 -106zM1282 1559l-5 -29h-149l-174 151h-4l-240 -151h-169l5 29l311 276h229z" />
    <glyph glyph-name="jcircumflex" unicode="&#x135;" horiz-adv-x="569" 
d="M755 1211l-5 -28h-150l-166 192h-4l-248 -192h-169l5 28l320 318h229zM-54 -425q-95 0 -166 19l36 188l58 -4q67 0 98.5 34.5t49.5 127.5l223 1142h281l-236 -1210q-29 -144 -116.5 -220.5t-227.5 -76.5z" />
    <glyph glyph-name="Kcommaaccent" unicode="&#x136;" horiz-adv-x="1479" 
d="M995 0l-355 640l-211 -123l-101 -517h-292l273 1409h295l-130 -639l760 639h369l-747 -616l465 -793h-326zM605 -455h-137q112 100 127 170h-108l40 207h245l-24 -126q-14 -70 -45 -127t-98 -124z" />
    <glyph glyph-name="kcommaaccent" unicode="&#x137;" horiz-adv-x="1139" 
d="M728 0l-188 497l-140 -75l-85 -422h-280l288 1484h281l-167 -850l465 448h322l-473 -422l275 -660h-298zM470 -455h-137q112 100 127 170h-108l40 207h245l-24 -126q-14 -70 -45 -127t-98 -124z" />
    <glyph glyph-name="kgreenlandic" unicode="&#x138;" horiz-adv-x="1139" 
d="M728 0l-188 497l-140 -75l-85 -422h-280l210 1082h281l-88 -448l464 448h322l-473 -422l275 -660h-298z" />
    <glyph glyph-name="Lacute" unicode="&#x139;" horiz-adv-x="1251" 
d="M36 0l273 1409h295l-229 -1181h756l-45 -228h-1050zM450 1530l7 31l270 247h267l-9 -43l-386 -235h-149z" />
    <glyph glyph-name="lacute" unicode="&#x13a;" horiz-adv-x="569" 
d="M35 0l288 1484h281l-289 -1484h-280zM327 1609l7 31l270 247h267l-9 -43l-386 -235h-149z" />
    <glyph glyph-name="Lcommaaccent" unicode="&#x13b;" horiz-adv-x="1251" 
d="M36 0l273 1409h295l-229 -1181h756l-45 -228h-1050zM535 -455h-137q112 100 127 170h-108l40 207h245l-24 -126q-14 -70 -45 -127t-98 -124z" />
    <glyph glyph-name="lcommaaccent" unicode="&#x13c;" horiz-adv-x="569" 
d="M35 0l288 1484h281l-289 -1484h-280zM121 -455h-137q112 100 127 170h-108l40 207h245l-24 -126q-14 -70 -45 -127t-98 -124z" />
    <glyph glyph-name="Lcaron" unicode="&#x13d;" horiz-adv-x="1251" 
d="M36 0l273 1409h295l-229 -1181h756l-45 -228h-1050zM967 1012h-137q114 101 131 190h-108l40 207h245l-28 -146q-15 -70 -45 -126.5t-98 -124.5z" />
    <glyph glyph-name="lcaron" unicode="&#x13e;" horiz-adv-x="811" 
d="M35 0l288 1484h281l-289 -1484h-280zM809 1087h-137q114 101 131 190h-108l40 207h245l-28 -146q-15 -70 -45 -126.5t-98 -124.5z" />
    <glyph glyph-name="Ldot" unicode="&#x13f;" horiz-adv-x="1251" 
d="M36 0l273 1409h295l-229 -1181h756l-45 -228h-1050zM720 651l41 207h281l-41 -207h-281z" />
    <glyph glyph-name="ldot" unicode="&#x140;" horiz-adv-x="981" 
d="M35 0l288 1484h281l-289 -1484h-280zM616 651l41 207h281l-41 -207h-281z" />
    <glyph glyph-name="Lslash" unicode="&#x141;" horiz-adv-x="1251" 
d="M36 0l93 482l-148 -64l44 225l148 65l136 701h295l-109 -561l336 149l-43 -223l-336 -149l-77 -397h756l-45 -228h-1050z" />
    <glyph glyph-name="lslash" unicode="&#x142;" horiz-adv-x="569" 
d="M315 0h-280l108 561l-137 -69l41 215l138 69l138 708h281l-108 -552l144 74l-42 -213l-143 -76z" />
    <glyph glyph-name="Nacute" unicode="&#x143;" horiz-adv-x="1479" 
d="M884 0l-374 1131q-23 -162 -38 -239l-174 -892h-262l274 1409h350l377 -1141l12 82q11 83 29 174l174 885h262l-274 -1409h-356zM764 1530l7 31l270 247h267l-9 -43l-386 -235h-149z" />
    <glyph glyph-name="nacute" unicode="&#x144;" horiz-adv-x="1251" 
d="M859 1101q152 0 229 -73t77 -211q0 -74 -21 -164l-127 -653h-279l118 595q26 124 26 165q0 129 -152 129q-101 0 -187 -82t-108 -201l-118 -606h-282l166 851q16 79 38 231h268q0 -9 -9.5 -84t-14.5 -101h3q147 204 373 204zM618 1183l6 31l247 288h277l-8 -43l-376 -276
h-146z" />
    <glyph glyph-name="Ncommaaccent" unicode="&#x145;" horiz-adv-x="1479" 
d="M884 0l-374 1131q-23 -162 -38 -239l-174 -892h-262l274 1409h350l377 -1141l12 82q11 83 29 174l174 885h262l-274 -1409h-356zM609 -455h-137q112 100 127 170h-108l40 207h245l-24 -126q-14 -70 -45 -127t-98 -124z" />
    <glyph glyph-name="ncommaaccent" unicode="&#x146;" horiz-adv-x="1251" 
d="M859 1101q152 0 229 -73t77 -211q0 -74 -21 -164l-127 -653h-279l118 595q26 124 26 165q0 129 -152 129q-101 0 -187 -82t-108 -201l-118 -606h-282l166 851q16 79 38 231h268q0 -9 -9.5 -84t-14.5 -101h3q147 204 373 204zM485 -455h-137q112 100 127 170h-108l40 207
h245l-24 -126q-14 -70 -45 -127t-98 -124z" />
    <glyph glyph-name="Ncaron" unicode="&#x147;" horiz-adv-x="1479" 
d="M884 0l-374 1131q-23 -162 -38 -239l-174 -892h-262l274 1409h350l377 -1141l12 82q11 83 29 174l174 885h262l-274 -1409h-356zM1036 1530h-229l-204 276l5 29h150l182 -152h4l232 152h169l-6 -29z" />
    <glyph glyph-name="ncaron" unicode="&#x148;" horiz-adv-x="1251" 
d="M859 1101q152 0 229 -73t77 -211q0 -74 -21 -164l-127 -653h-279l118 595q26 124 26 165q0 129 -152 129q-101 0 -187 -82t-108 -201l-118 -606h-282l166 851q16 79 38 231h268q0 -9 -9.5 -84t-14.5 -101h3q147 204 373 204zM846 1183h-229l-197 317l6 29h150l174 -193h4
l240 193h169l-6 -29z" />
    <glyph glyph-name="napostrophe" unicode="&#x149;" horiz-adv-x="1451" 
d="M1059 1101q152 0 229 -73t77 -211q0 -74 -21 -164l-127 -653h-279l118 595q26 124 26 165q0 129 -152 129q-101 0 -187 -82t-108 -201l-118 -606h-282l166 851q16 79 38 231h268q0 -9 -9.5 -84t-14.5 -101h3q147 204 373 204zM190 831h-182q163 168 193 318h-127l51 260
h287l-38 -195q-45 -229 -184 -383z" />
    <glyph glyph-name="Eng" unicode="&#x14a;" horiz-adv-x="1481" 
d="M1057 1429q399 0 399 -364q0 -70 -20 -177l-67 -346q-46 -240 -107 -351.5t-162.5 -161t-255.5 -49.5q-268 0 -383 234l247 117q69 -119 159.5 -119t135 67.5t84.5 273.5l56 288q25 119 25 191t-58.5 120t-166.5 48t-201 -41t-157.5 -114t-80.5 -154l-174 -891h-294
l211 1092l57 317h290q-9 -67 -42 -251h4q194 271 501 271z" />
    <glyph glyph-name="eng" unicode="&#x14b;" horiz-adv-x="1251" 
d="M859 1101q152 0 229 -73t77 -211q0 -74 -21 -164l-151 -781q-25 -138 -112.5 -217.5t-231.5 -79.5q-95 0 -166 19l36 188l58 -4q67 0 98.5 35.5t49.5 126.5l131 655q26 124 26 165q0 129 -152 129q-101 0 -187 -82t-108 -201l-118 -606h-282l166 851q16 79 38 231h268
q0 -18 -10 -91.5t-14 -93.5h3q147 204 373 204z" />
    <glyph glyph-name="Omacron" unicode="&#x14c;" horiz-adv-x="1593" 
d="M916 1197q-164 0 -278 -75t-176 -226t-62 -325t90 -266.5t251 -92.5t275 75t176.5 223t62.5 320.5t-87.5 269.5t-251.5 97zM928 1430q293 0 462 -155.5t169 -413t-105.5 -461t-294.5 -312t-407 -108.5t-360.5 72t-217 206.5t-74.5 342t105.5 411t292.5 311t430 107.5z
M1232 1537h-586l33 168h590z" />
    <glyph glyph-name="omacron" unicode="&#x14d;" horiz-adv-x="1251" 
d="M683 909q-114 0 -181.5 -60t-105.5 -182.5t-38 -235.5q0 -259 208 -259q112 0 178 56q132 114 147 434q0 247 -208 247zM1185 679q0 -203 -81.5 -364t-231 -248t-352.5 -87t-330 117.5t-127 320t79.5 357.5t226.5 240.5t358.5 85.5t334.5 -109.5t123 -312.5zM1016 1203
h-586l33 168h590z" />
    <glyph glyph-name="Obreve" unicode="&#x14e;" horiz-adv-x="1593" 
d="M916 1197q-164 0 -278 -75t-176 -226t-62 -325t90 -266.5t251 -92.5t275 75t176.5 223t62.5 320.5t-87.5 269.5t-251.5 97zM928 1430q293 0 462 -155.5t169 -413t-105.5 -461t-294.5 -312t-407 -108.5t-360.5 72t-217 206.5t-74.5 342t105.5 411t292.5 311t430 107.5z
M1355 1823q-83 -303 -387 -303q-152 0 -237.5 81t-85.5 222h165q0 -75 45.5 -119.5t124.5 -44.5q161 0 211 164h164z" />
    <glyph glyph-name="obreve" unicode="&#x14f;" horiz-adv-x="1251" 
d="M683 909q-114 0 -181.5 -60t-105.5 -182.5t-38 -235.5q0 -259 208 -259q112 0 178 56q132 114 147 434q0 247 -208 247zM1185 679q0 -203 -81.5 -364t-231 -248t-352.5 -87t-330 117.5t-127 320t79.5 357.5t226.5 240.5t358.5 85.5t334.5 -109.5t123 -312.5zM610 1506
q0 -74 45.5 -120t121 -46t133 43.5t81.5 122.5h164q-85 -323 -387 -323q-150 0 -236.5 78.5t-86.5 206.5l2 38h163z" />
    <glyph glyph-name="Ohungarumlaut" unicode="&#x150;" horiz-adv-x="1593" 
d="M916 1197q-164 0 -278 -75t-176 -226t-62 -325t90 -266.5t251 -92.5t275 75t176.5 223t62.5 320.5t-87.5 269.5t-251.5 97zM928 1430q293 0 462 -155.5t169 -413t-105.5 -461t-294.5 -312t-407 -108.5t-360.5 72t-217 206.5t-74.5 342t105.5 411t292.5 311t430 107.5z
M1047 1530v31l237 248h261l-10 -43l-352 -236h-136zM642 1530l10 31l227 248h261l-10 -43l-352 -236h-136z" />
    <glyph glyph-name="ohungarumlaut" unicode="&#x151;" horiz-adv-x="1251" 
d="M683 909q-114 0 -181.5 -60t-105.5 -182.5t-38 -235.5q0 -259 208 -259q112 0 178 56q132 114 147 434q0 247 -208 247zM1185 679q0 -203 -81.5 -364t-231 -248t-352.5 -87t-330 117.5t-127 320t79.5 357.5t226.5 240.5t358.5 85.5t334.5 -109.5t123 -312.5zM776 1183
l10 31l257 288h261l-10 -43l-372 -276h-146zM371 1183l10 31l257 288h261l-10 -43l-372 -276h-146z" />
    <glyph glyph-name="OE" unicode="&#x152;" horiz-adv-x="2048" 
d="M921 1188q-109 0 -206.5 -41.5t-167.5 -126.5t-107 -207.5t-37 -268t86 -234t247 -88.5q102 0 173 20l180 927q-59 19 -168 19zM706 -10q-286 0 -444.5 152.5t-158.5 430.5q0 170 58.5 327.5t173 276t272.5 181t342 62.5q79 0 138 -5l63 -6h949l-44 -227h-667l-69 -355
h606l-43 -221h-606l-73 -375h708l-45 -231h-949q-63 -10 -211 -10z" />
    <glyph glyph-name="oe" unicode="&#x153;" horiz-adv-x="1933" 
d="M1443 924q-88 0 -153.5 -66.5t-93.5 -194.5h431l3 56q0 205 -187 205zM353 431q0 -259 209 -259q114 0 179 58.5t102 175.5t43 256q0 247 -208 247q-114 0 -181.5 -60t-105.5 -182.5t-38 -235.5zM58 417.5q0 202.5 79.5 357.5t226.5 240.5t335 85.5q125 0 212 -33.5
t157 -107.5q152 142 372 142t333.5 -107.5t113.5 -303.5q0 -99 -24 -215h-700q-7 -38 -7 -89q0 -219 184 -219q147 0 213 169l245 -74q-75 -159 -186 -221t-291 -62q-247 0 -366 152q-138 -152 -425 -152q-218 0 -345 117.5t-127 320z" />
    <glyph glyph-name="Racute" unicode="&#x154;" horiz-adv-x="1479" 
d="M872 764q146 0 220 58q74 60 74 160q0 198 -242 198h-364l-81 -416h393zM961 1409q322 0 445 -189q59 -91 59 -214q0 -165 -108.5 -280t-294.5 -143l274 -583h-326l-230 534h-346l-103 -534h-295l274 1409h651zM738 1530l7 31l270 247h267l-9 -43l-386 -235h-149z" />
    <glyph glyph-name="racute" unicode="&#x155;" horiz-adv-x="797" 
d="M730 868q-244 0 -313 -354l-101 -514h-281l161 830q24 120 42 252h268l-22 -172l-8 -49h4q73 134 144 187.5t163 53.5q47 0 103 -14l-46 -235q-69 15 -114 15zM437 1183l6 31l247 288h277l-8 -43l-376 -276h-146z" />
    <glyph glyph-name="Rcommaaccent" unicode="&#x156;" horiz-adv-x="1479" 
d="M872 764q146 0 220 58q74 60 74 160q0 198 -242 198h-364l-81 -416h393zM961 1409q322 0 445 -189q59 -91 59 -214q0 -165 -108.5 -280t-294.5 -143l274 -583h-326l-230 534h-346l-103 -534h-295l274 1409h651zM622 -455h-137q112 100 127 170h-108l40 207h245l-24 -126
q-14 -70 -45 -127t-98 -124z" />
    <glyph glyph-name="rcommaaccent" unicode="&#x157;" horiz-adv-x="797" 
d="M730 868q-244 0 -313 -354l-101 -514h-281l161 830q24 120 42 252h268l-22 -172l-8 -49h4q73 134 144 187.5t163 53.5q47 0 103 -14l-46 -235q-69 15 -114 15zM119 -455h-137q112 100 127 170h-108l40 207h245l-24 -126q-14 -70 -45 -127t-98 -124z" />
    <glyph glyph-name="Rcaron" unicode="&#x158;" horiz-adv-x="1479" 
d="M872 764q146 0 220 58q74 60 74 160q0 198 -242 198h-364l-81 -416h393zM961 1409q322 0 445 -189q59 -91 59 -214q0 -165 -108.5 -280t-294.5 -143l274 -583h-326l-230 534h-346l-103 -534h-295l274 1409h651zM931 1530h-229l-204 276l5 29h150l182 -152h4l232 152h169
l-6 -29z" />
    <glyph glyph-name="rcaron" unicode="&#x159;" horiz-adv-x="797" 
d="M730 868q-244 0 -313 -354l-101 -514h-281l161 830q24 120 42 252h268l-22 -172l-8 -49h4q73 134 144 187.5t163 53.5q47 0 103 -14l-46 -235q-69 15 -114 15zM674 1183h-229l-197 317l6 29h150l174 -193h4l240 193h169l-6 -29z" />
    <glyph glyph-name="Sacute" unicode="&#x15a;" horiz-adv-x="1366" 
d="M627.5 -20q-294.5 0 -434.5 94.5t-168 290.5l289 49q21 -111 93.5 -162t212.5 -51q345 0 345 199q0 80 -60 126.5t-241 93.5q-182 47 -270 100q-182 109 -181 317q0 177 157 285t405.5 108t392.5 -86.5t177 -252.5l-288 -67q-22 90 -95.5 143.5t-194.5 53.5t-192 -46.5
t-71 -130.5t102 -134q50 -24 204 -66q154 -44 229 -82q215 -109 215 -332t-166 -336.5t-460.5 -113.5zM713 1530l7 31l270 247h267l-9 -43l-386 -235h-149z" />
    <glyph glyph-name="sacute" unicode="&#x15b;" horiz-adv-x="1139" 
d="M517 166q222 0 222 136q0 52 -41.5 79.5t-211.5 65t-251.5 117t-81.5 205.5q0 160 125.5 245t345 85t320.5 -70.5t125 -217.5l-251 -29q-17 69 -66 100t-134 31q-205 0 -205 -120q0 -60 77 -93q37 -16 198.5 -53t236.5 -113t75 -200q0 -174 -128.5 -264t-352 -90
t-339.5 71t-157 220l251 36q21 -75 77 -108t166 -33zM543 1183l6 31l247 288h277l-8 -43l-376 -276h-146z" />
    <glyph glyph-name="Scircumflex" unicode="&#x15c;" horiz-adv-x="1366" 
d="M627.5 -20q-294.5 0 -434.5 94.5t-168 290.5l289 49q21 -111 93.5 -162t212.5 -51q345 0 345 199q0 80 -60 126.5t-241 93.5q-182 47 -270 100q-182 109 -181 317q0 177 157 285t405.5 108t392.5 -86.5t177 -252.5l-288 -67q-22 90 -95.5 143.5t-194.5 53.5t-192 -46.5
t-71 -130.5t102 -134q50 -24 204 -66q154 -44 229 -82q215 -109 215 -332t-166 -336.5t-460.5 -113.5zM1206 1559l-5 -29h-149l-174 151h-4l-240 -151h-169l5 29l311 276h229z" />
    <glyph glyph-name="scircumflex" unicode="&#x15d;" horiz-adv-x="1139" 
d="M517 166q222 0 222 136q0 52 -41.5 79.5t-211.5 65t-251.5 117t-81.5 205.5q0 160 125.5 245t345 85t320.5 -70.5t125 -217.5l-251 -29q-17 69 -66 100t-134 31q-205 0 -205 -120q0 -60 77 -93q37 -16 198.5 -53t236.5 -113t75 -200q0 -174 -128.5 -264t-352 -90
t-339.5 71t-157 220l251 36q21 -75 77 -108t166 -33zM1016 1211l-5 -28h-150l-166 192h-4l-248 -192h-169l5 28l320 318h229z" />
    <glyph glyph-name="Scedilla" unicode="&#x15e;" horiz-adv-x="1366" 
d="M465 -425q-50 0 -106 6l29 117q42 -7 102 -7q134 0 135 77q0 63 -110 63h-25l-28 -2l87 152q-230 8 -363 98t-161 286l289 49q21 -111 93.5 -162t212.5 -51q345 0 345 199q0 80 -60 126.5t-241 93.5q-182 47 -270 100q-182 109 -181 317q0 177 157 285t405.5 108
t392.5 -86.5t177 -252.5l-288 -67q-22 90 -95.5 143.5t-194.5 53.5t-192 -46.5t-71 -130.5t102 -134q50 -24 204 -66q154 -44 229 -82q215 -109 215 -332q0 -222 -166 -336q-142 -97 -397 -112l-38 -65q70 -1 113.5 -33.5t43.5 -98.5q0 -97 -84 -153.5t-261 -56.5z" />
    <glyph glyph-name="scedilla" unicode="&#x15f;" horiz-adv-x="1139" 
d="M517 166q222 0 222 136q0 52 -41.5 79.5t-211.5 65t-251.5 117t-81.5 205.5q0 160 125.5 245t345 85t320.5 -70.5t125 -217.5l-251 -29q-17 69 -66 100t-134 31q-205 0 -205 -120q0 -60 77 -93q37 -16 198.5 -53t236.5 -113t75 -200q0 -174 -128 -264q-110 -77 -306 -88
l-38 -65q70 -1 113.5 -33.5t43.5 -98.5q0 -97 -84 -153.5t-261 -56.5q-50 0 -106 6l29 117q43 -7 103 -7q134 0 134 77q0 63 -110 63h-25l-28 -2l88 153q-151 11 -245 69q-116 71 -157 220l251 36q21 -75 77 -108t166 -33z" />
    <glyph glyph-name="Scaron" unicode="&#x160;" horiz-adv-x="1366" 
d="M627.5 -20q-294.5 0 -434.5 94.5t-168 290.5l289 49q21 -111 93.5 -162t212.5 -51q345 0 345 199q0 80 -60 126.5t-241 93.5q-182 47 -270 100q-182 109 -181 317q0 177 157 285t405.5 108t392.5 -86.5t177 -252.5l-288 -67q-22 90 -95.5 143.5t-194.5 53.5t-192 -46.5
t-71 -130.5t102 -134q50 -24 204 -66q154 -44 229 -82q215 -109 215 -332t-166 -336.5t-460.5 -113.5zM934 1530h-229l-204 276l5 29h150l182 -152h4l232 152h169l-6 -29z" />
    <glyph glyph-name="scaron" unicode="&#x161;" horiz-adv-x="1139" 
d="M517 166q222 0 222 136q0 52 -41.5 79.5t-211.5 65t-251.5 117t-81.5 205.5q0 160 125.5 245t345 85t320.5 -70.5t125 -217.5l-251 -29q-17 69 -66 100t-134 31q-205 0 -205 -120q0 -60 77 -93q37 -16 198.5 -53t236.5 -113t75 -200q0 -174 -128.5 -264t-352 -90
t-339.5 71t-157 220l251 36q21 -75 77 -108t166 -33zM776 1183h-229l-197 317l6 29h150l174 -193h4l240 193h169l-6 -29z" />
    <glyph glyph-name="Tcommaaccent" unicode="&#x162;" horiz-adv-x="1251" 
d="M697 -215q0 -97 -84 -153.5t-261 -56.5q-50 0 -106 6l29 117q43 -7 103 -7q134 0 134 77q0 63 -110 63h-25l-28 -2l98 171h-77l230 1181h-455l44 228h1206l-44 -228h-456l-230 -1181h-77l-48 -83q70 -1 113.5 -33.5t43.5 -98.5z" />
    <glyph glyph-name="tcommaaccent" unicode="&#x163;" horiz-adv-x="682" 
d="M116 209q0 71 16 157l102 526h-148l37 190h162l137 254h176l-48 -254h202l-35 -190h-205l-104 -535q-11 -56 -11 -95.5t23.5 -62t59.5 -22.5t112 13l-32 -182q-75 -22 -169 -24l-39 -67q70 -1 113.5 -33.5t43.5 -98.5q0 -97 -84 -153.5t-261 -56.5q-50 0 -106 6l29 117
q43 -7 103 -7q134 0 134 77q0 63 -110 63h-25l-28 -2l98 171h3q-146 47 -146 209z" />
    <glyph glyph-name="Tcaron" unicode="&#x164;" horiz-adv-x="1251" 
d="M895 1181l-230 -1181h-295l230 1181h-455l44 228h1206l-44 -228h-456zM915 1530h-229l-204 276l5 29h150l182 -152h4l232 152h169l-6 -29z" />
    <glyph glyph-name="tcaron" unicode="&#x165;" horiz-adv-x="981" 
d="M365.5 -16q-113.5 0 -181.5 58.5t-68 166.5q0 71 16 157l102 526h-148l37 190h162l137 254h176l-48 -254h202l-35 -190h-205l-104 -535q-11 -56 -11 -95.5t23.5 -62t59.5 -22.5t112 13l-32 -182q-81 -24 -194.5 -24zM966 1087h-137q114 101 131 190h-108l40 207h245
l-28 -146q-15 -70 -45 -126.5t-98 -124.5z" />
    <glyph glyph-name="Tbar" unicode="&#x166;" horiz-adv-x="1251" 
d="M895 1181l-71 -365h228l-37 -190h-228l-122 -626h-295l122 626h-227l37 190h227l71 365h-455l44 228h1206l-44 -228h-456z" />
    <glyph glyph-name="tbar" unicode="&#x167;" horiz-adv-x="682" 
d="M365.5 -16q-113.5 0 -181.5 58.5t-68 166.5q0 71 16 157l20 107h-126l36 190h127l45 229h-148l37 190h162l137 254h176l-48 -254h202l-35 -190h-205l-45 -229h185l-37 -190h-185l-22 -116q-11 -56 -11 -95.5t23.5 -62t59.5 -22.5t112 13l-32 -182q-81 -24 -194.5 -24z
" />
    <glyph glyph-name="Utilde" unicode="&#x168;" horiz-adv-x="1479" 
d="M706.5 211q146.5 0 232 76t119.5 254l168 868h295l-171 -879q-55 -281 -220 -415.5t-443.5 -134.5t-423 117.5t-144.5 333.5q0 98 23 204l148 774h295l-153 -810q-18 -87 -18 -181t73 -150.5t219.5 -56.5zM1075 1529q-65 -1 -163 61q-38 24 -71.5 43t-69.5 19
t-63.5 -25.5t-52.5 -97.5h-136q39 158 108.5 225.5t155 67.5t182.5 -62q37 -24 70 -42.5t69 -18.5q72 0 116 123h135q-39 -158 -108.5 -225.5t-171.5 -67.5z" />
    <glyph glyph-name="utilde" unicode="&#x169;" horiz-adv-x="1251" 
d="M368 322q0 -129 152 -129q101 0 186.5 81t108.5 202l118 606h282l-166 -851q-16 -79 -38 -231h-268q0 9 9.5 84t14.5 101h-3q-76 -107 -166.5 -155.5t-224.5 -48.5t-211 73t-77 211q0 80 21 164l127 653h279l-118 -595q-26 -123 -26 -165zM906 1183q-64 -1 -162 61
q-38 24 -72 43t-70 19t-63.5 -25.5t-52.5 -97.5h-136q39 158 108.5 225.5t155.5 67.5t182 -62q37 -24 70 -42.5t69 -18.5q72 0 116 123h135q-39 -158 -108.5 -225.5t-171.5 -67.5z" />
    <glyph glyph-name="Umacron" unicode="&#x16a;" horiz-adv-x="1479" 
d="M706.5 211q146.5 0 232 76t119.5 254l168 868h295l-171 -879q-55 -281 -220 -415.5t-443.5 -134.5t-423 117.5t-144.5 333.5q0 98 23 204l148 774h295l-153 -810q-18 -87 -18 -181t73 -150.5t219.5 -56.5zM1214 1532h-586l33 168h590z" />
    <glyph glyph-name="umacron" unicode="&#x16b;" horiz-adv-x="1251" 
d="M368 322q0 -129 152 -129q101 0 186.5 81t108.5 202l118 606h282l-166 -851q-16 -79 -38 -231h-268q0 9 9.5 84t14.5 101h-3q-76 -107 -166.5 -155.5t-224.5 -48.5t-211 73t-77 211q0 80 21 164l127 653h279l-118 -595q-26 -123 -26 -165zM1029 1203h-586l33 168h590z
" />
    <glyph glyph-name="Ubreve" unicode="&#x16c;" horiz-adv-x="1479" 
d="M706.5 211q146.5 0 232 76t119.5 254l168 868h295l-171 -879q-55 -281 -220 -415.5t-443.5 -134.5t-423 117.5t-144.5 333.5q0 98 23 204l148 774h295l-153 -810q-18 -87 -18 -181t73 -150.5t219.5 -56.5zM1307 1823q-83 -303 -387 -303q-152 0 -237.5 81t-85.5 222h165
q0 -75 45.5 -119.5t124.5 -44.5q161 0 211 164h164z" />
    <glyph glyph-name="ubreve" unicode="&#x16d;" horiz-adv-x="1251" 
d="M368 322q0 -129 152 -129q101 0 186.5 81t108.5 202l118 606h282l-166 -851q-16 -79 -38 -231h-268q0 9 9.5 84t14.5 101h-3q-76 -107 -166.5 -155.5t-224.5 -48.5t-211 73t-77 211q0 80 21 164l127 653h279l-118 -595q-26 -123 -26 -165zM589 1506q0 -74 45.5 -120
t121 -46t133 43.5t81.5 122.5h164q-85 -323 -387 -323q-150 0 -236.5 78.5t-86.5 206.5l2 38h163z" />
    <glyph glyph-name="Uring" unicode="&#x16e;" horiz-adv-x="1479" 
d="M706.5 211q146.5 0 232 76t119.5 254l168 868h295l-171 -879q-55 -281 -220 -415.5t-443.5 -134.5t-423 117.5t-144.5 333.5q0 98 23 204l148 774h295l-153 -810q-18 -87 -18 -181t73 -150.5t219.5 -56.5zM1055 1722.5q0 52.5 -36.5 89.5t-89 37t-89.5 -36t-37 -90.5
t37 -90.5t89 -36t89 37t37 89.5zM1182 1724q0 -105 -73.5 -179.5t-180.5 -74.5t-180.5 74.5t-73.5 179.5t74.5 179.5t179.5 74.5t179.5 -74.5t74.5 -179.5z" />
    <glyph glyph-name="uring" unicode="&#x16f;" horiz-adv-x="1251" 
d="M368 322q0 -129 152 -129q101 0 186.5 81t108.5 202l118 606h282l-166 -851q-16 -79 -38 -231h-268q0 9 9.5 84t14.5 101h-3q-76 -107 -166.5 -155.5t-224.5 -48.5t-211 73t-77 211q0 80 21 164l127 653h279l-118 -595q-26 -123 -26 -165zM857 1388.5q0 52.5 -36.5 89.5
t-89 37t-89.5 -36t-37 -90.5t37 -90.5t89 -36t89 37t37 89.5zM984 1390q0 -105 -73.5 -179.5t-180.5 -74.5t-180.5 74.5t-73.5 179.5t74.5 179.5t179.5 74.5t179.5 -74.5t74.5 -179.5z" />
    <glyph glyph-name="Uhungarumlaut" unicode="&#x170;" horiz-adv-x="1479" 
d="M706.5 211q146.5 0 232 76t119.5 254l168 868h295l-171 -879q-55 -281 -220 -415.5t-443.5 -134.5t-423 117.5t-144.5 333.5q0 98 23 204l148 774h295l-153 -810q-18 -87 -18 -181t73 -150.5t219.5 -56.5zM977 1530v31l237 248h261l-10 -43l-352 -236h-136zM572 1530
l10 31l227 248h261l-10 -43l-352 -236h-136z" />
    <glyph glyph-name="uhungarumlaut" unicode="&#x171;" horiz-adv-x="1251" 
d="M368 322q0 -129 152 -129q101 0 186.5 81t108.5 202l118 606h282l-166 -851q-16 -79 -38 -231h-268q0 9 9.5 84t14.5 101h-3q-76 -107 -166.5 -155.5t-224.5 -48.5t-211 73t-77 211q0 80 21 164l127 653h279l-118 -595q-26 -123 -26 -165zM812 1183l10 31l257 288h261
l-10 -43l-372 -276h-146zM407 1183l10 31l257 288h261l-10 -43l-372 -276h-146z" />
    <glyph glyph-name="Uogonek" unicode="&#x172;" horiz-adv-x="1479" 
d="M513 -246q0 131 133 226q-245 6 -386 120.5t-141 330.5q0 98 23 204l148 774h295l-153 -810q-18 -87 -18 -181t73 -150.5t219.5 -56.5t232 76t119.5 254l168 868h295l-171 -879q-55 -282 -220 -416q-118 -96 -300 -123q-44 -34 -81.5 -90.5t-37.5 -111.5q0 -76 79 -76
q49 0 102 23l-19 -127q-79 -34 -164.5 -34t-140.5 48t-55 131z" />
    <glyph glyph-name="uogonek" unicode="&#x173;" horiz-adv-x="1251" 
d="M778 -211q0 -76 79 -76q49 0 102 23l-19 -127q-79 -34 -164.5 -34t-140.5 48t-55 126q0 152 163 251q0 9 9.5 84t14.5 101h-3q-76 -107 -166.5 -155.5t-224.5 -48.5t-211 73t-77 211q0 80 21 164l127 653h279l-118 -595q-26 -123 -26 -165q0 -129 152 -129
q101 0 186.5 81t108.5 202l118 606h282l-166 -851q-16 -79 -38 -231h-102q-51 -36 -91 -96t-40 -115z" />
    <glyph glyph-name="Wcircumflex" unicode="&#x174;" horiz-adv-x="1933" 
d="M1319 248q73 196 469 1161h291l-638 -1409h-350l-27 812l-4 220l-1 84q-60 -160 -91.5 -239t-373.5 -877h-355l-89 1409h280l36 -815q7 -168 7 -346l133 329l355 832h316zM1483 1559l-5 -29h-149l-174 151h-4l-240 -151h-169l5 29l311 276h229z" />
    <glyph glyph-name="wcircumflex" unicode="&#x175;" horiz-adv-x="1593" 
d="M1207 0h-297l-43 660l-5 230q-53 -142 -95 -232l-302 -658h-297l-69 1082h258l14 -696v-131l79 191l294 636h301l42 -636l5 -191l344 827h266zM1271 1211l-5 -28h-150l-166 192h-4l-248 -192h-169l5 28l320 318h229z" />
    <glyph glyph-name="Ycircumflex" unicode="&#x176;" horiz-adv-x="1366" 
d="M724 0h-294l112 578l-370 831h292l259 -605l474 605h323l-684 -831zM1214 1559l-5 -29h-149l-174 151h-4l-240 -151h-169l5 29l311 276h229z" />
    <glyph glyph-name="ycircumflex" unicode="&#x177;" horiz-adv-x="1139" 
d="M86 -425q-95 0 -171 18l38 196q41 -9 103 -9q129 0 240 196l28 48l-212 1058h291l71 -497q6 -31 21.5 -178t13.5 -156l156 330l259 501h300l-654 -1139q-107 -167 -174.5 -235t-141 -100.5t-168.5 -32.5zM1030 1211l-5 -28h-150l-166 192h-4l-248 -192h-169l5 28l320 318
h229z" />
    <glyph glyph-name="Ydieresis" unicode="&#x178;" horiz-adv-x="1366" 
d="M695 0h-294l112 578l-370 831h292l259 -605l474 605h323l-684 -831zM494 1530l42 219h214l-43 -219h-213zM927 1530l43 219h217l-43 -219h-217z" />
    <glyph glyph-name="Zacute" unicode="&#x179;" horiz-adv-x="1251" 
d="M1082 0h-1130l40 209l927 969h-663l45 231h1014l-40 -205l-930 -973h782zM663 1530l7 31l270 247h267l-9 -43l-386 -235h-149z" />
    <glyph glyph-name="zacute" unicode="&#x17a;" horiz-adv-x="1024" 
d="M-10 0l38 199l613 680h-440l40 203h769l-39 -201l-610 -676h527l-40 -205h-858zM504 1183l6 31l247 288h277l-8 -43l-376 -276h-146z" />
    <glyph glyph-name="Zdotaccent" unicode="&#x17b;" horiz-adv-x="1251" 
d="M1082 0h-1130l40 209l927 969h-663l45 231h1014l-40 -205l-930 -973h782zM657 1540l41 207h281l-41 -207h-281z" />
    <glyph glyph-name="zdotaccent" unicode="&#x17c;" horiz-adv-x="1024" 
d="M-10 0l38 199l613 680h-440l40 203h769l-39 -201l-610 -676h527l-40 -205h-858zM519 1277l41 207h281l-41 -207h-281z" />
    <glyph glyph-name="Zcaron" unicode="&#x17d;" horiz-adv-x="1251" 
d="M1082 0h-1130l40 209l927 969h-663l45 231h1014l-40 -205l-930 -973h782zM902 1530h-229l-204 276l5 29h150l182 -152h4l232 152h169l-6 -29z" />
    <glyph glyph-name="zcaron" unicode="&#x17e;" horiz-adv-x="1024" 
d="M-10 0l38 199l613 680h-440l40 203h769l-39 -201l-610 -676h527l-40 -205h-858zM742 1183h-229l-197 317l6 29h150l174 -193h4l240 193h169l-6 -29z" />
    <glyph glyph-name="longs" unicode="&#x17f;" horiz-adv-x="569" 
d="M669 1296q-54 0 -84 -32t-43 -97l-227 -1167h-280l233 1195q30 155 124.5 222t266.5 67q73 0 155 -17l-36 -181q-55 10 -109 10z" />
    <glyph glyph-name="uni0180" unicode="&#x180;" horiz-adv-x="1251" 
d="M892 649q0 218 -164 218q-94 0 -147 -29.5t-91.5 -93t-60.5 -165t-22 -193.5t53 -152.5t148 -60.5q133 0 208.5 129t75.5 347zM488 873h4q127 189 356 189q159 0 248 -94.5t89 -259.5q1 -220 -63 -390q-126 -338 -453 -338q-246 0 -313 198h-2l-48 -178h-271q8 25 49 223
l185 952h-141l33 170h142l27 139h281l-27 -139h243l-28 -170h-248q-59 -302 -63 -302z" />
    <glyph glyph-name="uni0181" unicode="&#x181;" horiz-adv-x="1630" 
d="M995 841q175 0 248.5 46t73.5 138.5t-57 128.5t-191 36h-301l-67 -349h294zM1279 437q0 186 -290 186h-330l-79 -404h328q209 0 290 50.5t81 167.5zM455 1195q-72 0 -110 -38t-38 -92t12 -114l-225 -17q-5 38 -5 87q0 199 94.5 293.5t292.5 94.5h625q251 0 380 -82.5
t129 -231.5q0 -290 -324 -357q136 -23 212.5 -105.5t76.5 -201.5q0 -211 -156.5 -321t-470.5 -110h-705l232 1195h-20z" />
    <glyph glyph-name="uni0182" unicode="&#x182;" horiz-adv-x="1450" 
d="M1066 441q0 180 -261 180h-354l-76 -391h391q145 0 222.5 55t77.5 156zM869 848q232 0 366.5 -103.5t134.5 -282.5q0 -221 -162 -341.5t-452 -120.5h-720l273 1409h1059l-44 -227h-764l-65 -334h374z" />
    <glyph glyph-name="uni0183" unicode="&#x183;" horiz-adv-x="1251" 
d="M741 907q-87 0 -145.5 -35t-99.5 -106.5t-65 -178.5t-24 -200t53 -153.5t151 -60.5t155 62.5t95 212t38 250.5t-35.5 155t-122.5 54zM855 1102q159 0 248 -94.5t89 -278t-62 -375t-174.5 -283t-286.5 -91.5q-246 0 -313 198h-2l-48 -178h-271q11 33 295 1484h781
l-36 -213h-506q-70 -358 -74 -358h4q127 189 356 189z" />
    <glyph glyph-name="uni0184" unicode="&#x184;" horiz-adv-x="1450" 
d="M1066 441q0 180 -261 180h-354l-76 -391h391q145 0 222.5 55t77.5 156zM869 848q232 0 366.5 -103.5t134.5 -282.5q0 -221 -162 -341.5t-452 -120.5h-720l194 1003l-118 203l6 36l411 167h75l-109 -561h374z" />
    <glyph glyph-name="uni0185" unicode="&#x185;" horiz-adv-x="1251" 
d="M735 907q-271 0 -323 -435q-4 -38 -5 -82q0 -98 54.5 -157.5t153.5 -59.5t160 72.5t102 270.5q22 102 22 192.5t-35.5 144.5t-128.5 54zM855 1102q161 0 249 -95.5t88 -258.5v-14q0 -107 -24 -234q-52 -266 -174.5 -393t-324.5 -127q-246 0 -313 198h-2l-48 -178h-271
q8 25 49 223l170 874l-112 193l5 35l392 159h72q-27 -130 -45 -224q-58 -295 -71 -347h4q126 189 356 189z" />
    <glyph glyph-name="uni0186" unicode="&#x186;" horiz-adv-x="1479" 
d="M121 1027q241 403 685 403q412 0 566 -266q74 -127 73 -293q0 -259 -103 -463.5t-293.5 -316t-432.5 -111.5t-392.5 103.5t-186.5 288.5l274 71q19 -105 109.5 -168t233 -63t255 81.5t172.5 229t60 323t-95.5 264t-263.5 88.5q-264 0 -423 -268z" />
    <glyph glyph-name="uni0187" unicode="&#x187;" horiz-adv-x="1479" 
d="M711 -20q-192 0 -330 72t-209.5 206t-71.5 311q0 252 105 450.5t293.5 304.5t420.5 106t377 -93l15 80q28 143 124.5 216.5t245.5 73.5q75 0 149 -17l-40 -204q-55 12 -96 12t-77 -30t-52 -111l-62 -319l-274 -71q-29 107 -111.5 169t-199.5 62q-242 0 -379.5 -168
t-137.5 -457q0 -173 85.5 -267.5t244.5 -94.5q266 0 418 258l227 -117q-208 -372 -665 -372z" />
    <glyph glyph-name="uni0188" unicode="&#x188;" horiz-adv-x="1139" 
d="M536 173q158 0 223 208l271 -50q-105 -351 -510 -351q-220 0 -338.5 112.5t-118.5 310t79 368.5t210.5 251t327.5 80q136 0 238 -53q28 140 120.5 209.5t233.5 69.5q76 0 148 -17l-39 -201q-55 12 -96 12t-77 -30t-52 -111l-47 -240l-284 -23q-11 191 -167 191
q-107 0 -167.5 -73.5t-109.5 -260.5q-23 -115 -23 -168q0 -234 178 -234z" />
    <glyph glyph-name="uni0189" unicode="&#x189;" horiz-adv-x="1479" 
d="M605 228q160 0 283.5 68.5t190 197.5t66.5 309t-105.5 279t-303.5 99h-176l-72 -368h357l-44 -219h-355l-71 -366h230zM734 1409q333 0 510 -155t177 -447q0 -236 -99 -417t-287 -285.5t-421 -104.5h-578l115 594h-128l42 219h129l116 596h424z" />
    <glyph glyph-name="uni018A" unicode="&#x18a;" horiz-adv-x="1623" 
d="M777 228q160 0 283.5 68.5t190 197.5t66.5 309t-105.5 279t-303.5 99h-144l-185 -953h198zM906 1409q333 0 510 -155t177 -447q0 -236 -99 -417t-287 -285.5t-421 -104.5h-546l232 1195h-17q-72 0 -110 -38t-38 -92t12 -114l-225 -17q-5 38 -5 87q0 199 94.5 293.5
t292.5 94.5h430z" />
    <glyph glyph-name="uni018B" unicode="&#x18b;" horiz-adv-x="1366" 
d="M641 623q-151 0 -228.5 -59.5t-77.5 -171.5q0 -173 235 -173h329l79 404h-337zM33 387q0 127 72.5 234t202.5 163.5t303 56.5h409l66 341h-706l44 227h1001l-273 -1409h-672q-137 0 -238 46t-155 130t-54 211z" />
    <glyph glyph-name="uni018C" unicode="&#x18c;" horiz-adv-x="1251" 
d="M842 700q0 210 -188 210q-196 0 -265 -271q-34 -133 -34 -246q0 -221 158 -221t239 140q41 72 65.5 180t24.5 208zM738 0q0 85 15 160h-4q-71 -93 -153.5 -137t-220 -44t-227.5 102t-90 283t64 364q131 374 458 374q255 0 314 -198h5q6 63 67 367h-506l46 213h780
l-238 -1253q-20 -112 -29 -231h-281z" />
    <glyph glyph-name="uni018D" unicode="&#x18d;" horiz-adv-x="1250" 
d="M574.5 192q94.5 0 170.5 60t121 178q45 116 45 240q0 238 -213 239q-102 -1 -174 -63q-146 -128 -147 -424q0 -116 51.5 -173t146 -57zM1203 678q0 -260 -144.5 -437.5t-403.5 -231.5l298 -253l-35 -180h-923l40 203h537l-299 262q-78 71 -113 125q-77 120 -77 293.5
t82.5 324t233.5 234.5t358 84t326.5 -112t119.5 -312z" />
    <glyph glyph-name="uni018E" unicode="&#x18e;" horiz-adv-x="1366" 
d="M1401 1409l-273 -1409h-1108l44 228h813l69 354h-752l44 228h752l72 371h-854l45 228h1148z" />
    <glyph glyph-name="uni018F" unicode="&#x18f;" horiz-adv-x="1531" 
d="M873 1430q270 0 432 -159.5t162 -418.5t-107.5 -456t-295.5 -306.5t-421 -109.5q-162 0 -283 72.5t-187 203t-66 286t48 306.5h1006l2 55q0 129 -83 213t-225.5 84t-230.5 -76q-44 -38 -100 -127l-259 73q87 188 233.5 274t374.5 86zM705.5 206q146.5 0 256 107
t157.5 300h-710q-7 -44 -7 -93q0 -145 78.5 -229.5t225 -84.5z" />
    <glyph glyph-name="uni018F" unicode="&#x4d8;" horiz-adv-x="1531" 
d="M873 1430q270 0 432 -159.5t162 -418.5t-107.5 -456t-295.5 -306.5t-421 -109.5q-162 0 -283 72.5t-187 203t-66 286t48 306.5h1006l2 55q0 129 -83 213t-225.5 84t-230.5 -76q-44 -38 -100 -127l-259 73q87 188 233.5 274t374.5 86zM705.5 206q146.5 0 256 107
t157.5 300h-710q-7 -44 -7 -93q0 -145 78.5 -229.5t225 -84.5z" />
    <glyph glyph-name="uni0190" unicode="&#x190;" horiz-adv-x="1316" 
d="M454 726q-225 66 -225 283q0 113 70.5 212.5t198.5 153.5t285 54q218 0 350 -100t172 -293l-272 -60q-27 127 -92.5 181.5t-178.5 54.5t-181.5 -54t-68.5 -144q0 -185 262 -185h59l-44 -227h-59q-199 0 -284.5 -50.5t-85.5 -164.5q0 -83 68 -131t185 -48q238 0 366 253
l247 -132q-100 -187 -257 -268t-406 -81q-145 0 -259 47t-176 129.5t-62 186.5q0 157 100 257t288 126z" />
    <glyph glyph-name="uni0191" unicode="&#x191;" horiz-adv-x="1251" 
d="M-95 -425q-74 0 -160 20l42 220q65 -13 93 -13q64 0 98.5 38.5t49.5 117.5l281 1451h986l-44 -228h-691l-85 -436h668l-44 -228h-668l-118 -603q-36 -181 -129.5 -260t-278.5 -79z" />
    <glyph glyph-name="florin" unicode="&#x192;" horiz-adv-x="1139" 
d="M936 1296q-54 0 -84 -32t-43 -97l-16 -85h213l-37 -190h-213l-258 -1317h-280l258 1317h-158l37 190h158l22 113q30 155 124.5 222t266.5 67q73 0 155 -17l-36 -181q-55 10 -109 10z" />
    <glyph glyph-name="uni0193" unicode="&#x193;" horiz-adv-x="1593" 
d="M1248 961q-60 237 -338 237q-144 0 -264 -75.5t-183.5 -213t-63.5 -316t95 -280.5t270 -102q227 0 384 96l46 228h-342l39 208h614l-105 -568q-147 -103 -304 -148.5t-356 -45.5q-300 0 -470 158.5t-170 425.5t103.5 460t296 299t431.5 106t390 -102l17 89
q28 143 124.5 216.5t245.5 73.5q75 0 149 -17l-40 -204q-55 12 -96 12t-77 -30t-52 -111l-62 -318z" />
    <glyph glyph-name="uni0194" unicode="&#x194;" horiz-adv-x="1271" 
d="M439 -141q0 -77 76 -77q42 0 66 36t24 98t-40 179l-40 -51q-86 -108 -86 -185zM841 -96q0 -152 -98 -240.5t-273 -88.5q-123 0 -198 68t-75 165.5t53 196.5t198 265l-269 1139h308l165 -866l500 866h305l-710 -1139q62 -175 78 -244.5t16 -121.5z" />
    <glyph glyph-name="uni0195" unicode="&#x195;" horiz-adv-x="1912" 
d="M1093 357q0 -166 150 -166q189 0 238 257l124 634h280l-122 -626q-48 -246 -178.5 -361t-343 -115t-321 82t-108.5 234q0 92 24 209t35 170t11 85q0 129 -152 129q-101 0 -186.5 -81t-108.5 -202l-118 -606h-282l286 1484h280l-79 -405l-39 -182h3q76 107 166.5 155.5
t224.5 48.5t211 -73t77 -211q0 -79 -36 -252.5t-36 -207.5z" />
    <glyph glyph-name="uni0196" unicode="&#x196;" horiz-adv-x="569" 
d="M36 0l273 1409h295l-274 -1409h-294z" />
    <glyph glyph-name="uni0197" unicode="&#x197;" horiz-adv-x="569" 
d="M53 847h143l109 562h296l-110 -562h155l-43 -221h-155l-122 -626h-295l122 626h-143z" />
    <glyph glyph-name="uni0198" unicode="&#x198;" horiz-adv-x="1479" 
d="M641 1430q86 0 160 -17l-40 -204q-55 12 -96 12q-95 0 -125 -141l-66 -310l760 639h369l-747 -616l465 -793h-326l-355 640l-211 -123l-101 -517h-292l220 1127q57 303 385 303z" />
    <glyph glyph-name="uni0199" unicode="&#x199;" horiz-adv-x="1139" 
d="M638 1484q86 0 160 -17l-40 -204q-55 12 -96 12t-76 -30t-52 -111l-97 -500l465 448h322l-473 -422l275 -660h-298l-188 497l-140 -75l-85 -422h-280l229 1181q29 154 119.5 228.5t254.5 74.5z" />
    <glyph glyph-name="uni019A" unicode="&#x19a;" horiz-adv-x="569" 
d="M35 0l121 623h-153l41 204h151l128 657h281l-128 -657h171l-41 -204h-170l-121 -623h-280z" />
    <glyph glyph-name="uni019B" unicode="&#x19b;" horiz-adv-x="1139" 
d="M178 1159l307 121l-42 204h298l18 -96l196 78l41 -173l-203 -80l233 -1213h-294l-114 724l-407 -724h-296l616 1034l-9 72l-304 -120z" />
    <glyph glyph-name="uni019C" unicode="&#x19c;" horiz-adv-x="1865" 
d="M1346 169q-116 -189 -306 -189q-93 0 -140.5 22t-78.5 62t-54 121h-7q-70 -83 -124 -123q-110 -81 -261 -82q-304 0 -304 296q0 57 12 120l197 1013h295l-181 -933q-23 -117 -23 -163q0 -122 118 -122q104 0 178 82t100 217l178 919h295l-181 -933q-26 -133 -26 -179.5
t31.5 -76t87.5 -29.5q98 0 177.5 93.5t110.5 249.5l170 875h295l-273 -1408h-302l20 168h-4z" />
    <glyph glyph-name="uni019D" unicode="&#x19d;" horiz-adv-x="1479" 
d="M-96 -425q-74 0 -160 20l45 230q62 -13 91 -13q64 0 99 38.5t50 117.5l281 1441h350l377 -1141q17 135 41 256l174 885h262l-274 -1409h-356l-374 1131q-23 -162 -38 -239l-190 -969q-39 -197 -124 -272.5t-254 -75.5z" />
    <glyph glyph-name="uni019E" unicode="&#x19e;" horiz-adv-x="1251" 
d="M882 760q0 129 -152 129q-101 0 -186.5 -81t-108.5 -202l-118 -606h-282l166 851q16 79 38 231h268q0 -9 -9.5 -84t-14.5 -101h3q76 107 166.5 155.5t224.5 48.5t211 -73t77 -211q0 -36 -8.5 -90t-224.5 -1152h-279l203 1020q26 124 26 165z" />
    <glyph glyph-name="uni019F" unicode="&#x19f;" horiz-adv-x="1593" 
d="M914 1197q-360 0 -474 -362h815q-2 173 -90.5 267.5t-250.5 94.5zM741 212q372 0 483 390h-824v-21q0 -185 90 -277t251 -92zM928 1430q293 0 462 -155.5t169 -412.5t-105 -460t-294.5 -312.5t-407.5 -109.5t-360 72q-144 72 -218 206t-74 342t105.5 411.5t292.5 311
t430 107.5z" />
    <glyph glyph-name="Ohorn" unicode="&#x1a0;" horiz-adv-x="1715" 
d="M916 1197q-164 0 -278 -75t-176 -226t-62 -325.5t90 -266.5t251 -92t275 75t176.5 223t62.5 320.5t-87.5 269.5t-251.5 97zM750.5 -20q-216.5 0 -359 72t-217 206.5t-74.5 342t105.5 411t292.5 311t436 107.5t413.5 -120.5t201.5 -340.5q82 28 119 73t50 107h-127l51 260
h287l-42 -212q-28 -142 -106 -232t-222 -133q-5 -245 -111.5 -442.5t-293.5 -303.5t-403.5 -106z" />
    <glyph glyph-name="ohorn" unicode="&#x1a1;" horiz-adv-x="1375" 
d="M683 909q-116 0 -184 -62.5t-104.5 -183t-36.5 -232.5q0 -259 208 -259q112 0 178 56q132 114 147 434q0 247 -208 247zM547.5 -20q-230.5 0 -357.5 117t-127 320t79.5 358t227 240.5t357.5 85.5t334 -109.5t124 -308.5l-1 -43q71 18 108 60.5t51 121.5h-107l51 260h267
l-42 -212q-32 -161 -116.5 -253.5t-229.5 -119.5q-48 -236 -218 -376.5t-400.5 -140.5z" />
    <glyph glyph-name="uni01A2" unicode="&#x1a2;" horiz-adv-x="1851" 
d="M737 207q62 0 118 14l188 967q-58 15 -119 15q-155 0 -274 -82.5t-182.5 -230t-63.5 -328.5q0 -355 333 -355zM686 -20q-278 0 -430.5 152t-152.5 419t101 465.5t289.5 306t443.5 107.5q101 0 203.5 -23t170.5 -60l524 78h73l-360 -1850h-282l312 1606h-255l-216 -1119
q-71 -35 -191.5 -58.5t-229.5 -23.5z" />
    <glyph glyph-name="uni01A3" unicode="&#x1a3;" horiz-adv-x="1502" 
d="M552 172q57 0 95 7l139 720q-27 10 -108 10t-155 -64.5t-115.5 -179.5t-41.5 -253q0 -240 186 -240zM515.5 -20q-206.5 0 -322.5 118.5t-116 319t77.5 357t219.5 242t332 85.5q104 0 198.5 -25.5t145.5 -62.5l400 88h77l-297 -1527h-253l253 1302h-194l-153 -826
q-161 -71 -367.5 -71z" />
    <glyph glyph-name="uni01A4" unicode="&#x1a4;" horiz-adv-x="1516" 
d="M933 723q310 0 310 233q0 224 -248 224h-223l-89 -457h250zM1023 1409q246 0 382.5 -112t136.5 -323.5t-153.5 -344.5t-410.5 -133h-338l-98 -496h-294l231 1195h-24q-72 0 -110 -38t-38 -92t12 -114l-225 -17q-5 38 -5 87q0 199 94.5 293.5t292.5 94.5h547z" />
    <glyph glyph-name="uni01A5" unicode="&#x1a5;" horiz-adv-x="1251" 
d="M889 694q1 213 -159 213q-160 1 -241 -141q-41 -72 -65 -179t-24 -200t53 -153.5t152 -60.5t158 65t92.5 206t33.5 250zM640 1484q79 0 179 -20l-40 -204q-69 15 -101 15q-118 0 -146 -141l-43 -221h4q73 103 157 146t198 43q159 0 248 -94.5t89 -278t-62 -375
t-174.5 -283t-286.5 -91.5q-246 0 -313 198h-2q-5 -46 -112 -603h-280l307 1606q29 155 120.5 229t257.5 74z" />
    <glyph glyph-name="uni01A6" unicode="&#x1a6;" horiz-adv-x="1366" 
d="M749 589q145 0 219.5 58.5t74.5 158.5t-63.5 149.5t-178.5 49.5h-273l-81 -416h302zM838 1234q322 0 445 -189q59 -91 59 -214q0 -165 -108.5 -280t-294.5 -143l352 -737h-326l-311 688h-252l-71 -359h-295l271 1410h285l-33 -176h279z" />
    <glyph glyph-name="uni01A7" unicode="&#x1a7;" horiz-adv-x="1366" 
d="M1070 1077q0 144 -238.5 144t-318.5 -183l-278 39q79 194 224 273.5t387.5 79.5t377.5 -91t135 -250q0 -235 -183 -343q-103 -61 -280.5 -101.5t-259.5 -60.5q-284 -68 -284 -206q0 -100 69 -138.5t210.5 -38.5t235 50t144.5 163l289 -50q-161 -384 -709 -384
q-254 0 -393.5 97t-139.5 276.5t109.5 290.5t369.5 166l149 32q190 40 254 68q130 56 130 167z" />
    <glyph glyph-name="uni01A8" unicode="&#x1a8;" horiz-adv-x="1139" 
d="M670 1103q196 0 302 -73.5t106 -220.5q0 -189 -193 -281q-94 -45 -363 -103q-117 -25 -171 -59.5t-54 -86.5q0 -113 200 -113q108 0 173 32t106 109l240 -37q-63 -157 -186.5 -223.5t-341 -66.5t-335.5 77.5t-118 200t46 195t134.5 119t294.5 87.5l125 24
q97 19 141.5 47.5t44.5 84t-45.5 78.5t-141 23t-149 -32t-78.5 -99l-244 26q106 292 507 292z" />
    <glyph glyph-name="uni01A9" unicode="&#x1a9;" horiz-adv-x="1209" 
d="M-47 0l50 251l545 507l-346 435l41 216h999l-44 -228h-697l299 -373l-27 -134l-480 -446h781l-45 -228h-1076z" />
    <glyph glyph-name="uni01AA" unicode="&#x1aa;" horiz-adv-x="737" 
d="M284 1277q0 -42 25 -67t67 -25t67 25t25 67t-25 67t-67 25t-67 -25t-25 -67zM152 1274q0 96 72 153t207.5 57t209 -71t73.5 -196q0 -62 -13 -127l-227 -1158q-5 -23 -5 -50q0 -91 96 -91q63 0 117 12l-41 -211q-71 -17 -186 -17q-276 0 -276 230q0 40 11 99l232 1188
q-39 -11 -104 -11t-115.5 48.5t-50.5 144.5z" />
    <glyph glyph-name="uni01AB" unicode="&#x1ab;" horiz-adv-x="682" 
d="M157 -221q45 0 83.5 30t54.5 111l13 69q-90 14 -141 68.5t-51 138.5t16 170l102 526h-148l37 190h162l137 254h176l-48 -254h202l-35 -190h-205l-104 -535q-11 -56 -11 -95.5t23.5 -62t59.5 -22.5t112 13l-58 -314q-28 -143 -119.5 -223t-247.5 -80q-79 0 -163 20l39 201
q69 -15 114 -15z" />
    <glyph glyph-name="uni01AC" unicode="&#x1ac;" horiz-adv-x="1251" 
d="M435 1181q-148 0 -148 -133q0 -50 12 -110l-225 -17q-5 35 -5 100q0 199 94.5 293.5t292.5 94.5h939l-44 -228h-438l-230 -1181h-295l230 1181h-183z" />
    <glyph glyph-name="uni01AD" unicode="&#x1ad;" horiz-adv-x="682" 
d="M365.5 -16q-113.5 0 -181.5 58.5t-68 166.5q0 71 16 157l102 526h-148l37 190h148l19 99q29 155 120.5 229t257.5 74q79 0 179 -20l-40 -194q-69 15 -101 15q-118 0 -146 -141l-10 -62h202l-35 -190h-205l-104 -535q-11 -56 -11 -95.5t23.5 -62t59.5 -22.5t112 13
l-32 -182q-81 -24 -194.5 -24z" />
    <glyph glyph-name="uni01AE" unicode="&#x1ae;" horiz-adv-x="1251" 
d="M649 -115q0 -83 95 -83q28 0 98 13l-43 -220q-95 -20 -169 -20q-142 0 -212 62.5t-70 195.5q0 68 14 131l238 1217h-455l44 228h1206l-44 -228h-456l-239 -1223q-7 -35 -7 -73z" />
    <glyph glyph-name="Uhorn" unicode="&#x1af;" horiz-adv-x="1656" 
d="M706.5 211q146.5 0 232 76t119.5 254l168 868h295l-92 -472q250 32 279 212h-127l51 260h287l-42 -212q-71 -359 -475 -400l-52 -267q-55 -281 -220 -415.5t-443.5 -134.5t-423 117.5t-144.5 333.5q0 89 23 204l148 774h295l-153 -810q-18 -87 -18 -181t73 -150.5
t219.5 -56.5z" />
    <glyph glyph-name="uhorn" unicode="&#x1b0;" horiz-adv-x="1462" 
d="M85 265q0 74 21 164l127 653h279l-118 -595q-26 -123 -26 -165q0 -129 152 -129q101 0 187 82t108 201l118 606h282l-90 -459q258 19 288 199h-127l51 260h267l-42 -212q-50 -248 -233 -336q-88 -42 -231 -51q-71 -365 -87 -483h-268q0 9 9.5 84t14.5 101h-3
q-147 -204 -373 -204q-152 0 -229 73t-77 211z" />
    <glyph glyph-name="uni01B1" unicode="&#x1b1;" horiz-adv-x="1599" 
d="M726 -22q-204 0 -341.5 65.5t-212 184t-74.5 267.5q0 234 131.5 403t415.5 293q-114 -11 -176 -11h-270l44 228h636l-60 -309q-201 -90 -308 -227.5t-107 -309.5t85.5 -262t237 -90t260.5 61.5t169 171t60 250t-58 238t-187 168.5l60 309h644l-44 -228h-268
q-59 0 -184 11q153 -78 238 -214t85 -321.5t-101 -345t-286 -246t-389 -86.5z" />
    <glyph glyph-name="uni01B2" unicode="&#x1b2;" horiz-adv-x="1479" 
d="M589 -20q-213 0 -340 103t-127 294q0 71 16 151l172 881h295l-167 -858q-13 -64 -13 -119q0 -221 212 -221q120 0 206.5 57.5t152.5 181t115.5 320t49.5 274.5t-33 117.5t-92.5 39.5t-127.5 -13l42 220q94 20 234 20q280 0 280 -307q0 -145 -72.5 -397t-182 -415.5
t-258.5 -246t-362 -82.5z" />
    <glyph glyph-name="uni01B3" unicode="&#x1b3;" horiz-adv-x="1466" 
d="M1501 1116q-57 62 -124 62t-131 -84l-410 -516l-112 -578h-294l112 578l-370 831h292l259 -605l330 435q143 191 309.5 191t283.5 -129z" />
    <glyph glyph-name="uni01B4" unicode="&#x1b4;" horiz-adv-x="1139" 
d="M86 -425q-95 0 -171 18l38 196q40 -9 90 -9t92.5 20t80 61.5t108.5 162.5l-212 1058h291l71 -497q1 -11 4.5 -37t7 -59.5t7.5 -70.5t7.5 -70.5t5.5 -59.5t3 -37l137 292l357 676q53 105 103 157q103 108 256 108t259 -74l-133 -196q-50 36 -98.5 36t-79 -26t-61.5 -80
l-679 -1201q-107 -167 -174.5 -235t-141 -100.5t-168.5 -32.5z" />
    <glyph glyph-name="uni01B5" unicode="&#x1b5;" horiz-adv-x="1251" 
d="M1192 636h-460l-387 -405h782l-45 -231h-1130l40 209l408 427h-313l38 197h464l330 345h-663l45 231h1014l-40 -205l-355 -371h310z" />
    <glyph glyph-name="uni01B6" unicode="&#x1b6;" horiz-adv-x="1024" 
d="M-35 0l38 199l238 248h-188l38 197h339l226 235h-480l40 203h809l-39 -201l-228 -237h201l-38 -197h-353l-232 -242h567l-40 -205h-898z" />
    <glyph glyph-name="uni01B7" unicode="&#x1b7;" horiz-adv-x="1251" 
d="M431 -427q-406 0 -522 355l261 110q40 -99 77 -144q73 -89 217 -89q99 0 181.5 57t130.5 152.5t48 194.5q0 161 -83.5 238t-266.5 77h-128l44 231l490 423h-680l45 231h1050l-40 -205l-549 -467q202 -23 308.5 -139t106.5 -319t-87.5 -366.5t-243 -251.5t-359.5 -88z" />
    <glyph glyph-name="uni01B8" unicode="&#x1b8;" horiz-adv-x="1251" 
d="M502.5 -427q-226.5 0 -367.5 139.5t-141 379.5q0 177 79.5 319t226 227.5t332.5 98.5l-378 467l40 205h1050l-45 -231h-683l327 -423l-44 -231h-128q-231 0 -357.5 -112t-126.5 -320q0 -139 67.5 -213t197.5 -74q217 0 348 244l232 -113q-108 -190 -255.5 -276.5
t-374 -86.5z" />
    <glyph glyph-name="uni01B9" unicode="&#x1b9;" horiz-adv-x="1078" 
d="M451 -234q222 0 265 201l270 -13q-45 -181 -188.5 -280t-359.5 -99q-146 0 -255 52.5t-167 148.5t-58 221q0 224 133 357.5t391 165.5l-291 367l38 195h902l-40 -203h-565l267 -349l-37 -189h-102q-221 0 -317 -80t-96 -246q0 -114 55.5 -181.5t154.5 -67.5z" />
    <glyph glyph-name="uni01BA" unicode="&#x1ba;" horiz-adv-x="1078" 
d="M175 -132q0 -109 189 -109q98 0 168 46t98 134l263 -44q-138 -329 -558 -329q-196 0 -313.5 75.5t-117.5 204.5q0 170 96.5 226t156 76t215.5 57t230 67t74 98q0 67 -84 79.5t-219 12.5h-102l28 144l356 273h-538l40 203h902l-32 -163l-403 -295q342 -8 342 -231
q0 -136 -73 -198.5t-152 -95.5t-255 -73t-243.5 -68t-67.5 -90z" />
    <glyph glyph-name="uni01BB" unicode="&#x1bb;" horiz-adv-x="1139" 
d="M829 1063q0 143 -162 143q-88 0 -142 -44t-81 -140l-266 59q103 349 509 349q210 0 320.5 -88t110.5 -260t-137 -318h186l-33 -191h-385l-116 -80q-213 -146 -290 -262h654l-44 -231h-985l37 195q111 192 363 378h-280l37 191h508q196 150 196 299z" />
    <glyph glyph-name="uni01BC" unicode="&#x1bc;" horiz-adv-x="1139" 
d="M284 377q19 -174 223 -174q106 0 176.5 76t70.5 208.5t-73.5 185t-266.5 52.5h-164l97 456h-180l44 228h981l-44 -228h-525l-52 -238q239 0 359.5 -99t120.5 -289q0 -263 -156.5 -419t-428.5 -156q-196 0 -315 87.5t-146 248.5z" />
    <glyph glyph-name="uni01BD" unicode="&#x1bd;" horiz-adv-x="1018" 
d="M935 381q0 -114 -60.5 -205.5t-173 -143.5t-285 -52t-284 80t-129.5 225l266 47q10 -82 53.5 -121t136 -39t147.5 49t55 132.5t-56 120t-194 36.5h-207l84 369h-164l40 203h852l-40 -203h-442l-48 -184q228 0 338.5 -75.5t110.5 -238.5z" />
    <glyph glyph-name="uni01BE" unicode="&#x1be;" horiz-adv-x="1139" 
d="M470 785q0 -25 17.5 -45t51 -34.5t171.5 -47.5q138 -34 202 -70q134 -77 134 -239.5t-142.5 -265.5t-371 -103t-341.5 69.5t-144 220.5l254 37q20 -77 72.5 -109t163.5 -32q241 0 241 136q0 45 -43 74.5t-189 60.5t-217 67q-144 73 -144 222q0 37 9 82l16 84h-137l37 190
h151l137 254h176l-49 -254h225l-37 -190h-225q-18 -82 -18 -107z" />
    <glyph glyph-name="uni01BF" unicode="&#x1bf;" horiz-adv-x="1264" 
d="M926 732q0 178 -176 178q-111 0 -190 -87t-107 -228l-114 -580q291 130 439 311.5t148 405.5zM885 1105q159 0 246 -89t87 -257q0 -325 -225.5 -562.5t-695.5 -400.5l-42 -221h-280l292 1507h265q-4 -62 -20 -164h4q140 187 369 187z" />
    <glyph glyph-name="uni01C0" unicode="&#x1c0;" horiz-adv-x="573" 
d="M164 0v1484h245v-1484h-245z" />
    <glyph glyph-name="uni01C1" unicode="&#x1c1;" horiz-adv-x="1019" 
d="M605 0v1484h240v-1484h-240zM174 0v1484h240v-1484h-240z" />
    <glyph glyph-name="uni01C1" unicode="&#x2016;" horiz-adv-x="1019" 
d="M605 0v1484h240v-1484h-240zM174 0v1484h240v-1484h-240z" />
    <glyph glyph-name="uni01C2" unicode="&#x1c2;" horiz-adv-x="1197" 
d="M82 1083h394v401h245v-401h394v-209h-394v-266h394v-209h-394v-399h-245v399h-394v209h394v266h-394v209z" />
    <glyph glyph-name="uni01C3" unicode="&#x1c3;" horiz-adv-x="682" 
d="M79 0l52 270h288l-52 -270h-288zM423 426h-230l160 983h294z" />
    <glyph glyph-name="uni01C4" unicode="&#x1c4;" horiz-adv-x="2730" 
d="M605 228q160 0 283.5 68.5t190 197.5t66.5 309t-105.5 279t-303.5 99h-176l-185 -953h230zM734 1409q333 0 510 -155t177 -447q0 -236 -99 -417t-287 -285.5t-421 -104.5h-578l274 1409h424zM2547 0h-1130l40 209l927 969h-663l45 231h1014l-40 -205l-930 -973h782z
M2415 1530h-229l-204 276l5 29h150l182 -152h4l232 152h169l-6 -29z" />
    <glyph glyph-name="uni01C5" unicode="&#x1c5;" horiz-adv-x="2503" 
d="M605 228q160 0 283.5 68.5t190 197.5t66.5 309t-105.5 279t-303.5 99h-176l-185 -953h230zM734 1409q333 0 510 -155t177 -447q0 -236 -99 -417t-287 -285.5t-421 -104.5h-578l274 1409h424zM1452 0l38 199l613 680h-440l40 203h769l-39 -201l-610 -676h527l-40 -205
h-858zM2220 1183h-229l-197 317l6 29h150l174 -193h4l240 193h169l-6 -29z" />
    <glyph glyph-name="uni01C6" unicode="&#x1c6;" horiz-adv-x="2275" 
d="M842 700q0 210 -188 210q-196 0 -265 -271q-34 -133 -34 -246q0 -221 158.5 -221t239.5 140q41 72 65 180t24 208zM375.5 -21q-137.5 0 -227.5 102t-90 283t64 364q131 374 458 374q256 0 314 -198h5q6 57 26 162l84 418h277l-238 -1253q-20 -112 -29 -231h-281
q0 63 15 160h-4q-71 -93 -153.5 -137t-220 -44zM1241 0l38 199l613 680h-440l40 203h769l-39 -201l-610 -676h527l-40 -205h-858zM2004 1183h-229l-197 317l6 29h150l174 -193h4l240 193h169l-6 -29z" />
    <glyph glyph-name="uni01C7" unicode="&#x1c7;" horiz-adv-x="2390" 
d="M36 0l273 1409h295l-229 -1181h756l-45 -228h-1050zM1727 -20q-203 0 -316.5 96t-151.5 303l267 58q46 -226 207 -226q102 0 152 92q24 44 42 137l143 738h-281l44 231h575l-193 -986q-45 -231 -165 -337t-323 -106z" />
    <glyph glyph-name="uni01C8" unicode="&#x1c8;" horiz-adv-x="1820" 
d="M36 0l273 1409h295l-229 -1181h756l-45 -228h-1050zM1197 -425q-95 0 -166 19l36 188l58 -4q67 0 98.5 34.5t49.5 127.5l223 1142h281l-236 -1210q-29 -144 -116.5 -220.5t-227.5 -76.5zM1534 1277l40 207h281l-40 -207h-281z" />
    <glyph glyph-name="uni01C9" unicode="&#x1c9;" horiz-adv-x="1138" 
d="M35 0l288 1484h281l-289 -1484h-280zM515 -425q-95 0 -166 19l36 188l58 -4q67 0 98.5 34.5t49.5 127.5l223 1142h281l-236 -1210q-29 -144 -116.5 -220.5t-227.5 -76.5zM852 1277l40 207h281l-40 -207h-281z" />
    <glyph glyph-name="uni01CA" unicode="&#x1ca;" horiz-adv-x="2618" 
d="M884 0l-374 1131q-23 -162 -38 -239l-174 -892h-262l274 1409h350l377 -1141l12 82q11 83 29 174l174 885h262l-274 -1409h-356zM1968 -20q-203 0 -316.5 96t-151.5 303l267 58q46 -226 207 -226q102 0 152 92q24 44 42 137l143 738h-281l44 231h575l-193 -986
q-45 -231 -165 -337t-323 -106z" />
    <glyph glyph-name="uni01CB" unicode="&#x1cb;" horiz-adv-x="2048" 
d="M884 0l-374 1131q-23 -162 -38 -239l-174 -892h-262l274 1409h350l377 -1141l12 82q11 83 29 174l174 885h262l-274 -1409h-356zM1425 -425q-95 0 -166 19l36 188l58 -4q67 0 98.5 34.5t49.5 127.5l223 1142h281l-236 -1210q-29 -144 -116.5 -220.5t-227.5 -76.5z
M1762 1277l40 207h281l-40 -207h-281z" />
    <glyph glyph-name="uni01CC" unicode="&#x1cc;" horiz-adv-x="1820" 
d="M859 1101q152 0 229 -73t77 -211q0 -74 -21 -164l-127 -653h-279l118 595q26 124 26 165q0 129 -152 129q-101 0 -187 -82t-108 -201l-118 -606h-282l166 851q16 79 38 231h268q0 -9 -9.5 -84t-14.5 -101h3q147 204 373 204zM1197 -425q-95 0 -166 19l36 188l58 -4
q67 0 98.5 34.5t49.5 127.5l223 1142h281l-236 -1210q-29 -144 -116.5 -220.5t-227.5 -76.5zM1534 1277l40 207h281l-40 -207h-281z" />
    <glyph glyph-name="uni01CD" unicode="&#x1cd;" horiz-adv-x="1479" 
d="M876 1192q-21 -64 -98 -212l-212 -398h395l-67 452q-18 135 -18 158zM1039 0l-55 360h-537l-195 -360h-294l787 1409h348l238 -1409h-292zM1040 1530h-229l-204 276l5 29h150l182 -152h4l232 152h169l-6 -29z" />
    <glyph glyph-name="uni01CE" unicode="&#x1ce;" horiz-adv-x="1139" 
d="M297 332q0 -156 154 -156q75 0 143 64.5t95 170.5l22 92h-162q-117 -2 -184.5 -48t-67.5 -123zM170 808q70 294 476 294q202 0 298.5 -73t96.5 -222q0 -37 -24 -157l-71 -353q-8 -45 -8 -72q0 -65 79 -65q30 0 62 7l-14 -155q-58 -22 -165.5 -22t-161.5 42t-54 111
q0 37 5 64h-6q-84 -130 -166 -178.5t-211 -48.5t-212.5 83.5t-83.5 214.5q0 185 127.5 279.5t413.5 99.5l191 3q21 95 21 131q0 128 -127 128q-94 0 -140 -36.5t-63 -105.5zM783 1183h-229l-197 317l6 29h150l174 -193h4l240 193h169l-6 -29z" />
    <glyph glyph-name="uni01CF" unicode="&#x1cf;" horiz-adv-x="569" 
d="M36 0l273 1409h295l-274 -1409h-294zM584 1530h-229l-204 276l5 29h150l182 -152h4l232 152h169l-6 -29z" />
    <glyph glyph-name="uni01D0" unicode="&#x1d0;" horiz-adv-x="569" 
d="M35 0l210 1082h281l-211 -1082h-280zM514 1183h-229l-197 317l6 29h150l174 -193h4l240 193h169l-6 -29z" />
    <glyph glyph-name="uni01D1" unicode="&#x1d1;" horiz-adv-x="1593" 
d="M916 1197q-164 0 -278 -75t-176 -226t-62 -325t90 -266.5t251 -92.5t275 75t176.5 223t62.5 320.5t-87.5 269.5t-251.5 97zM928 1430q293 0 462 -155.5t169 -413t-105.5 -461t-294.5 -312t-407 -108.5t-360.5 72t-217 206.5t-74.5 342t105.5 411t292.5 311t430 107.5z
M1083 1530h-229l-204 276l5 29h150l182 -152h4l232 152h169l-6 -29z" />
    <glyph glyph-name="uni01D2" unicode="&#x1d2;" horiz-adv-x="1251" 
d="M683 909q-114 0 -181.5 -60t-105.5 -182.5t-38 -235.5q0 -259 208 -259q112 0 178 56q132 114 147 434q0 247 -208 247zM1185 679q0 -203 -81.5 -364t-231 -248t-352.5 -87t-330 117.5t-127 320t79.5 357.5t226.5 240.5t358.5 85.5t334.5 -109.5t123 -312.5zM841 1183
h-229l-197 317l6 29h150l174 -193h4l240 193h169l-6 -29z" />
    <glyph glyph-name="uni01D3" unicode="&#x1d3;" horiz-adv-x="1479" 
d="M706.5 211q146.5 0 232 76t119.5 254l168 868h295l-171 -879q-55 -281 -220 -415.5t-443.5 -134.5t-423 117.5t-144.5 333.5q0 98 23 204l148 774h295l-153 -810q-18 -87 -18 -181t73 -150.5t219.5 -56.5zM1009 1530h-229l-204 276l5 29h150l182 -152h4l232 152h169
l-6 -29z" />
    <glyph glyph-name="uni01D4" unicode="&#x1d4;" horiz-adv-x="1251" 
d="M368 322q0 -129 152 -129q101 0 186.5 81t108.5 202l118 606h282l-166 -851q-16 -79 -38 -231h-268q0 9 9.5 84t14.5 101h-3q-76 -107 -166.5 -155.5t-224.5 -48.5t-211 73t-77 211q0 80 21 164l127 653h279l-118 -595q-26 -123 -26 -165zM832 1183h-229l-197 317l6 29
h150l174 -193h4l240 193h169l-6 -29z" />
    <glyph glyph-name="uni01D5" unicode="&#x1d5;" horiz-adv-x="1479" 
d="M706 211q146 0 232 76t120 254l168 868h295l-171 -879q-55 -282 -220 -416q-166 -134 -444 -134t-422 118t-145 333q0 98 23 204l148 774h295l-153 -810q-18 -87 -18 -181t73 -150t219 -57zM662 1835h611l-26 -138h-611zM794 1466h-160l29 152h160zM1159 1466h-160
l29 152h160z" />
    <glyph glyph-name="uni01D6" unicode="&#x1d6;" horiz-adv-x="1251" 
d="M368 322q0 -129 152 -129q100 0 186 81t109 202l118 606h282l-166 -851q-16 -79 -38 -231h-268q-1 9 9 84t15 101h-3q-76 -107 -166 -155t-225 -49q-134 0 -211 73t-77 211q0 80 21 164l127 653h279l-118 -595q-26 -123 -26 -165zM420 1199l42 219h214l-43 -219h-213z
M853 1199l43 219h217l-43 -219h-217zM1069 1503h-586l33 168h590z" />
    <glyph glyph-name="uni01D7" unicode="&#x1d7;" horiz-adv-x="1479" 
d="M706 211q146 0 232 76t120 254l168 868h295l-171 -879q-55 -282 -220 -416q-166 -134 -444 -134t-422 118t-145 333q0 98 23 204l148 774h295l-153 -810q-18 -87 -18 -181t73 -150t219 -57zM804 1466h-160l29 152h160zM1169 1466h-160l29 152h160zM1250 1835l-3 -16
l-260 -153h-149l2 14l164 155h246z" />
    <glyph glyph-name="uni01D8" unicode="&#x1d8;" horiz-adv-x="1251" 
d="M368 322q0 -129 152 -129q100 0 186 81t109 202l118 606h282l-166 -851q-16 -79 -38 -231h-268q-1 9 9 84t15 101h-3q-76 -107 -166 -155t-225 -49q-134 0 -211 73t-77 211q0 80 21 164l127 653h279l-118 -595q-26 -123 -26 -165zM420 1199l42 219h214l-43 -219h-213z
M853 1199l43 219h217l-43 -219h-217zM657 1501l7 31l270 247h267l-9 -43l-386 -235h-149z" />
    <glyph glyph-name="uni01D9" unicode="&#x1d9;" horiz-adv-x="1479" 
d="M706 211q146 0 232 76t120 254l168 868h295l-171 -879q-55 -282 -220 -416q-166 -134 -444 -134t-422 118t-145 333q0 98 23 204l148 774h295l-153 -810q-18 -87 -18 -181t73 -150t219 -57zM1125 1835h155l-2 -10l-235 -143h-194l-182 141l2 12h155l137 -67zM801 1466
h-160l29 152h160zM1166 1466h-160l29 152h160z" />
    <glyph glyph-name="uni01DA" unicode="&#x1da;" horiz-adv-x="1251" 
d="M368 322q0 -129 152 -129q100 0 186 81t109 202l118 606h282l-166 -851q-16 -79 -38 -231h-268q-1 9 9 84t15 101h-3q-76 -107 -166 -155t-225 -49q-134 0 -211 73t-77 211q0 80 21 164l127 653h279l-118 -595q-26 -123 -26 -165zM420 1199l42 219h214l-43 -219h-213z
M853 1199l43 219h217l-43 -219h-217zM899 1501h-229l-204 276l5 29h150l182 -152h4l232 152h169l-6 -29z" />
    <glyph glyph-name="uni01DB" unicode="&#x1db;" horiz-adv-x="1479" 
d="M706 211q146 0 232 76t120 254l168 868h295l-171 -879q-55 -282 -220 -416q-166 -134 -444 -134t-422 118t-145 333q0 98 23 204l148 774h295l-153 -810q-18 -87 -18 -181t73 -150t219 -57zM1035 1618h160l-29 -152h-160zM670 1618h160l-29 -152h-160zM947 1835l105 -155
l-2 -14h-149l-202 153l3 16h245z" />
    <glyph glyph-name="uni01DC" unicode="&#x1dc;" horiz-adv-x="1251" 
d="M368 322q0 -129 152 -129q100 0 186 81t109 202l118 606h282l-166 -851q-16 -79 -38 -231h-268q-1 9 9 84t15 101h-3q-76 -107 -166 -155t-225 -49q-134 0 -211 73t-77 211q0 80 21 164l127 653h279l-118 -595q-26 -123 -26 -165zM420 1199l42 219h214l-43 -219h-213z
M853 1199l43 219h217l-43 -219h-217zM771 1501l-304 235l9 43h238l203 -247l-7 -31h-139z" />
    <glyph glyph-name="uni01DD" unicode="&#x1dd;" horiz-adv-x="1139" 
d="M507 158q88 0 153.5 66.5t93.5 194.5h-431l-3 -56q0 -205 187 -205zM794 695q0 219 -184 219q-147 0 -213 -169l-245 74q75 159 186 221t307.5 62t316.5 -115.5t120 -322.5t-72 -362.5t-204.5 -238.5t-324 -83t-305 107.5t-113.5 303.5q0 99 24 215h700q7 39 7 89z" />
    <glyph glyph-name="uni01DE" unicode="&#x1de;" horiz-adv-x="1479" 
d="M876 1192q-21 -64 -98 -212l-212 -398h395l-67 452q-18 135 -18 158zM1039 0l-55 360h-537l-195 -360h-294l787 1409h348l238 -1409h-292zM697 1835h611l-26 -138h-611zM829 1466h-160l29 152h160zM1194 1466h-160l29 152h160z" />
    <glyph glyph-name="uni01DF" unicode="&#x1df;" horiz-adv-x="1139" 
d="M297 332q0 -156 154 -156q75 0 143 64t95 171l22 92h-162q-117 -2 -185 -48t-67 -123zM170 808q70 294 476 294q202 0 298 -73t97 -222q0 -37 -24 -157l-71 -353q-8 -45 -8 -72q0 -65 79 -65q30 0 62 7l-14 -155q-58 -22 -165 -22q-108 0 -162 42t-54 111q0 37 5 64h-6
q-84 -131 -166 -179t-211 -48q-128 0 -212 84t-84 214q0 186 128 280t413 99l191 3q21 95 21 131q0 128 -127 128q-94 -1 -140 -37t-63 -105zM350 1199l42 219h214l-43 -219h-213zM783 1199l43 219h217l-43 -219h-217zM1004 1513h-586l33 168h590z" />
    <glyph glyph-name="uni01E0" unicode="&#x1e0;" horiz-adv-x="1479" 
d="M876 1192q-21 -64 -98 -212l-212 -398h395l-67 452q-18 135 -18 158zM1039 0l-55 360h-537l-195 -360h-294l787 1409h348l238 -1409h-292zM698 1835h611l-26 -138h-611zM1011 1466h-159l29 152h159z" />
    <glyph glyph-name="uni01E1" unicode="&#x1e1;" horiz-adv-x="1139" 
d="M297 332q0 -156 154 -156q75 0 143 64t95 171l22 92h-162q-117 -2 -185 -48t-67 -123zM170 808q70 294 476 294q202 0 298 -73t97 -222q0 -37 -24 -157l-71 -353q-8 -45 -8 -72q0 -65 79 -65q30 0 62 7l-14 -155q-58 -22 -165 -22q-108 0 -162 42t-54 111q0 37 5 64h-6
q-84 -131 -166 -179t-211 -48q-128 0 -212 84t-84 214q0 186 128 280t413 99l191 3q21 95 21 131q0 128 -127 128q-94 -1 -140 -37t-63 -105zM552 1238l41 207h281l-41 -207h-281zM1030 1533h-586l33 168h590z" />
    <glyph glyph-name="uni01E2" unicode="&#x1e2;" horiz-adv-x="2048" 
d="M1068 1192h-61l-136 -209l-269 -401h348zM837 0l70 360h-450l-242 -360h-312l965 1409h1231l-45 -227h-701l-69 -355h639l-43 -221h-639l-73 -379h742l-44 -227h-1029zM1776 1539h-586l33 168h590z" />
    <glyph glyph-name="uni01E3" unicode="&#x1e3;" horiz-adv-x="1821" 
d="M1307 924q-88 0 -153.5 -66.5t-93.5 -194.5h431l3 56q0 205 -187 205zM582 500q-113 0 -177 -46t-64 -124q0 -154 134 -154q83 0 151 64.5t95 170.5l22 89h-161zM202 808q70 294 476 294q202 0 295 -113q140 113 345.5 113t319 -107.5t113.5 -303.5q0 -99 -24 -215h-700
q-7 -38 -7 -89q0 -219 184 -219q147 0 213 169l245 -74q-75 -159 -186 -221t-291 -62q-297 0 -394 219q-95 -151 -249 -197q-74 -22 -203.5 -22t-213 83.5t-83.5 214.5q0 382 541 382h191q21 95 21 131q0 128 -127 128q-94 0 -140 -36.5t-63 -105.5zM1276 1203h-586l33 168
h590z" />
    <glyph glyph-name="uni01E4" unicode="&#x1e4;" horiz-adv-x="1593" 
d="M1248 961q-60 237 -338 237q-144 0 -264 -75.5t-183.5 -213t-63.5 -316t95 -280.5t270 -102q220 0 384 84l7 39h-340l31 150h337l16 86h-342l39 208h614l-54 -294h136l-29 -150h-134l-29 -159q-147 -103 -304 -148.5t-356 -45.5q-300 0 -470 158.5t-170 425.5t103.5 460
t296 299t431.5 106t393 -103t206 -288z" />
    <glyph glyph-name="uni01E5" unicode="&#x1e5;" horiz-adv-x="1251" 
d="M846 678.5q0 111.5 -52 171t-146 59.5q-133 0 -202.5 -112t-69.5 -317t173 -205q109 0 170.5 48t94 146t32.5 209.5zM974 -93q-108 -332 -518 -332q-202 0 -306.5 55t-143.5 172l280 50q40 -91 178 -91q87 0 141 35.5t87 110.5h-695l19 93h707q10 31 55 279h-2
q-58 -85 -106 -125q-100 -84 -251.5 -84t-244 100t-92.5 264q0 302 135 484.5t369 182.5q118 0 202.5 -55.5t112.5 -152.5h2q35 166 48 189h265l-49 -229l-167 -853h194l-19 -93h-201z" />
    <glyph glyph-name="uni01E6" unicode="&#x1e6;" horiz-adv-x="1593" 
d="M1248 961q-61 237 -338 237q-143 0 -263 -75t-184 -213t-64 -317t95.5 -280.5t269.5 -101.5q227 0 384 96l46 228h-342l39 208h614l-105 -568q-156 -107 -312 -150.5t-348 -43.5q-300 0 -470 158.5t-170 426t104.5 461.5t296 298.5t430.5 104.5t392.5 -103t206.5 -288z
M1075 1530h-229l-204 276l5 29h150l182 -152h4l232 152h169l-6 -29z" />
    <glyph glyph-name="uni01E7" unicode="&#x1e7;" horiz-adv-x="1251" 
d="M846 676q0 114 -52 173.5t-137 59.5t-134.5 -32t-84 -103.5t-57 -188t-22.5 -189.5q0 -199 173 -199q89 0 162 67t112.5 182.5t39.5 229.5zM458.5 -425q-226.5 0 -333.5 69t-132 214l283 30q27 -127 188 -127q110 0 171 59t88 181t38 200h-2q-63 -89 -111 -128
q-99 -81 -248.5 -81t-242 100t-92.5 282.5t63.5 367t175 272t282.5 87.5q118 0 203 -56t112 -152h2q35 168 48 189h265l-49 -229l-165 -843q-47 -233 -182 -334t-361.5 -101zM833 1183h-229l-197 317l6 29h150l174 -193h4l240 193h169l-6 -29z" />
    <glyph glyph-name="uni01E8" unicode="&#x1e8;" horiz-adv-x="1479" 
d="M995 0l-355 640l-211 -123l-101 -517h-292l273 1409h295l-130 -639l760 639h369l-747 -616l465 -793h-326zM1024 1530h-229l-204 276l5 29h150l182 -152h4l232 152h169l-6 -29z" />
    <glyph glyph-name="uni01E9" unicode="&#x1e9;" horiz-adv-x="1139" 
d="M728 0l-188 497l-140 -75l-85 -422h-280l288 1484h281l-167 -850l465 448h322l-473 -422l275 -660h-298zM934 1530h-229l-204 276l5 29h150l182 -152h4l232 152h169l-6 -29z" />
    <glyph glyph-name="uni01EA" unicode="&#x1ea;" horiz-adv-x="1593" 
d="M916 1197q-164 0 -278 -75t-176 -226t-62 -325t90 -266.5t251 -92.5t275 75t176.5 223t62.5 320.5t-87.5 269.5t-251.5 97zM616 -246q0 131 133 226h-22q-193 0 -335.5 72t-217 206.5t-74.5 342t105.5 411t292.5 311t430 107.5q293 0 462 -156q169 -154 169 -412
q1 -258 -105 -462q-161 -310 -499 -393q-58 -37 -99.5 -100t-41.5 -118q0 -76 79 -76q49 0 102 23l-19 -127q-79 -34 -164.5 -34t-140.5 48t-55 131z" />
    <glyph glyph-name="uni01EB" unicode="&#x1eb;" horiz-adv-x="1251" 
d="M683 909q-114 0 -181.5 -60t-105.5 -182.5t-38 -235.5q0 -259 208 -259q112 0 178 56q132 114 147 434q0 247 -208 247zM396 -246q0 131 133 226q-213 2 -339.5 118.5t-126.5 319t79.5 357.5t226.5 240.5t358.5 85.5t334.5 -109.5t123 -312.5q1 -203 -81 -364
q-117 -232 -366 -306q-59 -38 -101.5 -101.5t-42.5 -118.5q0 -76 79 -76q49 0 102 23l-19 -127q-79 -34 -164.5 -34t-140.5 48t-55 131z" />
    <glyph glyph-name="uni01EC" unicode="&#x1ec;" horiz-adv-x="1593" 
d="M916 1197q-164 0 -278 -75t-176 -226t-62 -325t90 -266.5t251 -92.5t275 75t176.5 223t62.5 320.5t-87.5 269.5t-251.5 97zM616 -246q0 131 133 226h-22q-193 0 -335.5 72t-217 206.5t-74.5 342t105.5 411t292.5 311t430 107.5q293 0 462 -156q169 -154 169 -412
q1 -258 -105 -462q-161 -310 -499 -393q-58 -37 -99.5 -100t-41.5 -118q0 -76 79 -76q49 0 102 23l-19 -127q-79 -34 -164.5 -34t-140.5 48t-55 131zM1233 1554h-586l33 168h590z" />
    <glyph glyph-name="uni01ED" unicode="&#x1ed;" horiz-adv-x="1251" 
d="M683 909q-114 0 -181.5 -60t-105.5 -182.5t-38 -235.5q0 -259 208 -259q112 0 178 56q132 114 147 434q0 247 -208 247zM396 -246q0 131 133 226q-213 2 -339.5 118.5t-126.5 319t79.5 357.5t226.5 240.5t358.5 85.5t334.5 -109.5t123 -312.5q1 -203 -81 -364
q-117 -232 -366 -306q-59 -38 -101.5 -101.5t-42.5 -118.5q0 -76 79 -76q49 0 102 23l-19 -127q-79 -34 -164.5 -34t-140.5 48t-55 131zM1016 1203h-586l33 168h590z" />
    <glyph glyph-name="uni01EE" unicode="&#x1ee;" horiz-adv-x="1251" 
d="M431 -427q-406 0 -522 355l261 110q40 -99 77 -144q73 -89 217 -89q99 0 181.5 57t130.5 152.5t48 194.5q0 161 -83.5 238t-266.5 77h-128l44 231l490 423h-680l45 231h1050l-40 -205l-549 -467q202 -23 308.5 -139t106.5 -319t-87.5 -366.5t-243 -251.5t-359.5 -88z
M894 1530h-229l-204 276l5 29h150l182 -152h4l232 152h169l-6 -29z" />
    <glyph glyph-name="uni01EF" unicode="&#x1ef;" horiz-adv-x="1078" 
d="M393 -232q120 0 192.5 83t72.5 203t-32.5 178.5t-99 84.5t-188.5 26h-81l37 189l407 347h-568l39 203h902l-38 -195l-434 -365q165 -26 256 -140t91 -278t-69.5 -281.5t-196 -182.5t-287.5 -65q-433 0 -497 353l272 41q27 -201 222 -201zM748 1183h-229l-197 317l6 29
h150l174 -193h4l240 193h169l-6 -29z" />
    <glyph glyph-name="uni01F0" unicode="&#x1f0;" horiz-adv-x="569" 
d="M-54 -425q-95 0 -166 19l36 188l58 -4q67 0 98.5 34.5t49.5 127.5l223 1142h281l-236 -1210q-29 -144 -116.5 -220.5t-227.5 -76.5zM514 1183h-229l-197 317l6 29h150l174 -193h4l240 193h169l-6 -29z" />
    <glyph glyph-name="uni01F1" unicode="&#x1f1;" horiz-adv-x="2730" 
d="M605 228q160 0 283.5 68.5t190 197.5t66.5 309t-105.5 279t-303.5 99h-176l-185 -953h230zM734 1409q333 0 510 -155t177 -447q0 -236 -99 -417t-287 -285.5t-421 -104.5h-578l274 1409h424zM2547 0h-1130l40 209l927 969h-663l45 231h1014l-40 -205l-930 -973h782z" />
    <glyph glyph-name="uni01F2" unicode="&#x1f2;" horiz-adv-x="2503" 
d="M605 228q160 0 283.5 68.5t190 197.5t66.5 309t-105.5 279t-303.5 99h-176l-185 -953h230zM734 1409q333 0 510 -155t177 -447q0 -236 -99 -417t-287 -285.5t-421 -104.5h-578l274 1409h424zM1469 0l38 199l613 680h-440l40 203h769l-39 -201l-610 -676h527l-40 -205
h-858z" />
    <glyph glyph-name="uni01F3" unicode="&#x1f3;" horiz-adv-x="2275" 
d="M842 700q0 210 -188 210q-196 0 -265 -271q-34 -133 -34 -246q0 -221 158.5 -221t239.5 140q41 72 65 180t24 208zM375.5 -21q-137.5 0 -227.5 102t-90 283t64 364q131 374 458 374q256 0 314 -198h5q6 57 26 162l84 418h277l-238 -1253q-20 -112 -29 -231h-281
q0 63 15 160h-4q-71 -93 -153.5 -137t-220 -44zM1241 0l38 199l613 680h-440l40 203h769l-39 -201l-610 -676h527l-40 -205h-858z" />
    <glyph glyph-name="uni01F4" unicode="&#x1f4;" horiz-adv-x="1593" 
d="M1248 961q-61 237 -338 237q-143 0 -263 -75t-184 -213t-64 -317t95.5 -280.5t269.5 -101.5q227 0 384 96l46 228h-342l39 208h614l-105 -568q-156 -107 -312 -150.5t-348 -43.5q-300 0 -470 158.5t-170 426t104.5 461.5t296 298.5t430.5 104.5t392.5 -103t206.5 -288z
M777 1530l7 31l270 247h267l-9 -43l-386 -235h-149z" />
    <glyph glyph-name="uni01F5" unicode="&#x1f5;" horiz-adv-x="1251" 
d="M846 676q0 114 -52 173.5t-137 59.5t-134.5 -32t-84 -103.5t-57 -188t-22.5 -189.5q0 -199 173 -199q89 0 162 67t112.5 182.5t39.5 229.5zM458.5 -425q-226.5 0 -333.5 69t-132 214l283 30q27 -127 188 -127q110 0 171 59t88 181t38 200h-2q-63 -89 -111 -128
q-99 -81 -248.5 -81t-242 100t-92.5 282.5t63.5 367t175 272t282.5 87.5q118 0 203 -56t112 -152h2q35 168 48 189h265l-49 -229l-165 -843q-47 -233 -182 -334t-361.5 -101zM515 1183l6 31l247 288h277l-8 -43l-376 -276h-146z" />
    <glyph glyph-name="uni01F6" unicode="&#x1f6;" horiz-adv-x="2120" 
d="M1028 322q0 57 46 282h-626l-118 -604h-294l273 1409h295l-109 -561h626l109 561h284l-185 -961q-11 -59 -11 -99q0 -158 158 -158q99 0 153.5 59.5t80.5 197.5l123 634h280l-122 -626q-49 -249 -172.5 -362.5t-347.5 -113.5q-443 0 -443 342z" />
    <glyph glyph-name="uni01F7" unicode="&#x1f7;" horiz-adv-x="1410" 
d="M1041 981q0 99 -48.5 158t-163.5 59t-207 -80.5t-115 -205.5l-169 -851q207 84 372.5 233.5t248 325.5t82.5 361zM965 1430q171 0 273 -115t102 -306q0 -501 -490 -891q-248 -198 -558 -311l-45 -231h-290l356 1833h272l-33 -166q95 102 191 144.5t222 42.5z" />
    <glyph glyph-name="uni01F8" unicode="&#x1f8;" horiz-adv-x="1479" 
d="M884 0l-374 1131q-23 -162 -38 -239l-174 -892h-262l274 1409h350l377 -1141l12 82q11 83 29 174l174 885h262l-274 -1409h-356zM941 1530l-304 235l9 43h238l203 -247l-7 -31h-139z" />
    <glyph glyph-name="uni01F9" unicode="&#x1f9;" horiz-adv-x="1251" 
d="M859 1101q152 0 229 -73t77 -211q0 -74 -21 -164l-127 -653h-279l118 595q26 124 26 165q0 129 -152 129q-101 0 -187 -82t-108 -201l-118 -606h-282l166 851q16 79 38 231h268q0 -9 -9.5 -84t-14.5 -101h3q147 204 373 204zM796 1183l-307 276l8 43h258l195 -288l-6 -31
h-148z" />
    <glyph glyph-name="Aringacute" unicode="&#x1fa;" horiz-adv-x="1479" 
d="M876 1192q-21 -64 -98 -212l-212 -398h395l-67 452q-18 135 -18 158zM1181 1535q0 -107 -78 -182l228 -1353h-292l-55 360h-537l-195 -360h-294l770 1378q-55 68 -55 166q1 98 75 172t179 75q105 -1 179 -75t75 -181zM1054 1536q0 52 -36 89t-90 37q-52 0 -89 -36
t-37 -90t37 -91q37 -36 89 -36t89 37q37 38 37 90zM856 1831l7 31l270 247h267l-9 -43l-386 -235h-149z" />
    <glyph glyph-name="aringacute" unicode="&#x1fb;" horiz-adv-x="1139" 
d="M297 332q0 -156 154 -156q75 0 143 64t95 171l22 92h-162q-117 -2 -185 -48t-67 -123zM170 808q70 294 476 294q202 0 298 -73t97 -222q0 -37 -24 -157l-71 -353q-8 -45 -8 -72q0 -65 79 -65q30 0 62 7l-14 -155q-58 -22 -165 -22q-108 0 -162 42t-54 111q0 37 5 64h-6
q-84 -131 -166 -179t-211 -48q-128 0 -212 84t-84 214q0 186 128 280t413 99l191 3q21 95 21 131q0 128 -127 128q-94 -1 -140 -37t-63 -105zM830 1388q0 52 -36 90q-36 37 -90 37q-52 0 -89 -36q-37 -37 -37 -91t37 -90t89 -36t89 37t37 89zM957 1390q1 -106 -73 -180
t-181 -74t-181 74t-73 180t75 180t179 74t179 -74t75 -180zM655 1692l7 31l270 247h267l-9 -43l-386 -235h-149z" />
    <glyph glyph-name="AEacute" unicode="&#x1fc;" horiz-adv-x="2048" 
d="M1068 1192h-61l-136 -209l-269 -401h348zM837 0l70 360h-450l-242 -360h-312l965 1409h1231l-45 -227h-701l-69 -355h639l-43 -221h-639l-73 -379h742l-44 -227h-1029zM1273 1530l7 31l270 247h267l-9 -43l-386 -235h-149z" />
    <glyph glyph-name="aeacute" unicode="&#x1fd;" horiz-adv-x="1821" 
d="M1307 924q-87 0 -153 -66t-94 -195h431l3 56q0 205 -187 205zM582 500q-113 0 -177 -46t-64 -124q0 -154 134 -154q83 0 151 64t95 171l22 89h-161zM202 808q70 294 476 294q202 0 295 -113q139 113 345 113t320 -108t113 -303q0 -99 -24 -215h-700q-7 -38 -7 -89
q0 -219 184 -219q147 0 213 169l245 -74q-75 -159 -186 -221t-291 -62q-297 0 -394 219q-95 -151 -249 -197q-74 -22 -204 -22t-212 84q-84 84 -84 214q0 382 541 382h191q21 95 21 131q0 128 -127 128q-94 -1 -140 -37t-63 -105zM898 1183l6 31l247 288h277l-8 -43
l-376 -276h-146z" />
    <glyph glyph-name="Oslashacute" unicode="&#x1fe;" horiz-adv-x="1593" 
d="M1255 827q0 100 -29 175l-688 -738q80 -52 222 -52t256 75t176 223t63 317zM902 1197q-150 0 -264 -75t-176 -226q-62 -152 -62 -294t39 -223l699 748q-86 70 -236 70zM925 1430q240 0 399 -104l131 140h203l-223 -239q124 -147 124 -385q1 -238 -105 -442t-295 -312
t-421 -108t-381 91l-115 -124h-207l205 220q-140 157 -140 399t106 446t292 310q187 108 427 108zM815 1530l7 31l270 247h267l-9 -43l-386 -235h-149z" />
    <glyph glyph-name="oslashacute" unicode="&#x1ff;" horiz-adv-x="1251" 
d="M585 172q93 0 159 56q132 114 147 434q0 32 -4 60l-444 -516q49 -34 142 -34zM358 462q0 -82 8 -124l455 527q-50 44 -151 44q-100 0 -168 -60q-68 -61 -106 -183t-38 -204zM63 424q-1 196 79 351t227 241t321 85q174 0 287 -54l60 69h189l-134 -156q93 -104 93 -294
q1 -190 -81 -351t-232 -248t-312 -87q-163 0 -269 49l-58 -67h-191l131 152q-110 114 -110 310zM619 1183l6 31l247 288h277l-8 -43l-376 -276h-146z" />
    <glyph glyph-name="uni0200" unicode="&#x200;" horiz-adv-x="1479" 
d="M876 1192q-21 -64 -98 -212l-212 -398h395l-67 452q-18 135 -18 158zM1039 0l-55 360h-537l-195 -360h-294l787 1409h348l238 -1409h-292zM691 1517l-307 276l9 43h256l197 -288l-8 -31h-147zM1096 1517l-307 276l9 43h256l197 -288l-8 -31h-147z" />
    <glyph glyph-name="uni0201" unicode="&#x201;" horiz-adv-x="1139" 
d="M297 332q0 -156 154 -156q75 0 143 64.5t95 170.5l22 92h-162q-117 -2 -184.5 -48t-67.5 -123zM170 808q70 294 476 294q202 0 298.5 -73t96.5 -222q0 -37 -24 -157l-71 -353q-8 -45 -8 -72q0 -65 79 -65q30 0 62 7l-14 -155q-58 -22 -165.5 -22t-161.5 42t-54 111
q0 37 5 64h-6q-84 -130 -166 -178.5t-211 -48.5t-212.5 83.5t-83.5 214.5q0 185 127.5 279.5t413.5 99.5l191 3q21 95 21 131q0 128 -127 128q-94 0 -140 -36.5t-63 -105.5zM461 1183l-307 276l9 43h256l197 -288l-8 -31h-147zM866 1183l-307 276l9 43h256l197 -288l-8 -31
h-147z" />
    <glyph glyph-name="uni0202" unicode="&#x202;" horiz-adv-x="1479" 
d="M876 1192q-21 -64 -98 -212l-212 -398h395l-67 452q-18 135 -18 158zM1039 0l-55 360h-537l-195 -360h-294l787 1409h348l238 -1409h-292zM576 1513q82 313 388 313q152 0 237 -76t85 -199l-2 -38h-163q0 73 -44.5 114.5t-119.5 41.5q-170 0 -217 -156h-164z" />
    <glyph glyph-name="uni0203" unicode="&#x203;" horiz-adv-x="1139" 
d="M297 332q0 -156 154 -156q75 0 143 64.5t95 170.5l22 92h-162q-117 -2 -184.5 -48t-67.5 -123zM170 808q70 294 476 294q202 0 298.5 -73t96.5 -222q0 -37 -24 -157l-71 -353q-8 -45 -8 -72q0 -65 79 -65q30 0 62 7l-14 -155q-58 -22 -165.5 -22t-161.5 42t-54 111
q0 37 5 64h-6q-84 -130 -166 -178.5t-211 -48.5t-212.5 83.5t-83.5 214.5q0 185 127.5 279.5t413.5 99.5l191 3q21 95 21 131q0 128 -127 128q-94 0 -140 -36.5t-63 -105.5zM309 1183q82 313 388 313q152 0 237 -76t85 -199l-2 -38h-163q0 73 -44.5 114.5t-119.5 41.5
q-170 0 -217 -156h-164z" />
    <glyph glyph-name="uni0204" unicode="&#x204;" horiz-adv-x="1366" 
d="M36 0l273 1409h1108l-44 -228h-813l-69 -354h752l-44 -228h-752l-72 -371h854l-45 -228h-1148zM651 1517l-307 276l9 43h256l197 -288l-8 -31h-147zM1056 1517l-307 276l9 43h256l197 -288l-8 -31h-147z" />
    <glyph glyph-name="uni0205" unicode="&#x205;" horiz-adv-x="1139" 
d="M638 924q-88 0 -153.5 -66.5t-93.5 -194.5h431l3 56q0 205 -187 205zM351 387q0 -219 184 -219q147 0 213 169l245 -74q-75 -159 -186 -221t-307.5 -62t-316.5 115.5t-120 322.5t72 362.5t204.5 238.5t324 83t305 -107.5t113.5 -303.5q0 -99 -24 -215h-700q-7 -38 -7 -89
zM441 1183l-307 276l9 43h256l197 -288l-8 -31h-147zM846 1183l-307 276l9 43h256l197 -288l-8 -31h-147z" />
    <glyph glyph-name="uni0206" unicode="&#x206;" horiz-adv-x="1366" 
d="M36 0l273 1409h1108l-44 -228h-813l-69 -354h752l-44 -228h-752l-72 -371h854l-45 -228h-1148zM519 1513q82 313 388 313q152 0 237 -76t85 -199l-2 -38h-163q0 73 -44.5 114.5t-119.5 41.5q-170 0 -217 -156h-164z" />
    <glyph glyph-name="uni0207" unicode="&#x207;" horiz-adv-x="1139" 
d="M638 924q-88 0 -153.5 -66.5t-93.5 -194.5h431l3 56q0 205 -187 205zM351 387q0 -219 184 -219q147 0 213 169l245 -74q-75 -159 -186 -221t-307.5 -62t-316.5 115.5t-120 322.5t72 362.5t204.5 238.5t324 83t305 -107.5t113.5 -303.5q0 -99 -24 -215h-700q-7 -38 -7 -89
zM299 1183q82 313 388 313q152 0 237 -76t85 -199l-2 -38h-163q0 73 -44.5 114.5t-119.5 41.5q-170 0 -217 -156h-164z" />
    <glyph glyph-name="uni0208" unicode="&#x208;" horiz-adv-x="569" 
d="M36 0l273 1409h295l-274 -1409h-294zM241 1517l-307 276l9 43h256l197 -288l-8 -31h-147zM646 1517l-307 276l9 43h256l197 -288l-8 -31h-147z" />
    <glyph glyph-name="uni0209" unicode="&#x209;" horiz-adv-x="569" 
d="M35 0l210 1082h281l-211 -1082h-280zM191 1183l-307 276l9 43h256l197 -288l-8 -31h-147zM596 1183l-307 276l9 43h256l197 -288l-8 -31h-147z" />
    <glyph glyph-name="uni020A" unicode="&#x20a;" horiz-adv-x="569" 
d="M36 0l273 1409h295l-274 -1409h-294zM134 1545q82 313 388 313q152 0 237 -76t85 -199l-2 -38h-163q0 73 -44.5 114.5t-119.5 41.5q-170 0 -217 -156h-164z" />
    <glyph glyph-name="uni020B" unicode="&#x20b;" horiz-adv-x="569" 
d="M35 0l210 1082h281l-211 -1082h-280zM50 1183q82 313 388 313q152 0 237 -76t85 -199l-2 -38h-163q0 73 -44.5 114.5t-119.5 41.5q-170 0 -217 -156h-164z" />
    <glyph glyph-name="uni020C" unicode="&#x20c;" horiz-adv-x="1593" 
d="M916 1197q-164 0 -278 -75t-176 -226t-62 -325t90 -266.5t251 -92.5t275 75t176.5 223t62.5 320.5t-87.5 269.5t-251.5 97zM928 1430q293 0 462 -155.5t169 -413t-105.5 -461t-294.5 -312t-407 -108.5t-360.5 72t-217 206.5t-74.5 342t105.5 411t292.5 311t430 107.5z
M691 1517l-307 276l9 43h256l197 -288l-8 -31h-147zM1096 1517l-307 276l9 43h256l197 -288l-8 -31h-147z" />
    <glyph glyph-name="uni020D" unicode="&#x20d;" horiz-adv-x="1251" 
d="M683 909q-114 0 -181.5 -60t-105.5 -182.5t-38 -235.5q0 -259 208 -259q112 0 178 56q132 114 147 434q0 247 -208 247zM1185 679q0 -203 -81.5 -364t-231 -248t-352.5 -87t-330 117.5t-127 320t79.5 357.5t226.5 240.5t358.5 85.5t334.5 -109.5t123 -312.5zM471 1183
l-307 276l9 43h256l197 -288l-8 -31h-147zM876 1183l-307 276l9 43h256l197 -288l-8 -31h-147z" />
    <glyph glyph-name="uni020E" unicode="&#x20e;" horiz-adv-x="1593" 
d="M916 1197q-164 0 -278 -75t-176 -226t-62 -325t90 -266.5t251 -92.5t275 75t176.5 223t62.5 320.5t-87.5 269.5t-251.5 97zM928 1430q293 0 462 -155.5t169 -413t-105.5 -461t-294.5 -312t-407 -108.5t-360.5 72t-217 206.5t-74.5 342t105.5 411t292.5 311t430 107.5z
M579 1512q82 313 388 313q152 0 237 -76t85 -199l-2 -38h-163q0 73 -44.5 114.5t-119.5 41.5q-170 0 -217 -156h-164z" />
    <glyph glyph-name="uni020F" unicode="&#x20f;" horiz-adv-x="1251" 
d="M683 909q-114 0 -181.5 -60t-105.5 -182.5t-38 -235.5q0 -259 208 -259q112 0 178 56q132 114 147 434q0 247 -208 247zM1185 679q0 -203 -81.5 -364t-231 -248t-352.5 -87t-330 117.5t-127 320t79.5 357.5t226.5 240.5t358.5 85.5t334.5 -109.5t123 -312.5zM367 1183
q82 313 388 313q152 0 237 -76t85 -199l-2 -38h-163q0 73 -44.5 114.5t-119.5 41.5q-170 0 -217 -156h-164z" />
    <glyph glyph-name="uni0210" unicode="&#x210;" horiz-adv-x="1479" 
d="M872 764q146 0 220 58q74 60 74 160q0 198 -242 198h-364l-81 -416h393zM961 1409q322 0 445 -189q59 -91 59 -214q0 -165 -108.5 -280t-294.5 -143l274 -583h-326l-230 534h-346l-103 -534h-295l274 1409h651zM651 1517l-307 276l9 43h256l197 -288l-8 -31h-147z
M1056 1517l-307 276l9 43h256l197 -288l-8 -31h-147z" />
    <glyph glyph-name="uni0211" unicode="&#x211;" horiz-adv-x="797" 
d="M730 868q-244 0 -313 -354l-101 -514h-281l161 830q24 120 42 252h268l-22 -172l-8 -49h4q73 134 144 187.5t163 53.5q47 0 103 -14l-46 -235q-69 15 -114 15zM391 1183l-307 276l9 43h256l197 -288l-8 -31h-147zM796 1183l-307 276l9 43h256l197 -288l-8 -31h-147z" />
    <glyph glyph-name="uni0212" unicode="&#x212;" horiz-adv-x="1479" 
d="M872 764q146 0 220 58q74 60 74 160q0 198 -242 198h-364l-81 -416h393zM961 1409q322 0 445 -189q59 -91 59 -214q0 -165 -108.5 -280t-294.5 -143l274 -583h-326l-230 534h-346l-103 -534h-295l274 1409h651zM519 1513q82 313 388 313q152 0 237 -76t85 -199l-2 -38
h-163q0 73 -44.5 114.5t-119.5 41.5q-170 0 -217 -156h-164z" />
    <glyph glyph-name="uni0213" unicode="&#x213;" horiz-adv-x="797" 
d="M730 868q-244 0 -313 -354l-101 -514h-281l161 830q24 120 42 252h268l-22 -172l-8 -49h4q73 134 144 187.5t163 53.5q47 0 103 -14l-46 -235q-69 15 -114 15zM222 1183q82 313 388 313q152 0 237 -76t85 -199l-2 -38h-163q0 73 -44.5 114.5t-119.5 41.5
q-170 0 -217 -156h-164z" />
    <glyph glyph-name="uni0214" unicode="&#x214;" horiz-adv-x="1479" 
d="M706.5 211q146.5 0 232 76t119.5 254l168 868h295l-171 -879q-55 -281 -220 -415.5t-443.5 -134.5t-423 117.5t-144.5 333.5q0 98 23 204l148 774h295l-153 -810q-18 -87 -18 -181t73 -150.5t219.5 -56.5zM691 1517l-307 276l9 43h256l197 -288l-8 -31h-147zM1096 1517
l-307 276l9 43h256l197 -288l-8 -31h-147z" />
    <glyph glyph-name="uni0215" unicode="&#x215;" horiz-adv-x="1251" 
d="M368 322q0 -129 152 -129q101 0 186.5 81t108.5 202l118 606h282l-166 -851q-16 -79 -38 -231h-268q0 9 9.5 84t14.5 101h-3q-76 -107 -166.5 -155.5t-224.5 -48.5t-211 73t-77 211q0 80 21 164l127 653h279l-118 -595q-26 -123 -26 -165zM515 1183l-307 276l9 43h256
l197 -288l-8 -31h-147zM920 1183l-307 276l9 43h256l197 -288l-8 -31h-147z" />
    <glyph glyph-name="uni0216" unicode="&#x216;" horiz-adv-x="1479" 
d="M706.5 211q146.5 0 232 76t119.5 254l168 868h295l-171 -879q-55 -281 -220 -415.5t-443.5 -134.5t-423 117.5t-144.5 333.5q0 98 23 204l148 774h295l-153 -810q-18 -87 -18 -181t73 -150.5t219.5 -56.5zM549 1513q82 313 388 313q152 0 237 -76t85 -199l-2 -38h-163
q0 73 -44.5 114.5t-119.5 41.5q-170 0 -217 -156h-164z" />
    <glyph glyph-name="uni0217" unicode="&#x217;" horiz-adv-x="1251" 
d="M368 322q0 -129 152 -129q101 0 186.5 81t108.5 202l118 606h282l-166 -851q-16 -79 -38 -231h-268q0 9 9.5 84t14.5 101h-3q-76 -107 -166.5 -155.5t-224.5 -48.5t-211 73t-77 211q0 80 21 164l127 653h279l-118 -595q-26 -123 -26 -165zM374 1183q82 313 388 313
q152 0 237 -76t85 -199l-2 -38h-163q0 73 -44.5 114.5t-119.5 41.5q-170 0 -217 -156h-164z" />
    <glyph glyph-name="Scommaaccent" unicode="&#x218;" horiz-adv-x="1366" 
d="M628 -20q-294 0 -435 94q-140 94 -168 291l289 49q22 -111 94 -162t212 -51q345 0 345 199q0 80 -60 126t-241 94q-182 47 -270 100q-182 109 -181 317q0 177 157 285q158 108 406 108t392 -86t177 -253l-288 -67q-21 90 -95 144t-195 53t-192 -47t-71 -130t102 -134
q50 -24 204 -67t229 -81q215 -109 215 -332q0 -222 -166 -336t-460 -114zM577 -455h-137q112 100 127 170h-108l40 207h245l-24 -126q-14 -70 -45 -127t-98 -124z" />
    <glyph glyph-name="scommaaccent" unicode="&#x219;" horiz-adv-x="1139" 
d="M517 166q222 0 222 136q1 52 -41 80t-212 64q-170 38 -252 118t-81 205q-1 160 125 245t346 85q220 -1 320 -71q101 -70 125 -217l-251 -29q-17 69 -66 100t-134 31q-205 0 -205 -120q0 -60 77 -93q36 -16 198 -53t237 -113t75 -200q0 -174 -128 -264t-352 -90t-340 71
t-157 220l251 36q21 -75 77 -108t166 -33zM467 -455h-137q112 100 127 170h-108l40 207h245l-24 -126q-14 -70 -45 -127t-98 -124z" />
    <glyph glyph-name="uni021A" unicode="&#x21a;" horiz-adv-x="1251" 
d="M895 1181l-230 -1181h-295l230 1181h-455l44 228h1206l-44 -228h-456zM464 -455h-137q112 100 127 170h-108l40 207h245l-24 -126q-14 -70 -45 -127t-98 -124z" />
    <glyph glyph-name="uni021B" unicode="&#x21b;" horiz-adv-x="682" 
d="M365.5 -16q-113.5 0 -181.5 58.5t-68 166.5q0 71 16 157l102 526h-148l37 190h162l137 254h176l-48 -254h202l-35 -190h-205l-104 -535q-11 -56 -11 -95.5t23.5 -62t59.5 -22.5t112 13l-32 -182q-81 -24 -194.5 -24zM287 -455h-137q112 100 127 170h-108l40 207h245
l-24 -126q-14 -70 -45 -127t-98 -124z" />
    <glyph glyph-name="uni021C" unicode="&#x21c;" horiz-adv-x="1182" 
d="M780 401.5q0 92.5 -24 136.5q-163 -88 -695 -234l44 233q502 145 644 238t142 247q0 82 -57 129t-156.5 47t-149.5 -16q-102 -33 -152 -157l-265 49q99 271 348 334q87 22 232 22q240 0 375.5 -95t135.5 -250t-77 -260q-39 -53 -128 -130q80 -103 80 -258.5t-68 -288
t-196 -235t-338 -185t-555 -155.5l46 243q253 60 351.5 95.5t181 78.5t145 102.5t99.5 138t37 171z" />
    <glyph glyph-name="uni021D" unicode="&#x21d;" horiz-adv-x="1065" 
d="M766 775.5q0 69.5 -45.5 106t-129 36.5t-150.5 -45.5t-102 -125.5l-218 54q52 145 183 223t328 78t303.5 -79.5t106.5 -233.5q0 -192 -194 -334q38 -36 60 -97t22 -124q0 -289 -257 -458.5t-783 -206.5l42 217q360 30 537 142t177 298q0 61 -25 106q-181 -68 -611 -140
l41 214q162 26 260.5 46t201 55t151.5 68.5t75.5 82t26.5 118z" />
    <glyph glyph-name="uni021E" unicode="&#x21e;" horiz-adv-x="1479" 
d="M956 0l118 604h-626l-118 -604h-294l273 1409h295l-109 -561h626l109 561h284l-274 -1409h-284zM1024 1530h-229l-204 276l5 29h150l182 -152h4l232 152h169l-6 -29z" />
    <glyph glyph-name="uni021F" unicode="&#x21f;" horiz-adv-x="1251" 
d="M859 1101q152 0 229 -73t77 -211q0 -74 -21 -164l-127 -653h-279l118 595q26 124 26 165q0 129 -152 129q-101 0 -187 -82t-108 -201l-118 -606h-282l286 1484h280l-79 -405l-39 -182h3q147 204 373 204zM964 1530h-229l-204 276l5 29h150l182 -152h4l232 152h169l-6 -29
z" />
    <glyph glyph-name="uni0220" unicode="&#x220;" horiz-adv-x="1450" 
d="M985 1430q405 0 405 -377q0 -84 -27 -219l-245 -1259h-291l230 1179q30 138 30 238q0 208 -215 207q-171 0 -331 -130l-208 -1069h-291l274 1409h272l-26 -130q195 151 423 151z" />
    <glyph glyph-name="uni0221" unicode="&#x221;" horiz-adv-x="1620" 
d="M1202.5 -229q73.5 0 117 32.5t43.5 82t-34 76t-84 26.5q-137 0 -232 -95q6 -51 61 -86.5t128.5 -35.5zM842 700q0 210 -188 210q-196 0 -265 -271q-34 -133 -34 -246q0 -221 158 -221t239 140q41 72 65.5 180t24.5 208zM1165.5 -425q-209.5 0 -361.5 140l-138 -134
l-139 151q49 57 214 200l-2 31v31q0 94 14 166h-4q-71 -93 -153.5 -137t-220 -44t-227.5 102t-90 283t64 364q131 374 458 374q255 0 314 -198h5q6 67 110 580h277l-241 -1268l-16 -104q130 80 271.5 80t223 -70t81.5 -190q0 -166 -115 -261.5t-324.5 -95.5z" />
    <glyph glyph-name="uni0222" unicode="&#x222;" horiz-adv-x="1292" 
d="M346 381q0 -203 236 -203q142 0 220.5 70.5t78.5 184.5t-56.5 161t-164.5 47q-108 -1 -175 -35q-139 -72 -139 -225zM496 991q0 -73 56.5 -113t161.5 -40q263 0 263 233q0 149 -141 160l34 198q191 -9 289.5 -95.5t98.5 -238.5q0 -257 -300 -352l-1 -4q100 -23 157 -98
t57 -203.5t-74.5 -235.5t-217 -164.5t-356.5 -57.5t-342.5 98t-128.5 281q0 145 88 244t254 134l1 4q-182 88 -182 259.5t134 264t380 92.5l-35 -199q-196 0 -196 -167z" />
    <glyph glyph-name="uni0223" unicode="&#x223;" horiz-adv-x="1292" 
d="M350 380q0 -202 252 -202q130 0 212 76.5t82 203.5q0 213 -241 213q-193 -1 -269 -133q-36 -62 -36 -158zM1053 1489q229 -121 229 -351q0 -250 -306 -365l-1 -4q99 -29 155 -111.5t56 -209.5t-77.5 -237.5t-222 -170.5t-358.5 -60t-344 98t-130 266t91.5 277.5
t257.5 147.5l1 4q-81 40 -130 117.5t-49 169.5q0 155 98.5 263t281.5 166l77 -152q-81 -33 -130 -101t-49 -162.5t54 -150t172.5 -55.5t197 74.5t78.5 197.5t-87 197z" />
    <glyph glyph-name="uni0224" unicode="&#x224;" horiz-adv-x="1251" 
d="M891 231q133 0 200 -58.5t67 -164.5q0 -60 -21.5 -146t-52.5 -144l-243 38q55 95 55 161q0 83 -104 83h-840l40 209l927 969h-663l45 231h1014l-40 -205l-930 -973h546z" />
    <glyph glyph-name="uni0225" unicode="&#x225;" horiz-adv-x="1024" 
d="M707 205q127 0 196 -56t69 -142.5t-24 -165.5t-51 -125l-231 36q20 37 38 75.5t18 81.5t-28 67t-77 24h-652l38 199l653 680h-480l40 203h809l-39 -201l-650 -676h371z" />
    <glyph glyph-name="uni0226" unicode="&#x226;" horiz-adv-x="1479" 
d="M876 1192q-21 -64 -98 -212l-212 -398h395l-67 452q-18 135 -18 158zM1039 0l-55 360h-537l-195 -360h-294l787 1409h348l238 -1409h-292zM793 1547l41 207h281l-41 -207h-281z" />
    <glyph glyph-name="uni0227" unicode="&#x227;" horiz-adv-x="1139" 
d="M297 332q0 -156 154 -156q75 0 143 64.5t95 170.5l22 92h-162q-117 -2 -184.5 -48t-67.5 -123zM170 808q70 294 476 294q202 0 298.5 -73t96.5 -222q0 -37 -24 -157l-71 -353q-8 -45 -8 -72q0 -65 79 -65q30 0 62 7l-14 -155q-58 -22 -165.5 -22t-161.5 42t-54 111
q0 37 5 64h-6q-84 -130 -166 -178.5t-211 -48.5t-212.5 83.5t-83.5 214.5q0 185 127.5 279.5t413.5 99.5l191 3q21 95 21 131q0 128 -127 128q-94 0 -140 -36.5t-63 -105.5zM550 1277l41 207h281l-41 -207h-281z" />
    <glyph glyph-name="uni0228" unicode="&#x228;" horiz-adv-x="1366" 
d="M36 0l273 1409h1108l-44 -228h-813l-69 -354h752l-44 -228h-752l-72 -371h854l-45 -228h-1148zM499 -308q152 0 152 77q0 61 -102 61h-25l-26 -2l59 109q53 5 123 5t114 -42t44 -108q0 -110 -83.5 -163.5t-261.5 -53.5q-46 0 -100 6l23 118q34 -7 83 -7z" />
    <glyph glyph-name="uni0229" unicode="&#x229;" horiz-adv-x="1139" 
d="M638 924q-88 0 -153.5 -66.5t-93.5 -194.5h431l3 56q0 205 -187 205zM351 387q0 -219 184 -219q147 0 213 169l245 -74q-75 -159 -186 -221t-307.5 -62t-316.5 115.5t-120 322.5t72 362.5t204.5 238.5t324 83t305 -107.5t113.5 -303.5q0 -99 -24 -215h-700q-7 -38 -7 -89
zM369 -308q152 0 152 77q0 61 -102 61h-25l-26 -2l59 109q53 5 123 5t114 -42t44 -108q0 -110 -83.5 -163.5t-261.5 -53.5q-46 0 -100 6l23 118q34 -7 83 -7z" />
    <glyph glyph-name="uni022A" unicode="&#x22a;" horiz-adv-x="1593" 
d="M916 1197q-164 0 -278 -75t-176 -226t-62 -325q0 -175 90 -267t251 -92t275 75t176 223t63 320t-87 270q-88 97 -252 97zM928 1430q293 0 462 -156t169 -412q1 -258 -105 -462t-295 -312t-407 -108t-360 72t-218 206q-74 134 -74 342t106 412t292 310q187 108 430 108z
M720 1835h611l-26 -138h-611zM852 1466h-160l29 152h160zM1217 1466h-160l29 152h160z" />
    <glyph glyph-name="uni022B" unicode="&#x22b;" horiz-adv-x="1251" 
d="M683 909q-113 0 -181 -60q-68 -61 -106 -183t-38 -235q0 -259 208 -259q112 0 178 56q132 114 147 434q0 247 -208 247zM1185 679q1 -203 -81 -364t-232 -248t-352 -87q-203 0 -330 118t-127 320q-1 202 79 357t227 241t359 85q212 1 334 -109q123 -110 123 -313z
M425 1199l42 219h214l-43 -219h-213zM858 1199l43 219h217l-43 -219h-217zM1079 1508h-586l33 168h590z" />
    <glyph glyph-name="uni022C" unicode="&#x22c;" horiz-adv-x="1593" 
d="M916 1197q-164 0 -278 -75t-176 -226t-62 -325q0 -175 90 -267t251 -92t275 75t176 223t63 320t-87 270q-88 97 -252 97zM928 1430q293 0 462 -156t169 -412q1 -258 -105 -462t-295 -312t-407 -108t-360 72t-218 206q-74 134 -74 342t106 412t292 310q187 108 430 108z
M1080 1580q84 0 112 75h92q-32 -92 -57 -125q-52 -69 -163 -69q-50 -1 -132 37t-122 38q-78 0 -109 -75h-91q28 85 55 121q56 74 169 73q55 0 109 -26q55 -25 83 -37t54 -12zM695 1835h611l-27 -138h-611z" />
    <glyph glyph-name="uni022D" unicode="&#x22d;" horiz-adv-x="1251" 
d="M683 909q-113 0 -181 -60q-68 -61 -106 -183t-38 -235q0 -259 208 -259q112 0 178 56q132 114 147 434q0 247 -208 247zM1185 679q1 -203 -81 -364t-232 -248t-352 -87q-203 0 -330 118t-127 320q-1 202 79 357t227 241t359 85q212 1 334 -109q123 -110 123 -313z
M892 1183q-64 -1 -162 61q-38 24 -72 43t-70 19t-64 -26t-52 -97h-136q38 157 108 225t156 68t182 -62q37 -24 70 -42q33 -19 69 -19q72 0 116 123h135q-38 -158 -108 -226t-172 -67zM1060 1553h-586l33 168h590z" />
    <glyph glyph-name="uni022E" unicode="&#x22e;" horiz-adv-x="1593" 
d="M916 1197q-164 0 -278 -75t-176 -226t-62 -325t90 -266.5t251 -92.5t275 75t176.5 223t62.5 320.5t-87.5 269.5t-251.5 97zM928 1430q293 0 462 -155.5t169 -413t-105.5 -461t-294.5 -312t-407 -108.5t-360.5 72t-217 206.5t-74.5 342t105.5 411t292.5 311t430 107.5z
M805 1547l41 207h281l-41 -207h-281z" />
    <glyph glyph-name="uni022F" unicode="&#x22f;" horiz-adv-x="1251" 
d="M683 909q-114 0 -181.5 -60t-105.5 -182.5t-38 -235.5q0 -259 208 -259q112 0 178 56q132 114 147 434q0 247 -208 247zM1185 679q0 -203 -81.5 -364t-231 -248t-352.5 -87t-330 117.5t-127 320t79.5 357.5t226.5 240.5t358.5 85.5t334.5 -109.5t123 -312.5zM595 1277
l41 207h281l-41 -207h-281z" />
    <glyph glyph-name="uni0230" unicode="&#x230;" horiz-adv-x="1593" 
d="M916 1197q-164 0 -278 -75t-176 -226t-62 -325q0 -175 90 -267t251 -92t275 75t176 223t63 320t-87 270q-88 97 -252 97zM928 1430q293 0 462 -156t169 -412q1 -258 -105 -462t-295 -312t-407 -108t-360 72t-218 206q-74 134 -74 342t106 412t292 310q187 108 430 108z
M712 1835h611l-26 -138h-611zM1025 1466h-159l29 152h159z" />
    <glyph glyph-name="uni0231" unicode="&#x231;" horiz-adv-x="1251" 
d="M683 909q-113 0 -181 -60q-68 -61 -106 -183t-38 -235q0 -259 208 -259q112 0 178 56q132 114 147 434q0 247 -208 247zM1185 679q1 -203 -81 -364t-232 -248t-352 -87q-203 0 -330 118t-127 320q-1 202 79 357t227 241t359 85q212 1 334 -109q123 -110 123 -313z
M592 1222l41 207h281l-41 -207h-281zM1052 1511h-586l33 168h590z" />
    <glyph glyph-name="uni0232" unicode="&#x232;" horiz-adv-x="1366" 
d="M724 0h-294l112 578l-370 831h292l259 -605l474 605h323l-684 -831zM1136 1525h-586l33 168h590z" />
    <glyph glyph-name="uni0233" unicode="&#x233;" horiz-adv-x="1139" 
d="M86 -425q-95 0 -171 18l38 196q41 -9 103 -9q129 0 240 196l28 48l-212 1058h291l71 -497q6 -31 21.5 -178t13.5 -156l156 330l259 501h300l-654 -1139q-107 -167 -174.5 -235t-141 -100.5t-168.5 -32.5zM969 1203h-586l33 168h590z" />
    <glyph glyph-name="uni0234" unicode="&#x234;" horiz-adv-x="926" 
d="M514.5 -229q73.5 0 117 32.5t43.5 82t-34 76t-84 26.5q-137 0 -232 -95q6 -51 61 -86.5t128.5 -35.5zM477.5 -425q-209.5 0 -361.5 140l-138 -134l-139 151q49 57 214 200q-5 25 -5 82t15 132l260 1338h281l-268 -1373q129 81 273.5 81t226 -70t81.5 -190
q0 -166 -115 -261.5t-324.5 -95.5z" />
    <glyph glyph-name="uni0235" unicode="&#x235;" horiz-adv-x="1608" 
d="M1218.5 -229q73.5 0 117 32.5t43.5 82t-34 76t-84 26.5q-137 0 -232 -95q6 -51 61 -86.5t128.5 -35.5zM1181.5 -425q-209.5 0 -361.5 140l-138 -134l-139 151q49 57 214 200q-5 25 -5 82t15 132l89 449q26 124 26 165q0 129 -152 129q-101 0 -186.5 -81t-108.5 -202
l-118 -606h-282l166 851q16 79 38 231h268q0 -9 -9.5 -84t-14.5 -101h3q76 107 166.5 155.5t224.5 48.5t211 -73t77 -211q0 -80 -21 -164l-105 -542q129 81 274 81t226.5 -70t81.5 -190q0 -166 -115 -261.5t-324.5 -95.5z" />
    <glyph glyph-name="uni0236" unicode="&#x236;" horiz-adv-x="1043" 
d="M613.5 176q73.5 0 117 32.5t43.5 82t-34 76t-84 26.5q-137 0 -232 -95q6 -51 61 -86.5t128.5 -35.5zM576.5 -20q-209.5 0 -361.5 140l-138 -134l-139 151q32 38 220 200q-5 25 -5 82t15 132l66 341h-148l37 190h162l137 254h176l-48 -254h202l-35 -190h-205l-73 -376
q130 81 272 81t223.5 -70t81.5 -190q0 -166 -115 -261.5t-324.5 -95.5z" />
    <glyph glyph-name="j.dotless" unicode="&#x237;" horiz-adv-x="569" 
d="M-54 -425q-95 0 -166 19l36 188l58 -4q67 0 98.5 34.5t49.5 127.5l223 1142h281l-236 -1210q-29 -144 -116.5 -220.5t-227.5 -76.5z" />
    <glyph glyph-name="uni0238" unicode="&#x238;" horiz-adv-x="1953" 
d="M850 700q0 210 -188 210q-196 0 -265 -271q-34 -133 -34 -246q0 -221 158 -221t239 140q41 72 65.5 180t24.5 208zM1434 907q-87 0 -145.5 -35t-99.5 -106.5t-65 -178.5t-24 -200t53 -153.5t151 -60.5t155 62.5t95 212t38 250.5t-35.5 155t-122.5 54zM1362 -20
q-246 0 -313 198h-4l-38 -178h-261l15 160h-4q-71 -93 -153.5 -137t-220 -44t-227.5 102t-90 283t64 364q131 374 458 374q255 0 314 -198h5q6 67 110 580h277l-109 -572l3 1h4q127 189 356 189q159 0 248 -94.5t89 -259.5v-14q0 -188 -62 -379.5t-174.5 -283t-286.5 -91.5z
" />
    <glyph glyph-name="uni0239" unicode="&#x239;" horiz-adv-x="1949" 
d="M1581 694q1 213 -159 213q-160 1 -241 -141q-41 -72 -65 -179t-24 -200t53 -153.5t152 -60.5t158 65t92.5 206t33.5 250zM521 172q211 0 287 260q38 130 38 248q0 230 -174 230q-110 0 -176 -64.5t-101.5 -200.5t-35.5 -259q0 -214 162 -214zM1354 -20q-246 0 -313 198
h-4l-116 -603h-281l85 432l36 156h-4q-73 -95 -157 -139.5t-219.5 -44.5t-227 98t-91.5 282.5t64 367.5t180 279t261.5 96t216.5 -45.5t112 -153.5h5l38 179h261l-18 -169h3q73 103 157 146t198 43q159 0 248 -94.5t89 -278t-62 -375t-174.5 -283t-286.5 -91.5z" />
    <glyph glyph-name="uni023A" unicode="&#x23a;" horiz-adv-x="1479" 
d="M324 132l160 228h-45zM933 771l-134 -189h162zM566 582h72l267 376q-29 200 -29 234q-21 -64 -98 -212zM1039 0l-55 360h-343l-314 -442h-161l58 82h-266l787 1409h348l25 -151l161 226h161l-291 -409l182 -1075h-292z" />
    <glyph glyph-name="uni023B" unicode="&#x23b;" horiz-adv-x="1479" 
d="M401 573q0 -147 61 -238l594 836q-60 27 -138 27q-242 0 -379.5 -168t-137.5 -457zM100 569q0 252 105 450.5t293.5 304.5t428.5 106q161 0 280 -48l72 102h161l-118 -166q134 -98 181 -280l-274 -71q-20 73 -67 126l-601 -845q72 -37 170 -37q266 0 418 258l227 -117
q-208 -372 -665 -372q-172 0 -300 57l-84 -119h-161l132 186q-198 157 -198 465z" />
    <glyph glyph-name="uni023C" unicode="&#x23c;" horiz-adv-x="1139" 
d="M358 415q0 -45 2 -56l366 537q-31 13 -68 13q-107 0 -167.5 -73.5t-109.5 -260.5q-23 -115 -23 -160zM536 173q158 0 223 208l271 -50q-105 -351 -510 -351q-128 0 -229 42l-304 -447h-161l354 519q-117 111 -117 308.5t79 368.5t210.5 251t327.5 80q89 0 170 -24
l277 406h161l-319 -467q125 -96 140 -276l-284 -23q-3 38 -12 70l-393 -577q42 -38 116 -38z" />
    <glyph glyph-name="uni023D" unicode="&#x23d;" horiz-adv-x="1251" 
d="M43 0l126 653h-126l39 203h127l107 553h295l-107 -553h366l-40 -203h-366l-82 -425h756l-44 -228h-1051z" />
    <glyph glyph-name="uni023E" unicode="&#x23e;" horiz-adv-x="1251" 
d="M861 1007l127 174h-93zM1149 1181l-347 -475l-137 -706h-295l30 155l-173 -237h-161l393 538l141 725h-455l44 228h965l55 75h161l-55 -75h80l-44 -228h-202z" />
    <glyph glyph-name="uni023F" unicode="&#x23f;" horiz-adv-x="1139" 
d="M517 166q222 0 222 136q0 51 -39.5 78.5t-211 65.5t-253.5 116t-82 207q0 160 125.5 245t344.5 85t319.5 -69t126.5 -219l-251 -29q-17 69 -66 100t-134 31q-205 0 -205 -120q1 -61 81 -95q40 -16 198 -52t233 -112t75 -200q0 -174 -128.5 -264t-374.5 -90l-72 10
q121 -128 171 -168t113 -40.5t116 11.5l-39 -201q-89 -17 -161.5 -17t-139 35t-127 94.5t-194 244t-163.5 241.5l194 151q49 -82 133 -128.5t189 -46.5z" />
    <glyph glyph-name="uni0240" unicode="&#x240;" horiz-adv-x="1024" 
d="M786 -425q-158 0 -326 213q-89 112 -158.5 162t-143.5 50h-193l38 199l653 680h-480l40 203h809l-39 -201l-650 -676q138 -11 298 -209t254 -197q48 0 108 12l-43 -219q-89 -17 -167 -17z" />
    <glyph glyph-name="uni0241" unicode="&#x241;" horiz-adv-x="1321" 
d="M557 546q211 0 316 97t105 282q0 128 -79.5 202.5t-203.5 74.5t-202.5 -57t-133.5 -183l-245 76q80 202 224 297t394 95t398 -131.5t148 -380.5t-154.5 -408.5t-422.5 -177.5l-64 -332h-295l108 559q55 -13 107 -13z" />
    <glyph glyph-name="uni0242" unicode="&#x242;" horiz-adv-x="991" 
d="M656 738q0 88 -44.5 136.5t-121.5 48.5q-156 0 -196 -144l-232 20q83 303 459 303q196 0 302 -95t106 -265q-1 -240 -181 -356q-86 -56 -204 -73l-61 -313h-282l88 448q173 0 270 76t97 214z" />
    <glyph glyph-name="uni0243" unicode="&#x243;" horiz-adv-x="1479" 
d="M788 841q175 0 248.5 46t73.5 138.5t-57 128.5t-191 36h-301l-67 -349h294zM1072 437q0 186 -290 186h-330l-21 -104h273l-39 -195h-272l-20 -105h328q209 0 290 50.5t81 167.5zM894 1409q251 0 380 -82.5t129 -231.5q0 -290 -324 -357q136 -23 212.5 -105.5t76.5 -201.5
q0 -211 -156.5 -321t-470.5 -110h-705l63 324h-118l38 195h118l173 890h584z" />
    <glyph glyph-name="uni0244" unicode="&#x244;" horiz-adv-x="1479" 
d="M706.5 211q146.5 0 232 76t119.5 254l26 134h-638l-14 -76q-18 -87 -18 -181t73 -150.5t219.5 -56.5zM686.5 -20q-278.5 0 -423 117.5t-144.5 333.5q0 73 30 244h-141l39 203h141l102 531h295l-100 -531h638l103 531h295l-104 -531h142l-39 -203h-142l-28 -145
q-55 -281 -220 -415.5t-443.5 -134.5z" />
    <glyph glyph-name="uni0245" unicode="&#x245;" horiz-adv-x="1366" 
d="M1244 1h-295l-117 885q-17 153 -20 266l-126 -266l-462 -885h-317l794 1409h299z" />
    <glyph glyph-name="uni0246" unicode="&#x246;" horiz-adv-x="1366" 
d="M391 310l197 289h-141zM491 827h252l242 354h-425zM345 0l-75 -110h-166l75 110h-143l273 1409h832l65 95h166l-65 -95h110l-44 -228h-222l-242 -354h334l-44 -228h-445l-254 -371h729l-45 -228h-839z" />
    <glyph glyph-name="uni0247" unicode="&#x247;" horiz-adv-x="1139" 
d="M351 401q0 -37 1 -45l81 120h-75q-7 -38 -7 -75zM825 719q0 47 -10 81l-94 -137h101zM646 924q-96 0 -163 -68.5t-92 -192.5h169l167 245q-35 16 -81 16zM535 168q147 0 213 169l245 -74q-72 -157 -183.5 -220t-268 -63t-254.5 45l-307 -452h-161l359 528
q-115 115 -115 319t72 360t205 239t306 83q110 0 193 -30l280 412h161l-325 -478q127 -107 127 -315q0 -99 -24 -215h-464l-181 -267q46 -41 122 -41z" />
    <glyph glyph-name="uni0248" unicode="&#x248;" horiz-adv-x="1139" 
d="M480 -20q-386 0 -455 399l267 58q46 -226 207 -226q101 -1 151 91q24 44 43 138l45 235h-254l39 203h255l58 300h-281l44 231h575l-104 -531h128l-39 -203h-129l-49 -252q-45 -231 -165 -337t-336 -106z" />
    <glyph glyph-name="uni0249" unicode="&#x249;" horiz-adv-x="569" 
d="M283 1277l40 207h281l-40 -207h-281zM-54 -425q-95 0 -166 19l36 188l58 -4q67 0 98.5 34.5t49.5 127.5l100 515h-126l39 203h127l83 424h281l-83 -424h129l-39 -203h-130l-113 -583q-29 -144 -116.5 -220.5t-227.5 -76.5z" />
    <glyph glyph-name="uni024A" unicode="&#x24a;" horiz-adv-x="1599" 
d="M741 212q207 0 341 89l140 779q-119 117 -294.5 117t-289.5 -75t-176 -226t-62 -325.5t90 -266.5t251 -92zM1295 -95q0 -93 90 -93q28 0 101 13l-45 -230q-92 -20 -207.5 -20t-174.5 53.5t-59 170.5q0 64 17 149l19 100q-156 -68 -336 -68q-276 0 -438 160.5t-162 414
t105.5 457t292.5 311t426.5 107.5t401.5 -106l192 85h64l-280 -1441q-7 -37 -7 -63z" />
    <glyph glyph-name="uni024B" unicode="&#x24b;" horiz-adv-x="1251" 
d="M518 172q211 0 287 260q38 130 38 248q0 230 -174 230q-110 0 -176 -64.5t-101.5 -200.5t-35.5 -259q0 -214 162 -214zM991 -84q0 -104 89 -104q28 0 101 13l-45 -230q-92 -20 -200.5 -20t-171.5 67t-63 197q0 76 19 160l38 164h-4q-73 -95 -157 -139.5t-219.5 -44.5
t-227 98t-91.5 282.5t64 367.5t180 279t261.5 96t216.5 -45.5t112 -153.5h5q16 103 47 179h270q-15 -43 -61 -287l-155 -809q-8 -40 -8 -70z" />
    <glyph glyph-name="uni024C" unicode="&#x24c;" horiz-adv-x="1479" 
d="M887 764q145 0 219.5 58.5t74.5 158.5t-63.5 149.5t-178.5 49.5h-364l-81 -416h393zM976 1409q322 0 445 -189q59 -91 59 -214q0 -165 -108.5 -280t-294.5 -143l274 -583h-326l-230 534h-346l-103 -534h-295l104 535h-187l44 229h187l126 645h651z" />
    <glyph glyph-name="uni024D" unicode="&#x24d;" horiz-adv-x="797" 
d="M787 1102q47 0 103 -14l-46 -235q-69 15 -114 15q-225 0 -301 -300h151l-39 -203h-154l-71 -365h-281l71 365h-116l39 203h116q86 445 93 514h268q-21 -161 -30 -221h4q73 134 144 187.5t163 53.5z" />
    <glyph glyph-name="uni024E" unicode="&#x24e;" horiz-adv-x="1366" 
d="M723 804l204 261h-316zM1404 1268h121l-39 -203h-249l-401 -487l-112 -578h-294l112 578l-217 487h-244l38 203h116l-63 141h292l60 -141h562l111 141h323z" />
    <glyph glyph-name="uni024F" unicode="&#x24f;" horiz-adv-x="1139" 
d="M662 575h-186l33 -324zM86 -425q-95 0 -171 18l38 196q40 -9 90 -9t92.5 20t80 61.5t108.5 162.5l-111 551h-195l38 203h117l-61 304h291l43 -304h321l157 304h300l-175 -304h132l-39 -203h-209l-363 -632q-107 -167 -174.5 -235t-141 -100.5t-168.5 -32.5z" />
    <glyph glyph-name="uni0250" unicode="&#x250;" horiz-adv-x="1139" 
d="M847 750q0 156 -154 156q-75 0 -143 -64.5t-95 -170.5l-22 -92h162q118 0 185 46.5t67 124.5zM974 274q-70 -294 -476 -294q-202 0 -298.5 73t-96.5 222q0 37 24 157l71 353q8 45 8 72q0 65 -79 65q-30 0 -62 -7l14 155q58 22 165.5 22t161.5 -42t54 -111q0 -37 -5 -64h6
q84 130 166 178.5t211 48.5t212.5 -83.5t83.5 -214.5q0 -188 -130 -281t-411 -97l-191 -4q-21 -94 -21 -131q0 -128 127 -128q94 0 140 36.5t63 105.5z" />
    <glyph glyph-name="uni0251" unicode="&#x251;" horiz-adv-x="1251" 
d="M842 700q0 210 -188 210q-196 0 -265 -271q-34 -133 -34 -246q0 -221 158 -221t239 140q41 72 65.5 180t24.5 208zM738 0q0 85 15 160h-4q-71 -93 -153.5 -137t-220 -44t-227.5 102t-90 283t64 364q131 374 458 374q255 0 314 -198h5q14 62 50 178h265l-50 -243
l-116 -608q-20 -112 -29 -231h-281z" />
    <glyph glyph-name="uni0252" unicode="&#x252;" horiz-adv-x="1251" 
d="M410 380q0 -210 188 -209q196 0 265 271q34 133 34 246q-1 221 -159 221q-158 -1 -239 -141q-41 -72 -65 -180t-24 -208zM876.5 1102q137.5 0 227.5 -102t90 -283t-64 -364q-131 -374 -458 -374q-256 0 -314 198h-5q-14 -62 -50 -178h-265l50 243l116 608q20 112 29 231
h281q0 -62 -15 -160h4q71 93 153.5 137t220 44z" />
    <glyph glyph-name="uni0253" unicode="&#x253;" horiz-adv-x="1251" 
d="M741 907q-87 0 -145.5 -35t-99.5 -106.5t-65 -178.5t-24 -200t53 -153.5t151 -60.5t155 62.5t95 212t38 250.5t-35.5 155t-122.5 54zM855 1102q159 0 248 -94.5t89 -259.5v-14q0 -188 -62 -379.5t-174.5 -283t-286.5 -91.5q-246 0 -313 198h-2l-48 -178h-271q8 25 49 223
l188 958q29 154 121 228.5t257 74.5q79 0 179 -20l-40 -204q-69 15 -114 15t-80.5 -33.5t-51.5 -107.5l-48 -221h4q127 189 356 189z" />
    <glyph glyph-name="uni0254" unicode="&#x254;" horiz-adv-x="1139" 
d="M600 909q-158 0 -223 -208l-271 50q107 351 510 351q220 0 338.5 -112.5t118.5 -310t-79 -368.5t-210.5 -251t-324 -80t-305.5 95.5t-127 265.5l284 23q11 -191 167 -191q107 0 167.5 73.5t109.5 260.5q23 115 23 168q0 234 -178 234z" />
    <glyph glyph-name="uni0255" unicode="&#x255;" horiz-adv-x="1139" 
d="M382 267q56 -99 214 -99q80 0 136.5 34.5t56.5 83.5q0 102 -143 102q-65 0 -139.5 -34t-124.5 -87zM739 591q141 0 223.5 -67.5t82.5 -177.5q0 -164 -144 -265t-359.5 -101t-338.5 107q-96 -98 -141 -149l-137 151q97 109 164 172q-20 95 -20 182q0 187 73.5 338t208 236
t307.5 85q407 0 452 -361l-284 -23q-10 191 -175 191q-117 0 -192 -119t-96 -327q178 128 376 128z" />
    <glyph glyph-name="uni0256" unicode="&#x256;" horiz-adv-x="1251" 
d="M842 700q0 210 -188 210q-196 0 -265 -271q-34 -133 -34 -246q0 -221 158 -221t239 140q41 72 65.5 180t24.5 208zM708 -167q0 56 52 327h-4q-71 -93 -157 -137t-223.5 -44t-227.5 102t-90 283t64 364q131 374 458 374q255 0 314 -198h5q6 67 110 580h277l-290 -1530
q-7 -35 -7 -63q0 -93 101 -93q28 0 98 13l-43 -216q-94 -20 -155 -20q-142 0 -212 62.5t-70 195.5z" />
    <glyph glyph-name="uni0257" unicode="&#x257;" horiz-adv-x="1251" 
d="M842 700q0 210 -188 210q-196 0 -265 -271q-34 -133 -34 -246q0 -221 158 -221t239 140q41 72 65.5 180t24.5 208zM738 0q0 85 15 160h-4q-71 -93 -153.5 -137t-220 -44t-227.5 102t-90 283t64 364q131 374 458 374q255 0 314 -198h5l52 277q29 155 120.5 229t255.5 74
q79 0 179 -20l-40 -204q-69 15 -111 15t-80.5 -30t-54.5 -111l-172 -903q-20 -112 -29 -231h-281z" />
    <glyph glyph-name="uni0258" unicode="&#x258;" horiz-adv-x="1139" 
d="M605 925q-206 0 -247 -262h425q7 41 7 79q0 85 -50 134t-135 49zM619 1102q130 0 234.5 -51t162 -145.5t57.5 -220.5q0 -206 -79.5 -370t-217 -249.5t-312 -85.5t-289 79t-140.5 215l269 23q45 -129 192 -129q106 0 167.5 78.5t90.5 240.5h-689q25 300 168 457.5
t386 157.5z" />
    <glyph glyph-name="uni0259" unicode="&#x259;" horiz-adv-x="1139" 
d="M507 158q88 0 153.5 66.5t93.5 194.5h-431l-3 -56q0 -205 187 -205zM794 695q0 219 -184 219q-147 0 -213 -169l-245 74q75 159 186 221t307.5 62t316.5 -115.5t120 -322.5t-72 -362.5t-204.5 -238.5t-324 -83t-305 107.5t-113.5 303.5q0 99 24 215h700q7 39 7 89z" />
    <glyph glyph-name="uni0259" unicode="&#x4d9;" horiz-adv-x="1139" 
d="M507 158q88 0 153.5 66.5t93.5 194.5h-431l-3 -56q0 -205 187 -205zM794 695q0 219 -184 219q-147 0 -213 -169l-245 74q75 159 186 221t307.5 62t316.5 -115.5t120 -322.5t-72 -362.5t-204.5 -238.5t-324 -83t-305 107.5t-113.5 303.5q0 99 24 215h700q7 39 7 89z" />
    <glyph glyph-name="uni025A" unicode="&#x25a;" horiz-adv-x="1516" 
d="M483 157q248 0 277 343l-445 -65l-4 -69q0 -209 172 -209zM648 1102q370 0 420 -345l199 38v-137q0 -76 22.5 -105.5t80 -29.5t112.5 25l34 -182q-102 -36 -217.5 -36t-172.5 55t-70 175q-114 -580 -593 -580q-192 0 -299.5 114t-107.5 320q0 90 19 181l706 101
q1 84 -17 127q-37 91 -158 91q-150 0 -213 -129l-261 23q146 294 516 294z" />
    <glyph glyph-name="uni025B" unicode="&#x25b;" horiz-adv-x="980" 
d="M425 794q0 -142 298 -142l-24 -175q-163 -1 -234 -17q-148 -34 -148 -156q0 -59 39.5 -96.5t105.5 -37.5q149 0 307 140l128 -151q-102 -95 -214 -137t-275.5 -42t-272.5 87t-109 217t82.5 204.5t240.5 90.5l1 2q-88 25 -138.5 85t-50.5 140q0 140 115 217.5t326 77.5
q285 0 397 -213l-192 -84q-66 119 -204 119q-83 0 -130.5 -34t-47.5 -95z" />
    <glyph glyph-name="uni025C" unicode="&#x25c;" horiz-adv-x="1045" 
d="M413 648q317 0 317 148q0 127 -156 127t-196 -144l-232 20q83 303 459 303q180 0 289 -71t109 -188q0 -79 -41 -141q-83 -126 -261 -145v-4q109 -17 170.5 -80t61.5 -160q0 -155 -129 -244q-130 -89 -336 -89q-397 0 -457 309l252 44q35 -164 209 -164q174 1 174 157
q0 146 -261 145z" />
    <glyph glyph-name="uni025D" unicode="&#x25d;" horiz-adv-x="1372" 
d="M384 648q317 0 317 148q0 127 -156 127t-196 -144l-232 20q83 303 459 303q141 0 239 -44.5t137 -120.5l192 31v-130q0 -76 22.5 -105.5t80 -29.5t112.5 25l34 -182q-102 -36 -213.5 -36t-168.5 47t-74 151q-38 -63 -112 -104t-153 -47v-4q110 -18 171 -81.5t61 -158.5
q0 -155 -129 -244t-335 -89q-397 0 -458 309l252 44q35 -164 209 -164q174 -1 174 157q0 144 -261 145z" />
    <glyph glyph-name="uni025E" unicode="&#x25e;" horiz-adv-x="1171" 
d="M727 1102q106 0 194 -34.5t137.5 -94.5t49.5 -131q0 -224 -282 -277q99 -10 158 -67.5t59 -155t-63.5 -183.5t-181.5 -132.5t-263.5 -46.5t-251 56t-162 157.5t-56.5 231.5q0 193 80.5 349.5t231 242t350.5 85.5zM678.5 923q-79.5 0 -156.5 -62t-124 -180.5t-47 -245.5
t56.5 -200t153 -73t146.5 44.5t50 119.5t-49.5 107.5t-153.5 32.5l35 182q134 0 189.5 41.5t55.5 127.5q0 49 -38 77.5t-117.5 28.5z" />
    <glyph glyph-name="uni025F" unicode="&#x25f;" horiz-adv-x="682" 
d="M-5 -425q-73 0 -155 17l36 181q55 -10 109 -10t84 32t43 97l21 108h-213l37 190h213l174 892h280l-174 -892h158l-37 -190h-158l-27 -136q-32 -157 -126.5 -223t-264.5 -66z" />
    <glyph glyph-name="uni0260" unicode="&#x260;" horiz-adv-x="1251" 
d="M846 676q0 114 -52 173.5t-137 59.5t-134.5 -32t-84 -103.5t-57 -188t-22.5 -189.5q0 -199 173 -199q89 0 162 67t112.5 182.5t39.5 229.5zM431 -425q-199 0 -306 69t-132 214l283 30q27 -127 188 -127q91 0 147.5 40t90 128t59.5 272h-2q-59 -85 -107 -125
q-100 -84 -251 -84t-243.5 100t-92.5 282q0 180 62 364q122 362 459 363q118 0 202.5 -55.5t112.5 -152.5h2l78 322q32 130 122 199.5t232 69.5q76 0 148 -17l-39 -201q-55 12 -96 12t-77 -30t-52 -111l-217 -1127q-45 -231 -180.5 -333t-390.5 -102z" />
    <glyph glyph-name="uni0261" unicode="&#x261;" horiz-adv-x="1251" 
d="M846 676q0 114 -52 173.5t-137 59.5t-134.5 -32t-84 -103.5t-57 -188t-22.5 -189.5q0 -199 173 -199q89 0 162 67t112.5 182.5t39.5 229.5zM458.5 -425q-226.5 0 -333.5 69t-132 214l283 30q27 -127 188 -127q110 0 171 59t88 181t38 200h-2q-63 -89 -111 -128
q-99 -81 -248.5 -81t-242 100t-92.5 282.5t63.5 367t175 272t282.5 87.5q118 0 203 -56t112 -152h2q35 168 48 189h265l-49 -229l-165 -843q-47 -233 -182 -334t-361.5 -101z" />
    <glyph glyph-name="uni0262" unicode="&#x262;" horiz-adv-x="1221" 
d="M560 -20q-497 0 -497 475q0 182 81.5 331t231 232.5t340.5 83.5q387 0 442 -336l-285 -39q-2 81 -56 124t-144.5 43t-161.5 -54t-112 -163t-41 -239.5t60.5 -194t165 -63.5t211.5 40l26 137h-202l40 209h471l-92 -474q-205 -112 -478 -112z" />
    <glyph glyph-name="uni0263" unicode="&#x263;" horiz-adv-x="1139" 
d="M423 -238q106 0 106 151q0 89 -44 215q-101 -131 -121.5 -188t-20.5 -95.5t23 -60.5t57 -22zM783 -108q0 -141 -101.5 -229t-259.5 -88t-239 67t-81 188q0 81 48.5 176t180.5 249l-220 827h297l140 -615l391 615h294l-543 -811q93 -271 93 -379z" />
    <glyph glyph-name="uni0264" unicode="&#x264;" horiz-adv-x="1230" 
d="M503.5 -20q-119.5 0 -197.5 63.5t-78 181.5t150 290l80 91l-51 171q-27 88 -110.5 88t-181.5 -71l-33 198q145 110 288 110q192 0 249 -178l39 -118l97 136q59 83 125 121.5t159 38.5q147 0 244 -105l-109 -198q-66 66 -148 66q-35 0 -65 -17.5t-66 -70.5l-117 -171
q56 -148 71 -215.5t15 -142t-42.5 -140t-120.5 -97t-197.5 -31.5zM466 251q0 -79 84 -79q38 0 62.5 34t24.5 97.5t-46 161.5q-19 -23 -41 -49q-84 -99 -84 -165z" />
    <glyph glyph-name="uni0265" unicode="&#x265;" horiz-adv-x="1251" 
d="M88 265q0 74 21 164l127 653h279l-118 -595q-26 -123 -26 -165q0 -129 152 -129q101 0 187 82t108 201l118 606h282l-291 -1506h-280l84 427l39 182h-3q-147 -204 -373 -204q-152 0 -229 73t-77 211z" />
    <glyph glyph-name="uni0266" unicode="&#x266;" horiz-adv-x="1251" 
d="M877 1101q134 0 211 -73t77 -211q0 -35 -7.5 -85.5t-140.5 -731.5h-279l118 595q26 124 26 165q0 129 -152 129q-101 0 -186.5 -81t-108.5 -202l-118 -606h-282l245 1215q26 131 127.5 200t272.5 69q76 0 148 -17l-39 -201q-55 12 -85 12q-142 0 -170 -141l-51 -240h3
q76 107 166.5 155.5t224.5 48.5z" />
    <glyph glyph-name="uni0267" unicode="&#x267;" horiz-adv-x="1251" 
d="M882 760q0 129 -152 129q-101 0 -186.5 -81t-108.5 -202l-118 -606h-282l245 1215q26 131 127.5 200t272.5 69q76 0 148 -17l-39 -201q-55 12 -106 12t-92 -34.5t-57 -106.5l-51 -240h3q76 107 166.5 155.5t224.5 48.5t211 -73t77 -211q0 -80 -21 -164l-142 -730
q-34 -177 -128 -262.5t-260 -85.5q-107 0 -189 17l41 211q48 -12 103 -12q126 0 152 125l135 679q26 124 26 165z" />
    <glyph glyph-name="uni0268" unicode="&#x268;" horiz-adv-x="569" 
d="M282 1277l41 207h281l-41 -207h-281zM22 653h139l84 429h281l-84 -429h159l-37 -189h-159l-90 -464h-280l90 464h-139z" />
    <glyph glyph-name="uni0269" unicode="&#x269;" horiz-adv-x="569" 
d="M453 212q30 0 66 6l-44 -225q-93 -13 -154 -13q-132 0 -193 56t-61 173q0 57 15 134l150 739h281l-151 -746l-5 -43q0 -81 96 -81z" />
    <glyph glyph-name="uni026A" unicode="&#x26a;" horiz-adv-x="830" 
d="M349 874h-206l41 208h694l-41 -208h-207l-129 -666h207l-41 -208h-693l40 208h206z" />
    <glyph glyph-name="uni026B" unicode="&#x26b;" horiz-adv-x="569" 
d="M37 0l142 731q-44 -2 -65.5 -25t-31.5 -77h-128q24 144 85.5 204.5t172.5 67.5l114 583h281l-137 -705q39 2 60.5 24t32.5 79h127q-25 -150 -82.5 -209t-170.5 -64l-119 -609h-281z" />
    <glyph glyph-name="uni026C" unicode="&#x26c;" horiz-adv-x="644" 
d="M281 828q-119 0 -119 -93q0 -31 23 -51t64 -20h18l32 164h-18zM215 488q-106 0 -165 61t-59 179t84 198t224 80h35l93 478h281l-160 -820h139l-34 -177h-139l-95 -487h-281l95 488h-18z" />
    <glyph glyph-name="uni026D" unicode="&#x26d;" horiz-adv-x="569" 
d="M5 -192q0 50 12 115l303 1561h281l-305 -1568l-4 -37q0 -88 109 -88q47 0 107 12l-41 -211q-82 -17 -204 -17q-258 0 -258 233z" />
    <glyph glyph-name="uni026E" unicode="&#x26e;" horiz-adv-x="1219" 
d="M1140 104q0 -155 -75 -275.5t-209 -187t-314 -66.5q-366 0 -479 237l255 79q63 -123 251 -123q124 0 202 85t78 202.5t-32.5 176t-99.5 85t-199 26.5l37 189l337 347h-425l-171 -879h-280l288 1484h281l-79 -402h759l-38 -195l-372 -378q140 -40 212.5 -145t72.5 -260z
" />
    <glyph glyph-name="uni026F" unicode="&#x26f;" horiz-adv-x="1821" 
d="M1309 0q0 21 28 185h-3q-77 -116 -151.5 -160t-187.5 -44t-185 59.5t-86 172.5q-80 -125 -162.5 -178.5t-206 -53.5t-197 73t-73.5 211q0 64 21 164l128 653h279l-122 -627q-18 -90 -18 -139v-5q3 -121 126 -121q91 0 158 77t93 208l119 607h279l-123 -635
q-17 -91 -17 -136q0 -121 126 -121q88 0 156.5 75.5t95.5 212.5l118 604h282l-166 -851q-20 -95 -39 -231h-272z" />
    <glyph glyph-name="uni0270" unicode="&#x270;" horiz-adv-x="1821" 
d="M499 190q91 0 158 77t93 208l119 607h279l-123 -635q-17 -91 -17 -136q0 -121 126 -121q88 0 156.5 75.5t95.5 212.5l118 604h282l-285 -1507h-282l118 610h-3q-77 -116 -151.5 -160t-187.5 -44t-185 59.5t-86 172.5q-80 -125 -162 -179t-206 -53.5t-197.5 73.5
t-73.5 211q0 64 21 164l128 653h279l-122 -627q-18 -90 -18 -139v-5q3 -121 126 -121z" />
    <glyph glyph-name="uni0271" unicode="&#x271;" horiz-adv-x="1821" 
d="M512 1082q0 -21 -28 -185h3q77 116 151.5 160t187.5 44t185 -59.5t86 -172.5q85 130 166.5 181t203.5 51t195.5 -73t73.5 -211q0 -64 -21 -164l-143 -730q-34 -177 -128 -262.5t-260 -85.5q-107 0 -189 17l41 211q48 -12 103 -12q126 0 152 125l139 711q18 90 18 139v5
q-3 121 -126 121q-91 0 -158 -77t-93 -208l-119 -607h-279l123 635q17 91 17 136q0 121 -126 121q-88 0 -156.5 -75.5t-95.5 -212.5l-118 -604h-282l166 851q20 95 39 231h272z" />
    <glyph glyph-name="uni0272" unicode="&#x272;" horiz-adv-x="1251" 
d="M882 760q0 129 -152 129q-101 0 -186.5 -81t-108.5 -202l-133 -683q-34 -177 -128 -262.5t-260 -85.5q-107 0 -189 17l41 211q48 -12 103 -12q126 0 152 125l180 935q16 79 38 231h268q0 -9 -9.5 -84t-14.5 -101h3q76 107 166.5 155.5t224.5 48.5t211 -73t77 -211
q0 -35 -7.5 -85.5t-140.5 -731.5h-279l118 595q26 124 26 165z" />
    <glyph glyph-name="uni0273" unicode="&#x273;" horiz-adv-x="1251" 
d="M882 760q0 129 -152 129q-101 0 -186.5 -81t-108.5 -202l-118 -606h-282l166 851q16 79 38 231h268q0 -9 -9.5 -84t-14.5 -101h3q76 107 166.5 155.5t224.5 48.5t211 -73t77 -211q0 -80 -21 -164l-143 -737l-4 -38q0 -87 108 -87q46 0 108 12l-41 -211q-90 -17 -208 -17
q-254 0 -254 232q0 51 12 116l134 672q26 124 26 165z" />
    <glyph glyph-name="uni0274" unicode="&#x274;" horiz-adv-x="1328" 
d="M1058 0h-260l-359 748l-144 -748h-250l211 1082h286l333 -726l144 726h250z" />
    <glyph glyph-name="uni0275" unicode="&#x275;" horiz-adv-x="1251" 
d="M673 909q-111 0 -180 -68.5t-107 -205.5h504l2 49q0 225 -219 225zM566 172q85 0 137 28q107 59 157 249h-502v-18q0 -259 208 -259zM1185 679q0 -203 -81.5 -364t-231 -248t-352.5 -87t-330 117t-127 320t79.5 358t227 240.5t357.5 85.5t334 -109.5t124 -312.5z" />
    <glyph glyph-name="uni0276" unicode="&#x276;" horiz-adv-x="1745" 
d="M565 172q159 0 248 139.5t89 364.5q0 110 -59 171.5t-161 61.5q-152 0 -237 -130.5t-85 -359.5q0 -117 52.5 -182t152.5 -65zM525 -20q-212 0 -336.5 122.5t-124.5 323.5t80 355.5t230 237.5t334 83t289 -67l9 47h730l-40 -203h-462l-43 -223h422l-40 -203h-422l-48 -248
h462l-40 -205h-730l11 53q-133 -73 -281 -73z" />
    <glyph glyph-name="uni0277" unicode="&#x277;" horiz-adv-x="1709" 
d="M920 1102q716 0 716 -532q0 -158 -71.5 -300.5t-188.5 -216t-253 -73.5t-212 54t-116 184h-4q-61 -125 -150.5 -181.5t-217.5 -56.5q-180 0 -273 106t-93 317.5t100.5 370.5t295.5 243.5t467 84.5zM877.5 906q-258.5 0 -399 -125.5t-140.5 -363.5q0 -127 37 -186
t118.5 -59t137.5 78.5t83 219.5l36 187h258q-41 -215 -45 -244.5t-4 -58.5q0 -88 39.5 -135t108 -47t124.5 49.5t88.5 146.5t32.5 200q0 182 -108 260t-366.5 78z" />
    <glyph glyph-name="uni0278" unicode="&#x278;" horiz-adv-x="1551" 
d="M351 420q0 -234 204 -248l143 737q-172 0 -259.5 -127.5t-87.5 -361.5zM1177 675q0 118 -54 172t-152 62l-143 -737q165 0 257 133.5t92 369.5zM61 408q0 328 177 511t498 183l74 382h273l-74 -382q225 -12 341.5 -120t116.5 -310.5t-82 -361.5t-235.5 -244.5
t-358.5 -85.5l-79 -405h-273l79 405q-220 8 -338.5 121.5t-118.5 306.5z" />
    <glyph glyph-name="uni0279" unicode="&#x279;" horiz-adv-x="797" 
d="M74 214q244 0 313 354l101 514h281l-161 -830q-24 -120 -42 -252h-268l23 173l7 48h-4q-73 -134 -144 -187.5t-163 -53.5q-47 0 -103 14l46 235q69 -15 114 -15z" />
    <glyph glyph-name="uni027A" unicode="&#x27a;" horiz-adv-x="797" 
d="M74 214q244 0 313 354l178 916h281l-238 -1232q-24 -120 -42 -252h-268l23 173l7 48h-4q-73 -134 -144 -187.5t-163 -53.5q-47 0 -103 14l46 235q69 -15 114 -15z" />
    <glyph glyph-name="uni027B" unicode="&#x27b;" horiz-adv-x="797" 
d="M539 -127q0 -82 102 -82q52 0 114 12l-41 -211q-89 -17 -201 -17q-244 0 -244 232q0 51 12 116l58 298h-4q-69 -126 -144.5 -183.5t-173.5 -57.5q-47 0 -103 14l46 235q69 -15 114 -15q244 0 313 354l101 514h281l-226 -1166z" />
    <glyph glyph-name="uni027C" unicode="&#x27c;" horiz-adv-x="797" 
d="M730 868q-244 0 -313 -354l-182 -939h-281l242 1255q25 121 42 252h268q-21 -161 -30 -221h4q73 134 144 187.5t163 53.5q47 0 103 -14l-46 -235q-69 15 -114 15z" />
    <glyph glyph-name="uni027D" unicode="&#x27d;" horiz-adv-x="797" 
d="M296 -127q0 -82 102 -82q52 0 114 12l-41 -211q-89 -17 -183 -17q-278 0 -278 232q0 51 12 116l174 907q25 121 42 252h268q-21 -161 -30 -221h4q73 134 144 187.5t163 53.5q47 0 103 -14l-46 -235q-69 15 -114 15q-244 0 -313 -354l-117 -598z" />
    <glyph glyph-name="uni027E" unicode="&#x27e;" horiz-adv-x="797" 
d="M683 868q-199 0 -253 -279l-114 -589h-281l120 614q52 263 175.5 375.5t354.5 112.5q110 0 193 -25l-45 -232q-51 23 -150 23z" />
    <glyph glyph-name="uni027F" unicode="&#x27f;" horiz-adv-x="797" 
d="M328 1102q184 0 274 -92.5t90 -267.5q0 -92 -26 -208l-214 -959h-281l226 994q16 68 16 125q0 174 -165 174q-101 0 -162 -23l45 232q79 25 197 25z" />
    <glyph glyph-name="uni0280" unicode="&#x280;" horiz-adv-x="1206" 
d="M638 607q106 0 164 37.5t58 127.5q0 135 -179 135h-192l-59 -300h208zM730 1082q202 0 311 -72t109 -208q0 -272 -295 -331l230 -471h-310l-187 435h-189l-85 -435h-282l211 1082h487z" />
    <glyph glyph-name="uni0281" unicode="&#x281;" horiz-adv-x="1206" 
d="M538 175q238 0 238 172q0 55 -39.5 91.5t-123.5 36.5h-208l-59 -300h192zM1062 360q0 -179 -125.5 -269.5t-397.5 -90.5h-507l211 1082h282l-85 -435h189l357 435h310l-414 -471q82 -27 131 -96t49 -155z" />
    <glyph glyph-name="uni0282" unicode="&#x282;" horiz-adv-x="1139" 
d="M517 166q222 0 222 136q0 51 -39.5 78.5t-211 65.5t-253.5 116t-82 207q0 160 125.5 245t344.5 85t319.5 -69t126.5 -219l-251 -29q-17 69 -66 100t-134 31q-205 0 -205 -120q1 -61 81 -95q40 -16 198 -52t233 -112t75 -200q0 -174 -128.5 -264t-374.5 -90
q-156 0 -260 51l-21 -115l-4 -38q0 -87 108 -87q46 0 108 12l-41 -211q-89 -17 -199 -17t-178 54.5t-68 177.5q0 51 12 116l69 346v2h1l250 36q21 -75 77 -108t166 -33z" />
    <glyph glyph-name="uni0283" unicode="&#x283;" horiz-adv-x="654" 
d="M-101 -425q-112 0 -163 21l42 213q52 -21 111 -21t89.5 19t50 54.5t36.5 123.5l223 1146q26 135 77 209q100 144 362 144q107 0 163 -18l-42 -215q-36 21 -112 21t-117.5 -46.5t-59.5 -148.5l-226 -1154q-38 -192 -136 -270t-298 -78z" />
    <glyph glyph-name="uni0284" unicode="&#x284;" horiz-adv-x="654" 
d="M-101 -425q-112 0 -163 21l42 213q52 -21 111.5 -21t90 19t50 56.5t38.5 137.5h-161l36 189h162l183 941q26 135 77 209q100 144 362 144q107 0 163 -18l-42 -215q-36 21 -112 21t-117.5 -46.5t-59.5 -148.5l-174 -887h208l-36 -189h-209l-15 -78q-38 -192 -136 -270
t-298 -78z" />
    <glyph glyph-name="uni0285" unicode="&#x285;" horiz-adv-x="682" 
d="M279 777q0 111 -110 111q-72 0 -118 -21l42 215q69 19 154 19q164 0 242.5 -63t78.5 -194q0 -70 -13 -124l-183 -735q-12 -45 -12 -98t24 -76t83.5 -23t119.5 21l-42 -213q-68 -21 -154 -21q-164 0 -241.5 63.5t-77.5 193.5q0 69 13 124l184 737q10 43 10 84z" />
    <glyph glyph-name="uni0286" unicode="&#x286;" horiz-adv-x="1094" 
d="M212.5 -12q-61.5 0 -100 -31.5t-38.5 -81.5t36.5 -80t99.5 -30t124 32.5t92 89.5q-28 40 -90 70.5t-123.5 30.5zM215.5 192q170.5 0 284.5 -81l198 1020q39 197 140 275t297 78q107 0 163 -18l-42 -215q-36 21 -110 21t-114.5 -42.5t-60.5 -145.5l-185 -951
q-28 -129 -67 -201q105 -140 134 -200l-198 -151l-86 134q-95 -64 -147 -88q-113 -52 -254.5 -52t-236.5 77t-95 222t104.5 231.5t275 86.5z" />
    <glyph glyph-name="uni0287" unicode="&#x287;" horiz-adv-x="682" 
d="M371.5 1351q113.5 0 181.5 -58.5t68 -166.5q0 -71 -16 -157l-108 -526h148l-37 -190h-162l-137 -254h-176l48 254h-202l35 190h205l110 535q11 56 11 95.5t-23.5 62t-59.5 22.5t-112 -13l32 182q81 24 194.5 24z" />
    <glyph glyph-name="uni0288" unicode="&#x288;" horiz-adv-x="682" 
d="M286.5 -425q-113.5 0 -181.5 58.5t-68 166.5q0 71 16 157l181 935h-148l37 190h162l137 254h176l-48 -254h202l-35 -190h-205l-183 -944q-11 -56 -11 -95.5t23.5 -62t59.5 -22.5t112 13l-32 -182q-81 -24 -194.5 -24z" />
    <glyph glyph-name="uni0289" unicode="&#x289;" horiz-adv-x="1251" 
d="M520 193q100 0 185.5 81.5t110.5 207.5h-423q-25 -119 -25 -160q0 -129 152 -129zM743 0q0 9 9.5 84t14.5 101h-3q-147 -204 -373 -204q-152 0 -229 73t-77 211q0 53 31 217h-140l36 189h141l80 411h279l-82 -411h423l80 411h282l-80 -411h154l-32 -189h-159
q-72 -367 -87 -482h-268z" />
    <glyph glyph-name="uni028A" unicode="&#x28a;" horiz-adv-x="1272" 
d="M1141 879q-67 0 -67 -55q0 -20 15 -54q81 -181 81 -308.5t-80 -241.5t-220 -177t-309 -63q-232 0 -366 102.5t-134 278.5q1 176 119 316q30 36 74 83.5t44 69t-14.5 35.5t-43.5 14h-107l40 203h211q76 0 124.5 -44.5t48.5 -105t-23 -113.5t-79 -137
q-105 -158 -105 -271.5t63.5 -176t190.5 -62.5t208 94t81 258q0 57 -28 174q-29 117 -29 157q0 106 65 166.5t172 60.5h222l-40 -203h-114z" />
    <glyph glyph-name="uni028B" unicode="&#x28b;" horiz-adv-x="1211" 
d="M840.5 477q46.5 131 46.5 271q-1 140 -113 139q-52 0 -107 -11l40 208q95 17 205.5 17t180.5 -77.5t70 -226.5q0 -226 -86 -416t-238 -295.5t-338 -105.5q-398 0 -398 312q0 60 18 152l123 638h281l-121 -622q-13 -64 -13 -115q0 -158 160 -158q87 0 165 79.5
t124.5 210.5z" />
    <glyph glyph-name="uni028C" unicode="&#x28c;" horiz-adv-x="1139" 
d="M511 1082h336l176 -1082h-289l-71 605q-4 30 -13 138t-9 131q-60 -143 -122 -266l-316 -608h-302z" />
    <glyph glyph-name="uni028D" unicode="&#x28d;" horiz-adv-x="1593" 
d="M399 1082h297l43 -660l5 -230q53 142 95 232l302 658h297l69 -1082h-258l-14 697v130l-79 -191l-294 -636h-301l-42 636l-5 191l-344 -827h-266z" />
    <glyph glyph-name="uni028E" unicode="&#x28e;" horiz-adv-x="1139" 
d="M1051 1507q97 0 173 -18l-38 -196q-40 9 -90.5 9t-92 -20t-81.5 -64.5t-107 -159.5l212 -1058h-291l-71 497q-6 31 -21.5 178t-13.5 156l-156 -330l-259 -501h-300l654 1139q120 210 228.5 289t253.5 79z" />
    <glyph glyph-name="uni028F" unicode="&#x28f;" horiz-adv-x="1134" 
d="M323 0l86 440l-297 642h297l181 -428l350 428h294l-548 -659l-82 -423h-281z" />
    <glyph glyph-name="uni0290" unicode="&#x290;" horiz-adv-x="1024" 
d="M951 -215q47 0 107 12l-39 -205q-89 -17 -170 -17q-132 0 -197.5 65.5t-65.5 183.5q0 49 10 99l15 77h-646l38 199l653 680h-480l40 203h809l-39 -201l-650 -676h568l-58 -295l-4 -38q0 -87 109 -87z" />
    <glyph glyph-name="uni0291" unicode="&#x291;" horiz-adv-x="1426" 
d="M992 205q57 0 92.5 25t35.5 61q0 69 -68 69q-49 0 -99.5 -39t-122.5 -116h162zM1339 305q0 -305 -418 -305h-271q-73 -98 -143 -203l-167 107l52 71l20 25h-447l38 199l653 680h-480l40 203h809l-39 -201l-650 -676h244q161 191 275 270t230.5 79t185 -69t68.5 -180z" />
    <glyph glyph-name="uni0292" unicode="&#x292;" horiz-adv-x="1078" 
d="M393 -232q120 0 192.5 83t72.5 203t-32.5 178.5t-99 84.5t-188.5 26h-81l37 189l407 347h-568l39 203h902l-38 -195l-434 -365q165 -26 256 -140t91 -278t-69.5 -281.5t-196 -182.5t-287.5 -65q-433 0 -497 353l272 41q27 -201 222 -201z" />
    <glyph glyph-name="uni0293" unicode="&#x293;" horiz-adv-x="1078" 
d="M348 -18q-75 0 -122 -29t-47 -79t46.5 -79.5t124.5 -29.5q150 0 243 84q-112 133 -245 133zM949 97q0 -58 -20 -127.5t-51 -102.5q43 -71 77 -144l-223 -136q-13 38 -41 104q-175 -116 -361 -116t-290 78q-104 77 -103.5 217t108.5 227t295 87t357 -124v2
q0 141 -87.5 211t-271.5 70h-81l37 189l407 347h-568l39 203h902l-38 -195l-434 -365q168 -26 257.5 -136t89.5 -289z" />
    <glyph glyph-name="uni0294" unicode="&#x294;" horiz-adv-x="1026" 
d="M84 1069q130 361 536 361q206 0 322 -113.5t116 -327.5q0 -157 -62 -285.5t-174.5 -209.5t-250.5 -100l-76 -394h-283l121 623q58 -18 139 -18t151 51t108.5 142.5t38.5 195.5q0 204 -189 204q-171 0 -239 -196z" />
    <glyph glyph-name="uni0295" unicode="&#x295;" horiz-adv-x="1026" 
d="M104 805q0 171 74.5 317.5t212.5 227t325.5 80.5t298.5 -92.5t126 -268.5l-284 -67q-9 196 -174 196q-135 0 -210 -98.5t-75 -278.5q0 -103 45.5 -159.5t126 -56.5t150.5 18l-121 -623h-283l76 394q-129 22 -208.5 131t-79.5 280z" />
    <glyph glyph-name="uni0296" unicode="&#x296;" horiz-adv-x="1026" 
d="M994 625q0 -184 -73.5 -326.5t-211.5 -220.5t-326.5 -78t-299.5 92.5t-126 268.5l284 67q9 -196 174 -196q135 0 210 98.5t75 278.5q0 103 -45.5 159.5t-126 56.5t-150.5 -18l121 623h283l-76 -394q288 -91 288 -411z" />
    <glyph glyph-name="uni0297" unicode="&#x297;" horiz-adv-x="1139" 
d="M488 -233q158 0 223 208l271 -50q-105 -351 -510 -351q-215 0 -328.5 110t-113.5 315q0 59 25 192l74 384q100 528 582 528q189 0 302 -95.5t127 -265.5l-284 -23q-11 191 -167 191q-112 0 -176 -76.5t-101 -257.5l-79 -407q-23 -118 -23 -168q0 -234 178 -234z" />
    <glyph glyph-name="uni0298" unicode="&#x298;" horiz-adv-x="1593" 
d="M651 566l59 305h289l-59 -305h-289zM916 1197q-164 0 -278 -75t-176 -226t-62 -325.5t90 -266.5t251 -92t275 75t176.5 223t62.5 320.5t-87.5 269.5t-251.5 97zM928 1430q293 0 462 -155.5t169 -412.5t-105 -460t-294.5 -312.5t-407.5 -109.5t-360.5 72t-217 206.5
t-74.5 342t105.5 411t292.5 311t430 107.5z" />
    <glyph glyph-name="uni0299" unicode="&#x299;" horiz-adv-x="1270" 
d="M598 180q251 0 251 140t-196 140h-251l-55 -280h251zM677 641q91 0 137 14q99 30 99 128q0 109 -187 109h-240l-49 -251h240zM809 1082q193 0 291.5 -68t98.5 -197q0 -182 -234 -255q77 -27 124.5 -89t47.5 -140q0 -159 -123.5 -246t-327.5 -87h-649l211 1082h561z" />
    <glyph glyph-name="uni029A" unicode="&#x29a;" horiz-adv-x="1171" 
d="M645.5 1102q215.5 0 331.5 -122.5t116 -353.5q0 -173 -88 -327.5t-232 -236.5t-330 -82t-299.5 78t-113.5 208.5t83.5 207.5t232.5 91q-86 20 -135 74.5t-49 137.5q0 145 134 235t349.5 90zM322 294q0 -126 168 -126q82 0 156.5 56.5t118 172t43.5 248t-51.5 205.5
t-142.5 73q-187 0 -187 -157q0 -64 48.5 -91t139.5 -27l-35 -182h-23q-235 0 -235 -172z" />
    <glyph glyph-name="uni029B" unicode="&#x29b;" horiz-adv-x="1221" 
d="M672.5 894q-90.5 0 -161.5 -54t-112 -163t-41 -239.5t60.5 -194t165 -63.5t211.5 40l26 137h-202l40 209h471l-92 -474q-205 -112 -478 -112q-497 0 -497 475q0 182 81.5 331t231 232.5t340.5 83.5q110 0 234 -57q21 134 115 208.5t238 74.5q65 0 137 -17l-39 -201
q-55 12 -85 12q-123 0 -140 -141l-28 -216l-275 -38q-2 81 -56 124t-144.5 43z" />
    <glyph glyph-name="uni029C" unicode="&#x29c;" horiz-adv-x="1237" 
d="M528 1082l-84 -428h387l84 428h282l-211 -1082h-282l90 463h-387l-90 -463h-282l211 1082h282z" />
    <glyph glyph-name="uni029D" unicode="&#x29d;" horiz-adv-x="834" 
d="M38 -127q0 -106 114 -106q58 0 97 38.5t60 136.5l12 58h-114q-89 0 -129 -38t-40 -89zM569 1277l40 207h281l-40 -207h-281zM133 -425q-138 0 -228.5 73t-90.5 192q0 175 114 270t329 95h103l171 877h281l-171 -877h156l-39 -205h-156l-9 -41q-46 -204 -157.5 -294
t-302.5 -90z" />
    <glyph glyph-name="uni029E" unicode="&#x29e;" horiz-adv-x="1139" 
d="M421 1082l188 -497l140 75l85 422h280l-288 -1484h-281l167 850l-465 -448h-322l473 422l-275 660h298z" />
    <glyph glyph-name="uni029F" unicode="&#x29f;" horiz-adv-x="922" 
d="M768 0h-727l211 1082h281l-171 -877h446z" />
    <glyph glyph-name="uni02A0" unicode="&#x2a0;" horiz-adv-x="1251" 
d="M518 172q211 0 287 260q38 130 38 248q0 230 -174 230q-110 0 -176 -64.5t-101.5 -200.5t-35.5 -259q0 -214 162 -214zM1329 1484q82 0 154 -17l-39 -201q-55 12 -96 12t-77 -30t-52 -111l-301 -1562h-281l85 432l36 156h-4q-73 -95 -157 -139.5t-219.5 -44.5t-227 98
t-91.5 282.5t64 367.5t180 279t261.5 96t216.5 -45.5t112 -153.5h5l79 312q32 130 121 199.5t231 69.5z" />
    <glyph glyph-name="uni02A1" unicode="&#x2a1;" horiz-adv-x="1026" 
d="M84 1069q130 361 536 361q206 0 322 -113.5t116 -327.5q0 -157 -62 -285.5t-174.5 -209.5t-250.5 -100l-14 -74h355l-37 -186h-354l-26 -134h-283l26 134h-307l37 186h306l59 303q58 -18 139 -18t151 51t108.5 142.5t38.5 195.5q0 204 -189 204q-171 0 -239 -196z" />
    <glyph glyph-name="uni02A2" unicode="&#x2a2;" horiz-adv-x="1026" 
d="M104 805q0 171 74.5 317.5t212.5 227t325.5 80.5t298.5 -92.5t126 -268.5l-284 -67q-9 196 -174 196q-135 0 -210 -98.5t-75 -278.5q0 -103 45.5 -159.5t126 -56.5t150.5 18l-59 -303h331l-37 -186h-330l-26 -134h-283l26 134h-331l37 186h330l14 74q-129 22 -208.5 131
t-79.5 280z" />
    <glyph glyph-name="uni02A3" unicode="&#x2a3;" horiz-adv-x="2048" 
d="M1171 879l-126 -671l665 671h-539zM842 700q0 210 -188 210q-196 0 -265 -271q-34 -133 -34 -246q0 -221 158 -221t239 140q41 72 65.5 180t24.5 208zM738 0q0 85 15 160h-4q-71 -93 -153.5 -137t-220 -44t-227.5 102t-90 283t64 364q131 374 458 374q255 0 314 -198h5
q6 67 110 580h277l-77 -402h870l-39 -201l-680 -676h597l-40 -205h-1179z" />
    <glyph glyph-name="uni02A4" unicode="&#x2a4;" horiz-adv-x="1919" 
d="M833 700q0 210 -188 210q-196 0 -265 -271q-34 -133 -34 -246q0 -221 158 -221t239 140q41 72 65.5 180t24.5 208zM729 0q0 85 15 160h-4q-71 -93 -153.5 -137t-220 -44t-227.5 102t-90 283t64 364q131 374 458 374q255 0 314 -198h5q6 67 110 580h277l-77 -402h756
l-38 -195l-372 -378q140 -40 212.5 -145t72.5 -260t-75 -275.5t-209 -187t-316.5 -66.5t-300 56.5t-176.5 179.5l256 80q67 -123 250 -123q124 0 202 85t78 202.5t-32.5 176t-99.5 85t-199 26.5l37 189l337 347h-421l-123 -648q-20 -112 -29 -231h-281z" />
    </font>
</defs>
</svg>
