<?xml version="1.0" standalone="no"?>
<!DOCTYPE svg PUBLIC "-//W3C//DTD SVG 1.1//EN" "http://www.w3.org/Graphics/SVG/1.1/DTD/svg11.dtd" >
<svg xmlns="http://www.w3.org/2000/svg">
<metadata>
Created by FontPrep 20130207 at Mon May  5 10:31:29 2014
 By eli ben yosef
Digitized data copyright (c) 2010-2012 Google Corporation.
</metadata>
<defs>
<font id="cc988ad0c22c9a984d40a4d3d29170ec" horiz-adv-x='1024' >
  <font-face 
    font-family="Arimo-Italic"
    font-weight="400"
    font-style="italic"
    font-stretch="normal"
    units-per-em="2048"
    panose-1="2 11 6 4 2 2 2 9 2 4"
    ascent="1638"
    descent="-410"
    x-height="1082"
    cap-height="1409"
    bbox="-1360 -621 2787 2077"
    underline-thickness="150"
    underline-position="-142"
    slope="-12"
    unicode-range="U+0020-FFFC"
  />
<missing-glyph horiz-adv-x="1536" 
d="M281 1333v-1257h973v1257h-973zM205 1409h1125v-1409h-1125v1409z" />
    <glyph glyph-name=".notdef" horiz-adv-x="1536" 
d="M281 1333v-1257h973v1257h-973zM205 1409h1125v-1409h-1125v1409z" />
    <glyph glyph-name=".null" 
 />
    <glyph glyph-name="nonmarkingreturn" horiz-adv-x="569" 
 />
    <glyph glyph-name="space" unicode=" " horiz-adv-x="569" 
 />
    <glyph glyph-name="space" unicode="&#xa0;" horiz-adv-x="569" 
 />
    <glyph glyph-name="exclam" unicode="!" horiz-adv-x="569" 
d="M77 0l40 201h194l-40 -201h-194zM329 397h-148l172 1012h196z" />
    <glyph glyph-name="quotedbl" unicode="&#x22;" horiz-adv-x="727" 
d="M328 966h-141l63 443h184zM697 966h-142l64 443h184z" />
    <glyph glyph-name="numbersign" unicode="#" horiz-adv-x="1139" 
d="M455 885l-80 -369h362l78 369h-360zM1108 516v-108h-283l-88 -408h-110l86 408h-363l-84 -408h-110l84 408h-201v108h225l78 369h-252v108h274l89 408h110l-88 -408h363l88 408h110l-88 -408h211v-108h-233l-78 -369h260z" />
    <glyph glyph-name="dollar" unicode="$" horiz-adv-x="1139" 
d="M363 1018q0 -67 45 -110t174 -83l81 415q-145 -5 -222.5 -62t-77.5 -160zM887 413q0 78 -50.5 128.5t-177.5 90.5l-90 -463q318 17 318 244zM1072 425q0 -185 -137.5 -290.5t-394.5 -113.5l-31 -161h-114l32 163q-384 27 -439 353l163 37q25 -115 97.5 -174t206.5 -69
l96 493q-149 41 -259.5 110.5t-110.5 244.5q0 112 65 194.5t181.5 127t263.5 45.5l25 131h114l-27 -137q156 -19 248.5 -94t118.5 -198l-156 -45q-45 167 -238 194l-86 -441q382 -103 382 -370z" />
    <glyph glyph-name="percent" unicode="%" horiz-adv-x="1821" 
d="M1473 777q-67 0 -110 -31t-75 -97.5t-53.5 -173.5t-21.5 -184q0 -190 126 -190q165 0 210 199t45 295q0 182 -121 182zM1472 885q128 0 194.5 -79t66.5 -207q0 -277 -110 -444t-288 -167q-124 0 -192 82t-68 232t46.5 292.5t134.5 216.5t216 74zM544 1313q-67 0 -110 -31
t-75 -97.5t-53.5 -173.5t-21.5 -184q0 -190 126 -190q165 0 210 199t45 295q0 182 -121 182zM542 1421q128 0 195 -79t67 -207q0 -277 -110 -444t-288 -167q-124 0 -192 82t-68 232t46.5 292.5t134 216.5t215.5 74zM425 0h-165l1186 1409h167z" />
    <glyph glyph-name="ampersand" unicode="&#x26;" horiz-adv-x="1366" 
d="M592 1062q0 -99 19 -199q79 29 148 55t150 76.5t81 153.5q0 65 -45.5 106.5t-118.5 41.5q-112 0 -173 -67.5t-61 -166.5zM203 354q0 -110 68.5 -176.5t180.5 -66.5q163 0 301 101q-159 197 -251 463q-168 -66 -233.5 -138.5t-65.5 -182.5zM1118 -12q-149 0 -271 122
q-178 -130 -387 -130t-318 100t-109 264t93 266.5t336 195.5q-28 119 -28 230q0 173 108.5 277t290.5 104q138 0 224.5 -72t86.5 -189t-81.5 -203t-291.5 -169l-125 -50q76 -224 218 -419q116 132 252 424l132 -55q-139 -315 -291 -476q83 -79 187 -79q60 0 112 16l-13 -135
q-60 -22 -125 -22z" />
    <glyph glyph-name="quotesingle" unicode="'" horiz-adv-x="391" 
d="M343 966h-141l63 443h184z" />
    <glyph glyph-name="parenleft" unicode="(" horiz-adv-x="682" 
d="M277 262q0 -389 207 -686h-174q-214 296 -214 685q0 771 585 1223h174q-578 -509 -578 -1222z" />
    <glyph glyph-name="parenright" unicode=")" horiz-adv-x="682" 
d="M379 798q0 389 -207 686h174q214 -296 214 -685q0 -771 -585 -1223h-174q578 509 578 1222z" />
    <glyph glyph-name="asterisk" unicode="*" horiz-adv-x="797" 
d="M543 1114l264 103l45 -132l-282 -73l185 -250l-119 -72l-150 258l-156 -256l-119 72l189 248l-280 73l45 134l267 -107l-12 297h136z" />
    <glyph glyph-name="plus" unicode="+" horiz-adv-x="1196" 
d="M701 608v-428h-147v428h-424v146h424v428h147v-428h424v-146h-424z" />
    <glyph glyph-name="comma" unicode="," horiz-adv-x="569" 
d="M160 -262h-123q120 137 145 262h-88l42 219h195l-32 -168q-35 -184 -139 -313z" />
    <glyph glyph-name="hyphen" unicode="-" horiz-adv-x="682" 
d="M105 464l31 160h500l-31 -160h-500z" />
    <glyph glyph-name="hyphen" unicode="&#xad;" horiz-adv-x="682" 
d="M105 464l31 160h500l-31 -160h-500z" />
    <glyph glyph-name="period" unicode="." horiz-adv-x="569" 
d="M80 0l43 219h195l-43 -219h-195z" />
    <glyph glyph-name="slash" unicode="/" horiz-adv-x="569" 
d="M-116 -20l703 1504h158l-700 -1504h-161z" />
    <glyph glyph-name="zero" unicode="0" horiz-adv-x="1139" 
d="M491 127q151 0 246.5 106t152.5 329.5t57 394.5q0 327 -227 327q-151 0 -246.5 -106t-152.5 -329.5t-57 -394.5q0 -327 227 -327zM744 1430q172 0 275 -123t103 -361t-78 -477.5t-221 -364t-335 -124.5t-295.5 129t-103.5 333t44.5 389.5t124 321.5t197 206.5t289.5 70.5
z" />
    <glyph glyph-name="one" unicode="1" horiz-adv-x="1139" 
d="M53 0l30 153h359l208 1070l-361 -223l35 180l377 229h166l-244 -1256h343l-30 -153h-883z" />
    <glyph glyph-name="two" unicode="2" horiz-adv-x="1139" 
d="M920 1074q0 87 -62 147.5t-170 60.5t-189 -59.5t-118 -178.5l-170 37q54 170 178.5 259.5t308.5 89.5t297.5 -98t113.5 -254q0 -211 -153.5 -344.5t-329.5 -245.5t-267 -187.5t-137 -147.5h727l-29 -153h-932l24 127q134 227 313 341.5t250.5 160t134 90.5t109.5 96
t74 111.5t27 147.5z" />
    <glyph glyph-name="three" unicode="3" horiz-adv-x="1139" 
d="M566 795q364 0 364 286q0 93 -60.5 147t-170.5 54t-195.5 -61t-119.5 -172l-178 14q58 186 191.5 276.5t320.5 90.5t295 -92t108 -248t-96.5 -253t-271.5 -120l-1 -4q131 -26 204 -104.5t73 -202.5t-60.5 -221.5t-175.5 -151t-255 -53.5t-289.5 67t-200.5 291l164 48
q30 -116 118 -186.5t220 -70.5t211.5 74.5t79.5 193.5t-75 180.5t-204 61.5h-124l30 156h98z" />
    <glyph glyph-name="four" unicode="4" horiz-adv-x="1139" 
d="M826 1157l-599 -696h467zM846 319l-62 -319h-180l62 319h-653l27 140l819 950h199l-184 -948h188l-28 -142h-188z" />
    <glyph glyph-name="five" unicode="5" horiz-adv-x="1139" 
d="M648 899q177 0 290 -106.5t113 -286.5q0 -246 -144 -386t-402 -140q-371 0 -459 329l163 43q61 -225 306 -225q166 0 256 93.5t90 265.5q0 122 -69 194t-185 72q-163 0 -282 -101h-176l194 758h801l-29 -153h-637l-114 -447q107 90 284 90z" />
    <glyph glyph-name="six" unicode="6" horiz-adv-x="1139" 
d="M288 410q0 -120 68 -202.5t194 -82.5t218.5 112.5t92.5 284.5q0 115 -59.5 182.5t-161.5 67.5t-181 -42.5t-125 -121t-46 -198.5zM663 911q172 0 278 -105t106 -265t-66.5 -288.5t-184 -200.5t-262.5 -72q-193 0 -306 134t-113 362t83.5 464t228.5 363t334 127
q150 0 246.5 -71.5t131.5 -207.5l-166 -36q-25 81 -82 125t-138 44q-164 0 -279 -146t-167 -412q123 185 356 185z" />
    <glyph glyph-name="seven" unicode="7" horiz-adv-x="1139" 
d="M435 0h-188q77 381 267 657.5t472 598.5h-774l29 153h961l-28 -146q-223 -262 -353.5 -431t-233.5 -376t-152 -456z" />
    <glyph glyph-name="eight" unicode="8" horiz-adv-x="1139" 
d="M850 418q0 254 -296 254q-144 0 -229.5 -83t-85.5 -233q0 -112 74 -175.5t214 -63.5t231.5 86t91.5 215zM664 811q128 0 202.5 71.5t74.5 187.5q0 224 -258 224q-133 0 -208 -67t-75 -182t68 -174.5t196 -59.5zM688 1429q208 0 323.5 -91.5t115.5 -239.5t-86.5 -245.5
t-233.5 -119.5l-1 -4q110 -33 168.5 -110t58.5 -187q0 -208 -142 -330t-373 -122t-347.5 101t-116.5 265t91 267.5t266 142.5v4q-91 38 -141 113.5t-50 178.5q0 177 130 277t338 100z" />
    <glyph glyph-name="nine" unicode="9" horiz-adv-x="1139" 
d="M925 1016q0 122 -69 195t-178 73q-148 0 -240 -108t-92 -297q0 -122 63 -189t164 -67t183.5 51t125.5 135.5t43 206.5zM559 481q-118 0 -208 51.5t-139 143.5t-49 224t66 259t185.5 199t267.5 72q196 0 305.5 -127t109.5 -346q0 -155 -55 -403t-217.5 -411t-371.5 -163
q-308 0 -383 277l158 45q50 -177 233 -177q158 0 269.5 144.5t167.5 414.5q-134 -203 -339 -203z" />
    <glyph glyph-name="colon" unicode=":" horiz-adv-x="569" 
d="M81 0l41 207h195l-41 -207h-195zM251 875l41 207h195l-41 -207h-195z" />
    <glyph glyph-name="semicolon" unicode=";" horiz-adv-x="569" 
d="M265 875l40 207h195l-40 -207h-195zM161 -262h-123q120 137 145 262h-88l40 207h195l-30 -156q-35 -184 -139 -313z" />
    <glyph glyph-name="semicolon" unicode="&#x37e;" horiz-adv-x="569" 
d="M265 875l40 207h195l-40 -207h-195zM161 -262h-123q120 137 145 262h-88l40 207h195l-30 -156q-35 -184 -139 -313z" />
    <glyph glyph-name="less" unicode="&#x3c;" horiz-adv-x="1196" 
d="M131 571v205l995 418v-154l-858 -366l858 -367v-153z" />
    <glyph glyph-name="equal" unicode="=" horiz-adv-x="1196" 
d="M130 344v148h995v-148h-995zM130 856v148h995v-148h-995z" />
    <glyph glyph-name="greater" unicode="&#x3e;" horiz-adv-x="1196" 
d="M131 154v153l858 367l-858 366v154l995 -418v-205z" />
    <glyph glyph-name="question" unicode="?" horiz-adv-x="1139" 
d="M299 0l39 201h195l-39 -201h-195zM701 1430q197 0 314.5 -100t117.5 -257q0 -238 -139.5 -323.5t-233.5 -139.5q-178 -102 -205 -233h-175q24 146 106 219.5t202 141.5t189 130t69 172t-73 170t-201 60t-219 -70t-129 -192l-165 40q123 382 542 382z" />
    <glyph glyph-name="at" unicode="@" horiz-adv-x="2079" 
d="M739 491q0 -256 194 -256q80 0 153 44t128 121.5t85 176t30 185.5t-65.5 149.5t-171.5 62.5t-184.5 -63.5t-123.5 -177.5t-45 -242zM194 516q0 255 124.5 484t345 356.5t478.5 127.5t433 -90.5t267.5 -255.5t92.5 -367t-57.5 -352.5t-160 -232.5t-216.5 -82
q-220 0 -220 176l3 70h-6q-66 -123 -163.5 -184.5t-210.5 -61.5q-157 0 -243.5 102t-86.5 274t64.5 313.5t180.5 224.5t257 83q219 0 301 -182h6l39 160h156l-116 -506q-37 -163 -37 -255q1 -92 81 -92t147.5 69t106.5 190t39 284t-77 301.5t-222 213t-363 74.5t-404 -107
t-292 -308t-106 -423t78.5 -369.5t227 -226.5t346.5 -79q313 0 603 162l55 -112q-297 -178 -658 -178q-240 0 -419.5 95t-276.5 272t-97 432z" />
    <glyph glyph-name="A" unicode="A" horiz-adv-x="1366" 
d="M830 1265q-21 -42 -399 -704h527l-102 553zM1061 0l-75 412h-639l-240 -412h-208l848 1409h217l292 -1409h-195z" />
    <glyph glyph-name="B" unicode="B" horiz-adv-x="1366" 
d="M651 153q405 0 405 289q0 107 -79.5 163t-228.5 56h-366l-99 -508h368zM742 810q355 0 355 258q0 188 -268 188h-331l-87 -446h331zM846 1409q209 0 329.5 -86.5t120.5 -235.5q0 -285 -339 -344q138 -23 214 -104.5t76 -199.5q0 -213 -156 -326t-433 -113h-595l273 1409
h510z" />
    <glyph glyph-name="C" unicode="C" horiz-adv-x="1479" 
d="M713 135q304 0 502 291l143 -89q-126 -188 -286 -272.5t-356.5 -84.5t-330 72.5t-203 206.5t-69.5 310q0 246 105 445t291.5 307.5t410 108.5t373 -90.5t197.5 -254.5l-180 -55q-36 112 -139.5 178t-271 66t-307.5 -88.5t-215 -249t-75 -365.5t109 -320.5t302 -115.5z
" />
    <glyph glyph-name="D" unicode="D" horiz-adv-x="1479" 
d="M567 153q195 0 344 77.5t228.5 223t79.5 352t-126 328.5t-353 122h-242l-215 -1103h284zM744 1409q312 0 490.5 -164.5t178.5 -453.5q0 -236 -103 -413t-296.5 -277.5t-438.5 -100.5h-512l273 1409h408z" />
    <glyph glyph-name="E" unicode="E" horiz-adv-x="1366" 
d="M63 0l273 1409h1049l-30 -156h-858l-88 -452h798l-30 -154h-798l-95 -491h899l-30 -156h-1090z" />
    <glyph glyph-name="F" unicode="F" horiz-adv-x="1251" 
d="M497 1253l-102 -524h796l-31 -158h-796l-110 -571h-191l273 1409h1011l-30 -156h-820z" />
    <glyph glyph-name="G" unicode="G" horiz-adv-x="1593" 
d="M932 1274q-192 0 -336.5 -86t-221.5 -244.5t-77 -368t118 -325t333 -115.5q295 0 483 156l51 254h-421l32 160h597l-100 -495q-268 -230 -648 -230q-305 0 -473 156t-168 421t105 461.5t297.5 304t427.5 107.5q463 0 574 -332l-193 -54q-74 230 -380 230z" />
    <glyph glyph-name="H" unicode="H" horiz-adv-x="1479" 
d="M1021 0l127 653h-767l-127 -653h-191l274 1409h191l-116 -596h767l116 596h186l-274 -1409h-186z" />
    <glyph glyph-name="I" unicode="I" horiz-adv-x="569" 
d="M81 0l274 1409h191l-274 -1409h-191z" />
    <glyph glyph-name="J" unicode="J" horiz-adv-x="1024" 
d="M400.5 135q102.5 0 167.5 72.5t95 232.5l157 813h-291l30 156h481l-193 -986q-85 -443 -448 -443q-351 0 -404 363l168 33q23 -117 79 -179t158.5 -62z" />
    <glyph glyph-name="K" unicode="K" horiz-adv-x="1366" 
d="M1022 0l-472 674l-190 -129l-106 -545h-191l273 1409h191l-136 -691l140 129l665 562h245l-750 -630l557 -779h-226z" />
    <glyph glyph-name="L" unicode="L" horiz-adv-x="1139" 
d="M63 0l273 1409h191l-243 -1253h712l-30 -156h-903z" />
    <glyph glyph-name="M" unicode="M" horiz-adv-x="1706" 
d="M463 1228q-35 -234 -230 -1228h-170l273 1409h236l189 -977q8 -39 32 -205l104 213l553 969h256l-273 -1409h-172l180 928q36 185 65 300q-91 -189 -145 -280l-548 -948h-124l-185 948q-6 29 -41 280z" />
    <glyph glyph-name="N" unicode="N" horiz-adv-x="1479" 
d="M987 0l-531 1210q-22 -171 -42 -267l-181 -943h-170l273 1409h212l534 -1215q26 189 45 284l181 931h172l-273 -1409h-220z" />
    <glyph glyph-name="O" unicode="O" horiz-adv-x="1593" 
d="M928.5 1276q-199.5 0 -339 -89t-213.5 -266t-74 -372t106.5 -304.5t306.5 -109.5t338.5 86.5t215 259.5t76.5 373t-108.5 311t-308 111zM957.5 1430q257.5 0 418 -157t160.5 -422q-5 -268 -112 -463.5t-293 -301.5t-422 -106q-284 0 -441 157.5t-157 416t105.5 459
t294.5 309t446.5 108.5z" />
    <glyph glyph-name="P" unicode="P" horiz-adv-x="1366" 
d="M777 700q382 0 382 311q0 119 -79 182t-233 63h-349l-108 -556h387zM852 1409q231 0 366 -104t135 -285q0 -220 -152.5 -345.5t-416.5 -125.5h-424l-106 -549h-191l273 1409h516z" />
    <glyph glyph-name="Q" unicode="Q" horiz-adv-x="1593" 
d="M918.5 1276q-199.5 0 -339 -89t-213.5 -266t-74 -372t106.5 -304.5t306.5 -109.5t338.5 86.5t215 259.5t76.5 373t-108.5 311t-308 111zM947.5 1430q257.5 0 418 -157t160.5 -422q-5 -244 -94 -428t-246.5 -296t-363.5 -139q17 -121 67 -176.5t149 -55.5q58 0 123 13
l-18 -134q-76 -22 -169 -22q-151 0 -232 86t-104 284q-253 17 -395 172t-142 406t105.5 451.5t294.5 309t446.5 108.5z" />
    <glyph glyph-name="R" unicode="R" horiz-adv-x="1479" 
d="M857 736q181 0 273 76t92 200q0 244 -297 244h-427l-101 -520h460zM1416 1039q0 -378 -427 -437l268 -602h-206l-243 585h-441l-113 -585h-191l273 1409h612q214 0 341 -102t127 -268z" />
    <glyph glyph-name="S" unicode="S" horiz-adv-x="1366" 
d="M447 1050q0 -60 25.5 -98t84 -66.5t243 -79t270.5 -100.5q176 -103 176 -303.5t-155 -311.5t-475 -111q-249 0 -386.5 88.5t-171.5 269.5l177 37q27 -129 120 -187t293 -58q402 0 403 266q0 67 -29 107.5t-99 72.5t-241 80q-172 48 -256 98q-172 100 -171.5 284.5
t154 288t394.5 103.5q472 0 541 -298l-173 -51q-64 205 -348 205q-376 0 -376 -236z" />
    <glyph glyph-name="T" unicode="T" horiz-adv-x="1251" 
d="M858 1253l-244 -1253h-190l244 1253h-484l30 156h1158l-30 -156h-484z" />
    <glyph glyph-name="U" unicode="U" horiz-adv-x="1479" 
d="M675 -20q-254 0 -388 120.5t-134 330.5q0 98 23 204l150 774h191l-162 -843q-17 -87 -17 -143q0 -136 87.5 -212t244.5 -76q384 0 461 406l168 868h190l-170 -879q-54 -273 -222 -411.5t-422 -138.5z" />
    <glyph glyph-name="V" unicode="V" horiz-adv-x="1366" 
d="M677 0h-198l-302 1409h194l198 -992l35 -249l133 249l580 992h208z" />
    <glyph glyph-name="W" unicode="W" horiz-adv-x="1933" 
d="M1406 0h-223l-71 895q-14 275 -16 324q-76 -199 -135 -324l-419 -895h-223l-142 1409h197l79 -895q12 -155 16 -346q79 188 130.5 302t443.5 939h183l75 -877q14 -154 17 -364l16 35q48 115 78 184t481 1022h201z" />
    <glyph glyph-name="X" unicode="X" horiz-adv-x="1366" 
d="M999 0l-303 606l-524 -606h-211l654 746l-340 663h199l270 -551l475 551h211l-600 -676l368 -733h-199z" />
    <glyph glyph-name="Y" unicode="Y" horiz-adv-x="1366" 
d="M672 0h-190l115 584l-384 825h196l306 -674l560 674h214l-704 -825z" />
    <glyph glyph-name="Z" unicode="Z" horiz-adv-x="1251" 
d="M1082 0h-1122l27 143l1054 1110h-765l30 156h1002l-27 -139l-1054 -1114h885z" />
    <glyph glyph-name="bracketleft" unicode="[" horiz-adv-x="569" 
d="M-39 -425l370 1909h407l-25 -129h-233l-321 -1651h233l-25 -129h-406z" />
    <glyph glyph-name="backslash" unicode="\" horiz-adv-x="569" 
d="M320 -20l-174 1504h148l178 -1504h-152z" />
    <glyph glyph-name="bracketright" unicode="]" horiz-adv-x="569" 
d="M-169 -425l25 129h232l321 1651h-233l25 129h407l-371 -1909h-406z" />
    <glyph glyph-name="asciicircum" unicode="^" horiz-adv-x="961" 
d="M817 673l-309 633l-306 -633h-162l368 736h203l370 -736h-164z" />
    <glyph glyph-name="underscore" unicode="_" horiz-adv-x="1139" 
d="M-160 -250v76h1178v-76h-1178z" />
    <glyph glyph-name="grave" unicode="`" horiz-adv-x="682" 
d="M412 1201l-282 278l5 29h207l161 -287l-3 -20h-88z" />
    <glyph glyph-name="a" unicode="a" horiz-adv-x="1139" 
d="M237 280q0 -68 48.5 -115.5t135.5 -47.5t165 41.5t129 108.5t67 144l27 125l-199 -4q-209 -5 -291 -67t-82 -185zM852 787q0 178 -200 178q-119 0 -180 -42.5t-88 -129.5l-178 29q45 147 156.5 213.5t291 66.5t279 -80t99.5 -215q0 -64 -19 -157l-74 -378
q-11 -48 -11 -88q0 -73 81 -73q27 0 60 7l-14 -112q-66 -16 -128 -16q-178 0 -178 153l5 64h-6q-83 -126 -172 -176.5t-222 -50.5t-220.5 84t-87.5 214q0 185 132.5 280t422.5 99l232 3q19 98 19 127z" />
    <glyph glyph-name="b" unicode="b" horiz-adv-x="1139" 
d="M888 716q0 247 -194 247q-193 -1 -291 -163q-49 -82 -77 -204t-28 -233t63.5 -180.5t182 -69.5t190.5 75.5t113 240t41 287.5zM557 -20q-242 0 -309 198h-3q-7 -37 -24 -106t-19 -72h-173q10 29 49 223l245 1261h180l-83 -423q-8 -46 -34 -140h4q73 95 154 138t200 43
q157 0 244.5 -94.5t87.5 -278.5t-61.5 -374.5t-173 -282.5t-284.5 -92z" />
    <glyph glyph-name="c" unicode="c" horiz-adv-x="1024" 
d="M824 759q-12 202 -222 202q-225 0 -308 -282q-43 -147 -43 -290q0 -267 218 -267q205 0 289 230l156 -49q-121 -323 -449 -323q-192 0 -295 109t-103 307.5t72.5 370.5t192 253.5t291 81.5t270 -85t108.5 -233z" />
    <glyph glyph-name="d" unicode="d" horiz-adv-x="1139" 
d="M257 365q0 -247 194 -247t291 162q49 82 77 204.5t28 233.5t-63.5 180.5t-181 69.5t-188.5 -72.5t-114 -237t-43 -293.5zM588 1101q243 0 310 -198h5l28 162l82 419h180l-245 -1261q-29 -141 -38 -223h-172q0 51 21 160h-5q-73 -95 -154 -138t-199 -43
q-157 0 -244.5 94.5t-87.5 278.5t61.5 374.5t173 282.5t284.5 92z" />
    <glyph glyph-name="e" unicode="e" horiz-adv-x="1139" 
d="M627.5 969q-127.5 0 -219 -85.5t-128.5 -242.5h600l4 72q0 124 -64.5 190t-192 66zM514 115q97 0 176 48t123 131l138 -63q-73 -131 -185.5 -191t-272.5 -60q-201 0 -312.5 111.5t-111.5 313t71 361t200 248t312 88.5t297 -103t114 -291q0 -105 -24 -205h-783
q-6 -35 -9 -113q0 -275 267 -275z" />
    <glyph glyph-name="f" unicode="f" horiz-adv-x="569" 
d="M610.5 1484q85.5 0 135.5 -12l-26 -137l-45 6l-46 2q-63 0 -96.5 -32.5t-53.5 -131.5l-19 -97h211l-26 -131h-211l-185 -951h-180l185 951h-152l26 131h152l23 122q23 112 60.5 167.5t99.5 84t147.5 28.5z" />
    <glyph glyph-name="g" unicode="g" horiz-adv-x="1139" 
d="M259 362.5q0 -110.5 52.5 -174t157.5 -63.5t193 78.5t136.5 215.5t48.5 273.5t-64 206t-165 69.5t-161 -37t-101 -116t-69 -210.5t-28 -242zM397 -425q-339 0 -393 252l163 42q35 -157 234 -157q142 0 220 73.5t110 241.5l34 174h-2q-61 -89 -109 -128q-99 -81 -248 -81
t-242.5 100.5t-93.5 250t37.5 303.5t102.5 256q127 199 378 199q121 0 204.5 -57t107.5 -147h2q7 37 25 106.5t23 78.5h171l-49 -224l-161 -827q-48 -242 -172 -349t-342 -107z" />
    <glyph glyph-name="h" unicode="h" horiz-adv-x="1139" 
d="M764.5 1101q131.5 0 206 -73t74.5 -211q0 -64 -21 -164l-127 -653h-181l126 645q18 88 18 150q0 167 -179 167q-126 0 -222 -96t-128 -260l-118 -606h-179l288 1484h180l-75 -386q-18 -100 -47 -201h3q83 115 166.5 159.5t215 44.5z" />
    <glyph glyph-name="i" unicode="i" horiz-adv-x="455" 
d="M33 0l210 1082h180l-211 -1082h-179zM287 1312l34 172h180l-34 -172h-180z" />
    <glyph glyph-name="j" unicode="j" horiz-adv-x="455" 
d="M-100 -425q-56 0 -129 14l23 136q52 -8 97 -8q89 0 122 176l231 1189h180l-237 -1216q-31 -158 -101 -224.5t-186 -66.5zM289 1312l33 172h180l-33 -172h-180z" />
    <glyph glyph-name="k" unicode="k" horiz-adv-x="1024" 
d="M721 0l-268 502l-168 -124l-72 -378h-179l288 1484h180l-179 -917l204 190l361 325h222l-530 -465l336 -617h-195z" />
    <glyph glyph-name="l" unicode="l" horiz-adv-x="455" 
d="M33 0l288 1484h180l-289 -1484h-179z" />
    <glyph glyph-name="m" unicode="m" horiz-adv-x="1706" 
d="M1434 808q0 154 -162 154q-116 0 -202 -97.5t-114 -257.5l-118 -607h-178l124 634q25 125 25 174q0 154 -162 154q-116 0 -202.5 -99t-113.5 -259l-118 -604h-179l166 851q20 95 39 231h170q0 -21 -28 -185h3q73 114 146.5 159t185 45t182.5 -59.5t85 -172.5
q83 130 163.5 181t200 51t192 -73t72.5 -211q0 -64 -21 -164l-127 -653h-178l124 634q25 125 25 174z" />
    <glyph glyph-name="n" unicode="n" horiz-adv-x="1139" 
d="M409 1082q0 -21 -28 -185h3q83 115 166.5 159.5t215 44.5t206 -73t74.5 -211q0 -64 -21 -164l-127 -653h-181l126 645q18 88 18 150q0 167 -179 167q-126 0 -222 -96t-128 -260l-118 -606h-180l166 851q20 95 39 231h170z" />
    <glyph glyph-name="o" unicode="o" horiz-adv-x="1139" 
d="M640 969q-135 0 -216.5 -69.5t-126.5 -210.5t-45 -281t64 -217.5t176.5 -77.5t175 34.5t109.5 108.5q100 157 111 427q0 286 -248 286zM1074 683q0 -131 -40 -271q-123 -432 -543 -432q-196 0 -310 118t-112 321.5t72 361.5q142 320 501 320q210 0 321 -109.5t111 -308.5
z" />
    <glyph glyph-name="p" unicode="p" horiz-adv-x="1139" 
d="M885 716q-1 247 -195 247q-193 -1 -290 -163q-49 -82 -77 -204t-28 -233t63.5 -180.5t182 -69.5t190.5 75.5t113 240t41 287.5zM400 1082q0 -63 -17 -161h4q73 95 154 138t200 43q157 0 244.5 -94.5t87.5 -278.5t-61.5 -374.5t-173 -282.5t-284.5 -92q-243 0 -310 198h-5
q0 -31 -111 -603h-179l249 1286q23 111 35 221h167z" />
    <glyph glyph-name="q" unicode="q" horiz-adv-x="1139" 
d="M257 365q0 -247 193.5 -247t291.5 162q49 82 77 204.5t28 233.5t-63.5 180.5t-181 69.5t-188.5 -72.5t-114 -237t-43 -293.5zM401 -21q-157 0 -244.5 94.5t-87.5 278.5t61.5 374.5t173 282.5t284.5 92q243 0 310 -198h5q34 165 49 193h173q-23 -78 -65 -295l-238 -1226
h-180l85 439l32 146h-4q-73 -95 -154 -138t-200 -43z" />
    <glyph glyph-name="r" unicode="r" horiz-adv-x="682" 
d="M628 951q-105 0 -189.5 -110t-114.5 -277l-110 -564h-180l162 830l25 138l18 114h170l-35 -221h4q66 133 130 187t148 54q46 0 95 -14l-33 -150q-44 13 -90 13z" />
    <glyph glyph-name="s" unicode="s" horiz-adv-x="1024" 
d="M425 -20q-174 0 -276.5 58.5t-143.5 184.5l147 56q33 -88 102.5 -128t199.5 -40t204 48.5t74 141.5q0 62 -51 103.5t-197.5 88t-210.5 86.5q-132 82 -132 222.5t116 219t327 78.5q354 0 398 -255l-163 -25q-22 79 -83 114t-174.5 35t-180 -39.5t-66.5 -113.5
q-1 -75 81 -121q40 -22 175 -64.5t199 -83.5q136 -87 136.5 -239t-123.5 -239.5t-358 -87.5z" />
    <glyph glyph-name="t" unicode="t" horiz-adv-x="569" 
d="M269.5 -20q-79.5 0 -128 51t-48.5 120.5t15 144.5l126 655h-125l26 131h127l105 242h120l-47 -242h200l-26 -131h-200l-125 -645q-12 -60 -12 -95q0 -88 90 -88q42 0 100 14l-19 -133q-99 -24 -178.5 -24z" />
    <glyph glyph-name="u" unicode="u" horiz-adv-x="1139" 
d="M723 0q0 21 28 185h-3q-83 -115 -166.5 -159.5t-215 -44.5t-206 73t-74.5 211q0 64 21 164l127 653h181l-126 -645q-18 -88 -18 -150q0 -167 179 -167q126 0 222 96t128 260l118 606h180l-166 -851q-20 -95 -39 -231h-170z" />
    <glyph glyph-name="v" unicode="v" horiz-adv-x="1024" 
d="M507 0h-213l-182 1082h187l101 -704q9 -68 19 -184l4 -53l26 53q45 94 93 182l384 706h196z" />
    <glyph glyph-name="w" unicode="w" horiz-adv-x="1479" 
d="M816 934q-53 -132 -414 -934h-208l-92 1082h178l40 -735l7 -198l81 190l341 743h193l44 -743q6 -108 6 -190q33 79 421 933h176l-521 -1082h-209l-37 698z" />
    <glyph glyph-name="x" unicode="x" horiz-adv-x="1024" 
d="M706 0l-209 444l-380 -444h-199l492 556l-264 526h189l193 -421l350 421h206l-469 -524l281 -558h-190z" />
    <glyph glyph-name="y" unicode="y" horiz-adv-x="1024" 
d="M-8 -285q95 0 167.5 64t142.5 186l27 47l-217 1070h183l112 -598q39 -208 42 -288q25 54 479 886h199l-626 -1082q-111 -192 -179 -270q-135 -154 -306 -155q-72 0 -132 14l31 134q45 -8 77 -8z" />
    <glyph glyph-name="z" unicode="z" horiz-adv-x="1024" 
d="M-12 0l23 137l742 806h-566l25 139h784l-24 -137l-742 -806h621l-25 -139h-838z" />
    <glyph glyph-name="braceleft" unicode="{" horiz-adv-x="684" 
d="M366 -425q-111 0 -176.5 66.5t-65.5 183.5q0 62 10 117l56 287q9 44 9 77q0 83 -46.5 119.5t-131.5 40.5l25 127q110 4 174 61.5t87 174.5l70 362q28 143 103.5 218t217.5 75h135l-25 -129h-63q-89 0 -137.5 -47t-72.5 -168l-69 -356q-19 -95 -84.5 -162.5t-158.5 -89.5
v-2q69 -17 109.5 -67t40.5 -128q0 -27 -6 -59l-61 -319q-8 -39 -13 -122v-6q0 -56 34.5 -90.5t111.5 -34.5h48l-25 -129h-96z" />
    <glyph glyph-name="bar" unicode="|" horiz-adv-x="532" 
d="M213 -454v1938h166v-1938h-166z" />
    <glyph glyph-name="braceright" unicode="}" horiz-adv-x="684" 
d="M308 1484q111 0 176.5 -66.5t65.5 -183.5q0 -62 -10 -117l-56 -287q-9 -43 -9 -77q0 -83 46.5 -119.5t131.5 -40.5l-25 -127q-110 -4 -174 -61.5t-87 -174.5l-70 -362q-28 -143 -103.5 -218t-217.5 -75h-135l25 129h63q89 0 137.5 47t72.5 168l69 356q19 95 84.5 162.5
t158.5 89.5v2q-69 17 -109.5 67t-40.5 128q0 28 6 59l61 319q8 39 13 122v6q0 56 -34.5 90.5t-111.5 34.5h-48l25 129h96z" />
    <glyph glyph-name="asciitilde" unicode="~" horiz-adv-x="1196" 
d="M1134 633q-114 -80 -252 -80q-77 0 -149.5 21.5t-173.5 57.5t-189 36q-126 0 -248 -88v143q111 84 263 84q102 -1 242 -49t183.5 -58t79.5 -10q130 0 244 92v-149z" />
    <glyph glyph-name="exclamdown" unicode="&#xa1;" horiz-adv-x="682" 
d="M536 1083l-40 -201h-194l40 201h194zM284 686h148l-172 -1012h-196z" />
    <glyph glyph-name="cent" unicode="&#xa2;" horiz-adv-x="1139" 
d="M915 915q-13 202 -223 202q-225 0 -287.5 -214.5t-62.5 -357.5q0 -267 218 -267q205 0 289 230l156 -49q-116 -308 -417 -323l-32 -167h-124l34 173q-149 22 -228.5 128.5t-79.5 261.5t77 431.5t448 293.5l28 152h124l-29 -158q131 -19 204.5 -101t81.5 -210z" />
    <glyph glyph-name="sterling" unicode="&#xa3;" horiz-adv-x="1139" 
d="M1014 1150q-42 132 -226 132q-198 0 -244 -240l-56 -288h408l-25 -129h-408l-27 -147q-20 -111 -82.5 -197t-151.5 -128h464q103 0 167.5 42.5t90.5 138.5l151 -24q-37 -152 -137 -231t-250 -79h-700l29 154q192 91 238 327l28 144h-186l25 129h186l55 280
q77 396 433 396q168 0 263.5 -62.5t118.5 -167.5z" />
    <glyph glyph-name="currency" unicode="&#xa4;" horiz-adv-x="1139" 
d="M319 686q0 -114 81.5 -197t197.5 -83t199 81t83 198t-82.5 199.5t-198.5 82.5t-198 -83.5t-82 -197.5zM165 684q0 138 78 252l-100 100l104 103l99 -101q114 82 252 82t253 -80l97 97l104 -105l-96 -96q80 -118 80 -254t-82 -250l100 -100l-102 -105l-101 101
q-114 -78 -254 -78t-249 80l-105 -105l-102 105l102 102q-78 114 -78 252z" />
    <glyph glyph-name="yen" unicode="&#xa5;" horiz-adv-x="1139" 
d="M745 709h321l-24 -125h-383l-30 -154h383l-25 -127h-383l-59 -303h-178l59 303h-381l25 127h381l32 154h-383l24 125h320l-285 700h193l246 -647l500 647h205z" />
    <glyph glyph-name="brokenbar" unicode="&#xa6;" horiz-adv-x="532" 
d="M213 -455v779h166v-779h-166zM213 707v778h166v-778h-166z" />
    <glyph glyph-name="section" unicode="&#xa7;" horiz-adv-x="1139" 
d="M276 696q0 -76 61.5 -129t212.5 -99q132 5 208.5 55.5t76.5 142.5t-82.5 136t-219.5 84q-117 -6 -187 -60t-70 -130zM102 672q0 224 276 285q-134 85 -134 227t117 221t334 79q346 0 390 -255l-163 -25q-41 149 -234 149q-270 0 -270 -163q0 -55 54 -97.5t222 -96.5
t242 -133.5t74 -189.5q0 -224 -274 -285q132 -83 132 -234t-124 -238.5t-361 -87.5q-171 0 -274 58.5t-143 184.5l147 56q33 -88 102.5 -128t199.5 -40t204 48.5t74 141.5q0 63 -53 106.5t-213 92.5q-325 100 -325 324z" />
    <glyph glyph-name="dieresis" unicode="&#xa8;" horiz-adv-x="682" 
d="M137 1219l35 184h175l-35 -184h-175zM521 1219l35 184h173l-35 -184h-173z" />
    <glyph glyph-name="copyright" unicode="&#xa9;" horiz-adv-x="1509" 
d="M797 383q156 0 233 156l115 -35q-62 -121 -146.5 -173t-201.5 -52q-188 0 -292 112.5t-104 316.5t100 314.5t289 110.5q244 0 340 -209l-114 -33q-64 137 -224 137q-127 0 -194.5 -81t-67.5 -237t71 -241.5t196 -85.5zM1417 706q0 168 -84.5 314t-231.5 230.5t-315 84.5
t-314 -84.5t-230 -230.5t-84 -314t84.5 -314t229 -230t314.5 -84t316.5 84.5t230.5 230t84 313.5zM1509 708q0 -194 -96.5 -362.5t-265 -265t-363.5 -96.5t-364.5 100.5t-263 267t-93.5 357.5t97 359t264.5 265t361.5 97t362.5 -97.5t264.5 -264t96 -360.5z" />
    <glyph glyph-name="ordfeminine" unicode="&#xaa;" horiz-adv-x="758" 
d="M243 879q0 -117 109 -117q89 0 162 62.5t90 147.5l10 52l-139 -4q-123 -3 -177.5 -41.5t-54.5 -99.5zM710 657q-52 0 -88 29.5t-36 78.5l4 40h-4q-66 -85 -131 -119.5t-155 -34.5t-150.5 56t-60.5 151q0 249 364 254l179 4q18 90 18 113q0 102 -127 102q-152 0 -184 -135
l-132 17q58 219 318 219q127 0 196.5 -53.5t69.5 -145.5q0 -39 -10 -84l-53 -275q-6 -31 -6 -53q0 -55 48 -55q20 0 44 8l-15 -104q-37 -13 -89 -13z" />
    <glyph glyph-name="guillemotleft" unicode="&#xab;" horiz-adv-x="1139" 
d="M341 141l-265 365l12 63l408 371h157l-6 -38l-407 -372l265 -367l-5 -22h-159zM818 141l-267 365l12 63l410 371h158l-6 -37l-410 -372l268 -367l-5 -23h-160z" />
    <glyph glyph-name="logicalnot" unicode="&#xac;" horiz-adv-x="1196" 
d="M950 180v428h-850v146h995v-574h-145z" />
    <glyph glyph-name="registered" unicode="&#xae;" horiz-adv-x="1509" 
d="M973 878q0 72 -47.5 108t-128.5 36h-170v-301h182q80 0 122 42.5t42 114.5zM627 625v-336h-127v831h307q142 0 217.5 -63t75.5 -169t-52 -168t-137 -81l221 -350h-145l-199 336h-161zM1417 706q0 168 -84.5 314t-231.5 230.5t-315 84.5t-314 -84.5t-230 -230.5t-84 -314
t84.5 -314t229 -230t314.5 -84t316.5 84.5t230.5 230t84 313.5zM1509 708q0 -194 -96.5 -362.5t-265 -265t-363.5 -96.5t-364.5 100.5t-263 267t-93.5 357.5t97 359t264.5 265t361.5 97t362.5 -97.5t264.5 -264t96 -360.5z" />
    <glyph glyph-name="overscore" unicode="&#xaf;" horiz-adv-x="1131" 
d="M1148 1503h-1165v117h1165v-117z" />
    <glyph glyph-name="degree" unicode="&#xb0;" horiz-adv-x="819" 
d="M661 1146q0 76 -51.5 127.5t-126.5 51.5t-126.5 -53t-51.5 -127t52.5 -127t126.5 -53t125.5 52.5t51.5 128.5zM770 1145q0 -119 -84.5 -202t-202.5 -83t-202.5 84t-84.5 201t83.5 201t203.5 84t203.5 -83t83.5 -202z" />
    <glyph glyph-name="plusminus" unicode="&#xb1;" horiz-adv-x="1124" 
d="M65 0v145h995v-145h-995zM636 680v-395h-147v395h-424v145h424v394h147v-394h424v-145h-424z" />
    <glyph glyph-name="twosuperior" unicode="&#xb2;" horiz-adv-x="682" 
d="M480 1421q119 0 190.5 -59.5t71.5 -141.5t-30.5 -137t-84 -102t-175.5 -118t-172.5 -109.5t-76.5 -77.5h448l-20 -113h-601l18 103q54 87 126 141.5t190 124.5t180 122t62 138q0 51 -34 87t-102 36t-117.5 -39t-63.5 -102l-125 15q59 232 316 232z" />
    <glyph glyph-name="threesuperior" unicode="&#xb3;" horiz-adv-x="682" 
d="M182 801q18 -146 180 -146q80 0 127.5 44.5t47.5 109.5t-44 98t-121 33h-61l21 109h57q97 0 149 41.5t52 101.5q0 123 -128 123q-62 0 -111 -35t-68 -100l-125 25q67 216 319 216q111 0 181 -56.5t70 -146.5q0 -179 -218 -223v-2q73 -13 118 -60.5t45 -115.5
q0 -121 -89 -193.5t-234 -72.5q-261 0 -297 234z" />
    <glyph glyph-name="acute" unicode="&#xb4;" horiz-adv-x="682" 
d="M175 1201l3 20l253 287h217l-5 -29l-374 -278h-94z" />
    <glyph glyph-name="mu1" unicode="&#xb5;" horiz-adv-x="1180" 
d="M448 -20q-126 0 -175 79l-94 -484h-180l293 1507h181l-134 -686q-11 -64 -11 -101q0 -176 162 -176q112 0 194.5 95t110.5 258l118 610h180l-157 -807q-9 -41 -9 -82q0 -72 57 -72q12 0 56 8l-22 -129q-72 -20 -134 -20q-124 0 -125 189h-2q-129 -189 -309 -189z" />
    <glyph glyph-name="paragraph" unicode="&#xb6;" horiz-adv-x="1100" 
d="M948 1307v-1571h-112v1571h-217v-1571h-113v958q-168 0 -265 92t-97 262t98.5 265.5t271.5 95.5h563v-102h-129z" />
    <glyph glyph-name="middot" unicode="&#xb7;" horiz-adv-x="682" 
d="M221 446l43 220h195l-43 -220h-195z" />
    <glyph glyph-name="cedilla" unicode="&#xb8;" horiz-adv-x="682" 
d="M480 -232q0 -193 -303 -193q-50 0 -106 7l21 91q48 -6 114 -6q140 0 140 89q0 72 -119 72q-44 0 -58 -2l101 174h107l-59 -96q81 -5 121.5 -41t40.5 -95z" />
    <glyph glyph-name="onesuperior" unicode="&#xb9;" horiz-adv-x="682" 
d="M61 563l20 107h211l118 609l-229 -138l26 131l237 137h123l-144 -739h215l-21 -107h-556z" />
    <glyph glyph-name="ordmasculine" unicode="&#xba;" horiz-adv-x="748" 
d="M504 1325q-86 0 -140 -47.5t-85 -150.5t-31 -189q0 -180 160 -180q97 0 152 49.5t86.5 157t31.5 195.5t-44 126.5t-130 38.5zM403 651q-145 0 -223.5 78.5t-78.5 220.5q0 59 13 128q68 354 406 354q145 0 223.5 -78.5t78.5 -220.5q0 -59 -13 -128q-68 -354 -406 -354z
" />
    <glyph glyph-name="guillemotright" unicode="&#xbb;" horiz-adv-x="1139" 
d="M165 141h-160l7 39l410 367l-264 372l4 21h158l263 -371l-12 -63zM640 141h-158l7 39l410 367l-264 372l4 21h156l266 -371l-12 -63z" />
    <glyph glyph-name="onequarter" unicode="&#xbc;" horiz-adv-x="1708" 
d="M96 563l20 107h211l118 609l-229 -138l26 131l237 137h123l-144 -739h215l-21 -107h-556zM427 0h-153l1150 1409h154zM1412 714l-108 -135l-245 -287h269l63 322zM1437 179l-35 -178h-131l35 178h-405l21 111l484 557h161l-108 -555h125l-22 -113h-125z" />
    <glyph glyph-name="onehalf" unicode="&#xbd;" horiz-adv-x="1708" 
d="M47 563l20 107h211l118 609l-229 -138l26 131l237 137h123l-144 -739h215l-21 -107h-556zM377 0h-153l1150 1409h154zM1649 658q-1 -82 -31 -137t-84 -102t-175 -118q-123 -71 -173 -109t-76 -78h448l-20 -113h-601l18 103q54 87 153 162q46 34 164 104t158 104
q84 70 83 156q0 51 -34 87q-33 36 -101 36t-118 -39t-64 -102l-125 15q59 232 316 232q119 0 191 -60q72 -59 71 -141z" />
    <glyph glyph-name="threequarters" unicode="&#xbe;" horiz-adv-x="1708" 
d="M265 801q18 -146 180 -146q79 1 127 45t48 109t-44 98t-121 33h-61l21 109h57q97 -1 149 41t52 102q-1 123 -129 123q-62 0 -110 -35t-68 -100l-125 25q67 216 319 216q111 -1 181 -57t70 -146q0 -179 -218 -223v-2q73 -13 118 -61t45 -115q0 -121 -89 -193t-234 -73
q-261 0 -297 234zM427 0h-153l1150 1409h154zM1412 714l-108 -135l-245 -287h269l63 322zM1437 179l-35 -178h-131l35 178h-405l21 111l484 557h161l-108 -555h125l-22 -113h-125z" />
    <glyph glyph-name="questiondown" unicode="&#xbf;" horiz-adv-x="1251" 
d="M899 1083l-39 -201h-195l39 201h195zM65 10q0 237 139.5 323.5t233.5 139.5q178 101 205 233h175q-24 -146 -106 -219t-202 -141t-189 -130.5t-69 -172.5t73 -170t201 -60t219 70t129 192l165 -40q-123 -382 -542 -382q-197 0 -314.5 100t-117.5 257z" />
    <glyph glyph-name="Agrave" unicode="&#xc0;" horiz-adv-x="1366" 
d="M848 1265q-21 -42 -399 -704h527l-102 553zM1079 0l-75 412h-639l-240 -412h-208l848 1409h217l292 -1409h-195zM943 1530l-293 217l5 29h207l173 -226l-3 -20h-89z" />
    <glyph glyph-name="Aacute" unicode="&#xc1;" horiz-adv-x="1366" 
d="M848 1265q-21 -42 -399 -704h527l-102 553zM1079 0l-75 412h-639l-240 -412h-208l848 1409h217l292 -1409h-195zM743 1530l3 20l261 226h207l-5 -29l-352 -217h-114z" />
    <glyph glyph-name="Acircumflex" unicode="&#xc2;" horiz-adv-x="1366" 
d="M848 1265q-21 -42 -399 -704h527l-102 553zM1079 0l-75 412h-639l-240 -412h-208l848 1409h217l292 -1409h-195zM1197 1550l-4 -20h-95l-192 139h-2l-259 -139h-113l4 20l280 240h204z" />
    <glyph glyph-name="Atilde" unicode="&#xc3;" horiz-adv-x="1366" 
d="M848 1265q-21 -42 -399 -704h527l-102 553zM1079 0l-75 412h-639l-240 -412h-208l848 1409h217l292 -1409h-195zM1047 1530q-52 0 -90 20t-72.5 44.5t-66.5 44.5t-70 20q-79 0 -125 -129h-100q47 152 107.5 210t134 58t163.5 -64q34 -24 65 -44.5t61 -20.5q91 0 132 129
h102q-35 -109 -67 -159.5t-77 -79.5t-97 -29z" />
    <glyph glyph-name="Adieresis" unicode="&#xc4;" horiz-adv-x="1366" 
d="M848 1265q-21 -42 -399 -704h527l-102 553zM1079 0l-75 412h-639l-240 -412h-208l848 1409h217l292 -1409h-195zM606 1530l35 184h175l-35 -184h-175zM990 1530l35 184h173l-35 -184h-173z" />
    <glyph glyph-name="Aring" unicode="&#xc5;" horiz-adv-x="1366" 
d="M830 1265q-21 -42 -399 -704h527l-102 553zM616 1537q0 110 71 180t170.5 70t171 -70.5t71.5 -170.5t-71 -171q-23 -23 -50 -39l277 -1336h-195l-75 412h-639l-240 -412h-208l814 1352q-97 75 -97 185zM992 1546.5q0 57.5 -38 95.5t-96.5 38t-96.5 -39.5t-38 -94.5
t38 -96t96.5 -41t96.5 40t38 97.5z" />
    <glyph glyph-name="AE" unicode="&#xc6;" horiz-adv-x="2048" 
d="M1109 1262h-151l-136 -216l-322 -485h473zM863 0l81 412h-543l-279 -412h-203l959 1409h1189l-30 -156h-739l-88 -452h679l-30 -154h-679l-95 -491h780l-31 -156h-971z" />
    <glyph glyph-name="Ccedilla" unicode="&#xc7;" horiz-adv-x="1479" 
d="M713 135q304 0 502 291l143 -89q-126 -188 -275.5 -267t-326.5 -88l-48 -78q81 -5 121.5 -41t40.5 -95q0 -193 -303 -193q-50 0 -106 7l21 91q48 -6 114 -6q140 0 140 89q0 72 -119 72q-44 0 -58 -2l90 155q-149 9 -273 76.5t-193.5 201.5t-69.5 310q0 246 105 445
t291.5 307.5t410 108.5t373 -90.5t197.5 -254.5l-180 -55q-36 112 -139.5 178t-271 66t-307.5 -88.5t-215 -249t-75 -365.5t109 -320.5t302 -115.5z" />
    <glyph glyph-name="Egrave" unicode="&#xc8;" horiz-adv-x="1366" 
d="M63 0l273 1409h1049l-30 -156h-858l-88 -452h798l-30 -154h-798l-95 -491h899l-30 -156h-1090zM937 1530l-293 217l5 29h207l173 -226l-3 -20h-89z" />
    <glyph glyph-name="Eacute" unicode="&#xc9;" horiz-adv-x="1366" 
d="M63 0l273 1409h1049l-30 -156h-858l-88 -452h798l-30 -154h-798l-95 -491h899l-30 -156h-1090zM727 1530l3 20l261 226h207l-5 -29l-352 -217h-114z" />
    <glyph glyph-name="Ecircumflex" unicode="&#xca;" horiz-adv-x="1366" 
d="M63 0l273 1409h1049l-30 -156h-858l-88 -452h798l-30 -154h-798l-95 -491h899l-30 -156h-1090zM1206 1550l-4 -20h-95l-192 139h-2l-259 -139h-113l4 20l280 240h204z" />
    <glyph glyph-name="Edieresis" unicode="&#xcb;" horiz-adv-x="1366" 
d="M63 0l273 1409h1049l-30 -156h-858l-88 -452h798l-30 -154h-798l-95 -491h899l-30 -156h-1090zM593 1530l35 184h175l-35 -184h-175zM977 1530l35 184h173l-35 -184h-173z" />
    <glyph glyph-name="Igrave" unicode="&#xcc;" horiz-adv-x="569" 
d="M81 0l274 1409h191l-274 -1409h-191zM504 1530l-293 217l5 29h207l173 -226l-3 -20h-89z" />
    <glyph glyph-name="Iacute" unicode="&#xcd;" horiz-adv-x="569" 
d="M81 0l274 1409h191l-274 -1409h-191zM365 1530l3 20l261 226h207l-5 -29l-352 -217h-114z" />
    <glyph glyph-name="Icircumflex" unicode="&#xce;" horiz-adv-x="569" 
d="M81 0l274 1409h191l-274 -1409h-191zM794 1550l-4 -20h-95l-192 139h-2l-259 -139h-113l4 20l280 240h204z" />
    <glyph glyph-name="Idieresis" unicode="&#xcf;" horiz-adv-x="569" 
d="M81 0l274 1409h191l-274 -1409h-191zM187 1530l35 184h175l-35 -184h-175zM571 1530l35 184h173l-35 -184h-173z" />
    <glyph glyph-name="Eth" unicode="&#xd0;" horiz-adv-x="1479" 
d="M587 153q195 0 344 77.5t228.5 223t79.5 352t-126 328.5t-353 122h-262l-89 -455h406l-30 -154h-406l-96 -494h304zM764 1409q312 0 490.5 -164.5t178.5 -453.5q0 -234 -98.5 -412.5t-289 -278.5t-433.5 -100h-549l125 647h-154l30 154h154l118 608h428z" />
    <glyph glyph-name="Ntilde" unicode="&#xd1;" horiz-adv-x="1479" 
d="M987 0l-531 1210q-22 -171 -42 -267l-181 -943h-170l273 1409h212l534 -1215q26 189 45 284l181 931h172l-273 -1409h-220zM1095 1530q-52 0 -90 20t-72.5 44.5t-66.5 44.5t-70 20q-79 0 -125 -129h-100q47 152 107.5 210t134 58t163.5 -64q34 -24 65 -44.5t61 -20.5
q91 0 132 129h102q-35 -109 -67 -159.5t-77 -79.5t-97 -29z" />
    <glyph glyph-name="Ograve" unicode="&#xd2;" horiz-adv-x="1593" 
d="M928.5 1276q-199.5 0 -339 -89t-213.5 -266t-74 -372t106.5 -304.5t306.5 -109.5t338.5 86.5t215 259.5t76.5 373t-108.5 311t-308 111zM957.5 1430q257.5 0 418 -157t160.5 -422q-5 -268 -112 -463.5t-293 -301.5t-422 -106q-284 0 -441 157.5t-157 416t105.5 459
t294.5 309t446.5 108.5zM970 1530l-293 217l5 29h207l173 -226l-3 -20h-89z" />
    <glyph glyph-name="Oacute" unicode="&#xd3;" horiz-adv-x="1593" 
d="M928.5 1276q-199.5 0 -339 -89t-213.5 -266t-74 -372t106.5 -304.5t306.5 -109.5t338.5 86.5t215 259.5t76.5 373t-108.5 311t-308 111zM957.5 1430q257.5 0 418 -157t160.5 -422q-5 -268 -112 -463.5t-293 -301.5t-422 -106q-284 0 -441 157.5t-157 416t105.5 459
t294.5 309t446.5 108.5zM817 1530l3 20l261 226h207l-5 -29l-352 -217h-114z" />
    <glyph glyph-name="Ocircumflex" unicode="&#xd4;" horiz-adv-x="1593" 
d="M928.5 1276q-199.5 0 -339 -89t-213.5 -266t-74 -372t106.5 -304.5t306.5 -109.5t338.5 86.5t215 259.5t76.5 373t-108.5 311t-308 111zM957.5 1430q257.5 0 418 -157t160.5 -422q-5 -268 -112 -463.5t-293 -301.5t-422 -106q-284 0 -441 157.5t-157 416t105.5 459
t294.5 309t446.5 108.5zM1265 1550l-4 -20h-95l-192 139h-2l-259 -139h-113l4 20l280 240h204z" />
    <glyph glyph-name="Otilde" unicode="&#xd5;" horiz-adv-x="1593" 
d="M928.5 1276q-199.5 0 -339 -89t-213.5 -266t-74 -372t106.5 -304.5t306.5 -109.5t338.5 86.5t215 259.5t76.5 373t-108.5 311t-308 111zM957.5 1430q257.5 0 418 -157t160.5 -422q-5 -268 -112 -463.5t-293 -301.5t-422 -106q-284 0 -441 157.5t-157 416t105.5 459
t294.5 309t446.5 108.5zM1146 1530q-52 0 -90 20t-72.5 44.5t-66 44.5t-69.5 20q-79 0 -126 -129h-100q47 152 107.5 210t134 58t163.5 -64q34 -24 65 -44.5t61 -20.5q91 0 132 129h102q-35 -109 -67 -159.5t-77 -79.5t-97 -29z" />
    <glyph glyph-name="Odieresis" unicode="&#xd6;" horiz-adv-x="1593" 
d="M928.5 1276q-199.5 0 -339 -89t-213.5 -266t-74 -372t106.5 -304.5t306.5 -109.5t338.5 86.5t215 259.5t76.5 373t-108.5 311t-308 111zM957.5 1430q257.5 0 418 -157t160.5 -422q-5 -268 -112 -463.5t-293 -301.5t-422 -106q-284 0 -441 157.5t-157 416t105.5 459
t294.5 309t446.5 108.5zM664 1530l35 184h175l-35 -184h-175zM1048 1530l35 184h173l-35 -184h-173z" />
    <glyph glyph-name="multiply" unicode="&#xd7;" horiz-adv-x="1196" 
d="M172 330l354 354l-352 352l104 103l350 -353l350 351l105 -105l-350 -348l352 -352l-102 -105l-353 353l-356 -355z" />
    <glyph glyph-name="Oslash" unicode="&#xd8;" horiz-adv-x="1593" 
d="M1335 817q0 163 -46 257l-870 -848q105 -91 295.5 -91t329 86.5t215 259.5t76.5 336zM909 1276q-190 0 -329.5 -89t-213.5 -266t-74 -335.5t46 -253.5l870 850q-109 94 -299 94zM691 -20q-244 0 -397 124l-161 -157h-189l260 254q-103 149 -103 380t105.5 431.5
t294.5 309t432 108.5t399 -127l167 163h192l-268 -261q103 -145 103 -354q-5 -268 -112 -463.5t-293 -301.5t-430 -106z" />
    <glyph glyph-name="Ugrave" unicode="&#xd9;" horiz-adv-x="1479" 
d="M675 -20q-254 0 -388 120.5t-134 330.5q0 98 23 204l150 774h191l-162 -843q-17 -87 -17 -143q0 -136 87.5 -212t244.5 -76q384 0 461 406l168 868h190l-170 -879q-54 -273 -222 -411.5t-422 -138.5zM982 1530l-293 217l5 29h207l173 -226l-3 -20h-89z" />
    <glyph glyph-name="Uacute" unicode="&#xda;" horiz-adv-x="1479" 
d="M675 -20q-254 0 -388 120.5t-134 330.5q0 98 23 204l150 774h191l-162 -843q-17 -87 -17 -143q0 -136 87.5 -212t244.5 -76q384 0 461 406l168 868h190l-170 -879q-54 -273 -222 -411.5t-422 -138.5zM776 1530l3 20l261 226h207l-5 -29l-352 -217h-114z" />
    <glyph glyph-name="Ucircumflex" unicode="&#xdb;" horiz-adv-x="1479" 
d="M675 -20q-254 0 -388 120.5t-134 330.5q0 98 23 204l150 774h191l-162 -843q-17 -87 -17 -143q0 -136 87.5 -212t244.5 -76q384 0 461 406l168 868h190l-170 -879q-54 -273 -222 -411.5t-422 -138.5zM1249 1550l-4 -20h-95l-192 139h-2l-259 -139h-113l4 20l280 240h204z
" />
    <glyph glyph-name="Udieresis" unicode="&#xdc;" horiz-adv-x="1479" 
d="M675 -20q-254 0 -388 120.5t-134 330.5q0 98 23 204l150 774h191l-162 -843q-17 -87 -17 -143q0 -136 87.5 -212t244.5 -76q384 0 461 406l168 868h190l-170 -879q-54 -273 -222 -411.5t-422 -138.5zM634 1530l35 184h175l-35 -184h-175zM1018 1530l35 184h173l-35 -184
h-173z" />
    <glyph glyph-name="Yacute" unicode="&#xdd;" horiz-adv-x="1366" 
d="M672 0h-190l115 584l-384 825h196l306 -674l560 674h214l-704 -825zM702 1530l3 20l261 226h207l-5 -29l-352 -217h-114z" />
    <glyph glyph-name="Thorn" unicode="&#xde;" horiz-adv-x="1366" 
d="M731 448q382 0 382 311q0 119 -79 182t-233 63h-349l-108 -556h387zM806 1157q237 0 369 -102t132 -287q0 -220 -152.5 -345.5t-416.5 -125.5h-424l-60 -297h-191l274 1409h191l-49 -252h327z" />
    <glyph glyph-name="germandbls" unicode="&#xdf;" horiz-adv-x="1251" 
d="M740 1484q198 0 305 -81t107 -207q0 -151 -155 -256q-96 -65 -125.5 -96t-29.5 -69t31 -80.5t110 -115.5q140 -131 140 -280.5t-108 -238.5t-295.5 -89t-302.5 55l56 143q116 -54 236 -54t179 49.5t59 140.5q0 55 -32 107q-31 52 -105 116q-140 121 -140 228
q0 144 153 235q82 48 117 92.5t35 108t-60 107.5t-162 44q-145 0 -227 -79.5t-114 -242.5l-198 -1021h-180l200 1027q90 457 506 457z" />
    <glyph glyph-name="agrave" unicode="&#xe0;" horiz-adv-x="1139" 
d="M243 280q0 -68 48.5 -115.5t135.5 -47.5t165 41.5t129 108.5t67 144l27 125l-199 -4q-209 -5 -291 -67t-82 -185zM858 787q0 178 -200 178q-119 0 -180 -42.5t-88 -129.5l-178 29q45 147 156.5 213.5t291 66.5t279 -80t99.5 -215q0 -64 -19 -157l-74 -378
q-11 -48 -11 -88q0 -73 81 -73q27 0 60 7l-14 -112q-66 -16 -128 -16q-178 0 -178 153l5 64h-6q-83 -126 -172 -176.5t-222 -50.5t-220.5 84t-87.5 214q0 185 132.5 280t422.5 99l232 3q19 98 19 127zM753 1201l-282 278l5 29h207l161 -287l-3 -20h-88z" />
    <glyph glyph-name="aacute" unicode="&#xe1;" horiz-adv-x="1139" 
d="M243 280q0 -68 48.5 -115.5t135.5 -47.5t165 41.5t129 108.5t67 144l27 125l-199 -4q-209 -5 -291 -67t-82 -185zM858 787q0 178 -200 178q-119 0 -180 -42.5t-88 -129.5l-178 29q45 147 156.5 213.5t291 66.5t279 -80t99.5 -215q0 -64 -19 -157l-74 -378
q-11 -48 -11 -88q0 -73 81 -73q27 0 60 7l-14 -112q-66 -16 -128 -16q-178 0 -178 153l5 64h-6q-83 -126 -172 -176.5t-222 -50.5t-220.5 84t-87.5 214q0 185 132.5 280t422.5 99l232 3q19 98 19 127zM540 1201l3 20l253 287h217l-5 -29l-374 -278h-94z" />
    <glyph glyph-name="acircumflex" unicode="&#xe2;" horiz-adv-x="1139" 
d="M243 280q0 -68 48.5 -115.5t135.5 -47.5t165 41.5t129 108.5t67 144l27 125l-199 -4q-209 -5 -291 -67t-82 -185zM858 787q0 178 -200 178q-119 0 -180 -42.5t-88 -129.5l-178 29q45 147 156.5 213.5t291 66.5t279 -80t99.5 -215q0 -64 -19 -157l-74 -378
q-11 -48 -11 -88q0 -73 81 -73q27 0 60 7l-14 -112q-66 -16 -128 -16q-178 0 -178 153l5 64h-6q-83 -126 -172 -176.5t-222 -50.5t-220.5 84t-87.5 214q0 185 132.5 280t422.5 99l232 3q19 98 19 127zM1007 1221l-4 -20h-92l-186 169h-2l-265 -169h-116l4 20l286 270h204z
" />
    <glyph glyph-name="atilde" unicode="&#xe3;" horiz-adv-x="1139" 
d="M243 280q0 -68 48.5 -115.5t135.5 -47.5t165 41.5t129 108.5t67 144l27 125l-199 -4q-209 -5 -291 -67t-82 -185zM858 787q0 178 -200 178q-119 0 -180 -42.5t-88 -129.5l-178 29q45 147 156.5 213.5t291 66.5t279 -80t99.5 -215q0 -64 -19 -157l-74 -378
q-11 -48 -11 -88q0 -73 81 -73q27 0 60 7l-14 -112q-66 -16 -128 -16q-178 0 -178 153l5 64h-6q-83 -126 -172 -176.5t-222 -50.5t-220.5 84t-87.5 214q0 185 132.5 280t422.5 99l232 3q19 98 19 127zM853 1201q-52 0 -90 18.5t-72.5 41t-66.5 41t-63 18.5q-100 0 -142 -119
h-90q47 152 107.5 210t133.5 58q72 1 164 -59q34 -22 65.5 -41t61.5 -19q101 0 141 119h92q-35 -109 -67 -159.5t-77 -79.5t-97 -29z" />
    <glyph glyph-name="adieresis" unicode="&#xe4;" horiz-adv-x="1139" 
d="M243 280q0 -68 48.5 -115.5t135.5 -47.5t165 41.5t129 108.5t67 144l27 125l-199 -4q-209 -5 -291 -67t-82 -185zM858 787q0 178 -200 178q-119 0 -180 -42.5t-88 -129.5l-178 29q45 147 156.5 213.5t291 66.5t279 -80t99.5 -215q0 -64 -19 -157l-74 -378
q-11 -48 -11 -88q0 -73 81 -73q27 0 60 7l-14 -112q-66 -16 -128 -16q-178 0 -178 153l5 64h-6q-83 -126 -172 -176.5t-222 -50.5t-220.5 84t-87.5 214q0 185 132.5 280t422.5 99l232 3q19 98 19 127zM403 1219l35 184h175l-35 -184h-175zM787 1219l35 184h173l-35 -184
h-173z" />
    <glyph glyph-name="aring" unicode="&#xe5;" horiz-adv-x="1139" 
d="M243 280q0 -68 48.5 -115.5t135.5 -47.5t165 41.5t129 108.5t67 144l27 125l-199 -4q-209 -5 -291 -67t-82 -185zM858 787q0 178 -200 178q-119 0 -180 -42.5t-88 -129.5l-178 29q45 147 156.5 213.5t291 66.5t279 -80t99.5 -215q0 -64 -19 -157l-74 -378
q-11 -48 -11 -88q0 -73 81 -73q27 0 60 7l-14 -112q-66 -16 -128 -16q-178 0 -178 153l5 64h-6q-83 -126 -172 -176.5t-222 -50.5t-220.5 84t-87.5 214q0 185 132.5 280t422.5 99l232 3q19 98 19 127zM867 1410.5q0 57.5 -38 95.5t-96.5 38t-96.5 -39.5t-38 -94.5t38 -96
t96.5 -41t96.5 40t38 97.5zM975 1410q0 -100 -71 -171t-171 -71t-171 71t-71 171.5t71 170.5t170.5 70t171 -70.5t71.5 -170.5z" />
    <glyph glyph-name="ae" unicode="&#xe6;" horiz-adv-x="1821" 
d="M1332 969q-117 0 -201 -85t-118 -243h550l4 72q0 124 -59 190t-176 66zM223 287q0 -78 46.5 -124t136 -46t175 44.5t143 121t73.5 162.5l17 89l-206 -4q-147 -4 -227.5 -31t-119 -80.5t-38.5 -131.5zM1746 708q0 -107 -23 -205h-734q-6 -35 -7.5 -140.5t60 -176.5
t182.5 -71q182 0 272 179l138 -63q-71 -132 -177 -191.5t-256 -59.5t-245 70t-130 198q-187 -268 -479 -268q-95 0 -166.5 38t-110 106.5t-38.5 153.5q0 185 135.5 279.5t433.5 99.5l238 3q19 98 19 127q0 178 -208 178q-124 0 -187.5 -42t-92.5 -130l-178 29
q47 147 162.5 213.5t324 66.5t311.5 -158q124 158 332 158t316 -104t108 -290z" />
    <glyph glyph-name="ccedilla" unicode="&#xe7;" horiz-adv-x="1024" 
d="M824 759q-12 202 -222 202q-225 0 -308 -282q-43 -147 -43 -290q0 -267 218 -267q205 0 289 230l156 -49q-115 -306 -415 -322l-47 -77q81 -5 121.5 -41t40.5 -95q0 -193 -303 -193q-50 0 -106 7l21 91q48 -6 114 -6q140 0 140 89q0 72 -119 72q-44 0 -58 -2l92 158
q-141 17 -225 105q-103 109 -103 307.5t72.5 370.5t192 253.5t291 81.5t270 -85t108.5 -233z" />
    <glyph glyph-name="egrave" unicode="&#xe8;" horiz-adv-x="1139" 
d="M627.5 969q-127.5 0 -219 -85.5t-128.5 -242.5h600l4 72q0 124 -64.5 190t-192 66zM514 115q97 0 176 48t123 131l138 -63q-73 -131 -185.5 -191t-272.5 -60q-201 0 -312.5 111.5t-111.5 313t71 361t200 248t312 88.5t297 -103t114 -291q0 -105 -24 -205h-783
q-6 -35 -9 -113q0 -275 267 -275zM710 1201l-282 278l5 29h207l161 -287l-3 -20h-88z" />
    <glyph glyph-name="eacute" unicode="&#xe9;" horiz-adv-x="1139" 
d="M627.5 969q-127.5 0 -219 -85.5t-128.5 -242.5h600l4 72q0 124 -64.5 190t-192 66zM514 115q97 0 176 48t123 131l138 -63q-73 -131 -185.5 -191t-272.5 -60q-201 0 -312.5 111.5t-111.5 313t71 361t200 248t312 88.5t297 -103t114 -291q0 -105 -24 -205h-783
q-6 -35 -9 -113q0 -275 267 -275zM533 1201l3 20l253 287h217l-5 -29l-374 -278h-94z" />
    <glyph glyph-name="ecircumflex" unicode="&#xea;" horiz-adv-x="1139" 
d="M627.5 969q-127.5 0 -219 -85.5t-128.5 -242.5h600l4 72q0 124 -64.5 190t-192 66zM514 115q97 0 176 48t123 131l138 -63q-73 -131 -185.5 -191t-272.5 -60q-201 0 -312.5 111.5t-111.5 313t71 361t200 248t312 88.5t297 -103t114 -291q0 -105 -24 -205h-783
q-6 -35 -9 -113q0 -275 267 -275zM1000 1221l-4 -20h-92l-186 169h-2l-265 -169h-116l4 20l286 270h204z" />
    <glyph glyph-name="edieresis" unicode="&#xeb;" horiz-adv-x="1139" 
d="M627.5 969q-127.5 0 -219 -85.5t-128.5 -242.5h600l4 72q0 124 -64.5 190t-192 66zM514 115q97 0 176 48t123 131l138 -63q-73 -131 -185.5 -191t-272.5 -60q-201 0 -312.5 111.5t-111.5 313t71 361t200 248t312 88.5t297 -103t114 -291q0 -105 -24 -205h-783
q-6 -35 -9 -113q0 -275 267 -275zM378 1219l35 184h175l-35 -184h-175zM762 1219l35 184h173l-35 -184h-173z" />
    <glyph glyph-name="igrave" unicode="&#xec;" horiz-adv-x="569" 
d="M89 0l210 1082h180l-211 -1082h-179zM408 1201l-282 278l5 29h207l161 -287l-3 -20h-88z" />
    <glyph glyph-name="iacute" unicode="&#xed;" horiz-adv-x="569" 
d="M89 0l210 1082h180l-211 -1082h-179zM262 1201l3 20l253 287h217l-5 -29l-374 -278h-94z" />
    <glyph glyph-name="icircumflex" unicode="&#xee;" horiz-adv-x="569" 
d="M89 0l210 1082h180l-211 -1082h-179zM723 1221l-4 -20h-92l-186 169h-2l-265 -169h-116l4 20l286 270h204z" />
    <glyph glyph-name="idieresis" unicode="&#xef;" horiz-adv-x="569" 
d="M89 0l210 1082h180l-211 -1082h-179zM130 1219l35 184h175l-35 -184h-175zM514 1219l35 184h173l-35 -184h-173z" />
    <glyph glyph-name="eth" unicode="&#xf0;" horiz-adv-x="1139" 
d="M579.5 846q-96.5 0 -172.5 -56t-116 -173.5t-40 -238t63 -190.5t168.5 -70t170.5 34t109.5 104.5t70.5 183.5t26 181.5t-32.5 117.5t-91.5 78t-155.5 29zM1054 705q0 -187 -64.5 -368t-184.5 -266.5t-316.5 -85.5t-309 113t-112.5 289q1 175 65 313q131 279 473 279
q79 0 151.5 -29.5t107.5 -75.5q-39 230 -166 375l-273 -113l21 120l179 72q-96 90 -195 156h176q77 -39 156 -102l263 102l-19 -108l-169 -67q117 -139 167 -278t50 -326z" />
    <glyph glyph-name="ntilde" unicode="&#xf1;" horiz-adv-x="1139" 
d="M409 1082q0 -21 -28 -185h3q83 115 166.5 159.5t215 44.5t206 -73t74.5 -211q0 -64 -21 -164l-127 -653h-181l126 645q18 88 18 150q0 167 -179 167q-126 0 -222 -96t-128 -260l-118 -606h-180l166 851q20 95 39 231h170zM854 1201q-52 0 -90 18.5t-72.5 41t-66.5 41
t-63 18.5q-100 0 -142 -119h-90q47 152 107.5 210t133.5 58q73 1 165 -59q34 -22 65 -41t61 -19q101 0 141 119h92q-35 -109 -67 -159.5t-77 -79.5t-97 -29z" />
    <glyph glyph-name="ograve" unicode="&#xf2;" horiz-adv-x="1139" 
d="M646 969q-135 0 -216.5 -69.5t-126.5 -210.5t-45 -281t64 -217.5t176.5 -77.5t175 34.5t109.5 108.5q100 157 111 427q0 286 -248 286zM1080 683q0 -131 -40 -271q-123 -433 -543 -432q-196 0 -310 118t-112 321.5t72 361.5q142 320 501 320q210 0 321 -109.5t111 -308.5
zM720 1201l-282 278l5 29h207l161 -287l-3 -20h-88z" />
    <glyph glyph-name="oacute" unicode="&#xf3;" horiz-adv-x="1139" 
d="M646 969q-135 0 -216.5 -69.5t-126.5 -210.5t-45 -281t64 -217.5t176.5 -77.5t175 34.5t109.5 108.5q100 157 111 427q0 286 -248 286zM1080 683q0 -131 -40 -271q-123 -433 -543 -432q-196 0 -310 118t-112 321.5t72 361.5q142 320 501 320q210 0 321 -109.5t111 -308.5
zM533 1201l3 20l253 287h217l-5 -29l-374 -278h-94z" />
    <glyph glyph-name="ocircumflex" unicode="&#xf4;" horiz-adv-x="1139" 
d="M646 969q-135 0 -216.5 -69.5t-126.5 -210.5t-45 -281t64 -217.5t176.5 -77.5t175 34.5t109.5 108.5q100 157 111 427q0 286 -248 286zM1080 683q0 -131 -40 -271q-123 -433 -543 -432q-196 0 -310 118t-112 321.5t72 361.5q142 320 501 320q210 0 321 -109.5t111 -308.5
zM1009 1221l-4 -20h-92l-186 169h-2l-265 -169h-116l4 20l286 270h204z" />
    <glyph glyph-name="otilde" unicode="&#xf5;" horiz-adv-x="1139" 
d="M646 969q-135 0 -216.5 -69.5t-126.5 -210.5t-45 -281t64 -217.5t176.5 -77.5t175 34.5t109.5 108.5q100 157 111 427q0 286 -248 286zM1080 683q0 -131 -40 -271q-123 -433 -543 -432q-196 0 -310 118t-112 321.5t72 361.5q142 320 501 320q210 0 321 -109.5t111 -308.5
zM824 1201q-52 0 -90 18.5t-72.5 41t-66.5 41t-63 18.5q-100 0 -142 -119h-90q47 152 107.5 210t133.5 58q73 1 165 -59q34 -22 65 -41t61 -19q101 0 141 119h92q-35 -109 -67 -159.5t-77 -79.5t-97 -29z" />
    <glyph glyph-name="odieresis" unicode="&#xf6;" horiz-adv-x="1139" 
d="M646 969q-135 0 -216.5 -69.5t-126.5 -210.5t-45 -281t64 -217.5t176.5 -77.5t175 34.5t109.5 108.5q100 157 111 427q0 286 -248 286zM1080 683q0 -131 -40 -271q-123 -433 -543 -432q-196 0 -310 118t-112 321.5t72 361.5q142 320 501 320q210 0 321 -109.5t111 -308.5
zM390 1219l35 184h175l-35 -184h-175zM774 1219l35 184h173l-35 -184h-173z" />
    <glyph glyph-name="divide" unicode="&#xf7;" horiz-adv-x="1124" 
d="M495 223v183h168v-183h-168zM82 608v146h995v-146h-995zM495 958v183h168v-183h-168z" />
    <glyph glyph-name="oslash" unicode="&#xf8;" horiz-adv-x="1251" 
d="M575.5 118q120.5 0 198 66.5t122 202t50.5 296.5q0 66 -14 117l-540 -627q63 -55 183.5 -55zM310 445.5q0 -102.5 15 -156.5l540 627q-63 53 -182.5 53t-201 -69.5t-126.5 -210.5t-45 -243.5zM689.5 1101q172.5 0 277.5 -67l70 82h167l-146 -169q74 -103 74 -264
q0 -106 -26 -216q-110 -482 -557 -482q-154 0 -258 71l-80 -94h-167l157 183q-76 109 -76 274q4 204 74 362t194 239t296.5 81z" />
    <glyph glyph-name="ugrave" unicode="&#xf9;" horiz-adv-x="1139" 
d="M723 0q0 21 28 185h-3q-83 -115 -166.5 -159.5t-215 -44.5t-206 73t-74.5 211q0 64 21 164l127 653h181l-126 -645q-18 -88 -18 -150q0 -167 179 -167q126 0 222 96t128 260l118 606h180l-166 -851q-20 -95 -39 -231h-170zM734 1201l-282 278l5 29h207l161 -287l-3 -20
h-88z" />
    <glyph glyph-name="uacute" unicode="&#xfa;" horiz-adv-x="1139" 
d="M723 0q0 21 28 185h-3q-83 -115 -166.5 -159.5t-215 -44.5t-206 73t-74.5 211q0 64 21 164l127 653h181l-126 -645q-18 -88 -18 -150q0 -167 179 -167q126 0 222 96t128 260l118 606h180l-166 -851q-20 -95 -39 -231h-170zM541 1201l3 20l253 287h217l-5 -29l-374 -278
h-94z" />
    <glyph glyph-name="ucircumflex" unicode="&#xfb;" horiz-adv-x="1139" 
d="M723 0q0 21 28 185h-3q-83 -115 -166.5 -159.5t-215 -44.5t-206 73t-74.5 211q0 64 21 164l127 653h181l-126 -645q-18 -88 -18 -150q0 -167 179 -167q126 0 222 96t128 260l118 606h180l-166 -851q-20 -95 -39 -231h-170zM1021 1221l-4 -20h-92l-186 169h-2l-265 -169
h-116l4 20l286 270h204z" />
    <glyph glyph-name="udieresis" unicode="&#xfc;" horiz-adv-x="1139" 
d="M723 0q0 21 28 185h-3q-83 -115 -166.5 -159.5t-215 -44.5t-206 73t-74.5 211q0 64 21 164l127 653h181l-126 -645q-18 -88 -18 -150q0 -167 179 -167q126 0 222 96t128 260l118 606h180l-166 -851q-20 -95 -39 -231h-170zM410 1219l35 184h175l-35 -184h-175zM794 1219
l35 184h173l-35 -184h-173z" />
    <glyph glyph-name="yacute" unicode="&#xfd;" horiz-adv-x="1024" 
d="M-8 -285q95 0 167.5 64t142.5 186l27 47l-217 1070h183l112 -598q39 -208 42 -288q25 54 479 886h199l-626 -1082q-111 -192 -179 -270q-135 -154 -306 -155q-72 0 -132 14l31 134q45 -8 77 -8zM503 1201l3 20l253 287h217l-5 -29l-374 -278h-94z" />
    <glyph glyph-name="thorn" unicode="&#xfe;" horiz-adv-x="1139" 
d="M885 716q-1 247 -195 247q-193 -1 -290 -163q-49 -82 -77 -204t-28 -233t63.5 -180.5t182 -69.5t190.5 75.5t113 240t41 287.5zM554 -20q-243 0 -310 198h-5q-10 -86 -29 -180l-82 -423h-179l371 1909h180l-83 -423q-8 -46 -34 -140h4q73 95 154 138t200 43
q157 0 244.5 -94.5t87.5 -278.5t-61.5 -374.5t-173 -282.5t-284.5 -92z" />
    <glyph glyph-name="ydieresis" unicode="&#xff;" horiz-adv-x="1024" 
d="M-8 -285q95 0 167.5 64t142.5 186l27 47l-217 1070h183l112 -598q39 -208 42 -288q25 54 479 886h199l-626 -1082q-111 -192 -179 -270q-135 -154 -306 -155q-72 0 -132 14l31 134q45 -8 77 -8zM354 1219l35 184h175l-35 -184h-175zM738 1219l35 184h173l-35 -184h-173z
" />
    <glyph glyph-name="Amacron" unicode="&#x100;" horiz-adv-x="1366" 
d="M830 1265q-21 -42 -399 -704h527l-102 553zM1061 0l-75 412h-639l-240 -412h-208l848 1409h217l292 -1409h-195zM1127 1570h-550l26 127h550z" />
    <glyph glyph-name="amacron" unicode="&#x101;" horiz-adv-x="1139" 
d="M237 280q0 -68 48.5 -115.5t135.5 -47.5t165 41.5t129 108.5t67 144l27 125l-199 -4q-209 -5 -291 -67t-82 -185zM852 787q0 178 -200 178q-119 0 -180 -42.5t-88 -129.5l-178 29q45 147 156.5 213.5t291 66.5t279 -80t99.5 -215q0 -64 -19 -157l-74 -378
q-11 -48 -11 -88q0 -73 81 -73q27 0 60 7l-14 -112q-66 -16 -128 -16q-178 0 -178 153l5 64h-6q-83 -126 -172 -176.5t-222 -50.5t-220.5 84t-87.5 214q0 185 132.5 280t422.5 99l232 3q19 98 19 127zM959 1236h-550l26 127h550z" />
    <glyph glyph-name="Abreve" unicode="&#x102;" horiz-adv-x="1366" 
d="M830 1265q-21 -42 -399 -704h527l-102 553zM1061 0l-75 412h-639l-240 -412h-208l848 1409h217l292 -1409h-195zM867.5 1520q-129.5 0 -210 69t-82.5 180h116q6 -113 187 -113t245 114h117q-52 -122 -147.5 -186t-225 -64z" />
    <glyph glyph-name="abreve" unicode="&#x103;" horiz-adv-x="1139" 
d="M237 280q0 -68 48.5 -115.5t135.5 -47.5t165 41.5t129 108.5t67 144l27 125l-199 -4q-209 -5 -291 -67t-82 -185zM852 787q0 178 -200 178q-119 0 -180 -42.5t-88 -129.5l-178 29q45 147 156.5 213.5t291 66.5t279 -80t99.5 -215q0 -64 -19 -157l-74 -378
q-11 -48 -11 -88q0 -73 81 -73q27 0 60 7l-14 -112q-66 -16 -128 -16q-178 0 -178 153l5 64h-6q-83 -126 -172 -176.5t-222 -50.5t-220.5 84t-87.5 214q0 185 132.5 280t422.5 99l232 3q19 98 19 127zM696 1347q181 0 245 163h117q-51 -148 -146.5 -228.5t-225.5 -80.5
t-210.5 85.5t-82.5 223.5h116q6 -163 187 -163z" />
    <glyph glyph-name="Aogonek" unicode="&#x104;" horiz-adv-x="1366" 
d="M830 1265q-21 -42 -399 -704h527l-102 553zM1002 -222q0 -96 78 -95q54 0 114 22l-15 -105q-67 -27 -149.5 -27t-127.5 47t-45 125.5t57 149t147 105.5l-75 412h-639l-240 -412h-208l848 1409h217l292 -1409h-61q-93 -48 -143 -111t-50 -111z" />
    <glyph glyph-name="aogonek" unicode="&#x105;" horiz-adv-x="1139" 
d="M237 280q0 -68 48.5 -115.5t135.5 -47.5t165 41.5t129 108.5t67 144l27 125l-199 -4q-209 -5 -291 -67t-82 -185zM852 787q0 178 -200 178q-119 0 -180 -42.5t-88 -129.5l-178 29q45 147 156.5 213.5t291 66.5t279 -80t99.5 -215q0 -64 -19 -157l-74 -378
q-11 -48 -11 -88q0 -73 81 -73q27 0 60 7l-14 -112q-66 -16 -97 -16h-32q-67 -41 -112 -97q-45 -57 -45 -105q0 -96 78 -95q54 0 114 22l-15 -105q-67 -27 -149.5 -27t-127.5 47t-45 125.5t56 148t144 104.5q-75 33 -75 135l5 64h-6q-83 -126 -172 -176.5t-222 -50.5
t-220.5 84t-87.5 214q0 185 132.5 280t422.5 99l232 3q19 98 19 127z" />
    <glyph glyph-name="Cacute" unicode="&#x106;" horiz-adv-x="1479" 
d="M713 135q304 0 502 291l143 -89q-126 -188 -286 -272.5t-356.5 -84.5t-330 72.5t-203 206.5t-69.5 310q0 246 105 445t291.5 307.5t410 108.5t373 -90.5t197.5 -254.5l-180 -55q-36 112 -139.5 178t-271 66t-307.5 -88.5t-215 -249t-75 -365.5t109 -320.5t302 -115.5z
M863 1530l3 20l261 226h207l-5 -29l-352 -217h-114z" />
    <glyph glyph-name="cacute" unicode="&#x107;" horiz-adv-x="1024" 
d="M824 759q-12 202 -222 202q-225 0 -308 -282q-43 -147 -43 -290q0 -267 218 -267q205 0 289 230l156 -49q-121 -323 -449 -323q-192 0 -295 109t-103 307.5t72.5 370.5t192 253.5t291 81.5t270 -85t108.5 -233zM534 1201l3 20l253 287h217l-5 -29l-374 -278h-94z" />
    <glyph glyph-name="Ccircumflex" unicode="&#x108;" horiz-adv-x="1479" 
d="M713 135q304 0 502 291l143 -89q-126 -188 -286 -272.5t-356.5 -84.5t-330 72.5t-203 206.5t-69.5 310q0 246 105 445t291.5 307.5t410 108.5t373 -90.5t197.5 -254.5l-180 -55q-36 112 -139.5 178t-271 66t-307.5 -88.5t-215 -249t-75 -365.5t109 -320.5t302 -115.5z
M1289 1550l-4 -20h-95l-192 139h-2l-259 -139h-113l4 20l280 240h204z" />
    <glyph glyph-name="ccircumflex" unicode="&#x109;" horiz-adv-x="1024" 
d="M824 759q-12 202 -222 202q-225 0 -308 -282q-43 -147 -43 -290q0 -267 218 -267q205 0 289 230l156 -49q-121 -323 -449 -323q-192 0 -295 109t-103 307.5t72.5 370.5t192 253.5t291 81.5t270 -85t108.5 -233zM970 1221l-4 -20h-92l-186 169h-2l-265 -169h-116l4 20
l286 270h204z" />
    <glyph glyph-name="Cdotaccent" unicode="&#x10a;" horiz-adv-x="1479" 
d="M713 135q304 0 502 291l143 -89q-126 -188 -286 -272.5t-356.5 -84.5t-330 72.5t-203 206.5t-69.5 310q0 246 105 445t291.5 307.5t410 108.5t373 -90.5t197.5 -254.5l-180 -55q-36 112 -139.5 178t-271 66t-307.5 -88.5t-215 -249t-75 -365.5t109 -320.5t302 -115.5z
M867 1530l34 172h180l-34 -172h-180z" />
    <glyph glyph-name="cdotaccent" unicode="&#x10b;" horiz-adv-x="1024" 
d="M824 759q-12 202 -222 202q-225 0 -308 -282q-43 -147 -43 -290q0 -267 218 -267q205 0 289 230l156 -49q-121 -323 -449 -323q-192 0 -295 109t-103 307.5t72.5 370.5t192 253.5t291 81.5t270 -85t108.5 -233zM589 1312l34 172h180l-34 -172h-180z" />
    <glyph glyph-name="Ccaron" unicode="&#x10c;" horiz-adv-x="1479" 
d="M713 135q304 0 502 291l143 -89q-126 -188 -286 -272.5t-356.5 -84.5t-330 72.5t-203 206.5t-69.5 310q0 246 105 445t291.5 307.5t410 108.5t373 -90.5t197.5 -254.5l-180 -55q-36 112 -139.5 178t-271 66t-307.5 -88.5t-215 -249t-75 -365.5t109 -320.5t302 -115.5z
M1056 1530h-204l-187 239l4 21h93l205 -139h2l246 139h116l-4 -21z" />
    <glyph glyph-name="ccaron" unicode="&#x10d;" horiz-adv-x="1024" 
d="M824 759q-12 202 -222 202q-225 0 -308 -282q-43 -147 -43 -290q0 -267 218 -267q205 0 289 230l156 -49q-121 -323 -449 -323q-192 0 -295 109t-103 307.5t72.5 370.5t192 253.5t291 81.5t270 -85t108.5 -233zM735 1201h-204l-181 270l4 20h97l199 -169h2l252 169h112
l-4 -20z" />
    <glyph glyph-name="Dcaron" unicode="&#x10e;" horiz-adv-x="1479" 
d="M567 153q195 0 344 77.5t228.5 223t79.5 352t-126 328.5t-353 122h-242l-215 -1103h284zM744 1409q312 0 490.5 -164.5t178.5 -453.5q0 -236 -103 -413t-296.5 -277.5t-438.5 -100.5h-512l273 1409h408zM941 1530h-204l-187 239l4 21h93l205 -139h2l246 139h116l-4 -21z
" />
    <glyph glyph-name="dcaron" unicode="&#x10f;" horiz-adv-x="1280" 
d="M257 365q0 -247 194 -247t291 162q49 82 77 204.5t28 233.5t-63.5 180.5t-181 69.5t-188.5 -72.5t-114 -237t-43 -293.5zM588 1101q243 0 310 -198h5l28 162l82 419h180l-245 -1261q-29 -141 -38 -223h-172q0 51 21 160h-5q-73 -95 -154 -138t-199 -43
q-157 0 -244.5 94.5t-87.5 278.5t61.5 374.5t173 282.5t284.5 92zM1326 1127h-117q114 101 131 190h-88l32 167h195l-20 -106q-30 -152 -133 -251z" />
    <glyph glyph-name="Dcroat" unicode="&#x110;" horiz-adv-x="1479" 
d="M587 153q195 0 344 77.5t228.5 223t79.5 352t-126 328.5t-353 122h-262l-89 -455h406l-30 -154h-406l-96 -494h304zM764 1409q312 0 490.5 -164.5t178.5 -453.5q0 -234 -98.5 -412.5t-289 -278.5t-433.5 -100h-549l125 647h-154l30 154h154l118 608h428z" />
    <glyph glyph-name="dcroat" unicode="&#x111;" horiz-adv-x="1139" 
d="M588 1101q243 0 310 -198h5l57 303h-300l25 131h300l29 147h180l-29 -147h132l-25 -131h-132l-192 -983q-29 -141 -38 -223h-172q0 51 21 160h-4q-73 -95 -154 -138t-200 -43q-157 0 -244.5 94.5t-87.5 278.5t61.5 374.5t173 282.5t284.5 92zM257 365q0 -247 194 -247
t291 162q49 82 77 204.5t28 233.5t-63.5 180.5t-181 69.5t-188.5 -72.5t-114 -237t-43 -293.5z" />
    <glyph glyph-name="Emacron" unicode="&#x112;" horiz-adv-x="1366" 
d="M63 0l273 1409h1049l-30 -156h-858l-88 -452h798l-30 -154h-798l-95 -491h899l-30 -156h-1090zM1158 1570h-550l26 127h550z" />
    <glyph glyph-name="emacron" unicode="&#x113;" horiz-adv-x="1139" 
d="M627.5 969q-127.5 0 -219 -85.5t-128.5 -242.5h600l4 72q0 124 -64.5 190t-192 66zM514 115q97 0 176 48t123 131l138 -63q-73 -131 -185.5 -191t-272.5 -60q-201 0 -312.5 111.5t-111.5 313t71 361t200 248t312 88.5t297 -103t114 -291q0 -105 -24 -205h-783
q-6 -35 -9 -113q0 -275 267 -275zM951 1236h-550l26 127h550z" />
    <glyph glyph-name="Ebreve" unicode="&#x114;" horiz-adv-x="1366" 
d="M63 0l273 1409h1049l-30 -156h-858l-88 -452h798l-30 -154h-798l-95 -491h899l-30 -156h-1090zM843.5 1520q-129.5 0 -210 69t-82.5 180h116q6 -113 187 -113t245 114h117q-52 -122 -147.5 -186t-225 -64z" />
    <glyph glyph-name="ebreve" unicode="&#x115;" horiz-adv-x="1139" 
d="M627.5 969q-127.5 0 -219 -85.5t-128.5 -242.5h600l4 72q0 124 -64.5 190t-192 66zM514 115q97 0 176 48t123 131l138 -63q-73 -131 -185.5 -191t-272.5 -60q-201 0 -312.5 111.5t-111.5 313t71 361t200 248t312 88.5t297 -103t114 -291q0 -105 -24 -205h-783
q-6 -35 -9 -113q0 -275 267 -275zM705 1347q181 0 245 163h117q-51 -148 -146.5 -228.5t-225.5 -80.5t-210.5 85.5t-82.5 223.5h116q6 -163 187 -163z" />
    <glyph glyph-name="Edotaccent" unicode="&#x116;" horiz-adv-x="1366" 
d="M63 0l273 1409h1049l-30 -156h-858l-88 -452h798l-30 -154h-798l-95 -491h899l-30 -156h-1090zM781 1530l34 172h180l-34 -172h-180z" />
    <glyph glyph-name="edotaccent" unicode="&#x117;" horiz-adv-x="1139" 
d="M627.5 969q-127.5 0 -219 -85.5t-128.5 -242.5h600l4 72q0 124 -64.5 190t-192 66zM514 115q97 0 176 48t123 131l138 -63q-73 -131 -185.5 -191t-272.5 -60q-201 0 -312.5 111.5t-111.5 313t71 361t200 248t312 88.5t297 -103t114 -291q0 -105 -24 -205h-783
q-6 -35 -9 -113q0 -275 267 -275zM604 1312l34 172h180l-34 -172h-180z" />
    <glyph glyph-name="Eogonek" unicode="&#x118;" horiz-adv-x="1366" 
d="M827 -222q0 -96 78 -95q54 0 114 22l-15 -105q-67 -27 -149.5 -27t-127.5 47t-45 125.5t57 149t148 105.5h-824l273 1409h1049l-30 -156h-858l-88 -452h798l-30 -154h-798l-95 -491h899l-30 -156h-133q-93 -48 -143 -111t-50 -111z" />
    <glyph glyph-name="eogonek" unicode="&#x119;" horiz-adv-x="1139" 
d="M627.5 969q-127.5 0 -219 -85.5t-128.5 -242.5h600l4 72q0 124 -64.5 190t-192 66zM514 115q97 0 176 48t123 131l138 -63q-86 -155 -231 -212q-91 -48 -141 -110q-50 -63 -50 -111q0 -96 78 -95q54 0 114 22l-15 -105q-67 -27 -149.5 -27t-127.5 47t-45 121
q0 132 128 219h-19q-201 0 -312.5 111.5t-111.5 313t71 361t200 248t312 88.5t297 -103t114 -291q0 -105 -24 -205h-783q-6 -35 -9 -113q0 -275 267 -275z" />
    <glyph glyph-name="Ecaron" unicode="&#x11a;" horiz-adv-x="1366" 
d="M63 0l273 1409h1049l-30 -156h-858l-88 -452h798l-30 -154h-798l-95 -491h899l-30 -156h-1090zM985 1530h-204l-187 239l4 21h93l205 -139h2l246 139h116l-4 -21z" />
    <glyph glyph-name="ecaron" unicode="&#x11b;" horiz-adv-x="1139" 
d="M627.5 969q-127.5 0 -219 -85.5t-128.5 -242.5h600l4 72q0 124 -64.5 190t-192 66zM514 115q97 0 176 48t123 131l138 -63q-73 -131 -185.5 -191t-272.5 -60q-201 0 -312.5 111.5t-111.5 313t71 361t200 248t312 88.5t297 -103t114 -291q0 -105 -24 -205h-783
q-6 -35 -9 -113q0 -275 267 -275zM778 1201h-204l-181 270l4 20h97l199 -169h2l252 169h112l-4 -20z" />
    <glyph glyph-name="Gcircumflex" unicode="&#x11c;" horiz-adv-x="1593" 
d="M932 1274q-192 0 -336.5 -86t-221.5 -244.5t-77 -368t118 -325t333 -115.5q295 0 483 156l51 254h-421l32 160h597l-100 -495q-268 -230 -648 -230q-305 0 -473 156t-168 421t105 461.5t297.5 304t427.5 107.5q463 0 574 -332l-193 -54q-74 230 -380 230zM1291 1550
l-4 -20h-95l-192 139h-2l-259 -139h-113l4 20l280 240h204z" />
    <glyph glyph-name="gcircumflex" unicode="&#x11d;" horiz-adv-x="1139" 
d="M259 362.5q0 -110.5 52.5 -174t157.5 -63.5t193 78.5t136.5 215.5t48.5 273.5t-64 206t-165 69.5t-161 -37t-101 -116t-69 -210.5t-28 -242zM397 -425q-339 0 -393 252l163 42q35 -157 234 -157q142 0 220 73.5t110 241.5l34 174h-2q-61 -89 -109 -128q-99 -81 -248 -81
t-242.5 100.5t-93.5 250t37.5 303.5t102.5 256q127 199 378 199q121 0 204.5 -57t107.5 -147h2q7 37 25 106.5t23 78.5h171l-49 -224l-161 -827q-48 -242 -172 -349t-342 -107zM980 1221l-4 -20h-92l-186 169h-2l-265 -169h-116l4 20l286 270h204z" />
    <glyph glyph-name="Gbreve" unicode="&#x11e;" horiz-adv-x="1593" 
d="M932 1274q-192 0 -336.5 -86t-221.5 -244.5t-77 -368t118 -325t333 -115.5q295 0 483 156l51 254h-421l32 160h597l-100 -495q-268 -230 -648 -230q-305 0 -473 156t-168 421t105 461.5t297.5 304t427.5 107.5q463 0 574 -332l-193 -54q-74 230 -380 230zM952.5 1520
q-129.5 0 -210 69t-82.5 180h116q6 -113 187 -113t245 114h117q-52 -122 -147.5 -186t-225 -64z" />
    <glyph glyph-name="gbreve" unicode="&#x11f;" horiz-adv-x="1139" 
d="M259 362.5q0 -110.5 52.5 -174t157.5 -63.5t193 78.5t136.5 215.5t48.5 273.5t-64 206t-165 69.5t-161 -37t-101 -116t-69 -210.5t-28 -242zM397 -425q-339 0 -393 252l163 42q35 -157 234 -157q142 0 220 73.5t110 241.5l34 174h-2q-61 -89 -109 -128q-99 -81 -248 -81
t-242.5 100.5t-93.5 250t37.5 303.5t102.5 256q127 199 378 199q121 0 204.5 -57t107.5 -147h2q7 37 25 106.5t23 78.5h171l-49 -224l-161 -827q-48 -242 -172 -349t-342 -107zM682 1347q181 0 245 163h117q-51 -148 -146.5 -228.5t-225.5 -80.5t-210.5 85.5t-82.5 223.5
h116q6 -163 187 -163z" />
    <glyph glyph-name="Gdotaccent" unicode="&#x120;" horiz-adv-x="1593" 
d="M932 1274q-192 0 -336.5 -86t-221.5 -244.5t-77 -368t118 -325t333 -115.5q295 0 483 156l51 254h-421l32 160h597l-100 -495q-268 -230 -648 -230q-305 0 -473 156t-168 421t105 461.5t297.5 304t427.5 107.5q463 0 574 -332l-193 -54q-74 230 -380 230zM869 1530
l34 172h180l-34 -172h-180z" />
    <glyph glyph-name="gdotaccent" unicode="&#x121;" horiz-adv-x="1139" 
d="M259 362.5q0 -110.5 52.5 -174t157.5 -63.5t193 78.5t136.5 215.5t48.5 273.5t-64 206t-165 69.5t-161 -37t-101 -116t-69 -210.5t-28 -242zM397 -425q-339 0 -393 252l163 42q35 -157 234 -157q142 0 220 73.5t110 241.5l34 174h-2q-61 -89 -109 -128q-99 -81 -248 -81
t-242.5 100.5t-93.5 250t37.5 303.5t102.5 256q127 199 378 199q121 0 204.5 -57t107.5 -147h2q7 37 25 106.5t23 78.5h171l-49 -224l-161 -827q-48 -242 -172 -349t-342 -107zM623 1312l34 172h180l-34 -172h-180z" />
    <glyph glyph-name="Gcommaaccent" unicode="&#x122;" horiz-adv-x="1593" 
d="M932 1274q-192 0 -336.5 -86t-221.5 -244.5t-77 -368t118 -325t333 -115.5q295 0 483 156l51 254h-421l32 160h597l-100 -495q-268 -230 -648 -230q-305 0 -473 156t-168 421t105 461.5t297.5 304t427.5 107.5q463 0 574 -332l-193 -54q-74 230 -380 230zM694 -455h-117
q114 101 131 190h-88l32 167h195l-20 -106q-30 -152 -133 -251z" />
    <glyph glyph-name="gcommaaccent" unicode="&#x123;" horiz-adv-x="1139" 
d="M259 362.5q0 -110.5 52.5 -174t157.5 -63.5t193 78.5t136.5 215.5t48.5 273.5t-64 206t-165 69.5t-161 -37t-101 -116t-69 -210.5t-28 -242zM397 -425q-339 0 -393 252l163 42q35 -157 234 -157q142 0 220 73.5t110 241.5l34 174h-2q-61 -89 -109 -128q-99 -81 -248 -81
t-242.5 100.5t-93.5 250t37.5 303.5t102.5 256q127 199 378 199q121 0 204.5 -57t107.5 -147h2q7 37 25 106.5t23 78.5h171l-49 -224l-161 -827q-48 -242 -172 -349t-342 -107zM733 1568h117q-114 -101 -131 -190h88l-32 -167h-195l20 106q30 152 133 251z" />
    <glyph glyph-name="Hcircumflex" unicode="&#x124;" horiz-adv-x="1479" 
d="M1021 0l127 653h-767l-127 -653h-191l274 1409h191l-116 -596h767l116 596h186l-274 -1409h-186zM1258 1550l-4 -20h-95l-192 139h-2l-259 -139h-113l4 20l280 240h204z" />
    <glyph glyph-name="hcircumflex" unicode="&#x125;" horiz-adv-x="1139" 
d="M764.5 1101q131.5 0 206 -73t74.5 -211q0 -64 -21 -164l-127 -653h-181l126 645q18 88 18 150q0 167 -179 167q-126 0 -222 -96t-128 -260l-118 -606h-179l288 1484h180l-75 -386q-18 -100 -47 -201h3q83 115 166.5 159.5t215 44.5zM1127 1629l-4 -20h-95l-192 139h-2
l-259 -139h-113l4 20l280 240h204z" />
    <glyph glyph-name="Hbar" unicode="&#x126;" horiz-adv-x="1479" 
d="M1178 813l41 212h-767l-41 -212h767zM1020 0l126 653h-767l-126 -653h-191l199 1025h-154l30 154h154l44 230h191l-44 -230h767l44 230h186l-44 -230h153l-30 -154h-153l-199 -1025h-186z" />
    <glyph glyph-name="hbar" unicode="&#x127;" horiz-adv-x="1139" 
d="M756.5 1061q131.5 0 206 -73t74.5 -211q0 -64 -21 -164l-119 -613h-181l118 605q18 88 18 150q0 167 -179 167q-126 0 -222 -96t-128 -260l-110 -566h-179l234 1206h-131l25 131h131l29 147h180l-29 -147h301l-25 -131h-301q-43 -220 -57 -274.5t-19 -74.5h3
q83 115 166.5 159.5t215 44.5z" />
    <glyph glyph-name="Itilde" unicode="&#x128;" horiz-adv-x="569" 
d="M81 0l274 1409h191l-274 -1409h-191zM647 1530q-52 0 -90 20t-72.5 44.5t-66.5 44.5t-70 20q-79 0 -125 -129h-100q47 152 107.5 210t134 58t163.5 -64q34 -24 65 -44.5t61 -20.5q91 0 132 129h102q-35 -109 -67 -159.5t-77 -79.5t-97 -29z" />
    <glyph glyph-name="itilde" unicode="&#x129;" horiz-adv-x="455" 
d="M34 0l210 1082h180l-211 -1082h-179zM510 1201q-52 0 -90 18.5t-72.5 41t-66.5 41t-63 18.5q-100 0 -142 -119h-90q47 152 107.5 210t133.5 58q73 1 165 -59q34 -22 65 -41t61 -19q101 0 141 119h92q-35 -109 -67 -159.5t-77 -79.5t-97 -29z" />
    <glyph glyph-name="Imacron" unicode="&#x12a;" horiz-adv-x="569" 
d="M81 0l274 1409h191l-274 -1409h-191zM744 1570h-550l26 127h550z" />
    <glyph glyph-name="imacron" unicode="&#x12b;" horiz-adv-x="455" 
d="M34 0l210 1082h180l-211 -1082h-179zM630 1236h-550l26 127h550z" />
    <glyph glyph-name="Ibreve" unicode="&#x12c;" horiz-adv-x="569" 
d="M81 0l274 1409h191l-274 -1409h-191zM460.5 1520q-129.5 0 -210 69t-82.5 180h116q6 -113 187 -113t245 114h117q-52 -122 -147.5 -186t-225 -64z" />
    <glyph glyph-name="ibreve" unicode="&#x12d;" horiz-adv-x="455" 
d="M34 0l210 1082h180l-211 -1082h-179zM365 1347q181 0 245 163h117q-51 -148 -146.5 -228.5t-225.5 -80.5t-210.5 85.5t-82.5 223.5h116q6 -163 187 -163z" />
    <glyph glyph-name="Iogonek" unicode="&#x12e;" horiz-adv-x="569" 
d="M81 -222q0 -96 78 -95q54 0 114 22l-15 -105q-67 -27 -149.5 -27t-127.5 47t-45 125.5t57 149t148 105.5h-60l274 1409h191l-274 -1409h2q-93 -48 -143 -111t-50 -111z" />
    <glyph glyph-name="iogonek" unicode="&#x12f;" horiz-adv-x="455" 
d="M20 -222q0 -96 78 -95q54 0 114 22l-15 -105q-67 -27 -149.5 -27t-127.5 47t-45 125.5t57 149t148 105.5h-47l210 1082h180l-211 -1082h1q-93 -48 -143 -111t-50 -111zM287 1312l34 172h180l-34 -172h-180z" />
    <glyph glyph-name="Idotaccent" unicode="&#x130;" horiz-adv-x="569" 
d="M81 0l274 1409h191l-274 -1409h-191zM376 1530l34 172h180l-34 -172h-180z" />
    <glyph glyph-name="dotlessi" unicode="&#x131;" horiz-adv-x="569" 
d="M89 0l210 1082h180l-211 -1082h-179z" />
    <glyph glyph-name="IJ" unicode="&#x132;" horiz-adv-x="1502" 
d="M81 0l274 1409h191l-274 -1409h-191zM878.5 135q102.5 0 167.5 72.5t95 232.5l157 813h-291l30 156h481l-193 -986q-85 -443 -448 -443q-351 0 -404 363l168 33q23 -117 79 -179t158.5 -62z" />
    <glyph glyph-name="ij" unicode="&#x133;" horiz-adv-x="909" 
d="M33 0l210 1082h180l-211 -1082h-179zM287 1312l34 172h180l-34 -172h-180zM354 -425q-56 0 -129 14l23 136q52 -8 97 -8q89 0 122 176l231 1189h180l-237 -1216q-31 -158 -101 -224.5t-186 -66.5zM743 1312l33 172h180l-33 -172h-180z" />
    <glyph glyph-name="Jcircumflex" unicode="&#x134;" horiz-adv-x="1024" 
d="M400.5 135q102.5 0 167.5 72.5t95 232.5l157 813h-291l30 156h481l-193 -986q-85 -443 -448 -443q-351 0 -404 363l168 33q23 -117 79 -179t158.5 -62zM1171 1550l-4 -20h-95l-192 139h-2l-259 -139h-113l4 20l280 240h204z" />
    <glyph glyph-name="jcircumflex" unicode="&#x135;" horiz-adv-x="455" 
d="M-100 -425q-56 0 -129 14l23 136q52 -8 97 -8q89 0 122 176l231 1189h180l-237 -1216q-31 -158 -101 -224.5t-186 -66.5zM669 1221l-4 -20h-92l-186 169h-2l-265 -169h-116l4 20l286 270h204z" />
    <glyph glyph-name="Kcommaaccent" unicode="&#x136;" horiz-adv-x="1366" 
d="M1022 0l-472 674l-190 -129l-106 -545h-191l273 1409h191l-136 -691l140 129l665 562h245l-750 -630l557 -779h-226zM566 -455h-117q114 101 131 190h-88l32 167h195l-20 -106q-30 -152 -133 -251z" />
    <glyph glyph-name="kcommaaccent" unicode="&#x137;" horiz-adv-x="1024" 
d="M721 0l-268 502l-168 -124l-72 -378h-179l288 1484h180l-179 -917l204 190l361 325h222l-530 -465l336 -617h-195zM414 -455h-117q114 101 131 190h-88l32 167h195l-20 -106q-30 -152 -133 -251z" />
    <glyph glyph-name="kgreenlandic" unicode="&#x138;" horiz-adv-x="1024" 
d="M721 0l-268 502l-168 -124l-72 -378h-179l210 1082h180l-101 -515l204 190l361 325h222l-530 -465l336 -617h-195z" />
    <glyph glyph-name="Lacute" unicode="&#x139;" horiz-adv-x="1139" 
d="M63 0l273 1409h191l-243 -1253h712l-30 -156h-903zM441 1530l3 20l261 226h207l-5 -29l-352 -217h-114z" />
    <glyph glyph-name="lacute" unicode="&#x13a;" horiz-adv-x="455" 
d="M33 0l288 1484h180l-289 -1484h-179zM309 1609l3 20l261 226h207l-5 -29l-352 -217h-114z" />
    <glyph glyph-name="Lcommaaccent" unicode="&#x13b;" horiz-adv-x="1139" 
d="M63 0l273 1409h191l-243 -1253h712l-30 -156h-903zM469 -455h-117q114 101 131 190h-88l32 167h195l-20 -106q-30 -152 -133 -251z" />
    <glyph glyph-name="lcommaaccent" unicode="&#x13c;" horiz-adv-x="455" 
d="M33 0l288 1484h180l-289 -1484h-179zM49 -455h-117q114 101 131 190h-88l32 167h195l-20 -106q-30 -152 -133 -251z" />
    <glyph glyph-name="Lcaron" unicode="&#x13d;" horiz-adv-x="1139" 
d="M63 0l273 1409h191l-243 -1253h712l-30 -156h-903zM898 1052h-117q114 101 131 190h-88l32 167h195l-20 -106q-30 -152 -133 -251z" />
    <glyph glyph-name="lcaron" unicode="&#x13e;" horiz-adv-x="576" 
d="M33 0l288 1484h180l-289 -1484h-179zM637 1127h-117q114 101 131 190h-88l32 167h195l-20 -106q-30 -152 -133 -251z" />
    <glyph glyph-name="Ldot" unicode="&#x13f;" horiz-adv-x="1139" 
d="M63 0l273 1409h191l-243 -1253h712l-30 -156h-903zM677 686l34 172h180l-34 -172h-180z" />
    <glyph glyph-name="ldot" unicode="&#x140;" horiz-adv-x="819" 
d="M33 0l288 1484h180l-289 -1484h-179zM543 686l34 172h180l-34 -172h-180z" />
    <glyph glyph-name="Lslash" unicode="&#x141;" horiz-adv-x="1139" 
d="M282 156h712l-31 -156h-903l105 538l-163 -85l29 158l165 85l138 713h191l-117 -603l306 148l-31 -157l-306 -149z" />
    <glyph glyph-name="lslash" unicode="&#x142;" horiz-adv-x="455" 
d="M32 0l105 542l-135 -68l31 158l134 68l153 784h180l-132 -680l138 72l-31 -159l-138 -71l-126 -646h-179z" />
    <glyph glyph-name="Nacute" unicode="&#x143;" horiz-adv-x="1479" 
d="M987 0l-531 1210q-22 -171 -42 -267l-181 -943h-170l273 1409h212l534 -1215q26 189 45 284l181 931h172l-273 -1409h-220zM797 1530l3 20l261 226h207l-5 -29l-352 -217h-114z" />
    <glyph glyph-name="nacute" unicode="&#x144;" horiz-adv-x="1139" 
d="M413 1082q0 -21 -28 -185h3q83 115 166.5 159.5t215 44.5t206 -73t74.5 -211q0 -64 -21 -164l-127 -653h-181l126 645q18 88 18 150q0 167 -179 167q-126 0 -222 -96t-128 -260l-118 -606h-180l166 851q20 95 39 231h170zM563 1201l3 20l253 287h217l-5 -29l-374 -278
h-94z" />
    <glyph glyph-name="Ncommaaccent" unicode="&#x145;" horiz-adv-x="1479" 
d="M987 0l-531 1210q-22 -171 -42 -267l-181 -943h-170l273 1409h212l534 -1215q26 189 45 284l181 931h172l-273 -1409h-220zM574 -455h-117q114 101 131 190h-88l32 167h195l-20 -106q-30 -152 -133 -251z" />
    <glyph glyph-name="ncommaaccent" unicode="&#x146;" horiz-adv-x="1139" 
d="M413 1082q0 -21 -28 -185h3q83 115 166.5 159.5t215 44.5t206 -73t74.5 -211q0 -64 -21 -164l-127 -653h-181l126 645q18 88 18 150q0 167 -179 167q-126 0 -222 -96t-128 -260l-118 -606h-180l166 851q20 95 39 231h170zM414 -455h-117q114 101 131 190h-88l32 167h195
l-20 -106q-30 -152 -133 -251z" />
    <glyph glyph-name="Ncaron" unicode="&#x147;" horiz-adv-x="1479" 
d="M987 0l-531 1210q-22 -171 -42 -267l-181 -943h-170l273 1409h212l534 -1215q26 189 45 284l181 931h172l-273 -1409h-220zM1027 1530h-204l-187 239l4 21h93l205 -139h2l246 139h116l-4 -21z" />
    <glyph glyph-name="ncaron" unicode="&#x148;" horiz-adv-x="1139" 
d="M413 1082q0 -21 -28 -185h3q83 115 166.5 159.5t215 44.5t206 -73t74.5 -211q0 -64 -21 -164l-127 -653h-181l126 645q18 88 18 150q0 167 -179 167q-126 0 -222 -96t-128 -260l-118 -606h-180l166 851q20 95 39 231h170zM785 1201h-204l-181 270l4 20h97l199 -169h2
l252 169h112l-4 -20z" />
    <glyph glyph-name="napostrophe" unicode="&#x149;" horiz-adv-x="1259" 
d="M529 1082q0 -21 -28 -185h3q83 115 166.5 159.5t215 44.5t206 -73t74.5 -211q0 -64 -21 -164l-127 -653h-181l126 645q18 88 18 150q0 167 -179 167q-126 0 -222 -96t-128 -260l-118 -606h-180l166 851q20 95 39 231h170zM174 952h-123q119 136 145 260h-88l38 197h195
l-28 -145q-35 -183 -139 -312z" />
    <glyph glyph-name="Eng" unicode="&#x14a;" horiz-adv-x="1481" 
d="M997 1429q411 0 411 -357q0 -77 -17 -168l-70 -362q-52 -266 -105 -366q-103 -196 -339.5 -196t-336.5 155l141 108q78 -110 183 -110q72 0 119 35.5t79.5 113.5t69.5 264l73 378q14 70 14 124q0 226 -274 226q-119 0 -232 -52.5t-189.5 -141t-96.5 -189.5l-173 -891
h-191l212 1092l57 317h184q-12 -91 -41 -251h4q198 271 518 271z" />
    <glyph glyph-name="eng" unicode="&#x14b;" horiz-adv-x="1139" 
d="M409 1082q0 -21 -28 -185h3q83 115 166.5 159.5t215 44.5t206 -73t74.5 -211q0 -64 -21 -164l-154 -787q-31 -158 -101 -224.5t-186 -66.5q-56 0 -129 14l23 136q52 -8 97 -8q89 0 122 176l146 752q18 88 18 150q0 167 -179 167q-126 0 -222 -96t-128 -260l-118 -606
h-180l166 851q20 95 39 231h170z" />
    <glyph glyph-name="Omacron" unicode="&#x14c;" horiz-adv-x="1593" 
d="M928.5 1276q-199.5 0 -339 -89t-213.5 -266t-74 -372t106.5 -304.5t306.5 -109.5t338.5 86.5t215 259.5t76.5 373t-108.5 311t-308 111zM957.5 1430q257.5 0 418 -157t160.5 -422q-5 -268 -112 -463.5t-293 -301.5t-422 -106q-284 0 -441 157.5t-157 416t105.5 459
t294.5 309t446.5 108.5zM1227 1570h-550l26 127h550z" />
    <glyph glyph-name="omacron" unicode="&#x14d;" horiz-adv-x="1139" 
d="M640 969q-135 0 -216.5 -69.5t-126.5 -210.5t-45 -281t64 -217.5t176.5 -77.5t175 34.5t109.5 108.5q100 157 111 427q0 286 -248 286zM1074 683q0 -131 -40 -271q-123 -432 -543 -432q-196 0 -310 118t-112 321.5t72 361.5q142 320 501 320q210 0 321 -109.5t111 -308.5
zM936 1236h-550l26 127h550z" />
    <glyph glyph-name="Obreve" unicode="&#x14e;" horiz-adv-x="1593" 
d="M928.5 1276q-199.5 0 -339 -89t-213.5 -266t-74 -372t106.5 -304.5t306.5 -109.5t338.5 86.5t215 259.5t76.5 373t-108.5 311t-308 111zM957.5 1430q257.5 0 418 -157t160.5 -422q-5 -268 -112 -463.5t-293 -301.5t-422 -106q-284 0 -441 157.5t-157 416t105.5 459
t294.5 309t446.5 108.5zM946.5 1520q-129.5 0 -210 69t-82.5 180h116q6 -113 187 -113t245 114h117q-52 -122 -147.5 -186t-225 -64z" />
    <glyph glyph-name="obreve" unicode="&#x14f;" horiz-adv-x="1139" 
d="M640 969q-135 0 -216.5 -69.5t-126.5 -210.5t-45 -281t64 -217.5t176.5 -77.5t175 34.5t109.5 108.5q100 157 111 427q0 286 -248 286zM1074 683q0 -131 -40 -271q-123 -432 -543 -432q-196 0 -310 118t-112 321.5t72 361.5q142 320 501 320q210 0 321 -109.5t111 -308.5
zM705 1347q181 0 245 163h117q-51 -148 -146.5 -228.5t-225.5 -80.5t-210.5 85.5t-82.5 223.5h116q6 -163 187 -163z" />
    <glyph glyph-name="Ohungarumlaut" unicode="&#x150;" horiz-adv-x="1593" 
d="M928.5 1276q-199.5 0 -339 -89t-213.5 -266t-74 -372t106.5 -304.5t306.5 -109.5t338.5 86.5t215 259.5t76.5 373t-108.5 311t-308 111zM957.5 1430q257.5 0 418 -157t160.5 -422q-5 -268 -112 -463.5t-293 -301.5t-422 -106q-284 0 -441 157.5t-157 416t105.5 459
t294.5 309t446.5 108.5zM1014 1530l3 20l223 227h207l-5 -29l-334 -218h-94zM668 1530l3 20l222 227h207l-5 -29l-334 -218h-93z" />
    <glyph glyph-name="ohungarumlaut" unicode="&#x151;" horiz-adv-x="1139" 
d="M640 969q-135 0 -216.5 -69.5t-126.5 -210.5t-45 -281t64 -217.5t176.5 -77.5t175 34.5t109.5 108.5q100 157 111 427q0 286 -248 286zM1074 683q0 -131 -40 -271q-123 -432 -543 -432q-196 0 -310 118t-112 321.5t72 361.5q142 320 501 320q210 0 321 -109.5t111 -308.5
zM700 1201l3 20l253 287h207l-5 -29l-364 -278h-94zM354 1201l3 20l252 287h207l-5 -29l-364 -278h-93z" />
    <glyph glyph-name="OE" unicode="&#x152;" horiz-adv-x="2048" 
d="M712 145q129 0 211 11l213 1099q-84 11 -221 11q-399 0 -549 -342q-74 -170 -74 -367t109.5 -304.5t310.5 -107.5zM702 -10q-282 0 -441.5 156t-159.5 414.5t106.5 453t294 300.5t423.5 106q120 0 269 -11h873l-30 -156h-710l-88 -452h650l-30 -154h-650l-95 -491h751
l-30 -156h-942q-76 -10 -191 -10z" />
    <glyph glyph-name="oe" unicode="&#x153;" horiz-adv-x="1933" 
d="M1425 969q-128 0 -219.5 -85.5t-128.5 -242.5h597l4 72q0 256 -253 256zM640 969q-135 0 -216 -70.5t-125.5 -211.5t-44.5 -271q0 -298 248 -298q136 0 213.5 66.5t122 202t50.5 296.5q0 286 -248 286zM1427 1102q204 0 317 -103t113 -291q0 -105 -24 -205h-778
q-11 -51 -11 -113q0 -275 267 -275q96 0 173.5 47t122.5 132l138 -63q-74 -133 -186 -192t-269 -59q-268 0 -373 193q-147 -188 -426 -188q-199 0 -310.5 116t-111.5 318q3 203 73 361q141 322 500 321q281 0 382 -192q158 193 403 193z" />
    <glyph glyph-name="Racute" unicode="&#x154;" horiz-adv-x="1479" 
d="M857 736q181 0 273 76t92 200q0 244 -297 244h-427l-101 -520h460zM1416 1039q0 -378 -427 -437l268 -602h-206l-243 585h-441l-113 -585h-191l273 1409h612q214 0 341 -102t127 -268zM718 1530l3 20l261 226h207l-5 -29l-352 -217h-114z" />
    <glyph glyph-name="racute" unicode="&#x155;" horiz-adv-x="682" 
d="M628 951q-105 0 -189.5 -110t-114.5 -277l-110 -564h-180l162 830l25 138l18 114h170l-35 -221h4q66 133 130 187t148 54q46 0 95 -14l-33 -150q-44 13 -90 13zM357 1201l3 20l253 287h217l-5 -29l-374 -278h-94z" />
    <glyph glyph-name="Rcommaaccent" unicode="&#x156;" horiz-adv-x="1479" 
d="M857 736q181 0 273 76t92 200q0 244 -297 244h-427l-101 -520h460zM1416 1039q0 -378 -427 -437l268 -602h-206l-243 585h-441l-113 -585h-191l273 1409h612q214 0 341 -102t127 -268zM599 -455h-117q114 101 131 190h-88l32 167h195l-20 -106q-30 -152 -133 -251z" />
    <glyph glyph-name="rcommaaccent" unicode="&#x157;" horiz-adv-x="682" 
d="M628 951q-105 0 -189.5 -110t-114.5 -277l-110 -564h-180l162 830l25 138l18 114h170l-35 -221h4q66 133 130 187t148 54q46 0 95 -14l-33 -150q-44 13 -90 13zM64 -455h-117q114 101 131 190h-88l32 167h195l-20 -106q-30 -152 -133 -251z" />
    <glyph glyph-name="Rcaron" unicode="&#x158;" horiz-adv-x="1479" 
d="M857 736q181 0 273 76t92 200q0 244 -297 244h-427l-101 -520h460zM1416 1039q0 -378 -427 -437l268 -602h-206l-243 585h-441l-113 -585h-191l273 1409h612q214 0 341 -102t127 -268zM954 1530h-204l-187 239l4 21h93l205 -139h2l246 139h116l-4 -21z" />
    <glyph glyph-name="rcaron" unicode="&#x159;" horiz-adv-x="682" 
d="M628 951q-105 0 -189.5 -110t-114.5 -277l-110 -564h-180l162 830l25 138l18 114h170l-35 -221h4q66 133 130 187t148 54q46 0 95 -14l-33 -150q-44 13 -90 13zM593 1201h-204l-181 270l4 20h97l199 -169h2l252 169h112l-4 -20z" />
    <glyph glyph-name="Sacute" unicode="&#x15a;" horiz-adv-x="1366" 
d="M447 1050q0 -60 25.5 -98t84 -66.5t243 -79t270.5 -100.5q176 -103 176 -303.5t-155 -311.5t-475 -111q-249 0 -386.5 88.5t-171.5 269.5l177 37q27 -129 120 -187t293 -58q402 0 403 266q0 67 -29 107.5t-99 72.5t-241 80q-172 48 -256 98q-172 100 -171.5 284.5
t154 288t394.5 103.5q472 0 541 -298l-173 -51q-64 205 -348 205q-376 0 -376 -236zM703 1530l3 20l261 226h207l-5 -29l-352 -217h-114z" />
    <glyph glyph-name="sacute" unicode="&#x15b;" horiz-adv-x="1024" 
d="M425 -20q-174 0 -276.5 58.5t-143.5 184.5l147 56q33 -88 102.5 -128t199.5 -40t204 48.5t74 141.5q0 62 -51 103.5t-197.5 88t-210.5 86.5q-132 82 -132 222.5t116 219t327 78.5q354 0 398 -255l-163 -25q-22 79 -83 114t-174.5 35t-180 -39.5t-66.5 -113.5
q-1 -75 81 -121q40 -22 175 -64.5t199 -83.5q136 -87 136.5 -239t-123.5 -239.5t-358 -87.5zM488 1201l3 20l253 287h217l-5 -29l-374 -278h-94z" />
    <glyph glyph-name="Scircumflex" unicode="&#x15c;" horiz-adv-x="1366" 
d="M447 1050q0 -60 25.5 -98t84 -66.5t243 -79t270.5 -100.5q176 -103 176 -303.5t-155 -311.5t-475 -111q-249 0 -386.5 88.5t-171.5 269.5l177 37q27 -129 120 -187t293 -58q402 0 403 266q0 67 -29 107.5t-99 72.5t-241 80q-172 48 -256 98q-172 100 -171.5 284.5
t154 288t394.5 103.5q472 0 541 -298l-173 -51q-64 205 -348 205q-376 0 -376 -236zM1179 1548l-4 -20h-92l-186 169h-2l-265 -169h-116l4 20l286 270h204z" />
    <glyph glyph-name="scircumflex" unicode="&#x15d;" horiz-adv-x="1024" 
d="M425 -20q-174 0 -276.5 58.5t-143.5 184.5l147 56q33 -88 102.5 -128t199.5 -40t204 48.5t74 141.5q0 62 -51 103.5t-197.5 88t-210.5 86.5q-132 82 -132 222.5t116 219t327 78.5q354 0 398 -255l-163 -25q-22 79 -83 114t-174.5 35t-180 -39.5t-66.5 -113.5
q-1 -75 81 -121q40 -22 175 -64.5t199 -83.5q136 -87 136.5 -239t-123.5 -239.5t-358 -87.5zM937 1221l-4 -20h-92l-186 169h-2l-265 -169h-116l4 20l286 270h204z" />
    <glyph glyph-name="Scedilla" unicode="&#x15e;" horiz-adv-x="1366" 
d="M447 1050q0 -60 25.5 -98t84 -66.5t243 -79t270.5 -100.5q176 -103 176 -303.5t-147 -305.5t-418 -116l-47 -77q81 -5 121.5 -41t40.5 -95q0 -193 -303 -193q-50 0 -106 7l21 91q48 -6 114 -6q140 0 140 89q0 72 -119 72q-44 0 -58 -2l90 155q-219 7 -351 91.5
t-166 265.5l177 37q27 -129 120 -187t293 -58q402 0 403 266q0 67 -29 107.5t-99 72.5t-241 80q-172 48 -256 98q-172 100 -171.5 284.5t154 288t394.5 103.5q472 0 541 -298l-173 -51q-64 205 -348 205q-376 0 -376 -236z" />
    <glyph glyph-name="scedilla" unicode="&#x15f;" horiz-adv-x="1024" 
d="M623 -232q0 -193 -303 -193q-50 0 -106 7l21 91q47 -6 113 -6q140 0 141 89q0 72 -119 72q-44 0 -58 -2l90 154q-158 4 -257 60.5t-140 182.5l147 56q33 -88 102.5 -128t199.5 -40t204 48.5t74 141.5q0 62 -51 103.5t-197.5 88t-210.5 86.5q-132 82 -132 222.5t116 219
t327 78.5q354 0 398 -255l-163 -25q-22 79 -83 114t-174.5 35t-180 -39.5t-66.5 -113.5q-1 -75 81 -121q40 -22 175 -64.5t199 -83.5q136 -87 136 -239q0 -151 -123 -239q-101 -71 -273 -85l-49 -79q81 -5 121.5 -41t40.5 -95z" />
    <glyph glyph-name="Scaron" unicode="&#x160;" horiz-adv-x="1366" 
d="M447 1050q0 -60 25.5 -98t84 -66.5t243 -79t270.5 -100.5q176 -103 176 -303.5t-155 -311.5t-475 -111q-249 0 -386.5 88.5t-171.5 269.5l177 37q27 -129 120 -187t293 -58q402 0 403 266q0 67 -29 107.5t-99 72.5t-241 80q-172 48 -256 98q-172 100 -171.5 284.5
t154 288t394.5 103.5q472 0 541 -298l-173 -51q-64 205 -348 205q-376 0 -376 -236zM947 1530h-204l-187 239l4 21h93l205 -139h2l246 139h116l-4 -21z" />
    <glyph glyph-name="scaron" unicode="&#x161;" horiz-adv-x="1024" 
d="M425 -20q-174 0 -276.5 58.5t-143.5 184.5l147 56q33 -88 102.5 -128t199.5 -40t204 48.5t74 141.5q0 62 -51 103.5t-197.5 88t-210.5 86.5q-132 82 -132 222.5t116 219t327 78.5q354 0 398 -255l-163 -25q-22 79 -83 114t-174.5 35t-180 -39.5t-66.5 -113.5
q-1 -75 81 -121q40 -22 175 -64.5t199 -83.5q136 -87 136.5 -239t-123.5 -239.5t-358 -87.5zM713 1201h-204l-181 270l4 20h97l199 -169h2l252 169h112l-4 -20z" />
    <glyph glyph-name="Tcommaaccent" unicode="&#x162;" horiz-adv-x="1251" 
d="M681 -232q0 -193 -303 -193q-50 0 -106 7l21 91q47 -6 113 -6q140 0 141 89q0 72 -119 72q-44 0 -58 -2l101 174h-47l244 1253h-484l30 156h1158l-30 -156h-484l-244 -1253h-36l-59 -96q81 -5 121.5 -41t40.5 -95z" />
    <glyph glyph-name="tcommaaccent" unicode="&#x163;" horiz-adv-x="569" 
d="M423 -232q0 -193 -303 -193q-50 0 -106 7l21 91q47 -6 113 -6q140 0 141 89q0 72 -119 72q-44 0 -58 -2l95 164q-39 13 -65 41q-48 51 -48.5 120.5t14.5 144.5l126 655h-125l26 131h127l105 242h120l-47 -242h200l-26 -131h-200l-125 -645q-12 -60 -12 -95q0 -88 90 -88
q42 0 100 14l-19 -133q-77 -19 -140 -23l-47 -77q81 -5 121.5 -41t40.5 -95z" />
    <glyph glyph-name="Tcaron" unicode="&#x164;" horiz-adv-x="1251" 
d="M858 1253l-244 -1253h-190l244 1253h-484l30 156h1158l-30 -156h-484zM911 1530h-204l-187 239l4 21h93l205 -139h2l246 139h116l-4 -21z" />
    <glyph glyph-name="tcaron" unicode="&#x165;" horiz-adv-x="725" 
d="M269.5 -20q-79.5 0 -128 51t-48.5 120.5t15 144.5l126 655h-125l26 131h127l105 242h120l-47 -242h200l-26 -131h-200l-125 -645q-12 -60 -12 -95q0 -88 90 -88q42 0 100 14l-19 -133q-99 -24 -178.5 -24zM785 1127h-117q114 101 131 190h-88l32 167h195l-20 -106
q-30 -152 -133 -251z" />
    <glyph glyph-name="Tbar" unicode="&#x166;" horiz-adv-x="1251" 
d="M858 1253l-88 -452h281l-30 -154h-281l-125 -647h-190l125 647h-279l30 154h279l88 452h-484l30 156h1158l-30 -156h-484z" />
    <glyph glyph-name="tbar" unicode="&#x167;" horiz-adv-x="569" 
d="M277 211q0 -88 90 -88q42 0 100 14l-19 -133q-98 -24 -178 -24t-128.5 51t-48.5 121t15 144l42 220h-125l25 131h125l59 304h-125l26 131h127l105 242h120l-47 -242h200l-26 -131h-200l-59 -304h200l-25 -131h-201l-40 -210q-12 -60 -12 -95z" />
    <glyph glyph-name="Utilde" unicode="&#x168;" horiz-adv-x="1479" 
d="M675 -20q-254 0 -388 120.5t-134 330.5q0 98 23 204l150 774h191l-162 -843q-17 -87 -17 -143q0 -136 87.5 -212t244.5 -76q384 0 461 406l168 868h190l-170 -879q-54 -273 -222 -411.5t-422 -138.5zM1101 1530q-52 0 -90 20t-72.5 44.5t-66.5 44.5t-70 20
q-79 0 -125 -129h-100q47 152 107.5 210t134 58t163.5 -64q34 -24 65 -44.5t61 -20.5q91 0 132 129h102q-35 -109 -67 -159.5t-77 -79.5t-97 -29z" />
    <glyph glyph-name="utilde" unicode="&#x169;" horiz-adv-x="1139" 
d="M723 0q0 21 28 185h-3q-83 -115 -166.5 -159.5t-215 -44.5t-206 73t-74.5 211q0 64 21 164l127 653h181l-126 -645q-18 -88 -18 -150q0 -167 179 -167q126 0 222 96t128 260l118 606h180l-166 -851q-20 -95 -39 -231h-170zM848 1201q-52 0 -90 18.5t-72.5 41t-66.5 41
t-63 18.5q-100 0 -142 -119h-90q47 152 107.5 210t133.5 58q73 1 165 -59q34 -22 65 -41t61 -19q101 0 141 119h92q-35 -109 -67 -159.5t-77 -79.5t-97 -29z" />
    <glyph glyph-name="Umacron" unicode="&#x16a;" horiz-adv-x="1479" 
d="M675 -20q-254 0 -388 120.5t-134 330.5q0 98 23 204l150 774h191l-162 -843q-17 -87 -17 -143q0 -136 87.5 -212t244.5 -76q384 0 461 406l168 868h190l-170 -879q-54 -273 -222 -411.5t-422 -138.5zM1196 1565h-550l26 127h550z" />
    <glyph glyph-name="umacron" unicode="&#x16b;" horiz-adv-x="1139" 
d="M723 0q0 21 28 185h-3q-83 -115 -166.5 -159.5t-215 -44.5t-206 73t-74.5 211q0 64 21 164l127 653h181l-126 -645q-18 -88 -18 -150q0 -167 179 -167q126 0 222 96t128 260l118 606h180l-166 -851q-20 -95 -39 -231h-170zM958 1236h-550l26 127h550z" />
    <glyph glyph-name="Ubreve" unicode="&#x16c;" horiz-adv-x="1479" 
d="M675 -20q-254 0 -388 120.5t-134 330.5q0 98 23 204l150 774h191l-162 -843q-17 -87 -17 -143q0 -136 87.5 -212t244.5 -76q384 0 461 406l168 868h190l-170 -879q-54 -273 -222 -411.5t-422 -138.5zM909.5 1520q-129.5 0 -210 69t-82.5 180h116q6 -113 187 -113t245 114
h117q-52 -122 -147.5 -186t-225 -64z" />
    <glyph glyph-name="ubreve" unicode="&#x16d;" horiz-adv-x="1139" 
d="M723 0q0 21 28 185h-3q-83 -115 -166.5 -159.5t-215 -44.5t-206 73t-74.5 211q0 64 21 164l127 653h181l-126 -645q-18 -88 -18 -150q0 -167 179 -167q126 0 222 96t128 260l118 606h180l-166 -851q-20 -95 -39 -231h-170zM689 1347q181 0 245 163h117
q-51 -148 -146.5 -228.5t-225.5 -80.5t-210.5 85.5t-82.5 223.5h116q6 -163 187 -163z" />
    <glyph glyph-name="Uring" unicode="&#x16e;" horiz-adv-x="1479" 
d="M675 -20q-254 0 -388 120.5t-134 330.5q0 98 23 204l150 774h191l-162 -843q-17 -87 -17 -143q0 -136 87.5 -212t244.5 -76q384 0 461 406l168 868h190l-170 -879q-54 -273 -222 -411.5t-422 -138.5zM1054 1694.5q0 57.5 -38 95.5t-96.5 38t-96.5 -39.5t-38 -94.5t38 -96
t96.5 -41t96.5 40t38 97.5zM1162 1694q0 -100 -71 -171t-171 -71t-171 71t-71 171.5t71 170.5t170.5 70t171 -70.5t71.5 -170.5z" />
    <glyph glyph-name="uring" unicode="&#x16f;" horiz-adv-x="1139" 
d="M723 0q0 21 28 185h-3q-83 -115 -166.5 -159.5t-215 -44.5t-206 73t-74.5 211q0 64 21 164l127 653h181l-126 -645q-18 -88 -18 -150q0 -167 179 -167q126 0 222 96t128 260l118 606h180l-166 -851q-20 -95 -39 -231h-170zM823 1410.5q0 57.5 -38 95.5t-96.5 38
t-96.5 -39.5t-38 -94.5t38 -96t96.5 -41t96.5 40t38 97.5zM931 1410q0 -100 -71 -171t-171 -71t-171 71t-71 171.5t71 170.5t170.5 70t171 -70.5t71.5 -170.5z" />
    <glyph glyph-name="Uhungarumlaut" unicode="&#x170;" horiz-adv-x="1479" 
d="M675 -20q-254 0 -388 120.5t-134 330.5q0 98 23 204l150 774h191l-162 -843q-17 -87 -17 -143q0 -136 87.5 -212t244.5 -76q384 0 461 406l168 868h190l-170 -879q-54 -273 -222 -411.5t-422 -138.5zM962 1530l3 20l223 227h207l-5 -29l-334 -218h-94zM616 1530l3 20
l222 227h207l-5 -29l-334 -218h-93z" />
    <glyph glyph-name="uhungarumlaut" unicode="&#x171;" horiz-adv-x="1139" 
d="M723 0q0 21 28 185h-3q-83 -115 -166.5 -159.5t-215 -44.5t-206 73t-74.5 211q0 64 21 164l127 653h181l-126 -645q-18 -88 -18 -150q0 -167 179 -167q126 0 222 96t128 260l118 606h180l-166 -851q-20 -95 -39 -231h-170zM722 1201l3 20l253 287h207l-5 -29l-364 -278
h-94zM376 1201l3 20l252 287h207l-5 -29l-364 -278h-93z" />
    <glyph glyph-name="Uogonek" unicode="&#x172;" horiz-adv-x="1479" 
d="M153 431q0 98 23 204l150 774h191l-162 -843q-17 -87 -17 -143q0 -136 87.5 -212t244.5 -76q384 0 461 406l168 868h190l-170 -879q-89 -448 -479 -532q-90 -47 -140 -109q-50 -63 -50 -111q0 -96 78 -95q54 0 114 22l-15 -105q-67 -27 -149.5 -27t-127.5 47t-45 125.5
t50 140t111 94.5h-12q-233 0 -367 120.5t-134 330.5z" />
    <glyph glyph-name="uogonek" unicode="&#x173;" horiz-adv-x="1139" 
d="M366.5 -19q-131.5 0 -206 73t-74.5 211q0 64 21 164l127 653h181l-126 -645q-18 -88 -18 -150q0 -167 179 -167q126 0 222 96t128 260l118 606h180l-166 -851q-20 -95 -39 -231h-36q-93 -48 -143 -110q-50 -64 -50 -112q0 -96 78 -95q54 0 114 22l-15 -105
q-67 -27 -149.5 -27t-127.5 47t-45 125.5t57 149t147 105.5q0 21 28 185h-3q-83 -115 -166.5 -159.5t-215 -44.5z" />
    <glyph glyph-name="Wcircumflex" unicode="&#x174;" horiz-adv-x="1933" 
d="M1406 0h-223l-71 895q-14 275 -16 324q-76 -199 -135 -324l-419 -895h-223l-142 1409h197l79 -895q12 -155 16 -346q79 188 130.5 302t443.5 939h183l75 -877q14 -154 17 -364l16 35q48 115 78 184t481 1022h201zM1465 1550l-4 -20h-95l-192 139h-2l-259 -139h-113l4 20
l280 240h204z" />
    <glyph glyph-name="wcircumflex" unicode="&#x175;" horiz-adv-x="1479" 
d="M816 934q-53 -132 -414 -934h-208l-92 1082h178l40 -735l7 -198l81 190l341 743h193l44 -743q6 -108 6 -190q33 79 421 933h176l-521 -1082h-209l-37 698zM1165 1221l-4 -20h-92l-186 169h-2l-265 -169h-116l4 20l286 270h204z" />
    <glyph glyph-name="Ycircumflex" unicode="&#x176;" horiz-adv-x="1366" 
d="M672 0h-190l115 584l-384 825h196l306 -674l560 674h214l-704 -825zM1196 1550l-4 -20h-95l-192 139h-2l-259 -139h-113l4 20l280 240h204z" />
    <glyph glyph-name="ycircumflex" unicode="&#x177;" horiz-adv-x="1024" 
d="M-8 -285q95 0 167.5 64t142.5 186l27 47l-217 1070h183l112 -598q39 -208 42 -288q25 54 479 886h199l-626 -1082q-111 -192 -179 -270q-135 -154 -306 -155q-72 0 -132 14l31 134q45 -8 77 -8zM960 1221l-4 -20h-92l-186 169h-2l-265 -169h-116l4 20l286 270h204z" />
    <glyph glyph-name="Ydieresis" unicode="&#x178;" horiz-adv-x="1366" 
d="M672 0h-190l115 584l-384 825h196l306 -674l560 674h214l-704 -825zM567 1530l35 184h175l-35 -184h-175zM951 1530l35 184h173l-35 -184h-173z" />
    <glyph glyph-name="Zacute" unicode="&#x179;" horiz-adv-x="1251" 
d="M1082 0h-1122l27 143l1054 1110h-765l30 156h1002l-27 -139l-1054 -1114h885zM684 1530l3 20l261 226h207l-5 -29l-352 -217h-114z" />
    <glyph glyph-name="zacute" unicode="&#x17a;" horiz-adv-x="1024" 
d="M-12 0l23 137l742 806h-566l25 139h784l-24 -137l-742 -806h621l-25 -139h-838zM484 1201l3 20l253 287h217l-5 -29l-374 -278h-94z" />
    <glyph glyph-name="Zdotaccent" unicode="&#x17b;" horiz-adv-x="1251" 
d="M1082 0h-1122l27 143l1054 1110h-765l30 156h1002l-27 -139l-1054 -1114h885zM697 1530l34 172h180l-34 -172h-180z" />
    <glyph glyph-name="zdotaccent" unicode="&#x17c;" horiz-adv-x="1024" 
d="M-12 0l23 137l742 806h-566l25 139h784l-24 -137l-742 -806h621l-25 -139h-838zM551 1312l34 172h180l-34 -172h-180z" />
    <glyph glyph-name="Zcaron" unicode="&#x17d;" horiz-adv-x="1251" 
d="M1082 0h-1122l27 143l1054 1110h-765l30 156h1002l-27 -139l-1054 -1114h885zM899 1530h-204l-187 239l4 21h93l205 -139h2l246 139h116l-4 -21z" />
    <glyph glyph-name="zcaron" unicode="&#x17e;" horiz-adv-x="1024" 
d="M-23 0l23 137l742 806h-566l25 139h784l-24 -137l-742 -806h621l-25 -139h-838zM721 1201h-204l-181 270l4 20h97l199 -169h2l252 169h112l-4 -20z" />
    <glyph glyph-name="longs" unicode="&#x17f;" horiz-adv-x="455" 
d="M572 1484q70 0 118 -12l-24 -137q-43 8 -83.5 8t-66 -14.5t-41.5 -43.5t-32 -106l-230 -1179h-180l234 1204q29 156 101 218t204 62z" />
    <glyph glyph-name="uni0180" unicode="&#x180;" horiz-adv-x="1139" 
d="M888 716q0 247 -194 247q-194 -1 -291 -163q-49 -82 -77 -204t-28 -233t63.5 -180.5t181 -69.5t188.5 72.5t114 237t43 293.5zM557 -20q-242 0 -309 198h-3q-5 -26 -43 -178h-173q8 25 49 223l191 983h-127l25 131h127l29 147h180l-29 -147h305l-25 -131h-306l-28 -145
q-13 -63 -34 -140h4q73 95 154 138t200 43q157 0 244.5 -94.5t87.5 -278.5t-61.5 -374.5t-173 -282.5t-284.5 -92z" />
    <glyph glyph-name="uni0181" unicode="&#x181;" horiz-adv-x="1496" 
d="M872 810q355 0 355 258q0 188 -268 188h-331l-87 -446h331zM781 153q405 0 405 289q0 107 -79.5 163t-228.5 56h-366l-99 -508h368zM422 1261q-94 0 -140.5 -51t-46.5 -143l4 -50l-148 -17q-8 29 -8 58q0 170 90.5 260.5t262.5 90.5h540q209 0 329.5 -86.5t120.5 -235.5
q0 -285 -339 -344q138 -23 214 -104.5t76 -199.5q0 -213 -156 -326t-433 -113h-595l245 1261h-16z" />
    <glyph glyph-name="uni0182" unicode="&#x182;" horiz-adv-x="1333" 
d="M656 151q369 0 369 276q0 113 -75.5 173.5t-222.5 60.5h-345l-100 -510h374zM736 813q228 0 355.5 -98t127.5 -291.5t-147.5 -308.5t-406.5 -115h-603l274 1409h926l-30 -156h-735l-85 -440h324z" />
    <glyph glyph-name="uni0183" unicode="&#x183;" horiz-adv-x="1139" 
d="M888 716q0 247 -194 247q-194 -1 -291 -163q-49 -82 -77 -204t-28 -233t63.5 -180.5t181 -69.5t188.5 72.5t114 237t43 293.5zM557 -20q-242 0 -309 198h-3q-5 -26 -43 -178h-173q8 25 49 223l245 1261h744l-31 -159h-564q-32 -162 -50.5 -257.5t-35.5 -146.5h4
q73 95 154 138t200 43q157 0 244.5 -94.5t87.5 -278.5t-61.5 -374.5t-173 -282.5t-284.5 -92z" />
    <glyph glyph-name="uni0184" unicode="&#x184;" horiz-adv-x="1333" 
d="M644 151q369 0 369 276q0 113 -75.5 173.5t-222.5 60.5h-334l-100 -510h363zM724 813q228 0 355.5 -98t127.5 -291.5t-147.5 -308.5t-406.5 -115h-592l197 1011l-126 165l6 33l332 200h56l-115 -596h313z" />
    <glyph glyph-name="uni0185" unicode="&#x185;" horiz-adv-x="1139" 
d="M888 716q0 247 -194 247q-194 -1 -291 -163q-49 -82 -77 -204t-28 -233t63.5 -180.5t181 -69.5t188.5 72.5t114 237t43 293.5zM557 -20q-242 0 -309 198h-3q-5 -26 -43 -178h-173q8 25 49 223l167 863l-93 180l7 33l293 185h51l-83 -423q-13 -63 -34 -140h4
q73 95 154 138t200 43q157 0 244.5 -94.5t87.5 -278.5t-61.5 -374.5t-173 -282.5t-284.5 -92z" />
    <glyph glyph-name="uni0186" unicode="&#x186;" horiz-adv-x="1479" 
d="M820 1275q-304 0 -502 -291l-143 89q126 188 286 272.5t356.5 84.5t330 -72.5t203 -206.5t69.5 -310q0 -246 -105 -445t-291.5 -307.5t-410 -108.5t-373 90.5t-197.5 254.5l180 55q36 -112 139.5 -178t271 -66t307.5 88.5t215 249t75 365.5t-109 320.5t-302 115.5z" />
    <glyph glyph-name="uni0187" unicode="&#x187;" horiz-adv-x="1479" 
d="M713 135q304 0 502 291l143 -89q-126 -188 -286 -272.5t-356.5 -84.5t-330 72.5t-203 206.5t-69.5 310q0 246 105 445t291.5 307.5t416.5 108.5q283 0 440 -148l8 39q62 295 317 295q64 0 119 -21l-29 -151q-45 18 -99.5 18t-95.5 -43t-58 -135l-38 -199l-180 -55
q-37 112 -140 178t-270.5 66t-307.5 -88.5t-215 -249t-75 -365.5t109 -320.5t302 -115.5z" />
    <glyph glyph-name="uni0188" unicode="&#x188;" horiz-adv-x="1024" 
d="M824 759q-12 202 -222 202q-225 0 -308 -282q-43 -147 -43 -290q0 -267 218 -267q201 0 289 230l156 -49q-121 -323 -449 -323q-193 0 -295.5 110t-102.5 307.5t72.5 369.5t192 253.5t288 81.5t266.5 -79q70 266 294 266q65 0 115 -21l-29 -151q-48 20 -79 20
q-63 0 -99.5 -46.5t-55.5 -143.5l-31 -163z" />
    <glyph glyph-name="uni0189" unicode="&#x189;" horiz-adv-x="1479" 
d="M587 153q195 0 344 77.5t228.5 223t79.5 352t-126 328.5t-353 122h-262l-89 -455h406l-30 -154h-406l-96 -494h304zM764 1409q312 0 490.5 -164.5t178.5 -453.5q0 -234 -98.5 -412.5t-289 -278.5t-433.5 -100h-549l125 647h-154l30 154h154l118 608h428z" />
    <glyph glyph-name="uni018A" unicode="&#x18a;" horiz-adv-x="1606" 
d="M694 153q197 0 345 77.5t227.5 223t79.5 352t-126 328.5t-353 122h-242l-215 -1103h284zM871 1409q312 0 490.5 -164.5t178.5 -453.5q0 -236 -103 -413t-296.5 -277.5t-438.5 -100.5h-512l244 1261h-15q-94 0 -140.5 -51t-46.5 -143l4 -50l-148 -17q-8 29 -8 58
q0 170 90.5 260.5t262.5 90.5h438z" />
    <glyph glyph-name="uni018B" unicode="&#x18b;" horiz-adv-x="1333" 
d="M634 662q-369 0 -369 -276q0 -113 75.5 -173.5t222.5 -60.5h344l91 510h-364zM554 0q-228 0 -355.5 98t-127.5 291.5t147.5 308.5t406.5 115h403l86 440h-760l30 156h951l-274 -1409h-507z" />
    <glyph glyph-name="uni018C" unicode="&#x18c;" horiz-adv-x="1139" 
d="M257 365q1 -247 195 -247q193 0 290 162q49 82 77 204.5t28 233.5t-63.5 180.5t-182 69.5t-190.5 -75.5t-113 -240t-41 -287.5zM588 1101q243 0 310 -198h5l28 162l51 260h-564l31 159h744l-245 -1261l-33 -192l-5 -31h-172q0 51 21 160h-5q-73 -95 -154 -138t-199 -43
q-157 0 -244.5 94.5t-87.5 278.5t61.5 374.5t173 282.5t284.5 92z" />
    <glyph glyph-name="uni018D" unicode="&#x18d;" horiz-adv-x="1138" 
d="M888 683q0 286 -248 286q-135 0 -216.5 -69.5t-126.5 -210.5t-45 -281t64 -217.5t177 -77.5t176.5 36t111.5 113.5t77.5 201.5t29.5 219zM1074 694.5q0 -187.5 -66 -357.5q-133 -344 -489 -356l290 -274l-25 -132h-739l28 145h366l152 -8l-369 343q-155 142 -155 364
q0 185 68 349q138 332 507 333q210 0 321 -109.5t111 -297z" />
    <glyph glyph-name="uni018E" unicode="&#x18e;" horiz-adv-x="1366" 
d="M-30 0l33 156h919l104 491h-818l33 154h818l96 452h-878l33 156h1069l-299 -1409h-1110z" />
    <glyph glyph-name="uni018F" unicode="&#x18f;" horiz-adv-x="1593" 
d="M937 1430q265 0 414.5 -151.5t149.5 -412.5t-98 -462.5t-281 -312.5t-441.5 -111t-408.5 147.5t-150 412.5q0 120 37 270h1157q2 44 2 58q0 190 -103.5 298t-272.5 108t-285.5 -61t-207.5 -192l-168 60q232 349 656 349zM719 126q210 0 361 136.5t212 389.5h-983
q-9 -57 -9 -112q0 -201 104.5 -307.5t314.5 -106.5z" />
    <glyph glyph-name="uni018F" unicode="&#x4d8;" horiz-adv-x="1593" 
d="M937 1430q265 0 414.5 -151.5t149.5 -412.5t-98 -462.5t-281 -312.5t-441.5 -111t-408.5 147.5t-150 412.5q0 120 37 270h1157q2 44 2 58q0 190 -103.5 298t-272.5 108t-285.5 -61t-207.5 -192l-168 60q232 349 656 349zM719 126q210 0 361 136.5t212 389.5h-983
q-9 -57 -9 -112q0 -201 104.5 -307.5t314.5 -106.5z" />
    <glyph glyph-name="uni0190" unicode="&#x190;" horiz-adv-x="1257" 
d="M439 997q0 -195 321 -195h61l-29 -148h-71q-447 0 -447 -298q0 -104 77 -163.5t211 -59.5q257 0 428 272l145 -87q-85 -131 -168 -200q-166 -138 -402.5 -138t-360.5 98t-124 264.5t105.5 271.5t287.5 130q-108 28 -166.5 95.5t-58.5 169.5q0 191 145.5 305.5t366 114.5
t334.5 -83.5t150 -257.5l-175 -51q-37 131 -108.5 184t-207 53t-225 -75t-89.5 -202z" />
    <glyph glyph-name="uni0191" unicode="&#x191;" horiz-adv-x="1251" 
d="M-115 -424q-66 0 -121 21l30 155q45 -18 99 -18t94.5 43t58.5 135l290 1497h1011l-30 -156h-820l-102 -524h796l-31 -158h-796l-135 -700q-28 -146 -111 -220.5t-233 -74.5z" />
    <glyph glyph-name="florin" unicode="&#x192;" horiz-adv-x="1139" 
d="M917.5 1327q-59.5 0 -91.5 -37t-51 -131l-26 -137h211l-25 -131h-213l-258 -1347h-180l258 1347h-152l27 131h151l29 152q31 153 105.5 216.5t207.5 63.5q79 0 149 -20l-31 -122q-51 15 -110.5 15z" />
    <glyph glyph-name="uni0193" unicode="&#x193;" horiz-adv-x="1593" 
d="M932 1274q-192 0 -336.5 -86t-221.5 -244.5t-77 -368t118 -325t333 -115.5q141 0 269.5 41t213.5 115l51 254h-421l32 160h597l-100 -495q-268 -230 -648 -230q-305 0 -473 156t-168 421t105 461.5t297.5 304t459.5 107.5t418 -138l6 29q28 143 109.5 219t207.5 76
q64 0 119 -21l-29 -151q-45 18 -99.5 18t-95 -43t-58.5 -135l-36 -186l-193 -54q-74 230 -380 230z" />
    <glyph glyph-name="uni0194" unicode="&#x194;" horiz-adv-x="1017" 
d="M285 -193q0 -82 81 -82q42 0 70.5 47t28.5 145.5t-33 212.5q-67 -96 -107 -185t-40 -138zM628 -97q0 -101 -36 -177q-71 -150 -249 -151q-102 0 -162.5 58.5t-60.5 158.5t84 246q39 68 149 219l-304 1152h198l234 -997l620 997h206l-756 -1162q77 -242 77 -344z" />
    <glyph glyph-name="uni0195" unicode="&#x195;" horiz-adv-x="1801" 
d="M860 794q0 168 -178 168q-127 0 -223 -96.5t-127 -254.5l-119 -611h-179l288 1484h180l-75 -386q-20 -110 -46 -201h3q73 107 158.5 155.5t219 48.5t208.5 -73t75 -208q0 -61 -15 -136l-57 -293q-13 -63 -13 -105q0 -82 44 -125.5t157 -43.5t178.5 60.5t96.5 216.5
l134 688h181l-140 -717q-40 -205 -154.5 -295t-304.5 -90t-283 77.5t-93 213.5q0 42 10 90l59 299q15 80 15 134z" />
    <glyph glyph-name="uni0196" unicode="&#x196;" horiz-adv-x="455" 
d="M33 0l288 1484h180l-289 -1484h-179z" />
    <glyph glyph-name="uni0197" unicode="&#x197;" horiz-adv-x="569" 
d="M82 0l130 672h-164l27 141h165l130 671h180l-131 -671h170l-27 -141h-170l-131 -672h-179z" />
    <glyph glyph-name="uni0198" unicode="&#x198;" horiz-adv-x="1366" 
d="M621 1425q65 0 126 -21l-31 -159q-45 18 -99 18q-119 0 -152 -170l-74 -375l140 129l665 562h245l-750 -630l557 -779h-226l-472 674l-190 -129l-106 -545h-191l219 1130q28 146 108.5 220.5t230.5 74.5z" />
    <glyph glyph-name="uni0199" unicode="&#x199;" horiz-adv-x="1024" 
d="M575 1498q70 0 125 -21l-29 -151q-47 20 -79 20q-63 0 -100 -48t-55 -145l-114 -586l204 190l361 325h222l-530 -465l336 -617h-195l-268 502l-168 -124l-72 -378h-179l237 1221q25 132 104 204.5t200 72.5z" />
    <glyph glyph-name="uni019A" unicode="&#x19a;" horiz-adv-x="455" 
d="M27 0l129 666h-133l29 134h130l133 684h180l-134 -684h138l-29 -134h-135l-129 -666h-179z" />
    <glyph glyph-name="uni019B" unicode="&#x19b;" horiz-adv-x="1008" 
d="M849 1271l-170 -58l220 -1213h-180l-93 577q-20 110 -25 214q-6 -11 -14 -25.5t-17 -31t-97 -159.5l-370 -575h-195l648 980l-32 179l-207 -67l-23 118l203 69l-35 205h168l26 -148l170 58z" />
    <glyph glyph-name="uni019C" unicode="&#x19c;" horiz-adv-x="1733" 
d="M1041 -20q-205 0 -278 168q-92 -94 -172 -131t-174 -37q-166 0 -253 84t-87 245q0 71 21 181l179 919h188l-179 -921q-18 -92 -18 -176q0 -176 184 -177q121 0 190.5 77t99.5 228l188 969h189l-185 -953q-16 -78 -16 -153.5t41.5 -121.5t130.5 -46q247 0 310 323l185 951
h189l-229 -1178q-20 -98 -35 -231h-168l19 146q-58 -78 -141.5 -122t-178.5 -44z" />
    <glyph glyph-name="uni019D" unicode="&#x19d;" horiz-adv-x="1479" 
d="M-115 -424q-66 0 -121 21l30 155q45 -18 99 -18t94.5 43t58.5 135l290 1497h212l534 -1215q26 189 45 284l181 931h172l-273 -1409h-220l-531 1210q-34 -227 -42 -267l-205 -1072q-30 -154 -107 -224.5t-217 -70.5z" />
    <glyph glyph-name="uni019E" unicode="&#x19e;" horiz-adv-x="1139" 
d="M209 968.5q0 86.5 -9 113.5h166q15 -60 15 -185h3q83 115 166.5 159.5t215 44.5t206 -73t74.5 -211q0 -64 -21 -164l-210 -1078h-181l209 1070q18 88 18 150q0 167 -179 167q-126 0 -222 -96t-128 -260l-118 -606h-180l155 789q20 93 20 179.5z" />
    <glyph glyph-name="uni019F" unicode="&#x19f;" horiz-adv-x="1593" 
d="M910 1276q-218 0 -367.5 -122.5t-209.5 -359.5h1010l2 53q0 207 -108.5 318t-326.5 111zM735 135q220 0 372 125.5t212 373.5h-1014l-3 -71q0 -428 433 -428zM938 1430q183 0 318.5 -71.5t207.5 -203.5t72 -307t-57.5 -337t-168.5 -282.5t-265.5 -184.5t-335.5 -64
q-284 0 -441 157.5t-157 416t105.5 459t294.5 309t427 108.5z" />
    <glyph glyph-name="Ohorn" unicode="&#x1a0;" horiz-adv-x="1662" 
d="M929 1276q-449 0 -583 -434q-44 -144 -44 -279q0 -209 106.5 -318.5t306.5 -109.5t338.5 86.5t215 259.5t76.5 373t-108.5 311t-307.5 111zM933.5 1430q233.5 0 385.5 -109t198 -306q104 47 152 101t64 126h-88l35 167h195l-22 -106q-29 -137 -101 -222t-221 -148
q5 -50 5 -82q0 -178 -57.5 -340t-168.5 -282.5t-265.5 -184.5t-335.5 -64q-284 0 -441 157.5t-157 416t105.5 459t294.5 309t422.5 108.5z" />
    <glyph glyph-name="ohorn" unicode="&#x1a1;" horiz-adv-x="1238" 
d="M640 969q-135 0 -216.5 -69.5t-126.5 -210.5t-45 -281t64 -217.5t176.5 -77.5t175 34.5t109.5 108.5q100 157 111 427q0 286 -248 286zM491 -20q-196 0 -310 117t-114 313q0 194 68 358q138 332 507 333q199 0 310 -99.5t121 -281.5q136 73 162 201h-88l35 167h195
l-22 -106q-26 -126 -91 -210t-192 -142q-6 -122 -48 -251q-130 -399 -533 -399z" />
    <glyph glyph-name="uni01A2" unicode="&#x1a2;" horiz-adv-x="1778" 
d="M922.5 1276q-142.5 0 -257 -49t-194.5 -145t-124.5 -240t-44.5 -279q0 -208 105.5 -318t308.5 -110q136 0 240 46l203 1047q-94 48 -236.5 48zM111 553.5q0 258.5 105.5 459t294.5 309t427 108.5q172 0 337 -77l465 70h43l-359 -1847h-180l320 1645l-226 2l-224 -1151
q-198 -92 -405 -92q-284 0 -441 157.5t-157 416z" />
    <glyph glyph-name="uni01A3" unicode="&#x1a3;" horiz-adv-x="1367" 
d="M640 969q-135 0 -216.5 -69.5t-126.5 -210.5t-45 -281t64 -217.5t186 -77.5q62 0 108 11l159 826q-62 19 -129 19zM491 -20q-196 0 -310 117t-114 313q0 194 68 358q138 332 507 333q165 0 300 -76l350 68h43l-295 -1518h-175l261 1343h-189l-173 -880q-116 -58 -273 -58
z" />
    <glyph glyph-name="uni01A4" unicode="&#x1a4;" horiz-adv-x="1496" 
d="M907 700q382 0 382 311q0 119 -79 182t-233 63h-349l-108 -556h387zM982 1409q231 0 366 -104t135 -285q0 -220 -152.5 -345.5t-416.5 -125.5h-424l-106 -549h-191l244 1261h-15q-94 0 -140.5 -51t-46.5 -143l4 -50l-148 -17q-8 29 -8 58q0 170 90.5 260.5t262.5 90.5
h546z" />
    <glyph glyph-name="uni01A5" unicode="&#x1a5;" horiz-adv-x="1139" 
d="M885 716q0 247 -194 247q-194 -1 -291 -163q-49 -82 -77 -204t-28 -233t63.5 -180.5t181 -69.5t188.5 72.5t114 237t43 293.5zM554 -20q-243 0 -310 198h-5l-2 -19l-16 -101l-93 -483h-179l319 1646q25 132 104 204.5t200 72.5q70 0 125 -21l-29 -151q-47 20 -79 20
q-63 0 -99.5 -48t-55.5 -145l-45 -228h2q75 95 155.5 136t194.5 41q157 0 244.5 -94.5t87.5 -278.5t-61.5 -374.5t-173 -282.5t-284.5 -92z" />
    <glyph glyph-name="uni01A6" unicode="&#x1a6;" horiz-adv-x="1366" 
d="M777 582q181 0 273 76t92 200q0 244 -297 244h-377l-101 -520h410zM1336 885q0 -378 -427 -437l271 -767h-206l-246 750h-391l-83 -431h-191l273 1409h187l-30 -154h375q211 0 339.5 -101.5t128.5 -268.5z" />
    <glyph glyph-name="uni01A7" unicode="&#x1a7;" horiz-adv-x="1366" 
d="M1147 1105q0 83 -78 132q-77 49 -227 49q-300 0 -408 -248l-180 33q89 195 229.5 277t370 82t354 -86.5t124.5 -243.5q0 -224 -192 -328q-58 -32 -127 -53.5t-254 -57.5l-107 -21q-204 -40 -291.5 -111.5t-87.5 -180t89 -164t229.5 -55.5t232.5 33t156 98.5t117 190.5
l176 -47q-95 -229 -259.5 -326.5t-414 -97.5t-383 94.5t-133.5 269.5q1 238 211 350q64 34 141.5 59t275.5 64.5t277.5 73t119 82.5t39.5 132z" />
    <glyph glyph-name="uni01A8" unicode="&#x1a8;" horiz-adv-x="1024" 
d="M787 833q1 129 -213 129q-106 0 -167 -34.5t-92 -115.5l-150 48q78 243 428 243q178 0 274.5 -71t96.5 -200q0 -81 -36 -138t-114 -100.5t-250 -93.5t-228 -78q-109 -54 -109 -148q0 -153 227 -153q122 0 190 37t99 121l147 -56q-78 -243 -441 -243q-195 0 -300 73.5
t-105 215.5q0 171 168 264q85 47 236.5 88.5t217 69.5t93.5 59.5t28 82.5z" />
    <glyph glyph-name="uni01A9" unicode="&#x1a9;" horiz-adv-x="1228" 
d="M-6 0l33 171l651 581l-423 505l29 152h999l-30 -156h-790l384 -457l-24 -115l-589 -525h867l-31 -156h-1076z" />
    <glyph glyph-name="uni01AA" unicode="&#x1aa;" horiz-adv-x="682" 
d="M257 1284q0 -86 88 -86q56 0 93.5 37t37.5 85q0 95 -92 95q-54 0 -90.5 -38t-36.5 -93zM176 1291.5q0 84.5 67.5 143t175 58.5t164 -53.5t56.5 -155.5q0 -40 -12 -103l-255 -1305q-5 -28 -5 -50q0 -93 95 -93q56 0 108 13l-30 -158q-69 -13 -153 -13t-142.5 59t-58.5 164
q0 40 9 88l247 1262q-45 -29 -113 -29t-110.5 44t-42.5 128.5z" />
    <glyph glyph-name="uni01AB" unicode="&#x1ab;" horiz-adv-x="569" 
d="M130 -425q-65 0 -115 21l29 153q47 -20 79 -20q63 0 94.5 46t48.5 144l10 61h-1q-85 0 -133.5 51t-48.5 121t15 144l126 655h-125l26 131h127l105 242h120l-47 -242h200l-26 -131h-200l-125 -645q-12 -60 -12 -95q0 -88 90 -88q42 0 100 14l-44 -294q-41 -268 -293 -268z
" />
    <glyph glyph-name="uni01AC" unicode="&#x1ac;" horiz-adv-x="1251" 
d="M466 1253q-184 0 -184 -186l4 -50l-148 -17q-8 29 -8 58q0 170 90.5 260.5t262.5 90.5h889l-30 -156h-484l-244 -1253h-190l244 1253h-202z" />
    <glyph glyph-name="uni01AD" unicode="&#x1ad;" horiz-adv-x="569" 
d="M269.5 -20q-79.5 0 -128 51t-48.5 120.5t15 144.5l126 655h-125l26 131h126l28 137q26 129 101.5 204t200.5 75q70 0 125 -21l-29 -151q-47 20 -79 20q-63 0 -99 -48.5t-56 -148.5l-13 -67h200l-26 -131h-200l-125 -645q-12 -60 -12 -95q0 -88 90 -88q42 0 100 14
l-19 -133q-99 -24 -178.5 -24z" />
    <glyph glyph-name="uni01AE" unicode="&#x1ae;" horiz-adv-x="1251" 
d="M585 -179q0 -87 81 -87q58 0 110 16l-31 -158q-71 -17 -135 -17q-108 0 -164.5 55.5t-56.5 154.5q0 38 12 98l267 1370h-484l30 156h1158l-30 -156h-484l-265 -1362q-8 -40 -8 -70z" />
    <glyph glyph-name="Uhorn" unicode="&#x1af;" horiz-adv-x="1625" 
d="M654 -20q-232 0 -366.5 120t-134.5 331q0 89 23 204l150 774h191l-162 -843q-17 -87 -17 -143q0 -136 87.5 -212t244.5 -76q384 0 461 406l168 868h190l-78 -403q246 47 286 236h-88l35 167h195l-21 -101q-36 -177 -138 -270t-287 -123l-74 -385q-51 -269 -219 -409.5
t-446 -140.5z" />
    <glyph glyph-name="uhorn" unicode="&#x1b0;" horiz-adv-x="1298" 
d="M723 0q0 21 28 185h-3q-83 -115 -166.5 -159.5t-215 -44.5t-206 73t-74.5 211q0 64 21 164l127 653h181l-126 -645q-18 -88 -18 -150q0 -167 179 -167q126 0 222 96t128 260l118 606h180l-80 -410q100 27 169 89.5t89 153.5h-88l35 167h195l-21 -101
q-35 -169 -132 -267.5t-265 -134.5q-45 -231 -72 -367t-35 -212h-170z" />
    <glyph glyph-name="uni01B1" unicode="&#x1b1;" horiz-adv-x="1558" 
d="M733.5 -21q-194.5 0 -330.5 67t-209 192.5t-73 294.5q0 272 146.5 457.5t424.5 273.5q-165 -11 -215 -11h-254l30 156h589l-43 -224q-241 -77 -365 -238.5t-124 -376t109.5 -326t307.5 -111.5q152 0 274 70t189.5 199.5t67.5 299t-64.5 285t-207.5 198.5l45 224h547
l-30 -156h-203q-53 0 -236 11q162 -90 251 -240.5t89 -346t-93 -358t-260.5 -251.5t-362 -89z" />
    <glyph glyph-name="uni01B2" unicode="&#x1b2;" horiz-adv-x="1479" 
d="M614 -20q-137 0 -243 53t-164 152.5t-58 236.5q0 76 17 161l160 826h191l-165 -859q-13 -65 -13 -126q0 -141 77 -215q78 -74 214 -74t240 77.5t180 229t124.5 355.5t48.5 298q0 167 -129 167q-53 0 -105 -10l23 157q64 11 131 11q135 0 203 -81.5t68 -206.5t-50 -361
t-149 -419t-252.5 -277.5t-348.5 -94.5z" />
    <glyph glyph-name="uni01B3" unicode="&#x1b3;" horiz-adv-x="1469" 
d="M1437 1421q128 0 233 -96l-101 -133q-34 26 -67 46q-34 20 -74 20t-69 -16.5t-65 -60.5l-509 -597l-113 -584h-190l115 584l-384 825h196l306 -674l442 532q76 90 138.5 122t141.5 32z" />
    <glyph glyph-name="uni01B4" unicode="&#x1b4;" horiz-adv-x="1024" 
d="M9 -425q-63 0 -125 14l31 134q36 -8 82 -8q86 0 158.5 60.5t147.5 191.5l26 45l-217 1070h183l112 -597l11 -65q26 -156 31 -223l60 115l509 937q67 123 144.5 183t197.5 60t215 -93l-98 -128q-56 62 -125 62q-96 0 -175 -137l-673 -1196q-140 -247 -246 -336t-249 -89z
" />
    <glyph glyph-name="uni01B5" unicode="&#x1b5;" horiz-adv-x="1251" 
d="M114 814h510l417 439h-765l30 156h1002l-27 -139l-432 -456h391l-26 -133h-491l-496 -525h885l-30 -156h-1122l27 143l511 538h-410z" />
    <glyph glyph-name="uni01B6" unicode="&#x1b6;" horiz-adv-x="1024" 
d="M74 617h383l323 326h-601l27 139h824l-27 -137l-326 -328h301l-26 -133h-406l-342 -345h679l-27 -139h-900l27 137l344 347h-279z" />
    <glyph glyph-name="uni01B7" unicode="&#x1b7;" horiz-adv-x="1251" 
d="M96 -6q83 -271 339 -271q232 0 361.5 159t129.5 387q0 170 -111.5 259.5t-324.5 89.5h-80l27 141l596 494h-785l31 156h1018l-32 -161l-602 -490q222 -25 337.5 -152t115.5 -338q0 -142 -46 -272q-44 -130 -134 -226q-183 -196 -490 -196q-205 0 -338 91.5t-180 269.5z
" />
    <glyph glyph-name="uni01B8" unicode="&#x1b8;" horiz-adv-x="1251" 
d="M789 618q-287 0 -453 -152.5t-166 -413.5q0 -155 84.5 -242t227.5 -87q280 0 452 271l140 -83q-122 -187 -263 -262t-353 -75t-345 128.5t-133 335.5t85 361.5t242 247.5t361 111l-417 490l32 161h1018l-31 -156h-813l416 -494l-27 -141h-57z" />
    <glyph glyph-name="uni01B9" unicode="&#x1b9;" horiz-adv-x="1024" 
d="M579 411q-130 0 -236 -52t-165 -147t-59 -219t68 -201.5t189 -77.5t205 58.5t132 191.5l166 -12q-114 -379 -525 -379q-126 0 -221 53t-146.5 149t-51.5 216q0 215 134.5 364t371.5 186l-298 365l34 177h883l-27 -141h-711l326 -394l-28 -137h-41z" />
    <glyph glyph-name="uni01BA" unicode="&#x1ba;" horiz-adv-x="1024" 
d="M321 -426q-113 0 -206 33.5t-145.5 96.5t-52.5 138t25 126t69.5 89.5t122.5 70.5t234 66t247 69.5t91 111.5q0 51 -58.5 90.5t-323.5 39.5l27 139l414 298h-606l27 140h868l-23 -119l-465 -326q155 -15 236 -76.5t81 -163.5q0 -218 -179.5 -264.5t-255.5 -64.5
t-210.5 -51t-134.5 -159q0 -66 61.5 -103.5t185.5 -37.5q274 0 379 201l167 -19q-145 -325 -575 -325z" />
    <glyph glyph-name="uni01BB" unicode="&#x1bb;" horiz-adv-x="1139" 
d="M920 1063q0 98 -62 158.5t-170 60.5t-189 -59.5t-118 -178.5l-170 37q54 170 178.5 259.5t308.5 89.5t297.5 -98t113.5 -265t-143 -317h141l-27 -136h-270q-80 -57 -287 -186.5t-301 -274.5h727l-29 -153h-932l24 127q99 168 232.5 273t307.5 214h-414l27 136h584
q171 139 171 313z" />
    <glyph glyph-name="uni01BC" unicode="&#x1bc;" horiz-adv-x="1045" 
d="M810 550q0 118 -77 181.5t-222 63.5h-209l89 458h-172l30 156h842l-30 -156h-486l-59 -303h48q208 0 322 -103.5t114 -276.5t-72 -310q-146 -280 -513 -280q-261 0 -365 172q-50 82 -55 193l181 21q17 -243 250 -243q232 1 334 209q50 102 50 218z" />
    <glyph glyph-name="uni01BD" unicode="&#x1bd;" horiz-adv-x="897" 
d="M632 357q0 193 -262 193h-157l76 392h-172l27 140h780l-27 -140h-446l-49 -254h44q174 0 273 -81t99 -225q0 -187 -121 -294.5t-320 -107.5q-387 0 -387 331l170 12q2 -96 58 -153t161.5 -57t179 64.5t73.5 179.5z" />
    <glyph glyph-name="uni01BE" unicode="&#x1be;" horiz-adv-x="1024" 
d="M234 727.5q0 51.5 33 223.5h-131l26 131h132l67 347l194 78l-82 -425h185l-26 -131h-185l-21 -107q-10 -47 -10 -90.5t35.5 -72t147.5 -59t173 -67.5q127 -77 127 -220q0 -172 -119.5 -263.5t-334.5 -91.5t-312.5 67t-110.5 207l161 30q12 -89 72.5 -128t190.5 -39
t202 53.5t72 150.5q0 49 -32.5 79.5t-110.5 55.5q-182 56 -235 89.5t-80.5 82t-27.5 100z" />
    <glyph glyph-name="uni01BF" unicode="&#x1bf;" horiz-adv-x="1139" 
d="M889 749q0 214 -203 214q-143 0 -237 -106t-132 -311l-102 -525q255 90 392.5 195t209.5 244t72 289zM751 1102q160 0 245 -86t85 -253q0 -430 -452 -703q-103 -62 -217.5 -105.5t-225.5 -80.5l-58 -299h-179l293 1508h166q-5 -42 -9.5 -85.5t-13.5 -88.5h4
q125 193 362 193z" />
    <glyph glyph-name="uni01C0" unicode="&#x1c0;" horiz-adv-x="532" 
d="M196 0v1484h180v-1484h-180z" />
    <glyph glyph-name="uni01C1" unicode="&#x1c1;" horiz-adv-x="846" 
d="M522 0v1484h165v-1484h-165zM199 0v1484h165v-1484h-165z" />
    <glyph glyph-name="uni01C1" unicode="&#x2016;" horiz-adv-x="846" 
d="M522 0v1484h165v-1484h-165zM199 0v1484h165v-1484h-165z" />
    <glyph glyph-name="uni01C2" unicode="&#x1c2;" horiz-adv-x="1196" 
d="M134 1030h396v454h174v-454h398v-153h-398v-308h398v-153h-398v-416h-174v416h-396v153h396v308h-396v153z" />
    <glyph glyph-name="uni01C3" unicode="&#x1c3;" horiz-adv-x="569" 
d="M77 0l40 201h194l-40 -201h-194zM329 397h-148l172 1012h196z" />
    <glyph glyph-name="uni01C4" unicode="&#x1c4;" horiz-adv-x="2730" 
d="M567 153q195 0 344 77.5t228.5 223t79.5 352t-126 328.5t-353 122h-242l-215 -1103h284zM744 1409q312 0 490.5 -164.5t178.5 -453.5q0 -236 -103 -413t-296.5 -277.5t-438.5 -100.5h-512l273 1409h408zM2561 0h-1122l27 143l1054 1110h-765l30 156h1002l-27 -139
l-1054 -1114h885zM2378 1530h-204l-187 239l4 21h93l205 -139h2l246 139h116l-4 -21z" />
    <glyph glyph-name="uni01C5" unicode="&#x1c5;" horiz-adv-x="2503" 
d="M567 153q195 0 344 77.5t228.5 223t79.5 352t-126 328.5t-353 122h-242l-215 -1103h284zM744 1409q312 0 490.5 -164.5t178.5 -453.5q0 -236 -103 -413t-296.5 -277.5t-438.5 -100.5h-512l273 1409h408zM1467 0l23 137l742 806h-566l25 139h784l-24 -137l-742 -806h621
l-25 -139h-838zM2212 1201h-204l-181 270l4 20h97l199 -169h2l252 169h112l-4 -20z" />
    <glyph glyph-name="uni01C6" unicode="&#x1c6;" horiz-adv-x="2163" 
d="M257 365q0 -247 194 -247t291 162q49 82 77 204.5t28 233.5t-63.5 180.5t-181 69.5t-188.5 -72.5t-114 -237t-43 -293.5zM588 1101q243 0 310 -198h5l28 162l82 419h180l-245 -1261q-29 -141 -38 -223h-172q0 51 21 160h-5q-73 -95 -154 -138t-199 -43
q-157 0 -244.5 94.5t-87.5 278.5t61.5 374.5t173 282.5t284.5 92zM1872 1201h-204l-181 270l4 20h97l199 -169h2l252 169h112l-4 -20zM1127 0l23 137l742 806h-566l25 139h784l-24 -137l-742 -806h621l-25 -139h-838z" />
    <glyph glyph-name="uni01C7" unicode="&#x1c7;" horiz-adv-x="2163" 
d="M63 0l273 1409h191l-243 -1253h712l-30 -156h-903zM1539.5 135q102.5 0 167.5 72.5t95 232.5l157 813h-291l30 156h481l-193 -986q-85 -443 -448 -443q-351 0 -404 363l168 33q23 -117 79 -179t158.5 -62z" />
    <glyph glyph-name="uni01C8" unicode="&#x1c8;" horiz-adv-x="1594" 
d="M63 0l273 1409h191l-243 -1253h712l-30 -156h-903zM1039 -425q-56 0 -129 14l23 136q52 -8 97 -8q89 0 122 176l231 1189h180l-237 -1216q-31 -158 -101 -224.5t-186 -66.5zM1428 1312l33 172h180l-33 -172h-180z" />
    <glyph glyph-name="uni01C9" unicode="&#x1c9;" horiz-adv-x="910" 
d="M33 0l288 1484h180l-289 -1484h-179zM355 -425q-56 0 -129 14l23 136q52 -8 97 -8q89 0 122 176l231 1189h180l-237 -1216q-31 -158 -101 -224.5t-186 -66.5zM744 1312l33 172h180l-33 -172h-180z" />
    <glyph glyph-name="uni01CA" unicode="&#x1ca;" horiz-adv-x="2503" 
d="M987 0l-531 1210q-22 -171 -42 -267l-181 -943h-170l273 1409h212l534 -1215q26 189 45 284l181 931h172l-273 -1409h-220zM1879.5 135q102.5 0 167.5 72.5t95 232.5l157 813h-291l30 156h481l-193 -986q-85 -443 -448 -443q-351 0 -404 363l168 33q23 -117 79 -179
t158.5 -62z" />
    <glyph glyph-name="uni01CB" unicode="&#x1cb;" horiz-adv-x="1934" 
d="M987 0l-531 1210q-22 -171 -42 -267l-181 -943h-170l273 1409h212l534 -1215q26 189 45 284l181 931h172l-273 -1409h-220zM1379 -425q-56 0 -129 14l23 136q52 -8 97 -8q89 0 122 176l231 1189h180l-237 -1216q-31 -158 -101 -224.5t-186 -66.5zM1768 1312l33 172h180
l-33 -172h-180z" />
    <glyph glyph-name="uni01CC" unicode="&#x1cc;" horiz-adv-x="1594" 
d="M409 1082q0 -21 -28 -185h3q83 115 166.5 159.5t215 44.5t206 -73t74.5 -211q0 -64 -21 -164l-127 -653h-181l126 645q18 88 18 150q0 167 -179 167q-126 0 -222 -96t-128 -260l-118 -606h-180l166 851q20 95 39 231h170zM1039 -425q-56 0 -129 14l23 136q52 -8 97 -8
q89 0 122 176l231 1189h180l-237 -1216q-31 -158 -101 -224.5t-186 -66.5zM1428 1312l33 172h180l-33 -172h-180z" />
    <glyph glyph-name="uni01CD" unicode="&#x1cd;" horiz-adv-x="1366" 
d="M830 1265q-21 -42 -399 -704h527l-102 553zM1061 0l-75 412h-639l-240 -412h-208l848 1409h217l292 -1409h-195zM954 1530h-204l-187 239l4 21h93l205 -139h2l246 139h116l-4 -21z" />
    <glyph glyph-name="uni01CE" unicode="&#x1ce;" horiz-adv-x="1139" 
d="M237 280q0 -68 48.5 -115.5t135.5 -47.5t165 41.5t129 108.5t67 144l27 125l-199 -4q-209 -5 -291 -67t-82 -185zM852 787q0 178 -200 178q-119 0 -180 -42.5t-88 -129.5l-178 29q45 147 156.5 213.5t291 66.5t279 -80t99.5 -215q0 -64 -19 -157l-74 -378
q-11 -48 -11 -88q0 -73 81 -73q27 0 60 7l-14 -112q-66 -16 -128 -16q-178 0 -178 153l5 64h-6q-83 -126 -172 -176.5t-222 -50.5t-220.5 84t-87.5 214q0 185 132.5 280t422.5 99l232 3q19 98 19 127zM779 1201h-204l-181 270l4 20h97l199 -169h2l252 169h112l-4 -20z" />
    <glyph glyph-name="uni01CF" unicode="&#x1cf;" horiz-adv-x="569" 
d="M81 0l274 1409h191l-274 -1409h-191zM571 1530h-204l-187 239l4 21h93l205 -139h2l246 139h116l-4 -21z" />
    <glyph glyph-name="uni01D0" unicode="&#x1d0;" horiz-adv-x="455" 
d="M34 0l210 1082h180l-211 -1082h-179zM453 1201h-204l-181 270l4 20h97l199 -169h2l252 169h112l-4 -20z" />
    <glyph glyph-name="uni01D1" unicode="&#x1d1;" horiz-adv-x="1593" 
d="M928.5 1276q-199.5 0 -339 -89t-213.5 -266t-74 -372t106.5 -304.5t306.5 -109.5t338.5 86.5t215 259.5t76.5 373t-108.5 311t-308 111zM957.5 1430q257.5 0 418 -157t160.5 -422q-5 -268 -112 -463.5t-293 -301.5t-422 -106q-284 0 -441 157.5t-157 416t105.5 459
t294.5 309t446.5 108.5zM1053 1530h-204l-187 239l4 21h93l205 -139h2l246 139h116l-4 -21z" />
    <glyph glyph-name="uni01D2" unicode="&#x1d2;" horiz-adv-x="1139" 
d="M640 969q-135 0 -216.5 -69.5t-126.5 -210.5t-45 -281t64 -217.5t176.5 -77.5t175 34.5t109.5 108.5q100 157 111 427q0 286 -248 286zM1074 683q0 -131 -40 -271q-123 -432 -543 -432q-196 0 -310 118t-112 321.5t72 361.5q142 320 501 320q210 0 321 -109.5t111 -308.5
zM771 1201h-204l-181 270l4 20h97l199 -169h2l252 169h112l-4 -20z" />
    <glyph glyph-name="uni01D3" unicode="&#x1d3;" horiz-adv-x="1479" 
d="M675 -20q-254 0 -388 120.5t-134 330.5q0 98 23 204l150 774h191l-162 -843q-17 -87 -17 -143q0 -136 87.5 -212t244.5 -76q384 0 461 406l168 868h190l-170 -879q-54 -273 -222 -411.5t-422 -138.5zM1001 1530h-204l-187 239l4 21h93l205 -139h2l246 139h116l-4 -21z
" />
    <glyph glyph-name="uni01D4" unicode="&#x1d4;" horiz-adv-x="1139" 
d="M723 0q0 21 28 185h-3q-83 -115 -166.5 -159.5t-215 -44.5t-206 73t-74.5 211q0 64 21 164l127 653h181l-126 -645q-18 -88 -18 -150q0 -167 179 -167q126 0 222 96t128 260l118 606h180l-166 -851q-20 -95 -39 -231h-170zM786 1201h-204l-181 270l4 20h97l199 -169h2
l252 169h112l-4 -20z" />
    <glyph glyph-name="uni01D5" unicode="&#x1d5;" horiz-adv-x="1479" 
d="M675 -20q-254 0 -388 120t-134 331q0 98 23 204l150 774h191l-162 -843q-17 -87 -17 -143q0 -136 88 -212t244 -76q384 0 461 406l168 868h190l-170 -879q-54 -274 -222 -412t-422 -138zM1233 1708h-548l25 127h548zM613 1458l36 184h163l-36 -184h-163zM1046 1458
l36 184h163l-36 -184h-163z" />
    <glyph glyph-name="uni01D6" unicode="&#x1d6;" horiz-adv-x="1139" 
d="M723 0q0 21 28 185h-3q-82 -115 -166 -159t-216 -45q-132 0 -206 73t-74 211q0 64 21 164l127 653h181l-126 -645q-18 -88 -18 -150q0 -167 179 -167q126 0 222 96t128 260l118 606h180l-166 -851q-20 -95 -39 -231h-170zM412 1219l35 184h175l-35 -184h-175zM796 1219
l35 184h173l-35 -184h-173zM1024 1516h-550l26 127h550z" />
    <glyph glyph-name="uni01D7" unicode="&#x1d7;" horiz-adv-x="1479" 
d="M675 -20q-254 0 -388 120t-134 331q0 98 23 204l150 774h191l-162 -843q-17 -87 -17 -143q0 -136 88 -212t244 -76q384 0 461 406l168 868h190l-170 -879q-54 -274 -222 -412t-422 -138zM607 1448l36 184h163l-36 -184h-163zM1040 1448l36 184h163l-36 -184h-163z
M1041 1835h226l-2 -12l-294 -171h-129l1 10z" />
    <glyph glyph-name="uni01D8" unicode="&#x1d8;" horiz-adv-x="1139" 
d="M723 0q0 21 28 185h-3q-82 -115 -166 -159t-216 -45q-132 0 -206 73t-74 211q0 64 21 164l127 653h181l-126 -645q-18 -88 -18 -150q0 -167 179 -167q126 0 222 96t128 260l118 606h180l-166 -851q-20 -95 -39 -231h-170zM401 1219l35 184h175l-35 -184h-175zM785 1219
l35 184h173l-35 -184h-173zM641 1481l3 20l253 287h217l-5 -29l-374 -278h-94z" />
    <glyph glyph-name="uni01D9" unicode="&#x1d9;" horiz-adv-x="1479" 
d="M675 -20q-254 0 -388 120t-134 331q0 98 23 204l150 774h191l-162 -843q-17 -87 -17 -143q0 -136 88 -212t244 -76q384 0 461 406l168 868h190l-170 -879q-54 -274 -222 -412t-422 -138zM602 1448l36 184h163l-36 -184h-163zM1035 1448l36 184h163l-36 -184h-163z
M1126 1835h155l-2 -10l-241 -173h-194l-176 171l2 12h155l131 -97z" />
    <glyph glyph-name="uni01DA" unicode="&#x1da;" horiz-adv-x="1139" 
d="M723 0q0 21 28 185h-3q-82 -115 -166 -159t-216 -45q-132 0 -206 73t-74 211q0 64 21 164l127 653h181l-126 -645q-18 -88 -18 -150q0 -167 179 -167q126 0 222 96t128 260l118 606h180l-166 -851q-20 -95 -39 -231h-170zM417 1219l35 184h175l-35 -184h-175zM801 1219
l35 184h173l-35 -184h-173zM843 1481h-204l-181 270l4 20h97l199 -169h2l252 169h112l-4 -20z" />
    <glyph glyph-name="uni01DB" unicode="&#x1db;" horiz-adv-x="1479" 
d="M675 -20q-254 0 -388 120t-134 331q0 98 23 204l150 774h191l-162 -843q-17 -87 -17 -143q0 -136 88 -212t244 -76q384 0 461 406l168 868h190l-170 -879q-54 -274 -222 -412t-422 -138zM1049 1448l36 184h163l-36 -184h-163zM616 1448l36 184h163l-36 -184h-163z
M1058 1662l-1 -10h-129l-228 171l2 12h226z" />
    <glyph glyph-name="uni01DC" unicode="&#x1dc;" horiz-adv-x="1139" 
d="M723 0q0 21 28 185h-3q-82 -115 -166 -159t-216 -45q-132 0 -206 73t-74 211q0 64 21 164l127 653h181l-126 -645q-18 -88 -18 -150q0 -167 179 -167q126 0 222 96t128 260l118 606h180l-166 -851q-20 -95 -39 -231h-170zM398 1219l35 184h175l-35 -184h-175zM782 1219
l35 184h173l-35 -184h-173zM716 1481l-282 278l5 29h207l161 -287l-3 -20h-88z" />
    <glyph glyph-name="uni01DD" unicode="&#x1dd;" horiz-adv-x="1139" 
d="M500.5 113q127.5 0 219 85.5t128.5 242.5h-600l-4 -72q0 -124 64.5 -190t192 -66zM881 692q0 275 -267 275q-97 0 -176 -48t-123 -131l-138 63q73 131 185.5 191t272.5 60q201 0 312.5 -111.5t111.5 -313t-71 -361t-200 -248t-312 -88.5t-297 103t-114 291q0 105 24 205
h783q9 55 9 113z" />
    <glyph glyph-name="uni01DE" unicode="&#x1de;" horiz-adv-x="1366" 
d="M830 1265q-21 -42 -399 -704h527l-102 553zM1061 0l-75 412h-639l-240 -412h-208l848 1409h217l292 -1409h-195zM1182 1730h-548l25 127h548zM562 1480l36 184h163l-36 -184h-163zM995 1480l36 184h163l-36 -184h-163z" />
    <glyph glyph-name="uni01DF" unicode="&#x1df;" horiz-adv-x="1139" 
d="M237 280q1 -68 49 -116q48 -47 135 -47q87 -1 165 41t129 109t67 144l27 125l-199 -4q-209 -5 -291 -67t-82 -185zM852 787q0 178 -200 178q-119 -1 -180 -43t-88 -129l-178 29q44 148 156 214t292 66t278 -80q100 -80 100 -215q0 -64 -19 -157l-74 -378q-11 -48 -11 -88
q0 -73 81 -73q27 0 60 7l-14 -112q-66 -16 -128 -16q-178 0 -178 153l5 64h-6q-83 -127 -172 -177t-222 -50q-132 0 -220 84t-88 214q0 185 132 280t423 99l232 3q19 98 19 127zM416 1219l35 184h175l-35 -184h-175zM800 1219l35 184h173l-35 -184h-173zM1029 1516h-550
l26 127h550z" />
    <glyph glyph-name="uni01E0" unicode="&#x1e0;" horiz-adv-x="1366" 
d="M830 1265q-21 -42 -399 -704h527l-102 553zM1061 0l-75 412h-639l-240 -412h-208l848 1409h217l292 -1409h-195zM1185 1708h-548l25 127h548zM778 1468l36 184h162l-36 -184h-162z" />
    <glyph glyph-name="uni01E1" unicode="&#x1e1;" horiz-adv-x="1139" 
d="M237 280q1 -68 49 -116q48 -47 135 -47q87 -1 165 41t129 109t67 144l27 125l-199 -4q-209 -5 -291 -67t-82 -185zM852 787q0 178 -200 178q-119 -1 -180 -43t-88 -129l-178 29q44 148 156 214t292 66t278 -80q100 -80 100 -215q0 -64 -19 -157l-74 -378q-11 -48 -11 -88
q0 -73 81 -73q27 0 60 7l-14 -112q-66 -16 -128 -16q-178 0 -178 153l5 64h-6q-83 -127 -172 -177t-222 -50q-132 0 -220 84t-88 214q0 185 132 280t423 99l232 3q19 98 19 127zM587 1232l34 172h180l-34 -172h-180zM1008 1516h-550l26 127h550z" />
    <glyph glyph-name="uni01E2" unicode="&#x1e2;" horiz-adv-x="2048" 
d="M1109 1262h-151l-136 -216l-322 -485h473zM863 0l81 412h-543l-279 -412h-203l959 1409h1189l-30 -156h-739l-88 -452h679l-30 -154h-679l-95 -491h780l-31 -156h-971zM1743 1572h-550l26 127h550z" />
    <glyph glyph-name="uni01E3" unicode="&#x1e3;" horiz-adv-x="1821" 
d="M1332 969q-117 0 -201 -85t-118 -243h550l4 72q0 124 -59 190t-176 66zM223 287q0 -78 46.5 -124t136 -46t175 44.5t143 121t73.5 162.5l17 89l-206 -4q-147 -4 -227.5 -31t-119 -80.5t-38.5 -131.5zM1746 708q0 -107 -23 -205h-734q-6 -35 -7.5 -140.5t60 -176.5
t182.5 -71q182 0 272 179l138 -63q-71 -132 -177 -191.5t-256 -59.5t-245 70t-130 198q-187 -268 -479 -268q-95 0 -166.5 38t-110 106.5t-38.5 153.5q0 185 135.5 279.5t433.5 99.5l238 3q19 98 19 127q0 178 -208 178q-124 0 -187.5 -42t-92.5 -130l-178 29
q47 147 162.5 213.5t324 66.5t311.5 -158q124 158 332 158t316 -104t108 -290zM1320 1236h-550l26 127h550z" />
    <glyph glyph-name="uni01E4" unicode="&#x1e4;" horiz-adv-x="1593" 
d="M951 1274q-192 0 -336.5 -86t-221.5 -244.5t-77 -368t118 -325t333 -115.5q141 0 269.5 41t213.5 115l4 17h-419l25 130h419l26 130h-421l32 160h597l-59 -290h130l-25 -130h-131l-19 -98q-268 -230 -648 -230q-305 0 -473 156t-168 421t105 461.5t297.5 304t427.5 107.5
q465 0 574 -332l-193 -54q-74 230 -380 230z" />
    <glyph glyph-name="uni01E5" unicode="&#x1e5;" horiz-adv-x="1139" 
d="M266 425.5q0 -114.5 56 -172.5t158.5 -58t188 68.5t132 189t46.5 248.5t-64 197.5t-179 69.5t-185.5 -67.5t-111.5 -214t-41 -261zM397 -425q-336 0 -390 237l165 37q35 -137 229 -137q115 0 186.5 46.5t110.5 148.5h-757l18 93h766l54 271h-2q-77 -115 -161.5 -162
t-191.5 -47q-155 0 -251 95t-96 235q-1 140 37 283q112 426 474 426q119 0 201.5 -55t110.5 -149h2q7 37 25 106.5t23 78.5h171l-7 -30q-23 -89 -42 -194l-167 -858h66l-18 -93h-74q-56 -171 -174 -251.5t-308 -80.5z" />
    <glyph glyph-name="uni01E6" unicode="&#x1e6;" horiz-adv-x="1593" 
d="M932 1274q-192 0 -336.5 -86t-221.5 -244.5t-77 -368t118 -325t333 -115.5q295 0 483 156l51 254h-421l32 160h597l-100 -495q-268 -230 -648 -230q-305 0 -473 156t-168 421t105 461.5t297.5 304t427.5 107.5q463 0 574 -332l-193 -54q-74 230 -380 230zM1044 1530h-204
l-187 239l4 21h93l205 -139h2l246 139h116l-4 -21z" />
    <glyph glyph-name="uni01E7" unicode="&#x1e7;" horiz-adv-x="1139" 
d="M259 362.5q0 -110.5 52.5 -174t157.5 -63.5t193 78.5t136.5 215.5t48.5 273.5t-64 206t-165 69.5t-161 -37t-101 -116t-69 -210.5t-28 -242zM397 -425q-339 0 -393 252l163 42q35 -157 234 -157q142 0 220 73.5t110 241.5l34 174h-2q-61 -89 -109 -128q-99 -81 -248 -81
t-242.5 100.5t-93.5 250t37.5 303.5t102.5 256q127 199 378 199q121 0 204.5 -57t107.5 -147h2q7 37 25 106.5t23 78.5h171l-49 -224l-161 -827q-48 -242 -172 -349t-342 -107zM727 1201h-204l-181 270l4 20h97l199 -169h2l252 169h112l-4 -20z" />
    <glyph glyph-name="uni01E8" unicode="&#x1e8;" horiz-adv-x="1366" 
d="M1022 0l-472 674l-190 -129l-106 -545h-191l273 1409h191l-136 -691l140 129l665 562h245l-750 -630l557 -779h-226zM954 1530h-204l-187 239l4 21h93l205 -139h2l246 139h116l-4 -21z" />
    <glyph glyph-name="uni01E9" unicode="&#x1e9;" horiz-adv-x="1024" 
d="M721 0l-268 502l-168 -124l-72 -378h-179l288 1484h180l-179 -917l204 190l361 325h222l-530 -465l336 -617h-195zM721 1552h-204l-181 270l4 20h97l199 -169h2l252 169h112l-4 -20z" />
    <glyph glyph-name="uni01EA" unicode="&#x1ea;" horiz-adv-x="1593" 
d="M928.5 1276q-199.5 0 -339 -89t-213.5 -266t-74 -372t106.5 -304.5t306.5 -109.5t338.5 86.5t215 259.5t76.5 373t-108.5 311t-308 111zM957.5 1430q257.5 0 418 -157t160.5 -422q-5 -268 -112 -463.5t-293 -301.5q-111 -63 -239 -89q-88 -47 -138 -109t-50 -110
q0 -96 78 -95q54 0 114 22l-15 -105q-67 -27 -149.5 -27t-127.5 47t-45 125.5t50 140t111 94.5h-11q-284 0 -441 157.5t-157 416t105.5 459t294.5 309t446.5 108.5z" />
    <glyph glyph-name="uni01EB" unicode="&#x1eb;" horiz-adv-x="1139" 
d="M640 969q-135 0 -216.5 -69.5t-126.5 -210.5t-45 -281t64 -217.5t176.5 -77.5t175 34.5t109.5 108.5q100 157 111 427q0 286 -248 286zM1074 683q0 -131 -40 -271q-98 -345 -389 -415q-89 -47 -139 -109t-49 -110q0 -96 78 -95q54 0 114 22l-15 -105q-67 -27 -149.5 -27
t-127.5 47t-45 125.5t50 140t112 94.5q-184 5 -295.5 120.5t-109.5 319t72 361.5q142 320 501 320q210 0 321 -109.5t111 -308.5z" />
    <glyph glyph-name="uni01EC" unicode="&#x1ec;" horiz-adv-x="1593" 
d="M928.5 1276q-199.5 0 -339 -89t-213.5 -266t-74 -372t106.5 -304.5t306.5 -109.5t338.5 86.5t215 259.5t76.5 373t-108.5 311t-308 111zM957.5 1430q257.5 0 418 -157t160.5 -422q-5 -268 -112 -463.5t-293 -301.5q-118 -67 -256 -92q-85 -46 -133 -106q-48 -62 -49 -110
q0 -96 78 -95q54 0 114 22l-15 -105q-67 -27 -149.5 -27t-127.5 47t-45 125.5t50 140t111 94.5q-284 0 -441 157.5t-157 416t105.5 459t294.5 309t446.5 108.5zM1263 1587h-550l26 127h550z" />
    <glyph glyph-name="uni01ED" unicode="&#x1ed;" horiz-adv-x="1139" 
d="M640 969q-135 0 -216.5 -69.5t-126.5 -210.5t-45 -281t64 -217.5t176.5 -77.5t175 34.5t109.5 108.5q100 157 111 427q0 286 -248 286zM1074 683q0 -131 -40 -271q-98 -343 -386 -414q-89 -47 -138 -108.5t-49 -109.5q0 -96 78 -96q54 0 114 22l-15 -105
q-67 -27 -149.5 -27t-127.5 47t-45 125.5t49.5 139.5t110.5 94q-185 4 -297 120t-110 319.5t72 361.5q142 320 501 320q210 0 321 -109.5t111 -308.5zM986 1236h-550l26 127h550z" />
    <glyph glyph-name="uni01EE" unicode="&#x1ee;" horiz-adv-x="1251" 
d="M96 -6q83 -271 339 -271q232 0 361.5 159t129.5 387q0 170 -111.5 259.5t-324.5 89.5h-80l27 141l596 494h-785l31 156h1018l-32 -161l-602 -490q222 -25 337.5 -152t115.5 -338q0 -142 -46 -272q-44 -130 -134 -226q-183 -196 -490 -196q-205 0 -338 91.5t-180 269.5z
M857 1530h-204l-187 239l4 21h93l205 -139h2l246 139h116l-4 -21z" />
    <glyph glyph-name="uni01EF" unicode="&#x1ef;" horiz-adv-x="1024" 
d="M876 150.5q0 -155.5 -69 -291t-198 -210t-307.5 -74.5t-284 76t-121.5 226l172 21q30 -182 248 -182q112 0 198.5 58.5t134 164.5t47.5 218.5t-78 183t-210 70.5h-82l28 144l460 386h-636l27 141h824l-34 -178l-443 -364q149 -21 236.5 -127.5t87.5 -262zM721 1201h-204
l-181 270l4 20h97l199 -169h2l252 169h112l-4 -20z" />
    <glyph glyph-name="uni01F0" unicode="&#x1f0;" horiz-adv-x="455" 
d="M-100 -425q-56 0 -129 14l23 136q52 -8 97 -8q88 0 122 176l231 1189h180l-237 -1216q-31 -158 -101 -224.5t-186 -66.5zM450 1201h-204l-181 270l4 20h97l199 -169h2l252 169h112l-4 -20z" />
    <glyph glyph-name="uni01F1" unicode="&#x1f1;" horiz-adv-x="2730" 
d="M567 153q195 0 344 77.5t228.5 223t79.5 352t-126 328.5t-353 122h-242l-215 -1103h284zM744 1409q312 0 490.5 -164.5t178.5 -453.5q0 -236 -103 -413t-296.5 -277.5t-438.5 -100.5h-512l273 1409h408zM2561 0h-1122l27 143l1054 1110h-765l30 156h1002l-27 -139
l-1054 -1114h885z" />
    <glyph glyph-name="uni01F2" unicode="&#x1f2;" horiz-adv-x="2503" 
d="M567 153q195 0 344 77.5t228.5 223t79.5 352t-126 328.5t-353 122h-242l-215 -1103h284zM744 1409q312 0 490.5 -164.5t178.5 -453.5q0 -236 -103 -413t-296.5 -277.5t-438.5 -100.5h-512l273 1409h408zM1467 0l23 137l742 806h-566l25 139h784l-24 -137l-742 -806h621
l-25 -139h-838z" />
    <glyph glyph-name="uni01F3" unicode="&#x1f3;" horiz-adv-x="2163" 
d="M257 365q0 -247 194 -247t291 162q49 82 77 204.5t28 233.5t-63.5 180.5t-181 69.5t-188.5 -72.5t-114 -237t-43 -293.5zM588 1101q243 0 310 -198h5l28 162l82 419h180l-245 -1261q-29 -141 -38 -223h-172q0 51 21 160h-5q-73 -95 -154 -138t-199 -43
q-157 0 -244.5 94.5t-87.5 278.5t61.5 374.5t173 282.5t284.5 92zM1127 0l23 137l742 806h-566l25 139h784l-24 -137l-742 -806h621l-25 -139h-838z" />
    <glyph glyph-name="uni01F4" unicode="&#x1f4;" horiz-adv-x="1593" 
d="M932 1274q-192 0 -336.5 -86t-221.5 -244.5t-77 -368t118 -325t333 -115.5q295 0 483 156l51 254h-421l32 160h597l-100 -495q-268 -230 -648 -230q-305 0 -473 156t-168 421t105 461.5t297.5 304t427.5 107.5q463 0 574 -332l-193 -54q-74 230 -380 230zM870 1530l3 20
l261 226h207l-5 -29l-352 -217h-114z" />
    <glyph glyph-name="uni01F5" unicode="&#x1f5;" horiz-adv-x="1139" 
d="M259 362.5q0 -110.5 52.5 -174t157.5 -63.5t193 78.5t136.5 215.5t48.5 273.5t-64 206t-165 69.5t-161 -37t-101 -116t-69 -210.5t-28 -242zM397 -425q-339 0 -393 252l163 42q35 -157 234 -157q142 0 220 73.5t110 241.5l34 174h-2q-61 -89 -109 -128q-99 -81 -248 -81
t-242.5 100.5t-93.5 250t37.5 303.5t102.5 256q127 199 378 199q121 0 204.5 -57t107.5 -147h2q7 37 25 106.5t23 78.5h171l-49 -224l-161 -827q-48 -242 -172 -349t-342 -107zM547 1201l3 20l253 287h217l-5 -29l-374 -278h-94z" />
    <glyph glyph-name="uni01F6" unicode="&#x1f6;" horiz-adv-x="2118" 
d="M1273 295q0 -178 206 -178q126 0 196 63.5t100 213.5l133 688h181l-139 -717q-40 -203 -158 -294q-116 -91 -312 -91t-295 80.5t-99 227.5q0 46 9 93l53 272h-767l-127 -653h-191l274 1409h191l-116 -596h767l116 596h186l-197 -1015q-11 -58 -11 -99z" />
    <glyph glyph-name="uni01F7" unicode="&#x1f7;" horiz-adv-x="1265" 
d="M1066 1038q0 112 -58 174.5t-165 62.5t-193 -51t-147 -141t-81 -193l-170 -880q205 76 398 253.5t304.5 389t111.5 385.5zM874 1430q186 0 286.5 -100t100.5 -283q0 -230 -138 -473.5t-382 -442t-522 -291.5l-52 -265h-191l357 1834h184l-34 -170q170 191 391 191z" />
    <glyph glyph-name="uni01F8" unicode="&#x1f8;" horiz-adv-x="1479" 
d="M987 0l-531 1210q-22 -171 -42 -267l-181 -943h-170l273 1409h212l534 -1215q26 189 45 284l181 931h172l-273 -1409h-220zM921 1530l-293 217l5 29h207l173 -226l-3 -20h-89z" />
    <glyph glyph-name="uni01F9" unicode="&#x1f9;" horiz-adv-x="1139" 
d="M409 1082q0 -21 -28 -185h3q83 115 166.5 159.5t215 44.5t206 -73t74.5 -211q0 -64 -21 -164l-127 -653h-181l126 645q18 88 18 150q0 167 -179 167q-126 0 -222 -96t-128 -260l-118 -606h-180l166 851q20 95 39 231h170zM665 1201l-282 278l5 29h207l161 -287l-3 -20
h-88z" />
    <glyph glyph-name="Aringacute" unicode="&#x1fa;" horiz-adv-x="1366" 
d="M830 1265q-21 -42 -399 -704h527l-102 553zM614 1536q0 111 71 181t171 70q100 -1 170 -71q72 -70 72 -170t-71 -171q-23 -23 -48 -38l277 -1337h-195l-75 412h-639l-240 -412h-208l813 1351q-98 74 -98 185zM990 1546q0 58 -38 96t-96 38t-97 -40q-38 -40 -38 -94
q0 -55 38 -96q39 -41 97 -41t96 40q38 39 38 97zM792 1831l3 20l261 226h207l-5 -29l-352 -217h-114z" />
    <glyph glyph-name="aringacute" unicode="&#x1fb;" horiz-adv-x="1139" 
d="M237 280q1 -68 49 -116q48 -47 135 -47q87 -1 165 41t129 109t67 144l27 125l-199 -4q-209 -5 -291 -67t-82 -185zM852 787q0 178 -200 178q-119 -1 -180 -43t-88 -129l-178 29q44 148 156 214t292 66t278 -80q100 -80 100 -215q0 -64 -19 -157l-74 -378q-11 -48 -11 -88
q0 -73 81 -73q27 0 60 7l-14 -112q-66 -16 -128 -16q-178 0 -178 153l5 64h-6q-83 -127 -172 -177t-222 -50q-132 0 -220 84t-88 214q0 185 132 280t423 99l232 3q19 98 19 127zM853 1410q0 58 -38 96q-39 38 -97 38t-96 -40t-38 -94q0 -55 38 -96t96 -41t97 40q38 39 38 97
zM961 1410q0 -100 -71 -171t-171 -71t-171 71t-71 171t71 171q70 70 170 70q100 -1 172 -71t71 -170zM685 1711l3 20l261 226h207l-5 -29l-352 -217h-114z" />
    <glyph glyph-name="AEacute" unicode="&#x1fc;" horiz-adv-x="2048" 
d="M1109 1262h-151l-136 -216l-322 -485h473zM863 0l81 412h-543l-279 -412h-203l959 1409h1189l-30 -156h-739l-88 -452h679l-30 -154h-679l-95 -491h780l-31 -156h-971zM1264 1530l3 20l261 226h207l-5 -29l-352 -217h-114z" />
    <glyph glyph-name="aeacute" unicode="&#x1fd;" horiz-adv-x="1821" 
d="M1332 969q-117 0 -201 -85t-118 -243h550l4 72q0 124 -59 190t-176 66zM223 287q1 -78 47 -124t136 -46q90 1 174 45q86 44 144 120t73 163l17 89l-206 -4q-148 -4 -228 -31t-118 -81t-39 -131zM1746 708q0 -107 -23 -205h-734q-5 -35 -7 -141t60 -176q62 -71 182 -71
q182 0 272 179l138 -63q-71 -131 -177 -191t-256 -60t-245 70t-130 198q-187 -268 -479 -268q-95 0 -167 38t-110 106t-38 154q0 186 136 280t433 99l238 3q19 98 19 127q0 178 -208 178q-124 0 -188 -42t-92 -130l-178 29q46 148 162 214t324 66t312 -158q124 158 332 158
t316 -104t108 -290zM893 1201l3 20l253 287h217l-5 -29l-374 -278h-94z" />
    <glyph glyph-name="Oslashacute" unicode="&#x1fe;" horiz-adv-x="1593" 
d="M1335 817q0 163 -46 257l-870 -848q105 -91 295 -91q190 1 330 87q138 86 214 259t77 336zM909 1276q-189 0 -329 -89t-214 -266t-74 -335t46 -254l870 850q-109 94 -299 94zM691 -20q-244 0 -397 124l-161 -157h-189l260 254q-103 149 -103 380q-1 231 105 431t295 310
q189 108 432 108t399 -127l167 163h192l-268 -261q103 -145 103 -354q-5 -267 -112 -463t-293 -302t-430 -106zM855 1530l3 20l261 226h207l-5 -29l-352 -217h-114z" />
    <glyph glyph-name="oslashacute" unicode="&#x1ff;" horiz-adv-x="1251" 
d="M576 118q120 0 198 66t122 202t50 297q0 66 -14 117l-540 -627q64 -55 184 -55zM310 446q0 -102 15 -157l540 627q-63 53 -183 53q-120 1 -200 -69q-82 -70 -127 -211t-45 -243zM690 1101q172 0 277 -67l70 82h167l-146 -169q74 -103 74 -264q0 -106 -26 -216
q-110 -482 -557 -482q-154 0 -258 71l-80 -94h-167l157 183q-76 109 -76 274q4 204 74 362t194 239q125 81 297 81zM609 1201l3 20l253 287h217l-5 -29l-374 -278h-94z" />
    <glyph glyph-name="uni0200" unicode="&#x200;" horiz-adv-x="1366" 
d="M830 1265q-21 -42 -399 -704h527l-102 553zM1061 0l-75 412h-639l-240 -412h-208l848 1409h217l292 -1409h-195zM997 1530l-247 250l4 29h203l134 -259l-4 -20h-90zM666 1530l-247 250l4 29h203l134 -259l-4 -20h-90z" />
    <glyph glyph-name="uni0201" unicode="&#x201;" horiz-adv-x="1139" 
d="M237 280q0 -68 48.5 -115.5t135.5 -47.5t165 41.5t129 108.5t67 144l27 125l-199 -4q-209 -5 -291 -67t-82 -185zM852 787q0 178 -200 178q-119 0 -180 -42.5t-88 -129.5l-178 29q45 147 156.5 213.5t291 66.5t279 -80t99.5 -215q0 -64 -19 -157l-74 -378
q-11 -48 -11 -88q0 -73 81 -73q27 0 60 7l-14 -112q-66 -16 -128 -16q-178 0 -178 153l5 64h-6q-83 -126 -172 -176.5t-222 -50.5t-220.5 84t-87.5 214q0 185 132.5 280t422.5 99l232 3q19 98 19 127zM860 1202l-247 250l4 29h203l134 -259l-4 -20h-90zM529 1202l-247 250
l4 29h203l134 -259l-4 -20h-90z" />
    <glyph glyph-name="uni0202" unicode="&#x202;" horiz-adv-x="1366" 
d="M830 1265q-21 -42 -399 -704h527l-102 553zM1061 0l-75 412h-639l-240 -412h-208l848 1409h217l292 -1409h-195zM909.5 1790q117.5 0 181.5 -63.5t65 -176.5l-1 -20h-105q-2 61 -45 96.5t-113 35.5t-129 -32.5t-87 -99.5h-104q39 119 129.5 189.5t208 70.5z" />
    <glyph glyph-name="uni0203" unicode="&#x203;" horiz-adv-x="1139" 
d="M237 280q0 -68 48.5 -115.5t135.5 -47.5t165 41.5t129 108.5t67 144l27 125l-199 -4q-209 -5 -291 -67t-82 -185zM852 787q0 178 -200 178q-119 0 -180 -42.5t-88 -129.5l-178 29q45 147 156.5 213.5t291 66.5t279 -80t99.5 -215q0 -64 -19 -157l-74 -378
q-11 -48 -11 -88q0 -73 81 -73q27 0 60 7l-14 -112q-66 -16 -128 -16q-178 0 -178 153l5 64h-6q-83 -126 -172 -176.5t-222 -50.5t-220.5 84t-87.5 214q0 185 132.5 280t422.5 99l232 3q19 98 19 127zM734.5 1466q117.5 0 181.5 -63.5t65 -176.5l-1 -20h-105q-2 61 -45 96.5
t-113 35.5t-129 -32.5t-87 -99.5h-104q39 119 129.5 189.5t208 70.5z" />
    <glyph glyph-name="uni0204" unicode="&#x204;" horiz-adv-x="1366" 
d="M63 0l273 1409h1049l-30 -156h-858l-88 -452h798l-30 -154h-798l-95 -491h899l-30 -156h-1090zM1071 1531l-247 250l4 29h203l134 -259l-4 -20h-90zM740 1531l-247 250l4 29h203l134 -259l-4 -20h-90z" />
    <glyph glyph-name="uni0205" unicode="&#x205;" horiz-adv-x="1139" 
d="M627.5 969q-127.5 0 -219 -85.5t-128.5 -242.5h600l4 72q0 124 -64.5 190t-192 66zM514 115q97 0 176 48t123 131l138 -63q-73 -131 -185.5 -191t-272.5 -60q-201 0 -312.5 111.5t-111.5 313t71 361t200 248t312 88.5t297 -103t114 -291q0 -105 -24 -205h-783
q-6 -35 -9 -113q0 -275 267 -275zM838 1191l-247 250l4 29h203l134 -259l-4 -20h-90zM507 1191l-247 250l4 29h203l134 -259l-4 -20h-90z" />
    <glyph glyph-name="uni0206" unicode="&#x206;" horiz-adv-x="1366" 
d="M63 0l273 1409h1049l-30 -156h-858l-88 -452h798l-30 -154h-798l-95 -491h899l-30 -156h-1090zM927.5 1790q117.5 0 181.5 -63.5t65 -176.5l-1 -20h-105q-2 61 -45 96.5t-113 35.5t-129 -32.5t-87 -99.5h-104q39 119 129.5 189.5t208 70.5z" />
    <glyph glyph-name="uni0207" unicode="&#x207;" horiz-adv-x="1139" 
d="M627.5 969q-127.5 0 -219 -85.5t-128.5 -242.5h600l4 72q0 124 -64.5 190t-192 66zM514 115q97 0 176 48t123 131l138 -63q-73 -131 -185.5 -191t-272.5 -60q-201 0 -312.5 111.5t-111.5 313t71 361t200 248t312 88.5t297 -103t114 -291q0 -105 -24 -205h-783
q-6 -35 -9 -113q0 -275 267 -275zM715.5 1466q117.5 0 181.5 -63.5t65 -176.5l-1 -20h-105q-2 61 -45 96.5t-113 35.5t-129 -32.5t-87 -99.5h-104q39 119 129.5 189.5t208 70.5z" />
    <glyph glyph-name="uni0208" unicode="&#x208;" horiz-adv-x="569" 
d="M81 0l274 1409h191l-274 -1409h-191zM637 1530l-247 250l4 29h203l134 -259l-4 -20h-90zM306 1530l-247 250l4 29h203l134 -259l-4 -20h-90z" />
    <glyph glyph-name="uni0209" unicode="&#x209;" horiz-adv-x="569" 
d="M89 0l210 1082h180l-211 -1082h-179zM608 1191l-247 250l4 29h203l134 -259l-4 -20h-90zM277 1191l-247 250l4 29h203l134 -259l-4 -20h-90z" />
    <glyph glyph-name="uni020A" unicode="&#x20a;" horiz-adv-x="569" 
d="M81 0l274 1409h191l-274 -1409h-191zM519.5 1790q117.5 0 181.5 -63.5t65 -176.5l-1 -20h-105q-2 61 -45 96.5t-113 35.5t-129 -32.5t-87 -99.5h-104q39 119 129.5 189.5t208 70.5z" />
    <glyph glyph-name="uni020B" unicode="&#x20b;" horiz-adv-x="569" 
d="M89 0l210 1082h180l-211 -1082h-179zM456.5 1466q117.5 0 181.5 -63.5t65 -176.5l-1 -20h-105q-2 61 -45 96.5t-113 35.5t-129 -32.5t-87 -99.5h-104q39 119 129.5 189.5t208 70.5z" />
    <glyph glyph-name="uni020C" unicode="&#x20c;" horiz-adv-x="1593" 
d="M928.5 1276q-199.5 0 -339 -89t-213.5 -266t-74 -372t106.5 -304.5t306.5 -109.5t338.5 86.5t215 259.5t76.5 373t-108.5 311t-308 111zM957.5 1430q257.5 0 418 -157t160.5 -422q-5 -268 -112 -463.5t-293 -301.5t-422 -106q-284 0 -441 157.5t-157 416t105.5 459
t294.5 309t446.5 108.5zM1106 1530l-247 250l4 29h203l134 -259l-4 -20h-90zM775 1530l-247 250l4 29h203l134 -259l-4 -20h-90z" />
    <glyph glyph-name="uni020D" unicode="&#x20d;" horiz-adv-x="1139" 
d="M640 969q-135 0 -216.5 -69.5t-126.5 -210.5t-45 -281t64 -217.5t176.5 -77.5t175 34.5t109.5 108.5q100 157 111 427q0 286 -248 286zM1074 683q0 -131 -40 -271q-123 -432 -543 -432q-196 0 -310 118t-112 321.5t72 361.5q142 320 501 320q210 0 321 -109.5t111 -308.5
zM838 1191l-247 250l4 29h203l134 -259l-4 -20h-90zM507 1191l-247 250l4 29h203l134 -259l-4 -20h-90z" />
    <glyph glyph-name="uni020E" unicode="&#x20e;" horiz-adv-x="1593" 
d="M928.5 1276q-199.5 0 -339 -89t-213.5 -266t-74 -372t106.5 -304.5t306.5 -109.5t338.5 86.5t215 259.5t76.5 373t-108.5 311t-308 111zM957.5 1430q257.5 0 418 -157t160.5 -422q-5 -268 -112 -463.5t-293 -301.5t-422 -106q-284 0 -441 157.5t-157 416t105.5 459
t294.5 309t446.5 108.5zM988.5 1790q117.5 0 181.5 -63.5t65 -176.5l-1 -20h-105q-2 61 -45 96.5t-113 35.5t-129 -32.5t-87 -99.5h-104q39 119 129.5 189.5t208 70.5z" />
    <glyph glyph-name="uni020F" unicode="&#x20f;" horiz-adv-x="1139" 
d="M640 969q-135 0 -216.5 -69.5t-126.5 -210.5t-45 -281t64 -217.5t176.5 -77.5t175 34.5t109.5 108.5q100 157 111 427q0 286 -248 286zM1074 683q0 -131 -40 -271q-123 -432 -543 -432q-196 0 -310 118t-112 321.5t72 361.5q142 320 501 320q210 0 321 -109.5t111 -308.5
zM705.5 1466q117.5 0 181.5 -63.5t65 -176.5l-1 -20h-105q-2 61 -45 96.5t-113 35.5t-129 -32.5t-87 -99.5h-104q39 119 129.5 189.5t208 70.5z" />
    <glyph glyph-name="uni0210" unicode="&#x210;" horiz-adv-x="1479" 
d="M857 736q181 0 273 76t92 200q0 244 -297 244h-427l-101 -520h460zM1416 1039q0 -378 -427 -437l268 -602h-206l-243 585h-441l-113 -585h-191l273 1409h612q214 0 341 -102t127 -268zM1002 1530l-247 250l4 29h203l134 -259l-4 -20h-90zM671 1530l-247 250l4 29h203
l134 -259l-4 -20h-90z" />
    <glyph glyph-name="uni0211" unicode="&#x211;" horiz-adv-x="682" 
d="M628 951q-105 0 -189.5 -110t-114.5 -277l-110 -564h-180l162 830l25 138l18 114h170l-35 -221h4q66 133 130 187t148 54q46 0 95 -14l-33 -150q-44 13 -90 13zM665 1191l-247 250l4 29h203l134 -259l-4 -20h-90zM334 1191l-247 250l4 29h203l134 -259l-4 -20h-90z" />
    <glyph glyph-name="uni0212" unicode="&#x212;" horiz-adv-x="1479" 
d="M857 736q181 0 273 76t92 200q0 244 -297 244h-427l-101 -520h460zM1416 1039q0 -378 -427 -437l268 -602h-206l-243 585h-441l-113 -585h-191l273 1409h612q214 0 341 -102t127 -268zM901.5 1791q117.5 0 181.5 -63.5t65 -176.5l-1 -20h-105q-2 61 -45 96.5t-113 35.5
t-129 -32.5t-87 -99.5h-104q39 119 129.5 189.5t208 70.5z" />
    <glyph glyph-name="uni0213" unicode="&#x213;" horiz-adv-x="682" 
d="M628 951q-105 0 -189.5 -110t-114.5 -277l-110 -564h-180l162 830l25 138l18 114h170l-35 -221h4q66 133 130 187t148 54q46 0 95 -14l-33 -150q-44 13 -90 13zM563.5 1466q117.5 0 181.5 -63.5t65 -176.5l-1 -20h-105q-2 61 -45 96.5t-113 35.5t-129 -32.5t-87 -99.5
h-104q39 119 129.5 189.5t208 70.5z" />
    <glyph glyph-name="uni0214" unicode="&#x214;" horiz-adv-x="1479" 
d="M675 -20q-254 0 -388 120.5t-134 330.5q0 98 23 204l150 774h191l-162 -843q-17 -87 -17 -143q0 -136 87.5 -212t244.5 -76q384 0 461 406l168 868h190l-170 -879q-54 -273 -222 -411.5t-422 -138.5zM1078 1530l-247 250l4 29h203l134 -259l-4 -20h-90zM747 1530
l-247 250l4 29h203l134 -259l-4 -20h-90z" />
    <glyph glyph-name="uni0215" unicode="&#x215;" horiz-adv-x="1139" 
d="M723 0q0 21 28 185h-3q-83 -115 -166.5 -159.5t-215 -44.5t-206 73t-74.5 211q0 64 21 164l127 653h181l-126 -645q-18 -88 -18 -150q0 -167 179 -167q126 0 222 96t128 260l118 606h180l-166 -851q-20 -95 -39 -231h-170zM853 1191l-247 250l4 29h203l134 -259l-4 -20
h-90zM522 1191l-247 250l4 29h203l134 -259l-4 -20h-90z" />
    <glyph glyph-name="uni0216" unicode="&#x216;" horiz-adv-x="1479" 
d="M675 -20q-254 0 -388 120.5t-134 330.5q0 98 23 204l150 774h191l-162 -843q-17 -87 -17 -143q0 -136 87.5 -212t244.5 -76q384 0 461 406l168 868h190l-170 -879q-54 -273 -222 -411.5t-422 -138.5zM969.5 1790q117.5 0 181.5 -63.5t65 -176.5l-1 -20h-105
q-2 61 -45 96.5t-113 35.5t-129 -32.5t-87 -99.5h-104q39 119 129.5 189.5t208 70.5z" />
    <glyph glyph-name="uni0217" unicode="&#x217;" horiz-adv-x="1139" 
d="M723 0q0 21 28 185h-3q-83 -115 -166.5 -159.5t-215 -44.5t-206 73t-74.5 211q0 64 21 164l127 653h181l-126 -645q-18 -88 -18 -150q0 -167 179 -167q126 0 222 96t128 260l118 606h180l-166 -851q-20 -95 -39 -231h-170zM722.5 1466q117.5 0 181.5 -63.5t65 -176.5
l-1 -20h-105q-2 61 -45 96.5t-113 35.5t-129 -32.5t-87 -99.5h-104q39 119 129.5 189.5t208 70.5z" />
    <glyph glyph-name="Scommaaccent" unicode="&#x218;" horiz-adv-x="1366" 
d="M447 1050q-1 -60 25 -98t84 -66t244 -80q184 -50 270 -100q176 -103 176 -304q0 -200 -155 -311t-475 -111q-248 0 -386 88t-172 270l177 37q27 -129 120 -187t293 -58q402 0 403 266q0 68 -29 108t-99 72t-241 80q-172 48 -256 98q-172 100 -171 284q-1 184 153 288
t395 104q472 0 541 -298l-173 -51q-64 205 -348 205q-376 0 -376 -236zM580 -455h-117q114 101 131 190h-88l32 167h195l-20 -106q-30 -152 -133 -251z" />
    <glyph glyph-name="scommaaccent" unicode="&#x219;" horiz-adv-x="1024" 
d="M425 -20q-175 0 -277 58t-143 185l147 56q32 -88 102 -128t200 -40q130 1 204 49t74 141q0 61 -51 103t-197 88t-211 87q-132 82 -132 223q0 140 116 218t327 79q354 0 398 -255l-163 -25q-22 79 -83 114q-60 35 -174 35t-180 -40t-67 -113q-1 -75 81 -121
q40 -22 175 -64t199 -84q136 -87 137 -239q0 -151 -124 -239t-358 -88zM394 -455h-117q114 101 131 190h-88l32 167h195l-20 -106q-30 -152 -133 -251z" />
    <glyph glyph-name="uni021A" unicode="&#x21a;" horiz-adv-x="1251" 
d="M858 1253l-244 -1253h-190l244 1253h-484l30 156h1158l-30 -156h-484zM445 -455h-117q114 101 131 190h-88l32 167h195l-20 -106q-30 -152 -133 -251z" />
    <glyph glyph-name="uni021B" unicode="&#x21b;" horiz-adv-x="569" 
d="M269.5 -20q-79.5 0 -128 51t-48.5 120.5t15 144.5l126 655h-125l26 131h127l105 242h120l-47 -242h200l-26 -131h-200l-125 -645q-12 -60 -12 -95q0 -88 90 -88q42 0 100 14l-19 -133q-99 -24 -178.5 -24zM176 -455h-117q114 101 131 190h-88l32 167h195l-20 -106
q-30 -152 -133 -251z" />
    <glyph glyph-name="uni021C" unicode="&#x21c;" horiz-adv-x="1116" 
d="M784 418q0 110 -45 167q-206 -138 -668 -281l33 173q427 126 614 261.5t187 317.5q0 98 -64 155.5t-176.5 57.5t-196.5 -43t-165 -149l-135 89q114 144 232.5 204.5t294.5 60.5t288 -97.5t112 -258.5q0 -228 -209 -386q91 -112 91 -259q0 -295 -264.5 -512.5
t-782.5 -344.5l32 166q397 104 609.5 277.5t212.5 401.5z" />
    <glyph glyph-name="uni021D" unicode="&#x21d;" horiz-adv-x="894" 
d="M524 1102q159 0 246 -79t87 -200.5t-42 -202t-143 -156.5q71 -100 71 -236q0 -488 -848 -654l29 155q335 76 485 198t150 296q0 96 -39 143q-70 -39 -216.5 -88.5t-288.5 -80.5l29 148q239 63 339 106q294 126 294 340q0 80 -43.5 129t-127.5 49q-170 0 -267 -194
l-156 50q117 277 441 277z" />
    <glyph glyph-name="uni021E" unicode="&#x21e;" horiz-adv-x="1479" 
d="M1021 0l127 653h-767l-127 -653h-191l274 1409h191l-116 -596h767l116 596h186l-274 -1409h-186zM1028 1530h-204l-187 239l4 21h93l205 -139h2l246 139h116l-4 -21z" />
    <glyph glyph-name="uni021F" unicode="&#x21f;" horiz-adv-x="1139" 
d="M764.5 1101q131.5 0 206 -73t74.5 -211q0 -64 -21 -164l-127 -653h-181l126 645q18 88 18 150q0 167 -179 167q-126 0 -222 -96t-128 -260l-118 -606h-179l288 1484h180l-75 -386q-18 -100 -47 -201h3q83 115 166.5 159.5t215 44.5zM821 1563h-204l-181 270l4 20h97
l199 -169h2l252 169h112l-4 -20z" />
    <glyph glyph-name="uni0220" unicode="&#x220;" horiz-adv-x="1370" 
d="M1115 1048q1 226 -217 226q-110 0 -209.5 -54t-170.5 -143.5t-90 -185.5l-173 -891h-191l212 1092l57 317h183q-12 -91 -41 -251h4q178 271 460 271q175 0 270 -89t95 -268q0 -77 -17 -168l-260 -1329h-190l264 1349q14 70 14 124z" />
    <glyph glyph-name="uni0221" unicode="&#x221;" horiz-adv-x="1286" 
d="M1114 -163q0 105 -109 105q-57 0 -128 -49l-5 -54q0 -55 29.5 -87.5t83 -32.5t91.5 32.5t38 85.5zM257 365q1 -247 195 -247q193 0 290 162q49 82 77 204.5t28 233.5t-63.5 180.5t-182 69.5t-190.5 -75.5t-113 -240t-41 -287.5zM588 1101q243 0 310 -198h5l28 162l82 419
h180l-275 -1420q63 23 118 23q114 0 176 -62.5t62 -182t-80.5 -193.5t-204.5 -74q-229 0 -273 194q-80 -75 -175 -176l-101 98q135 154 281 265l41 213h-3q-74 -101 -157 -145.5t-201 -44.5q-157 0 -244.5 94.5t-87.5 278.5t61.5 374.5t173 282.5t284.5 92z" />
    <glyph glyph-name="uni0222" unicode="&#x222;" horiz-adv-x="1238" 
d="M944 448q0 224 -312 224q-162 0 -270.5 -89.5t-108.5 -234.5q1 -228 317 -228q164 0 269 86t105 242zM1222 1115.5q0 -144.5 -93.5 -245.5t-244.5 -130l-1 -4q117 -23 182 -98t65 -191q0 -218 -161.5 -342.5t-409.5 -124.5t-370 94.5t-122 256.5t99 270.5t276 136.5l1 4
q-221 63 -221 222.5t135.5 243.5t375.5 84l-25 -130q-152 -3 -228 -56q-76 -54 -75 -136q0 -162 273 -162q227 0 316 148q41 68 41 150.5t-57.5 133.5t-183.5 56l26 134q193 -6 297.5 -88t104.5 -226.5z" />
    <glyph glyph-name="uni0223" unicode="&#x223;" horiz-adv-x="1238" 
d="M654 743q-114 0 -197 -52t-129.5 -143t-46.5 -197q0 -230 258 -230q113 0 196 48.5t127.5 135t44.5 197t-69.5 176t-183.5 65.5zM681.5 874q99.5 0 168 38t108.5 113t40 163q0 122 -106 189l90 113q198 -104 198 -301q0 -139 -82 -241t-227 -145l-1 -4q103 -28 160 -107
t57 -191q0 -243 -153 -382t-414 -139q-200 0 -312 98t-112 268q0 241 176 381q83 66 189 91l1 4q-181 73 -181 253q0 283 338 415l64 -113q-221 -106 -221 -304q0 -95 60 -147t159.5 -52z" />
    <glyph glyph-name="uni0224" unicode="&#x224;" horiz-adv-x="1251" 
d="M833 156q115 0 180.5 -55.5t65.5 -159.5t-58 -207l-143 45q40 75 40 126t-31 73t-96 22h-831l27 143l1054 1110h-765l30 156h1002l-27 -139l-1054 -1114h606z" />
    <glyph glyph-name="uni0225" unicode="&#x225;" horiz-adv-x="1024" 
d="M760 -98q0 98 -127 98h-677l27 137l797 806h-601l27 139h824l-27 -137l-799 -806h466q115 0 180.5 -57t65.5 -155.5t-53 -192.5l-143 45q40 75 40 123z" />
    <glyph glyph-name="uni0226" unicode="&#x226;" horiz-adv-x="1366" 
d="M830 1265q-21 -42 -399 -704h527l-102 553zM1061 0l-75 412h-639l-240 -412h-208l848 1409h217l292 -1409h-195zM779 1530l34 172h180l-34 -172h-180z" />
    <glyph glyph-name="uni0227" unicode="&#x227;" horiz-adv-x="1139" 
d="M237 280q0 -68 48.5 -115.5t135.5 -47.5t165 41.5t129 108.5t67 144l27 125l-199 -4q-209 -5 -291 -67t-82 -185zM852 787q0 178 -200 178q-119 0 -180 -42.5t-88 -129.5l-178 29q45 147 156.5 213.5t291 66.5t279 -80t99.5 -215q0 -64 -19 -157l-74 -378
q-11 -48 -11 -88q0 -73 81 -73q27 0 60 7l-14 -112q-66 -16 -128 -16q-178 0 -178 153l5 64h-6q-83 -126 -172 -176.5t-222 -50.5t-220.5 84t-87.5 214q0 185 132.5 280t422.5 99l232 3q19 98 19 127zM603 1312l34 172h180l-34 -172h-180z" />
    <glyph glyph-name="uni0228" unicode="&#x228;" horiz-adv-x="1366" 
d="M848 -232q0 -193 -303 -193q-50 0 -106 7l21 91q48 -6 114 -6q140 0 140 89q0 72 -119 72q-44 0 -58 -2l101 174h-575l273 1409h1049l-30 -156h-858l-88 -452h798l-30 -154h-798l-95 -491h899l-30 -156h-408l-59 -96q81 -5 121.5 -41t40.5 -95z" />
    <glyph glyph-name="uni0229" unicode="&#x229;" horiz-adv-x="1139" 
d="M627.5 969q-127.5 0 -219 -85.5t-128.5 -242.5h600l4 72q0 124 -64.5 190t-192 66zM514 115q97 0 176 48t123 131l138 -63q-123 -220 -378 -247l-49 -80q81 -5 121.5 -41t40.5 -95q0 -193 -303 -193q-50 0 -106 7l21 91q48 -6 114 -6q140 0 140 89q0 72 -119 72
q-44 0 -58 -2l90 155q-181 7 -288.5 114.5t-107.5 309t71 361t200 248t312 88.5t297 -103t114 -291q0 -105 -24 -205h-783q-6 -35 -9 -113q0 -275 267 -275z" />
    <glyph glyph-name="uni022A" unicode="&#x22a;" horiz-adv-x="1593" 
d="M928 1276q-200 0 -338 -89q-140 -89 -214 -266t-74 -372t106 -305t307 -109t339 87t214 259t77 373q-1 200 -109 311t-308 111zM958 1430q258 0 418 -157t160 -422q-5 -267 -112 -463t-293 -302t-422 -106q-284 0 -441 158t-157 416q-1 258 105 458t295 310
q189 108 447 108zM1300 1708h-548l25 127h548zM680 1458l36 184h163l-36 -184h-163zM1113 1458l36 184h163l-36 -184h-163z" />
    <glyph glyph-name="uni022B" unicode="&#x22b;" horiz-adv-x="1139" 
d="M640 969q-134 1 -216 -69t-127 -211t-45 -281t64 -218t176 -77t176 35q62 34 109 108q100 157 111 427q0 286 -248 286zM1074 683q0 -131 -40 -271q-123 -432 -543 -432q-196 0 -310 118t-112 322t72 361q142 320 501 320q210 1 321 -109t111 -309zM415 1219l35 184h175
l-35 -184h-175zM799 1219l35 184h173l-35 -184h-173zM1024 1516h-550l26 127h550z" />
    <glyph glyph-name="uni022C" unicode="&#x22c;" horiz-adv-x="1593" 
d="M928 1276q-200 0 -338 -89q-140 -89 -214 -266t-74 -372t106 -305t307 -109t339 87t214 259t77 373q-1 200 -109 311t-308 111zM958 1430q258 0 418 -157t160 -422q-5 -267 -112 -463t-293 -302t-422 -106q-284 0 -441 158t-157 416q-1 258 105 458t295 310
q189 108 447 108zM1120 1594q85 0 111 75h92q-29 -83 -57 -119q-57 -75 -172 -75q-50 0 -104 26q-54 25 -82 37t-64 12q-73 0 -103 -75h-91q28 83 56 119q60 76 174 75q54 0 107 -26q53 -25 80 -37t53 -12zM1287 1708h-548l24 127h548z" />
    <glyph glyph-name="uni022D" unicode="&#x22d;" horiz-adv-x="1139" 
d="M640 969q-134 1 -216 -69t-127 -211t-45 -281t64 -218t176 -77t176 35q62 34 109 108q100 157 111 427q0 286 -248 286zM1074 683q0 -131 -40 -271q-123 -432 -543 -432q-196 0 -310 118t-112 322t72 361q142 320 501 320q210 1 321 -109t111 -309zM848 1201
q-52 1 -90 19t-72 40t-67 42q-32 18 -63 18q-100 0 -142 -119h-90q48 152 108 210t133 58q73 1 165 -59q34 -22 65 -42q31 -18 61 -18q101 0 141 119h92q-35 -109 -67 -159t-77 -80q-45 -29 -97 -29zM1024 1566h-550l26 127h550z" />
    <glyph glyph-name="uni022E" unicode="&#x22e;" horiz-adv-x="1593" 
d="M928.5 1276q-199.5 0 -339 -89t-213.5 -266t-74 -372t106.5 -304.5t306.5 -109.5t338.5 86.5t215 259.5t76.5 373t-108.5 311t-308 111zM957.5 1430q257.5 0 418 -157t160.5 -422q-5 -268 -112 -463.5t-293 -301.5t-422 -106q-284 0 -441 157.5t-157 416t105.5 459
t294.5 309t446.5 108.5zM863 1592l34 172h180l-34 -172h-180z" />
    <glyph glyph-name="uni022F" unicode="&#x22f;" horiz-adv-x="1139" 
d="M640 969q-135 0 -216.5 -69.5t-126.5 -210.5t-45 -281t64 -217.5t176.5 -77.5t175 34.5t109.5 108.5q100 157 111 427q0 286 -248 286zM1074 683q0 -131 -40 -271q-123 -432 -543 -432q-196 0 -310 118t-112 321.5t72 361.5q142 320 501 320q210 0 321 -109.5t111 -308.5
zM586 1312l34 172h180l-34 -172h-180z" />
    <glyph glyph-name="uni0230" unicode="&#x230;" horiz-adv-x="1593" 
d="M928 1276q-200 0 -338 -89q-140 -89 -214 -266t-74 -372t106 -305t307 -109t339 87t214 259t77 373q-1 200 -109 311t-308 111zM958 1430q258 0 418 -157t160 -422q-5 -267 -112 -463t-293 -302t-422 -106q-284 0 -441 158t-157 416q-1 258 105 458t295 310
q189 108 447 108zM1268 1708h-548l25 127h548zM861 1468l36 184h162l-36 -184h-162z" />
    <glyph glyph-name="uni0231" unicode="&#x231;" horiz-adv-x="1139" 
d="M640 969q-134 1 -216 -69t-127 -211t-45 -281t64 -218t176 -77t176 35q62 34 109 108q100 157 111 427q0 286 -248 286zM1074 683q0 -131 -40 -271q-123 -432 -543 -432q-196 0 -310 118t-112 322t72 361q142 320 501 320q210 1 321 -109t111 -309zM616 1232l34 172h180
l-34 -172h-180zM1024 1516h-550l26 127h550z" />
    <glyph glyph-name="uni0232" unicode="&#x232;" horiz-adv-x="1366" 
d="M672 0h-190l115 584l-384 825h196l306 -674l560 674h214l-704 -825zM1161 1570h-550l26 127h550z" />
    <glyph glyph-name="uni0233" unicode="&#x233;" horiz-adv-x="1024" 
d="M-8 -285q95 0 167.5 64t142.5 186l27 47l-217 1070h183l112 -598q39 -208 42 -288q25 54 479 886h199l-626 -1082q-111 -192 -179 -270q-135 -154 -306 -155q-72 0 -132 14l31 134q45 -8 77 -8zM911 1236h-550l26 127h550z" />
    <glyph glyph-name="uni0234" unicode="&#x234;" horiz-adv-x="602" 
d="M417 -163q0 105 -109 105q-57 0 -128 -49l-5 -54q0 -55 29.5 -87.5t83 -32.5t91.5 32.5t38 85.5zM339 87q114 0 176 -62.5t62 -182t-80.5 -193.5t-204.5 -74q-229 0 -273 194q-80 -75 -175 -176l-101 98q135 154 281 265l297 1528h180l-277 -1419q58 22 115 22z" />
    <glyph glyph-name="uni0235" unicode="&#x235;" horiz-adv-x="1288" 
d="M1101 -163q0 105 -109 105q-57 0 -128 -49l-5 -54q0 -55 29.5 -87.5t83 -32.5t91.5 32.5t38 85.5zM409 1082q0 -21 -28 -185h3q83 115 166.5 159.5t215 44.5t206 -73t74.5 -211q0 -64 -21 -164l-115 -588q58 22 113 22q114 0 176 -62.5t62 -182t-80.5 -193.5t-204.5 -74
q-229 0 -273 194q-80 -75 -175 -176l-101 98q138 157 281 266l135 688q18 88 18 150q0 167 -179 167q-126 0 -222 -96t-128 -260l-118 -606h-180l166 851q20 95 39 231h170z" />
    <glyph glyph-name="uni0236" unicode="&#x236;" horiz-adv-x="712" 
d="M514 242q0 105 -105 105q-53 0 -120 -46q-7 -33 -7 -74t28.5 -72t81.5 -31t87.5 32.5t34.5 85.5zM436 492q114 0 176 -62.5t62 -182.5t-80 -193.5t-222 -73.5q-218 0 -256 194q-80 -75 -175 -176l-101 98q135 153 280 264l114 591h-125l26 131h127l105 242h120l-47 -242
h200l-26 -131h-200l-92 -481q64 22 114 22z" />
    <glyph glyph-name="j.dotless" unicode="&#x237;" horiz-adv-x="455" 
d="M-100 -425q-56 0 -129 14l23 136q52 -8 97 -8q88 0 122 176l231 1189h180l-237 -1216q-31 -158 -101 -224.5t-186 -66.5z" />
    <glyph glyph-name="uni0238" unicode="&#x238;" horiz-adv-x="1809" 
d="M1565 716q1 247 -193 247q-194 -1 -292 -163q-49 -82 -77 -204t-28 -233t63.5 -180.5t181 -69.5t188.5 72.5t114 237t43 293.5zM244 365q0 -247 194 -247q193 0 291 162q49 82 77 204.5t28 233.5t-63.5 180.5t-182 69.5t-190.5 -75.5t-113 -240t-41 -287.5zM575 1101
q243 0 310 -198h5l28 162l82 419h180l-83 -423q-13 -63 -34 -140h4q73 95 154 138t200 43q157 0 244.5 -94.5t87.5 -278.5t-61.5 -374.5t-173 -282.5t-284.5 -92q-239 0 -306 197h-3l-44 -177h-165l30 160h-5q-73 -95 -154 -138t-199 -43q-157 0 -244.5 94.5t-87.5 278.5
t61.5 374.5t173 282.5t284.5 92z" />
    <glyph glyph-name="uni0239" unicode="&#x239;" horiz-adv-x="1804" 
d="M244 366q0 -247 194 -247q193 1 291 163q49 82 77 204t28 233t-63.5 180.5t-182 69.5t-190.5 -75.5t-113 -240t-41 -287.5zM1349 964q-117 0 -200.5 -75.5t-128.5 -227t-45 -282.5t63 -198t178.5 -67t186.5 72.5t114 237t43 290.5t-47 188t-164 62zM1416 1103
q157 0 244.5 -94.5t87.5 -279t-61.5 -375.5t-172.5 -282t-283 -91q-240 0 -307 198h-5l-28 -162l-86 -442h-180l88 446q22 108 33 140h-4q-73 -95 -154 -138t-200 -43q-157 0 -244.5 94.5t-87.5 278.5t61.5 374.5t173 282.5t284.5 92q239 0 306 -197h3l44 177h165l-30 -160
h5q75 98 154 139.5t194 41.5z" />
    <glyph glyph-name="uni023A" unicode="&#x23a;" horiz-adv-x="1366" 
d="M165 99l249 313h-67zM911 816l-205 -255h252zM431 561h102l345 432l-48 272q-8 -21 -399 -704zM1050 991l206 -991h-195l-75 412h-399l-415 -519h-172l85 107h-186l848 1409h217l51 -246l280 351h174z" />
    <glyph glyph-name="uni023B" unicode="&#x23b;" horiz-adv-x="1479" 
d="M302 592q0 -184 71 -294l748 936q-88 40 -205 40q-184 0 -324 -88.5t-215 -249t-75 -344.5zM713 135q304 0 502 291l143 -89q-126 -188 -286 -272.5t-367 -84.5t-344 86l-139 -173h-172l207 259q-144 158 -144 410.5t105 451.5t291.5 307.5t416.5 108.5q174 0 305 -58
l114 142h174l-171 -214q104 -85 142 -215l-180 -55q-24 72 -77 127l-764 -956q99 -66 244 -66z" />
    <glyph glyph-name="uni023C" unicode="&#x23c;" horiz-adv-x="1024" 
d="M251 417.5q0 -114.5 22 -172.5l429 702q-37 14 -83 14q-126 0 -204 -67.5t-121 -214.5t-43 -261.5zM469 122q201 0 289 230l156 -49q-121 -323 -449 -323q-102 0 -179 31l-266 -436h-155l310 509q-108 108 -108 309.5t72.5 373.5t192 253.5t293.5 81.5q83 0 157 -24
l248 406h156l-288 -471q93 -85 103 -229l-177 -25q-4 52 -23 94l-435 -711q45 -20 103 -20z" />
    <glyph glyph-name="uni023D" unicode="&#x23d;" horiz-adv-x="1139" 
d="M78 810h142l116 599h191l-116 -599h399l-31 -156h-399l-96 -498h712l-30 -156h-903l126 654h-142z" />
    <glyph glyph-name="uni023E" unicode="&#x23e;" horiz-adv-x="1251" 
d="M810 1005l197 248h-149zM1306 1409h66l-30 -156h-161l-427 -534l-140 -719h-190l79 405l-410 -512h-172l637 798l110 562h-484l30 156h918l84 105h174z" />
    <glyph glyph-name="uni023F" unicode="&#x23f;" horiz-adv-x="1024" 
d="M425 -20q-55 0 -119 10l138 -188q55 -75 122 -75t140 57l80 -112q-102 -98 -232 -98t-216 103q-30 35 -152.5 214t-179.5 288l150 87q45 -90 106 -122.5t191.5 -32.5t204.5 48.5t74 134.5q0 84 -88 134q-44 24 -175.5 67.5t-195.5 83.5q-132 82 -132 222.5t116 219
t327 78.5q354 0 398 -255l-163 -25q-22 79 -83 114t-174.5 35t-180 -39.5t-66.5 -113.5q-1 -75 81 -121q40 -22 175 -64.5t199 -83.5q136 -87 136.5 -239.5t-123.5 -239.5t-358 -87z" />
    <glyph glyph-name="uni0240" unicode="&#x240;" horiz-adv-x="1024" 
d="M637 -426q-69 0 -122.5 32.5t-111.5 124.5l-122 193q-29 45 -61 60.5t-107 15.5h-156l26 137l797 806h-601l27 139h824l-27 -137l-799 -806l-2 -1q100 -4 157 -54q29 -26 95 -125.5t110.5 -167.5t98.5 -66t126 70l84 -113q-115 -108 -236 -108z" />
    <glyph glyph-name="uni0241" unicode="&#x241;" horiz-adv-x="1189" 
d="M595 522q99 0 197.5 59t152 166.5t53.5 246t-76.5 217t-211.5 78.5t-231.5 -60.5t-142.5 -174.5l-170 29q130 347 555 347q228 0 347 -111.5t119 -323.5q0 -271 -158.5 -437t-430.5 -178l-74 -380h-180l104 536q48 -14 147 -14z" />
    <glyph glyph-name="uni0242" unicode="&#x242;" horiz-adv-x="928" 
d="M711 764q0 97 -52.5 147t-140.5 50q-192 0 -257 -196l-173 14q105 323 442 323q170 0 269.5 -89.5t99.5 -257t-102.5 -286t-294.5 -155.5l-61 -314h-180l84 432q111 0 194.5 41t127.5 117.5t44 173.5z" />
    <glyph glyph-name="uni0243" unicode="&#x243;" horiz-adv-x="1366" 
d="M742 810q355 0 355 258q0 188 -268 188h-331l-87 -446h331zM651 153q405 0 405 289q0 107 -79.5 163t-228.5 56h-366l-37 -187h349l-26 -133h-349l-36 -188h368zM846 1409q209 0 329.5 -86.5t120.5 -235.5q0 -285 -339 -344q138 -23 214 -104.5t76 -199.5
q0 -213 -156 -326t-433 -113h-595l66 341h-135l26 133h135l181 935h510z" />
    <glyph glyph-name="uni0244" unicode="&#x244;" horiz-adv-x="1479" 
d="M670 135q384 0 461 406l22 115h-781l-17 -90q-17 -87 -17 -143q0 -136 87.5 -212t244.5 -76zM675.5 -20q-253.5 0 -388 120t-134.5 331q0 83 27 225h-116l29 153h116l117 600h191l-115 -600h781l116 600h190l-116 -600h117l-29 -153h-118l-24 -126q-52 -272 -221 -411
t-422.5 -139z" />
    <glyph glyph-name="uni0245" unicode="&#x245;" horiz-adv-x="1366" 
d="M1253 1h-195l-195 992q-19 97 -35 249q-66 -136 -133 -249l-583 -992h-206l848 1409h198z" />
    <glyph glyph-name="uni0246" unicode="&#x246;" horiz-adv-x="1366" 
d="M284 156h22l326 491h-253zM409 801h325l301 452h-538zM360 0l-149 -225h-158l149 225h-139l273 1409h802l97 145h159l-97 -145h88l-30 -156h-162l-300 -452h314l-30 -154h-387l-326 -491h719l-30 -156h-793z" />
    <glyph glyph-name="uni0247" unicode="&#x247;" horiz-adv-x="1139" 
d="M884 713q0 101 -43 164l-149 -236h188zM247 372q0 -75 33 -138l170 269h-194q-9 -56 -9 -131zM634 969q-134 0 -225.5 -85.5t-128.5 -242.5h257l198 314q-47 14 -101 14zM951 231q-146 -251 -436 -251q-133 0 -218 35l-278 -440h-155l322 511q-117 111 -117 315.5t71 364
t200 248t290 88.5q101 0 181 -26l258 408h156l-296 -469q134 -104 134 -307q0 -105 -24 -205h-434l-228 -362q57 -26 137 -26q200 0 299 179z" />
    <glyph glyph-name="uni0248" unicode="&#x248;" horiz-adv-x="1024" 
d="M400 135q205 0 263 305l42 217h-261l29 152h261l86 444h-291l30 156h481l-118 -600h138l-29 -152h-138l-46 -234q-87 -443 -443 -443t-409 363l168 33q23 -117 79 -179t158 -62z" />
    <glyph glyph-name="uni0249" unicode="&#x249;" horiz-adv-x="455" 
d="M289 1312l33 172h180l-33 -172h-180zM-100 -425q-56 0 -129 14l23 136q52 -8 97 -8q88 0 122 176l115 591h-112l26 133h112l90 465h180l-91 -465h112l-26 -133h-112l-120 -618q-31 -158 -101 -224.5t-186 -66.5z" />
    <glyph glyph-name="uni024A" unicode="&#x24a;" horiz-adv-x="1546" 
d="M714 133q239 0 376 103l182 941q-96 100 -306.5 100t-356.5 -90t-226.5 -253t-80.5 -366.5t111.5 -319t300.5 -115.5zM1201 -173q0 -90 90 -90q58 0 100 14l-31 -162q-62 -14 -139 -14q-213 0 -213 202q0 46 49 294q-153 -91 -347.5 -91t-327 70.5t-201 201t-68.5 303.5
q0 258 106.5 458t303 308.5t450.5 108.5q194 0 340 -77l161 56h31l-297 -1524q-7 -40 -7 -58z" />
    <glyph glyph-name="uni024B" unicode="&#x24b;" horiz-adv-x="1139" 
d="M257 365q1 -247 195 -247q193 0 290 162q49 82 77 204.5t28 233.5t-63.5 180.5t-182 69.5t-190.5 -75.5t-113 -240t-41 -287.5zM874 -173q0 -90 90 -90q38 0 88 12l-32 -162q-51 -12 -135.5 -12t-140 49.5t-55.5 126.5t16 156t54 253h-4q-73 -95 -154 -138t-200 -43
q-157 0 -244.5 94.5t-87.5 278.5t61.5 374.5t173 282.5t284.5 92q243 0 310 -198h5q34 165 49 193h173q-23 -78 -65 -295l-179 -916q-7 -40 -7 -58z" />
    <glyph glyph-name="uni024C" unicode="&#x24c;" horiz-adv-x="1479" 
d="M857 736q181 0 273 76t92 200q0 244 -297 244h-427l-101 -520h460zM1416 1039q0 -378 -427 -437l268 -602h-206l-243 585h-441l-113 -585h-191l114 585h-168l29 150h168l130 674h612q211 0 339.5 -101.5t128.5 -268.5z" />
    <glyph glyph-name="uni024D" unicode="&#x24d;" horiz-adv-x="682" 
d="M628 951q-92 0 -169.5 -86.5t-119.5 -232.5h181l-29 -146h-182l-95 -486h-180l95 486h-123l29 146h122q69 350 82 450h170l-35 -221h4q66 133 130 187t148 54q39 0 95 -14l-33 -150q-44 13 -90 13z" />
    <glyph glyph-name="uni024E" unicode="&#x24e;" horiz-adv-x="1366" 
d="M715 735l247 298h-382zM1292 1179h152l-28 -146h-248l-383 -449l-113 -584h-190l115 584l-209 449h-238l28 146h142l-107 230h196l104 -230h571l191 230h214z" />
    <glyph glyph-name="uni024F" unicode="&#x24f;" horiz-adv-x="1024" 
d="M449 196q18 41 214 399h-277q58 -306 63 -399zM26 -425q-82 0 -142 14l31 134q45 -8 77 -8q87 0 159.5 57t150.5 193l27 47l-118 583h-163l29 146h104l-69 341h183l64 -341h383l186 341h199l-198 -341h111l-29 -146h-166l-344 -595q-111 -193 -178.5 -270.5t-141 -116
t-155.5 -38.5z" />
    <glyph glyph-name="uni0250" unicode="&#x250;" horiz-adv-x="1139" 
d="M902 802q0 68 -48.5 115.5t-135 47.5t-164.5 -41t-129.5 -109t-67.5 -144l-27 -125l199 4q209 5 291 67t82 185zM287 295q0 -178 200 -178q119 0 180 42.5t88 129.5l178 -29q-45 -147 -156.5 -213.5t-291 -66.5t-279 80t-99.5 215q0 64 19 157l74 378q11 48 11 88
q0 73 -81 73q-27 0 -60 -7l14 112q66 16 128 16q178 0 178 -153l-5 -64h6q83 126 172 176.5t222 50.5t220.5 -84t87.5 -214q0 -185 -132.5 -280t-422.5 -99l-232 -3q-19 -98 -19 -127z" />
    <glyph glyph-name="uni0251" unicode="&#x251;" horiz-adv-x="1139" 
d="M257 365q1 -247 195 -247q193 0 290 162q49 82 77 204.5t28 233.5t-63.5 180.5t-182 69.5t-190.5 -75.5t-113 -240t-41 -287.5zM588 1101q243 0 310 -198h5l33 179h179l-167 -859l-33 -192l-5 -31h-172q0 51 21 160h-5q-73 -95 -154 -138t-199 -43q-157 0 -244.5 94.5
t-87.5 278.5t61.5 374.5t173 282.5t284.5 92z" />
    <glyph glyph-name="uni0252" unicode="&#x252;" horiz-adv-x="1139" 
d="M885 716q0 247 -194 247q-194 -1 -291 -163q-49 -82 -77 -204t-28 -233t63.5 -180.5t181 -69.5t188.5 72.5t114 237t43 293.5zM400 1082q0 -71 -17 -161h4q73 95 154 138t200 43q157 0 244.5 -94.5t87.5 -278.5t-61.5 -374.5t-173 -282.5t-284.5 -92q-243 0 -310 198h-5
l-29 -178h-178l167 861q22 124 33 221h168z" />
    <glyph glyph-name="uni0253" unicode="&#x253;" horiz-adv-x="1139" 
d="M888 716q0 247 -194 247q-194 -1 -291 -163q-49 -82 -77 -204t-28 -233t63.5 -180.5t181 -69.5t188.5 72.5t114 237t43 293.5zM557 -20q-242 0 -309 198h-3q-5 -26 -43 -178h-173q8 25 49 223l193 998q25 132 104 204.5t200 72.5q70 0 125 -21l-29 -151q-47 20 -79 20
q-63 0 -99.5 -46.5t-60.5 -172t-46 -206.5h4q73 95 154 138t200 43q157 0 244.5 -94.5t87.5 -278.5t-61.5 -374.5t-173 -282.5t-284.5 -92z" />
    <glyph glyph-name="uni0254" unicode="&#x254;" horiz-adv-x="1024" 
d="M201 323q12 -202 223 -202q225 0 307 282q43 147 43 290q0 267 -218 267q-205 0 -289 -230l-156 49q121 323 449 323q192 0 295 -109t103 -307.5t-72.5 -370.5t-192 -253.5t-291 -81.5t-270 85t-108.5 233z" />
    <glyph glyph-name="uni0255" unicode="&#x255;" horiz-adv-x="1024" 
d="M759 284q0 88 -112 88q-150 0 -330 -185q60 -73 182 -73t191 47t69 123zM824 759q-15 202 -222 202q-226 0 -308 -283q-43 -148 -43 -232t9 -126q112 99 206.5 144.5t202 45.5t174.5 -56t67 -152.5t-48 -168.5t-140.5 -112.5t-245 -40.5t-269.5 86q-103 -124 -126 -158
l-116 92q62 77 157 180q-55 91 -55 223.5t39 268.5q123 430 523 430q223 0 321 -153q46 -73 51 -165z" />
    <glyph glyph-name="uni0256" unicode="&#x256;" horiz-adv-x="1139" 
d="M257 365q1 -247 195 -247q193 0 290 162q49 82 77 204.5t28 233.5t-63.5 180.5t-182 69.5t-190.5 -75.5t-113 -240t-41 -287.5zM588 1101q243 0 310 -198h5l28 162l82 419h180l-313 -1608q-5 -28 -5 -50q0 -93 95 -93q56 0 108 13l-30 -158q-69 -13 -153 -13t-142.5 59
t-58.5 164q0 40 9 88l55 274h-2q-77 -98 -158 -139.5t-197 -41.5q-157 0 -244.5 94.5t-87.5 278.5t61.5 374.5t173 282.5t284.5 92z" />
    <glyph glyph-name="uni0257" unicode="&#x257;" horiz-adv-x="1139" 
d="M257 365q1 -247 195 -247q193 0 290 162q49 82 77 204.5t28 233.5t-63.5 180.5t-182 69.5t-190.5 -75.5t-113 -240t-41 -287.5zM588 1101q243 0 310 -198h5l28 162l32 153q28 131 103 205.5t200 74.5q70 0 125 -21l-29 -151q-47 20 -79 20q-63 0 -99 -46t-56 -147
l-180 -930l-33 -192l-5 -31h-172q0 51 21 160h-5q-73 -95 -154 -138t-199 -43q-157 0 -244.5 94.5t-87.5 278.5t61.5 374.5t173 282.5t284.5 92z" />
    <glyph glyph-name="uni0258" unicode="&#x258;" horiz-adv-x="1139" 
d="M635 969q-256 0 -345 -328h584l3 59q0 127 -59.5 198t-182.5 71zM662 1102q193 0 295.5 -107.5t102.5 -306.5q0 -83 -14 -160q-93 -548 -586 -548q-333 0 -396 256l153 46q46 -167 254 -167q145 0 242.5 98t135.5 290h-772l4 24q98 575 581 575z" />
    <glyph glyph-name="uni0259" unicode="&#x259;" horiz-adv-x="1139" 
d="M500.5 113q127.5 0 219 85.5t128.5 242.5h-600l-4 -72q0 -124 64.5 -190t192 -66zM881 692q0 275 -267 275q-97 0 -176 -48t-123 -131l-138 63q73 131 185.5 191t272.5 60q201 0 312.5 -111.5t111.5 -313t-71 -361t-200 -248t-312 -88.5t-297 103t-114 291q0 105 24 205
h783q9 55 9 113z" />
    <glyph glyph-name="uni0259" unicode="&#x4d9;" horiz-adv-x="1139" 
d="M500.5 113q127.5 0 219 85.5t128.5 242.5h-600l-4 -72q0 -124 64.5 -190t192 -66zM881 692q0 275 -267 275q-97 0 -176 -48t-123 -131l-138 63q73 131 185.5 191t272.5 60q201 0 312.5 -111.5t111.5 -313t-71 -361t-200 -248t-312 -88.5t-297 103t-114 291q0 105 24 205
h783q9 55 9 113z" />
    <glyph glyph-name="uni025A" unicode="&#x25a;" horiz-adv-x="1442" 
d="M245 374q0 -261 256 -261q156 0 254 124.5t115 340.5l-618 -110q-7 -45 -7 -94zM615 967q-97 0 -176 -48t-123 -131l-138 63q55 94 117 145q129 106 325.5 106t306 -92.5t128.5 -256.5l164 27l2 -129q1 -72 23.5 -103.5t75.5 -31.5t129 35l38 -138q-103 -56 -208 -56
t-159.5 71t-55.5 191h-5q-11 -192 -86.5 -338t-201.5 -223.5t-279 -77.5q-201 0 -313.5 105t-112.5 289q0 78 24 205l791 145q-20 243 -266 243z" />
    <glyph glyph-name="uni025B" unicode="&#x25b;" horiz-adv-x="900" 
d="M348 796q0 -160 328 -160l-27 -141q-189 0 -271 -22q-158 -43 -158 -192q0 -75 51.5 -120t129.5 -45q185 0 337 148l88 -105q-94 -94 -197 -136.5t-254 -42.5t-246 81t-95 210.5t88.5 211.5t232.5 96l1 2q-88 25 -138.5 85t-50.5 140q0 140 104 217.5t294 77.5
q135 0 221 -41.5t138 -129.5l-135 -84q-77 119 -227 119q-99 0 -156.5 -46t-57.5 -123z" />
    <glyph glyph-name="uni025C" unicode="&#x25c;" horiz-adv-x="952" 
d="M137 844q76 258 400 258q166 0 262.5 -71t96.5 -188q0 -154 -147 -233q-69 -37 -154 -46v-4q104 -12 166 -81.5t62 -165.5q0 -154 -116.5 -243.5t-304.5 -89.5t-288 61t-127 193l168 44q40 -164 241 -164q113 0 174.5 52.5t61.5 148.5q0 186 -304 186l28 134
q187 0 271 49t84 145q0 69 -50 104t-132 35q-183 0 -227 -144z" />
    <glyph glyph-name="uni025D" unicode="&#x25d;" horiz-adv-x="1261" 
d="M140 844q76 258 386 258q152 0 242.5 -50.5t119.5 -138.5l122 20l2 -129q1 -72 23.5 -103.5t75.5 -31.5t129 35l38 -138q-93 -56 -189 -56q-201 0 -217 210h-3q-36 -66 -110.5 -107.5t-160.5 -48.5v-4q104 -12 166 -81.5t62 -165.5q0 -154 -116.5 -243.5t-304.5 -89.5
t-288 61t-127 193l168 44q40 -164 241 -164q113 0 174.5 52.5t61.5 148.5q0 186 -304 186l28 134q187 0 271 49t84 145q0 69 -50 104t-132 35q-183 0 -227 -144z" />
    <glyph glyph-name="uni025E" unicode="&#x25e;" horiz-adv-x="1042" 
d="M646 1102q172 0 264 -70.5t92 -184t-76.5 -190t-211.5 -104.5q215 -48 215 -236q0 -156 -117 -246t-318.5 -90t-313 117t-111.5 316t71 360.5t202.5 244.5t303.5 83zM254 390q0 -121 64 -199t181 -78t178 53.5t61 141t-51.5 131.5t-145.5 44h-82l27 141h76
q118 0 187 52.5t69 133.5q0 159 -171 159q-289 0 -367 -346q-26 -112 -26 -233z" />
    <glyph glyph-name="uni025F" unicode="&#x25f;" horiz-adv-x="569" 
d="M-37 -426q-80 0 -137 16l25 134q41 -9 97 -9t90 33.5t54 131.5l24 120h-211l26 131h211l185 951h180l-185 -951h152l-26 -131h-152l-28 -145q-23 -112 -60.5 -168t-101 -84.5t-143.5 -28.5z" />
    <glyph glyph-name="uni0260" unicode="&#x260;" horiz-adv-x="1139" 
d="M259 363q0 -111 52.5 -174.5t157.5 -63.5t193 78.5t136.5 215.5t48.5 273.5t-64 206t-165 69.5t-161 -37t-101 -115.5t-69 -210t-28 -242.5zM397 -425q-339 0 -393 252l163 42q35 -157 234 -157q142 0 220 73.5t110 241.5l34 174h-2q-57 -85 -105 -125q-101 -84 -252 -84
t-243.5 101.5t-92.5 250t37.5 302.5t102.5 256q127 199 378 199q117 0 200 -54t111 -148v4h5l30 165l32 150q59 280 299 280q70 0 125 -21l-29 -151q-48 20 -79 20q-63 0 -99 -46t-56 -147l-216 -1122q-48 -242 -172 -349t-342 -107z" />
    <glyph glyph-name="uni0261" unicode="&#x261;" horiz-adv-x="1139" 
d="M259 362.5q0 -110.5 52.5 -174t157.5 -63.5t193 78.5t136.5 215.5t48.5 273.5t-64 206t-165 69.5t-161 -37t-101 -116t-69 -210.5t-28 -242zM397 -425q-339 0 -393 252l163 42q35 -157 234 -157q142 0 220 73.5t110 241.5l34 174h-2q-61 -89 -109 -128q-99 -81 -248 -81
t-242.5 100.5t-93.5 250t37.5 303.5t102.5 256q127 199 378 199q121 0 204.5 -57t107.5 -147h2q7 37 25 106.5t23 78.5h171l-49 -224l-161 -827q-48 -242 -172 -349t-342 -107z" />
    <glyph glyph-name="uni0262" unicode="&#x262;" horiz-adv-x="1127" 
d="M539.5 -20q-230.5 0 -352 119t-121.5 324q0 127 35.5 254t111.5 225q155 200 421 200q164 0 270.5 -81t132.5 -229l-168 -27q-57 196 -244 196q-114 0 -198 -69.5t-129.5 -199t-45.5 -276t73 -222.5t213.5 -76t242.5 59l43 227h-271l27 137h446l-82 -428
q-174 -133 -404.5 -133z" />
    <glyph glyph-name="uni0263" unicode="&#x263;" horiz-adv-x="1026" 
d="M297 -201q0 -79 72 -79q36 0 61 37t25 105.5t-37 174.5q-91 -126 -106 -169t-15 -69zM611 -156q0 -116 -66.5 -192.5t-176.5 -76.5t-169 59t-59 165t114 251l83 107l-227 925h185l174 -757l460 757h201l-585 -931q66 -191 66 -307z" />
    <glyph glyph-name="uni0264" unicode="&#x264;" horiz-adv-x="1263" 
d="M1053 931q-35 0 -64.5 -26t-63.5 -80l-195 -309q54 -132 67 -183.5t13 -94.5q0 -115 -69 -188.5t-176 -73.5t-166 56.5t-59 160t114 241.5l84 102l-76 289q-14 54 -30.5 80t-55.5 26q-73 0 -175 -129l-100 99q141 188 292 188q97 0 146 -47.5t78 -164.5l47 -199l47 98
l67 113q62 105 127 152.5t148 47.5q162 0 243 -188l-116 -87q-57 117 -127 117zM569.5 121q34.5 0 58.5 30.5t24 85.5t-40 172l-41 -54q-73 -92 -73 -158q0 -35 18.5 -55.5t53 -20.5z" />
    <glyph glyph-name="uni0265" unicode="&#x265;" horiz-adv-x="1139" 
d="M271 287q0 -167 179 -167q126 0 222 96t128 260l118 606h180l-293 -1507h-180l85 433q11 56 42 177h-4q-83 -115 -166.5 -159.5t-215 -44.5t-206 73t-74.5 211q0 64 21 164l127 653h181l-126 -645q-18 -88 -18 -150z" />
    <glyph glyph-name="uni0266" unicode="&#x266;" horiz-adv-x="1139" 
d="M764.5 1101q131.5 0 206 -73t74.5 -211q0 -64 -21 -164l-127 -653h-181l126 645q18 88 18 150q0 167 -179 167q-126 0 -222 -96t-128 -260l-118 -606h-179l237 1221q25 132 104 204.5t200 72.5q70 0 125 -21l-29 -151q-47 20 -79 20q-63 0 -99.5 -46.5t-61 -177
t-51.5 -225.5h3q83 115 166.5 159.5t215 44.5z" />
    <glyph glyph-name="uni0267" unicode="&#x267;" horiz-adv-x="1139" 
d="M860 795q0 167 -179 167q-126 0 -222 -96t-128 -260l-118 -606h-179l237 1221q25 132 104 204.5t200 72.5q70 0 125 -21l-29 -151q-47 20 -79 20q-63 0 -99.5 -46.5t-61 -177t-51.5 -225.5h3q83 115 166.5 159.5t215 44.5t206 -73t74.5 -211q0 -64 -21 -164l-153 -786
q-30 -155 -100.5 -223.5t-188.5 -68.5q-56 0 -129 14l23 136q52 -8 97 -8q88 0 122 176l147 752q18 88 18 150z" />
    <glyph glyph-name="uni0268" unicode="&#x268;" horiz-adv-x="455" 
d="M287 1312l34 172h180l-34 -172h-180zM40 617h113l90 465h180l-91 -465h115l-26 -133h-115l-94 -484h-179l94 484h-113z" />
    <glyph glyph-name="uni0269" unicode="&#x269;" horiz-adv-x="455" 
d="M244 217q0 -75 90 -75q34 0 80 11l-32 -160q-48 -10 -97 -10q-104 0 -164.5 51t-60.5 159q0 43 12 101l153 788h180l-153 -789q-8 -40 -8 -76z" />
    <glyph glyph-name="uni026A" unicode="&#x26a;" horiz-adv-x="729" 
d="M372 140h207l-27 -140h-594l27 140h206l156 803h-206l27 139h594l-27 -139h-207z" />
    <glyph glyph-name="uni026B" unicode="&#x26b;" horiz-adv-x="455" 
d="M406 612q-46 0 -73 9l-121 -621h-179l138 712q-32 19 -63 19q-100 0 -142 -119h-90q47 152 107.5 210t143.5 58q39 0 73 -15l121 619h180l-139 -713q23 -10 46 -10q101 0 141 119h92q-35 -109 -67 -159.5t-77 -79.5t-91 -29z" />
    <glyph glyph-name="uni026C" unicode="&#x26c;" horiz-adv-x="455" 
d="M76 824q0 -94 96 -94h3l42 216h-5q-59 0 -97.5 -35t-38.5 -87zM-48 820.5q0 101.5 74.5 171t199.5 69.5h13l82 423h180l-147 -754h168l-25 -129h-168l-117 -601h-179l117 601q-91 8 -144.5 63t-53.5 156.5z" />
    <glyph glyph-name="uni026D" unicode="&#x26d;" horiz-adv-x="455" 
d="M272 -267q56 0 108 13l-30 -158q-69 -13 -153 -13t-142.5 59t-58.5 164q0 40 9 88l311 1598h180l-314 -1608l-5 -50q0 -93 95 -93z" />
    <glyph glyph-name="uni026E" unicode="&#x26e;" horiz-adv-x="1154" 
d="M1025 149q0 -160 -76.5 -293.5t-209.5 -207t-302 -73.5q-383 0 -416 302l176 21q30 -182 247 -182q111 0 203.5 59.5t145 165t52.5 219t-78.5 182.5t-209.5 69h-82l28 144l460 386h-568l-183 -941h-179l288 1484h180l-78 -402h755l-34 -178l-443 -364q150 -21 237 -126
t87 -265z" />
    <glyph glyph-name="uni026F" unicode="&#x26f;" horiz-adv-x="1706" 
d="M263 274q0 -154 162 -154q114 0 199 95.5t117 259.5l118 607h178l-124 -634l-17 -95q-8 -46 -8 -79q0 -154 162 -154q113 0 198 95.5t118 262.5l118 604h179l-166 -851q-20 -95 -39 -231h-170q10 95 28 185h-3q-73 -114 -146.5 -159t-185 -45t-182.5 59.5t-85 172.5
q-83 -130 -163.5 -181t-200 -51t-192 73t-72.5 211q0 64 21 164l127 653h178l-124 -634l-17 -95q-8 -46 -8 -79z" />
    <glyph glyph-name="uni0270" unicode="&#x270;" horiz-adv-x="1706" 
d="M888 274q0 -154 162 -154q113 0 198 95.5t118 262.5l118 604h179l-293 -1507h-180l82 424l44 186h-3q-73 -114 -146.5 -159t-185 -45t-182.5 59.5t-85 172.5q-83 -130 -163.5 -181t-200 -51t-192 73t-72.5 211q0 64 21 164l127 653h178l-124 -634l-17 -95q-8 -46 -8 -79
q0 -154 162 -154q114 0 199 95.5t117 259.5l118 607h178l-124 -634l-17 -95q-8 -46 -8 -79z" />
    <glyph glyph-name="uni0271" unicode="&#x271;" horiz-adv-x="1706" 
d="M1434 808q0 154 -162 154q-114 0 -199 -95.5t-117 -259.5l-118 -607h-178l124 634q25 119 25 174q0 154 -162 154q-113 0 -198 -95.5t-118 -262.5l-118 -604h-179l166 851q20 95 39 231h170q0 -21 -28 -185h3q73 114 146.5 159t185 45t182.5 -59.5t85 -172.5
q80 127 161 179.5t201.5 52.5t193 -73t72.5 -211q0 -51 -22 -167l-150 -783q-30 -157 -100.5 -224.5t-187.5 -67.5q-56 0 -129 14l23 136q52 -8 97 -8q88 0 122 176l145 741q25 138 25 174z" />
    <glyph glyph-name="uni0272" unicode="&#x272;" horiz-adv-x="1139" 
d="M409 1082q0 -21 -28 -185h3q83 115 166.5 159.5t215 44.5t206 -73t74.5 -211q0 -64 -21 -164l-127 -653h-181l126 645q18 88 18 150q0 167 -179 167q-126 0 -222 -96t-128 -260l-144 -740q-30 -156 -100.5 -223.5t-187.5 -67.5q-56 0 -129 14l23 136q52 -8 97 -8
q88 0 122 176l187 958q20 95 39 231h170z" />
    <glyph glyph-name="uni0273" unicode="&#x273;" horiz-adv-x="1139" 
d="M409 1082q0 -21 -28 -185h3q83 115 166.5 159.5t215 44.5t206 -73t74.5 -211q0 -64 -21 -164l-151 -777q-5 -28 -5 -50q0 -93 92 -93q56 0 108 13l-30 -158q-69 -13 -153 -13t-142.5 59t-58.5 164q0 40 9 88l149 759q18 88 18 150q0 167 -179 167q-126 0 -222 -96
t-128 -260l-118 -606h-180l166 851q20 95 39 231h170z" />
    <glyph glyph-name="uni0274" unicode="&#x274;" horiz-adv-x="1193" 
d="M438 1082l329 -688q31 -62 45 -104l20 127l130 665h170l-210 -1082h-152l-336 702q-42 92 -53 129l-18 -127l-136 -704h-169l210 1082h170z" />
    <glyph glyph-name="uni0275" unicode="&#x275;" horiz-adv-x="1139" 
d="M640 969q-149 0 -234 -85t-127 -259h607l2 58q0 286 -248 286zM493.5 113q113.5 0 178.5 38q136 79 194 343h-610l-4 -78q0 -148 64 -225.5t177.5 -77.5zM1074 683q0 -131 -40 -271q-123 -432 -543 -432q-196 0 -310 117t-114 313q0 194 68 358q138 332 507 333
q210 0 321 -109.5t111 -308.5z" />
    <glyph glyph-name="uni0276" unicode="&#x276;" horiz-adv-x="1568" 
d="M877 690.5q0 131.5 -63.5 205t-186.5 73.5t-204.5 -69.5t-126.5 -210.5t-45 -281t64 -217.5t191 -77.5t205.5 73.5t122 223t43.5 281zM478.5 -20q-184.5 0 -298.5 117t-114 313q0 194 68 358q138 332 507 333q205 0 300 -144l24 125h658l-26 -137h-487l-63 -320h451
l-25 -130h-451l-70 -362h510l-26 -133h-680l14 70q-107 -90 -291.5 -90z" />
    <glyph glyph-name="uni0277" unicode="&#x277;" horiz-adv-x="1595" 
d="M852 1102q215 0 358 -65.5t221 -188.5t78 -290t-57 -299.5t-163.5 -205.5t-240.5 -73q-270 0 -305 247q-100 -247 -351 -247q-154 0 -242.5 97.5t-88.5 295t100.5 369.5t288 266t402.5 94zM239 345q-1 -233 189 -233q208 0 279 381l18 96h171l-18 -96q-17 -91 -17 -162
q0 -219 178 -219q128 0 210 124t82 317q0 120 -55.5 214t-159 146t-269.5 52t-306 -73t-221 -220.5t-81 -326.5z" />
    <glyph glyph-name="uni0278" unicode="&#x278;" horiz-adv-x="1139" 
d="M251 420q0 -240 151 -293l164 838q-199 -33 -276 -295q-39 -132 -39 -250zM887 683q0 227 -159 276l-164 -845q108 14 175.5 91t107.5 217.5t40 260.5zM66 419.5q0 175.5 64 336.5q127 323 462 343l75 385h164l-77 -393q158 -28 238.5 -132.5t80.5 -276.5
q-1 -172 -63 -339q-126 -339 -472 -361l-79 -407h-164l81 417q-143 30 -226.5 141t-83.5 286.5z" />
    <glyph glyph-name="uni0279" unicode="&#x279;" horiz-adv-x="682" 
d="M60 131q60 1 120 51q126 105 171 336l110 564h180l-162 -830l-43 -252h-170l35 221h-4q-66 -133 -130 -187t-148 -54q-46 0 -95 14l33 150q44 -13 103 -13z" />
    <glyph glyph-name="uni027A" unicode="&#x27a;" horiz-adv-x="682" 
d="M60 131q60 1 120 51q126 105 171 336l188 966h180l-240 -1232l-43 -252h-170l35 221h-4q-66 -133 -130 -187t-148 -54q-46 0 -95 14l33 150q44 -13 103 -13z" />
    <glyph glyph-name="uni027B" unicode="&#x27b;" horiz-adv-x="682" 
d="M60 131q60 1 120 51q126 105 171 336l110 564h180l-235 -1206q-5 -28 -5 -50q0 -93 95 -93q56 0 108 13l-30 -158q-69 -13 -153 -13t-142.5 59t-58.5 164q0 40 9 88l67 330h-2q-67 -131 -129 -183.5t-146 -52.5q-46 0 -95 14l33 150q44 -13 103 -13z" />
    <glyph glyph-name="uni027C" unicode="&#x27c;" horiz-adv-x="682" 
d="M615 951q-59 0 -119.5 -50.5t-105 -138t-66 -195t-192.5 -992.5h-180l244 1255l25 138l18 114h170l-35 -221h4q66 133 130 187t148 54q39 0 95 -14l-33 -150q-44 13 -103 13z" />
    <glyph glyph-name="uni027D" unicode="&#x27d;" horiz-adv-x="682" 
d="M615 951q-59 -1 -119 -51q-126 -105 -172 -336l-134 -688q-5 -28 -5 -50q0 -93 92 -93q56 0 108 13l-30 -158q-69 -13 -151.5 -13t-142 57.5t-59.5 165.5q0 40 9 88l185 944l25 138l18 114h170l-35 -221h4q66 133 130 187t148 54q39 0 95 -14l-33 -150q-44 13 -103 13z
" />
    <glyph glyph-name="uni027E" unicode="&#x27e;" horiz-adv-x="682" 
d="M628 1102q70 0 114 -11l-32 -165q-44 11 -94 11q-122 0 -192 -71.5t-102 -236.5l-122 -629h-176l133 686q80 416 471 416z" />
    <glyph glyph-name="uni027F" unicode="&#x27f;" horiz-adv-x="682" 
d="M395 770q0 75 -42.5 121t-121 46t-116.5 -10l32 165q42 10 98 10q159 0 246 -84.5t87 -246.5q0 -64 -15 -142l-205 -1054h-180l199 1025q18 95 18 170z" />
    <glyph glyph-name="uni0280" unicode="&#x280;" horiz-adv-x="1094" 
d="M600 575q121 0 189.5 58.5t68.5 164.5q0 147 -201 147h-259l-72 -370h274zM695 1082q162 0 258.5 -73t96.5 -212t-92 -230.5t-261 -116.5l267 -450h-209l-245 439h-211l-85 -439h-180l210 1082h451z" />
    <glyph glyph-name="uni0281" unicode="&#x281;" horiz-adv-x="1094" 
d="M511 137q125 0 193 59t68 164q0 147 -197 147h-263l-71 -370h270zM961 364q0 -171 -123.5 -267.5t-341.5 -96.5h-462l210 1082h180l-85 -439h202l415 439h218l-442 -456q110 -22 169.5 -90t59.5 -172z" />
    <glyph glyph-name="uni0282" unicode="&#x282;" horiz-adv-x="1024" 
d="M451 -20q-208 0 -312 69l-31 -169q-7 -35 -7 -61q0 -82 102 -82q59 0 101 12l-32 -162q-55 -12 -105 -12q-115 0 -176.5 54.5t-61.5 156.5q0 38 9 85l67 352l147 56q33 -88 102.5 -128t199.5 -40t204 48.5t74 134.5q0 84 -88 134q-44 24 -175.5 67.5t-195.5 83.5
q-132 82 -132 222.5t116 219t327 78.5q354 0 398 -255l-163 -25q-22 79 -83 114t-174.5 35t-180 -39.5t-66.5 -113.5q-1 -75 81 -121q40 -22 175 -64.5t199 -83.5q136 -87 136.5 -239t-123.5 -239.5t-332 -87.5z" />
    <glyph glyph-name="uni0283" unicode="&#x283;" horiz-adv-x="595" 
d="M-118 -425q-80 0 -144 22l31 157q57 -24 119 -24q133 0 180 233l225 1156q37 187 128 276t241 89q77 0 147 -24l-32 -164q-60 30 -110 30q-151 0 -197 -233l-227 -1163q-36 -184 -121.5 -269.5t-239.5 -85.5z" />
    <glyph glyph-name="uni0284" unicode="&#x284;" horiz-adv-x="625" 
d="M701 1484q77 0 147 -24l-32 -164q-60 30 -110 30q-151 0 -197 -233l-190 -962h173l-26 -131h-172l-27 -145q-29 -156 -105 -218t-214 -62q-74 0 -124 12l26 137l45 -5l46 -3q63 0 96.5 32.5t53.5 131.5l23 120h-191l26 131h190l193 988q37 187 128 276t241 89z" />
    <glyph glyph-name="uni0285" unicode="&#x285;" horiz-adv-x="593" 
d="M330 -425q-245 0 -245 239q0 51 15 130l149 767q12 70 12 104q0 129 -117 129q-66 0 -120 -27l32 167q48 18 152 18t170.5 -68t66.5 -196q0 -61 -15 -136l-145 -739q-15 -75 -15 -126t22 -79q24 -28 80 -28t122 24l-31 -160q-59 -19 -133 -19z" />
    <glyph glyph-name="uni0286" unicode="&#x286;" horiz-adv-x="712" 
d="M-26 -181q0 -100 109 -100q50 0 92 49.5t58 126.5q-49 47 -114 47t-105 -36t-40 -87zM71 -425q-114 0 -182.5 62t-68.5 177.5t81.5 194t217.5 78.5q77 0 146 -29l207 1061q69 365 369 365q77 0 147 -24l-32 -164q-60 30 -121.5 30t-111.5 -55t-74 -178l-224 -1145
q99 -100 179 -268l-136 -78q-49 97 -104 161q-87 -188 -293 -188z" />
    <glyph glyph-name="uni0287" unicode="&#x287;" horiz-adv-x="569" 
d="M356.5 1430q79.5 0 128 -51t48.5 -120.5t-15 -144.5l-143 -742h125l-26 -131h-127l-105 -242h-120l47 242h-200l26 131h200l142 732q12 60 12 95q0 88 -90 88q-42 0 -100 -14l19 133q99 24 178.5 24z" />
    <glyph glyph-name="uni0288" unicode="&#x288;" horiz-adv-x="569" 
d="M190.5 -424q-79.5 0 -128 51t-48.5 120.5t15 144.5l205 1059h-125l26 131h127l105 242h120l-47 -242h200l-26 -131h-200l-204 -1049q-12 -60 -12 -95q0 -88 90 -88q42 0 100 14l-19 -133q-99 -24 -178.5 -24z" />
    <glyph glyph-name="uni0289" unicode="&#x289;" horiz-adv-x="1139" 
d="M450 120q129 0 223.5 97.5t128.5 266.5h-504q-27 -141 -27 -197q0 -167 179 -167zM86 265q0 55 32 219h-108l26 133h107l91 465h181l-91 -465h503l91 465h180l-91 -465h108l-26 -133h-108l-49 -253q-20 -95 -39 -231h-170q0 21 28 185h-3q-83 -115 -166.5 -159.5
t-215 -44.5t-206 73t-74.5 211z" />
    <glyph glyph-name="uni028A" unicode="&#x28a;" horiz-adv-x="1153" 
d="M500 -20q-207 0 -328.5 103.5t-121.5 278.5t132 331q34 40 83 96t49 96q0 58 -73 58h-82l27 139h114q74 0 124.5 -47.5t50.5 -118t-28.5 -131t-86.5 -129.5q-118 -139 -118 -268.5t72.5 -197t185.5 -67.5t198 54t132.5 146.5t47.5 174t-32 180.5t-32 158
q0 115 65.5 180.5t179.5 65.5h121l-27 -139h-82q-52 0 -77 -29t-25 -64.5t14.5 -69.5t31.5 -74q46 -108 46 -202q0 -239 -152.5 -381.5t-408.5 -142.5z" />
    <glyph glyph-name="uni028B" unicode="&#x28b;" horiz-adv-x="1126" 
d="M281 332q0 -213 205 -213q181 0 277 177.5t96 498.5q0 139 -34 287h188q33 -127 33 -283q0 -242 -72 -432.5t-201.5 -288.5t-302 -98t-269.5 93t-97 266q0 68 16 152l115 591h181l-121 -621q-14 -73 -14 -129z" />
    <glyph glyph-name="uni028C" unicode="&#x28c;" horiz-adv-x="1024" 
d="M523 1082h213l182 -1082h-186l-102 704q-9 68 -18 185l-5 52l-119 -235l-384 -706h-196z" />
    <glyph glyph-name="uni028D" unicode="&#x28d;" horiz-adv-x="1479" 
d="M426 1082h208l38 -698l2 -59l3 -177l101 240l314 694h208l92 -1082h-176l-42 728l-7 205l-57 -136l-365 -797h-192l-45 743q-6 108 -6 190l-421 -933h-176z" />
    <glyph glyph-name="uni028E" unicode="&#x28e;" horiz-adv-x="1024" 
d="M1019 1507q73 0 122 -11l-26 -135q-36 6 -83 6q-168 0 -314 -252l-25 -43l209 -1072h-178l-105 598q-23 117 -40 288l-138 -267l-337 -619h-196l616 1085q136 239 249.5 330.5t245.5 91.5z" />
    <glyph glyph-name="uni028F" unicode="&#x28f;" horiz-adv-x="1054" 
d="M323 0l85 440l-284 642h194l206 -494l403 494h207l-546 -645l-85 -437h-180z" />
    <glyph glyph-name="uni0290" unicode="&#x290;" horiz-adv-x="1024" 
d="M826 -192q0 -71 77 -71q53 0 93 11l-32 -161q-69 -12 -117 -12q-94 0 -147.5 54t-53.5 154q0 40 12 102l22 115h-724l27 137l797 806h-601l27 139h824l-27 -137l-799 -806h679l-49 -254q-8 -43 -8 -77z" />
    <glyph glyph-name="uni0291" unicode="&#x291;" horiz-adv-x="1121" 
d="M866 251q0 71 -91.5 71t-247.5 -183h156q183 0 183 112zM801.5 467q99.5 0 160 -55.5t60.5 -147.5q0 -134 -82.5 -199t-258.5 -65h-253q-66 -92 -117 -178l-127 61l78 117h-306l27 137l797 806h-601l27 139h824l-27 -137l-799 -806h155q151 191 247 259.5t195.5 68.5z
" />
    <glyph glyph-name="uni0292" unicode="&#x292;" horiz-adv-x="1024" 
d="M876 150.5q0 -155.5 -69 -291t-198 -210t-307.5 -74.5t-284 76t-121.5 226l172 21q30 -182 248 -182q112 0 198.5 58.5t134 164.5t47.5 218.5t-78 183t-210 70.5h-82l28 144l460 386h-636l27 141h824l-34 -178l-443 -364q149 -21 236.5 -127.5t87.5 -262z" />
    <glyph glyph-name="uni0293" unicode="&#x293;" horiz-adv-x="1024" 
d="M269 -295q179 0 289 97q-149 149 -319 149q-83 0 -131.5 -33t-48.5 -89t61 -90t149 -34zM876 123q0 -179 -105 -319q50 -60 99 -128l-134 -102l-82 115q-158 -114 -386 -114q-228 -1 -327 123q-46 58 -46 128q0 121 93 191t259 70q214 0 402 -159q47 106 47 222
t-74.5 188.5t-213.5 72.5h-82l28 144l460 386h-636l27 141h824l-34 -178l-443 -364q153 -22 238.5 -130t85.5 -287z" />
    <glyph glyph-name="uni0294" unicode="&#x294;" horiz-adv-x="1024" 
d="M622 1343q-201 0 -271 -196l-169 31q114 306 443 306q194 0 296.5 -108t102.5 -299t-59.5 -349t-177 -245.5t-283.5 -97.5l-74 -385h-180l106 542q42 -18 103 -18q296 0 366 414q12 69 12 128q0 135 -56.5 206t-158.5 71z" />
    <glyph glyph-name="uni0295" unicode="&#x295;" horiz-adv-x="1024" 
d="M142 778q0 121 38 264q117 442 531 442q330 0 362 -323l-180 -14q-15 103 -63 149.5t-150 46.5t-179.5 -69.5t-124 -224t-46.5 -277.5t52.5 -185.5t170.5 -62.5q59 0 111 18l-106 -542h-180l76 385q-151 15 -231.5 117t-80.5 276z" />
    <glyph glyph-name="uni0296" unicode="&#x296;" horiz-adv-x="1024" 
d="M958 686q0 -122 -38.5 -266.5t-109.5 -244.5q-138 -195 -424 -195q-324 0 -358 322l181 14q29 -195 185 -195q126 0 205 66.5t125 217t46 273.5q0 255 -222 255q-59 0 -111 -18l111 569h180l-79 -406q150 -15 229.5 -115.5t79.5 -276.5z" />
    <glyph glyph-name="uni0297" unicode="&#x297;" horiz-adv-x="1024" 
d="M161 -22q0 -262 218 -262q106 0 180.5 60.5t110.5 169.5l156 -49q-65 -167 -175.5 -245t-286 -78t-278 104.5t-102.5 298.5q0 81 19 176l76 389q55 284 185.5 422t362.5 138q167 0 264.5 -83.5t110.5 -234.5l-178 -25q-24 202 -205 202q-148 0 -234 -99t-127 -316
l-79 -406q-18 -89 -18 -162z" />
    <glyph glyph-name="uni0298" unicode="&#x298;" horiz-adv-x="1593" 
d="M928.5 1276q-199.5 0 -339 -89t-213.5 -266t-74 -372t106.5 -304.5t306.5 -109.5t338.5 86.5t215 259.5t76.5 373t-108.5 311t-308 111zM957.5 1430q257.5 0 418 -157t160.5 -422q-5 -268 -112 -463.5t-293 -301.5t-422 -106q-284 0 -441 157.5t-157 416t105.5 459
t294.5 309t446.5 108.5zM710 606l43 219h195l-43 -219h-195z" />
    <glyph glyph-name="uni0299" unicode="&#x299;" horiz-adv-x="1048" 
d="M809 817q-1 141 -201 141q-216 0 -272 -292l-8 -41h197q284 0 284 192zM468 113q291 0 291 208q0 80 -62 127t-195 47h-199l-71 -362q120 -20 236 -20zM1001 846q0 -114 -71.5 -185.5t-202.5 -93.5l-1 -7q102 -16 163 -78.5t61 -155.5q0 -168 -127.5 -257t-356.5 -89
t-434 41l116 618q88 453 470 453q192 0 287.5 -66t95.5 -180z" />
    <glyph glyph-name="uni029A" unicode="&#x29a;" horiz-adv-x="1042" 
d="M377 -19q-159 0 -260 77t-101 204.5t78 209.5t226 106q-176 55 -176 202.5t115.5 234.5t309.5 87t302 -111.5t108 -304.5q0 -129 -39.5 -271.5t-114 -240.5t-182 -145.5t-266.5 -47.5zM794 685q0 139 -60.5 211.5t-172 72.5t-174.5 -53t-63 -131t48 -119.5t126 -41.5h90
l-27 -141h-92q-132 0 -202 -56t-70 -143q0 -171 202 -171q106 0 175 40t118 123t75.5 203.5t26.5 205.5z" />
    <glyph glyph-name="uni029B" unicode="&#x29b;" horiz-adv-x="1127" 
d="M539.5 -20q-230.5 0 -352 119t-121.5 324q0 127 35.5 254t111.5 225q155 200 421 200q172 0 283 -98q57 285 298 285q67 0 115 -21l-29 -151q-48 20 -79 20q-63 0 -100 -46.5t-55 -143.5l-29 -155l-168 -27h-1q-57 196 -244 196q-114 0 -198 -69.5t-129.5 -199
t-45.5 -276t73 -222.5t213.5 -76t242.5 59l43 227h-271l27 137h446l-82 -428q-174 -133 -404.5 -133z" />
    <glyph glyph-name="uni029C" unicode="&#x29c;" horiz-adv-x="1127" 
d="M424 1082l-89 -458h483l89 458h180l-210 -1082h-180l95 493h-483l-95 -493h-180l210 1082h180z" />
    <glyph glyph-name="uni029D" unicode="&#x29d;" horiz-adv-x="600" 
d="M434 1312l33 172h180l-33 -172h-180zM-69 -191q0 -92 89 -92q70 0 108 85q18 42 42 153h-43q-94 0 -145 -40t-51 -106zM19 -425q-119 0 -187 63t-68 183t97.5 196.5t266.5 76.5h69l192 988h180l-193 -988h137l-27 -139h-137l-6 -33q-64 -347 -324 -347z" />
    <glyph glyph-name="uni029E" unicode="&#x29e;" horiz-adv-x="1024" 
d="M312 1082l268 -502l168 124l72 378h179l-292 -1507h-182l186 940l-205 -190l-361 -325h-222l530 466l-336 616h195z" />
    <glyph glyph-name="uni029F" unicode="&#x29f;" horiz-adv-x="917" 
d="M734 0h-700l210 1082h177l-181 -933h523z" />
    <glyph glyph-name="uni02A0" unicode="&#x2a0;" horiz-adv-x="1139" 
d="M257 365q1 -247 195 -247q193 0 290 162q49 82 77 204.5t28 233.5t-63.5 180.5t-182 69.5t-190.5 -75.5t-113 -240t-41 -287.5zM588 1101q243 0 310 -198h6l30 168l32 147q60 280 299 280q70 0 125 -21l-29 -151q-48 20 -79 20q-63 0 -99 -46t-56 -147v-2l-305 -1576
h-180l82 425l35 160h-4q-73 -95 -154 -138t-200 -43q-157 0 -244.5 94.5t-87.5 278.5t61.5 374.5t173 282.5t284.5 92z" />
    <glyph glyph-name="uni02A1" unicode="&#x2a1;" horiz-adv-x="1024" 
d="M622 1343q-201 0 -271 -196l-169 31q114 306 443 306q194 0 296.5 -108t102.5 -299t-59.5 -349t-177 -245.5t-283.5 -97.5l-21 -109h334l-24 -123h-334l-29 -153h-180l30 153h-315l24 123h315l52 266q42 -18 103 -18q296 0 366 414q12 69 12 128q0 135 -56.5 206
t-158.5 71z" />
    </font>
</defs>
</svg>
